<?xml version="1.0" encoding="UTF-8"?>
<!DOCTYPE svg PUBLIC "-//W3C//DTD SVG 1.1//EN" "http://www.w3.org/Graphics/SVG/1.1/DTD/svg11.dtd">
<svg version="1.1" id="Layer_1" xmlns="http://www.w3.org/2000/svg" xmlns:xlink="http://www.w3.org/1999/xlink" x="0px" y="0px" viewBox="0 0 1920 1073" enable-background="new 0 0 1920 1073" xml:space="preserve">
<path stroke="#000000" stroke-width="0.0938" d="M398.04,167.1c1.17-1.55,4.55,0.57,2.59,2.01  C399.4,170.62,397.06,168.83,398.04,167.1z"/>
<path d="M399.29,171.09c9.27,0.1,18.84-1.28,27.91,1.1c-0.49,1.51-1.33,2.86-2.03,4.28c9.62,0.43,19.23-0.53,28.8-1.38  c10.15-0.73,20.33,0.46,30.39,1.69c-6.43,0.92-12.97,0.48-19.42,1.22c6.02,1.77,12.41,1.76,18.43,3.59  c-8.77,0.57-17.67-1.19-26.34,0.9c-10.39,2.63-20.91,5.16-31.66,5.54c-0.03-1.35-0.04-2.69-0.05-4.03  c-8.5,1.38-16.94,2.98-25.33,4.9c0.52,9.32,0.2,18.75,1.28,28c8.65,20.08,17.69,40.01,26.34,60.1c-1.55-0.04-3.09-0.08-4.63-0.11  c0.05,25.44-0.01,50.88,0.03,76.31c1.31-0.03,2.62-0.05,3.94-0.07c0,3.09-0.01,6.18-0.04,9.27c6.07-0.08,12.14-0.06,18.22-0.02  c-0.03-3.08-0.04-6.16-0.03-9.23c5.84,0,11.68-0.01,17.52-0.01c-0.11,19.48,0.06,38.96-0.08,58.44c2.68,0.01,5.37-0.01,8.06-0.01  c-0.04,3.09-0.06,6.17-0.08,9.26c6.8-0.01,13.6-0.03,20.4,0.01c0.01-3.1,0.01-6.19-0.02-9.27c6.28,0.04,12.56-0.01,18.84,0.04  c-0.02-6.53-0.05-13.05,0.01-19.58c-2.68-0.03-5.36-0.04-8.04-0.04c0-7.67,0.06-15.33-0.01-22.99c2.44-0.01,4.89,0,7.34,0  c-0.03,2.31-0.07,4.63-0.1,6.95c0.89,0.02,2.65,0.05,3.54,0.07c0-19.68-0.02-39.37,0.01-59.04c0.17-1.52-0.37-2.72-1.63-3.6  c5-11.61,9.83-23.3,14.85-34.91c0.7599-1.73,1.39-3.56,1.29-5.48c0-8.9,0.58-17.78,0.93-26.67c5.9-0.2,11.85-0.51,17.69,0.56  c-0.33,0.78-1,2.34-1.33,3.13c11.56-0.05,23.17-2.39,34.68-0.35c-2.89,1.25-6.1299,0.69-9.16,1.17c3.74,1.04,7.67,1.19,11.42,2.24  c-5.41,0.34-10.9-0.67-16.25,0.51c-6.72,1.49-13.45,3.6-20.4,3.41c-0.1-0.58-0.32-1.76-0.43-2.35c-5.3,0.88-10.62,1.79-15.82,3.16  c0.27,5.53,0.46,11.07,0.46,16.61c0.76,3.49,2.44,6.67,3.85,9.93c4.42,9.98,8.83,19.96,13.21,29.96c-0.75-0.05-2.24-0.17-2.99-0.23  c0,20.64,0.01,41.29,0,61.93c0.84,0,2.52,0,3.36,0c-0.03-2.34-0.04-4.67-0.0699-7c2.3,0,4.6,0,6.91,0c-0.07,7.66-0.02,15.33-0.02,23  c-2.67,0-5.34,0-8,0c0.02,38.64,0.02,77.28,0,115.91c28.29-8.27,57.51-12.71,86-20.21c-0.96-2.89-1.63-5.93-3.29-8.51  c-2.6-3.74-5.87-6.96-8.44-10.71c-1.87-2.59-0.57-6.35-3.18-8.56c-1.91-1.4,0.29-4.09-1.48-5.48c-1.07-1.5-3.2401-2.49-3.32-4.49  c0.02-5.3-3.5-9.69-4.1-14.86c-0.37-2.54,0.33-5.05,0.82-7.51c3.02,2.04,7.69,2.46,8.88,6.42c0.9,3.35,4.76,3.95,6.7,6.43  c8.66,13.66,15.85,29.11,15.57,45.63c13.98-1.66,27.95-3.19,42-4.2c1.6-2.27,3.19-4.72,5.89-5.82c2.39-0.88,3.1-3.49,4.75-5.17  c2.06-1.08,4.29-1.81,6.3799-2.83c1.17,4.47-0.0699,8.96-2.2,12.93c7.26-0.79,14.64-0.12,21.85-1.19  c14.56-4.61,30.05-5.76,45.22-4.41c20.92,1.91,41.29,7.89,60.66,15.86c5.98,3.17,12.78,3.8,19.31,5.18  c13.48,2.76,27.27,3.2,40.96,4.11c4.63,0.14,8.78,2.42,13.08,3.91c0.6801-3.45,1.03-6.97,2.02-10.35c0.46-0.19,1.37-0.57,1.82-0.76  c-0.34,4.08-0.72,8.16-0.9,12.25c12.03,4.19,23.91,8.8,35.82,13.32c0.35-5.17,0.35-10.4,1.5-15.47c1.34,5.43,1.07,11.09,1.59,16.63  c12.62,4.87,25.19,9.84,37.64,15.14c-0.48-4.14-1-8.29-1.1201-12.45c0.46,0.38,1.3701,1.13,1.82,1.51c1.55,4.1,1.93,8.57,3.61,12.62  c1.43,0.88,3.0099,1.52,4.56,2.23c0.67-0.8199,1.37-1.62,2.09-2.41c0.12,0.86,0.38,2.58,0.5,3.44c6.27,2.93,12.62,5.74,18.7,9.07  c4.66,2.55,9.49,5.18,12.81,9.46c5.3,0.32,10.6201,0.4301,15.91,0.96c-1.6599-15.41-3.25-30.91-6.28-46.12  c-3.21-3.54-4.4099-8.1-5.4199-12.65c-1.59-6.71-9.73-10.56-8.96-17.95c-1.49-1.93-2.83-4.03-1.98-6.55  c-1.31-1.61-3.53-2.94-3.24-5.29c-0.15-4.21-2.59-7.91-2.86-12.1c-0.22-2.26,0.47-4.47,0.98-6.64c2.02,1.29,4.2599,2.27,6.15,3.77  c1.21,1.79,1.65,4.21,3.66,5.38c3.93,2.36,5.24,6.98,7.27,10.81c5.39,11.02,8.6899,23.47,6.7999,35.78c-1,4.35,0.35,8.68,0.9,12.99  c1.98,12.29,3.01,24.72,4.83,37.03c1.9401-10.02,4.01-20.02,5.63-30.11c-1.84-3.3799-1.6599-7.21-1.11-10.89  c0.9-5.97-4.02-11.14-2.87-17.09c0.41-2.45-0.58-5,0.7101-7.3c-0.5601-1.25-1.1101-2.47-1.65-3.7c1.35-3.56,0.9-7.39,1.22-11.09  c0.1899-2.48,1.7-4.55,2.89-6.65c1.33,1.54,2.84,2.96,4,4.67c0.64,2.02,0.54,4.31,1.91,6.06c2.0399,2.61,2.0399,6.01,2.5599,9.13  c1.48,10.91,1.02,22.5-4.0499,32.49c-2.38,4.06-2.55,8.83-3.4701,13.33c-1.38,7.8-3.1899,15.51-4.6599,23.29  c2.4199-0.23,4.8099-0.7599,7.1-1.61c1.9199-5.64,2.85-11.69,5.7899-16.94c-0.38,5.16-1.36,10.27-1.75,15.44  c4.5701-1.56,9.38-2.08,14.1101-2.88c1.1699-7.93,0.6399-16.16,2.86-23.9c1.1599,7.8,1.37,15.71,1.8199,23.58  c5.6801,0.02,11.37,0.1201,17.03,0.71c-0.0701-1.05-0.22-3.16-0.3-4.21c1.98,0.64,2.26,2.76,2.9301,4.45  c9.75,1.21,19.39,3.21,28.95,5.5c2.79-19.05,5.36-38.19,9.39-57.01c1.26,4.11,0.22,8.43,0.2001,12.63  c-0.63,15.53-1.05,31.07-1.5,46.61c4.08,1.06,8.1599,2.19,12.1599,3.56c0.23-0.76,0.67-2.28,0.9-3.04c0.75,1.21,1.42,2.47,2.09,3.75  c8.6801,2.89,17.5,5.32,26.1801,8.23c0-24.89,0.49-49.79,0.1899-74.67c0.2101-0.01,0.65-0.04,0.86-0.06  c2.65,19.31,4.8501,38.7,7.7101,57.98c2.98-11.85,4.9399-23.9901,8.64-35.63c-0.8201,18.75-2.36,37.49-3.41,56.24  c5.09,1.25,10.16,2.6,15.24,3.95c-0.15-23.44-0.87-46.88-0.34-70.31c2.2999,9.71,3.28,19.67,5.35,29.44  c-1.59-19.25-4.09-38.44-7.6-57.43c-4.0901-2.98-4.7101-8.2-5.88-12.73c-1.35-6.39-6.7001-10.67-9.8201-16.14  c-1.6699-2.61-0.13-6.18-2.59-8.45c-1.4299-1.26-0.64-3.08-0.4399-4.66c-1.3401-1.58-2.74-3.09-4.0901-4.64  c0.86-4.13-1.3199-7.92-2.3999-11.78c-1.39-3.84-0.9601-8.01,0.5-11.76c2.24,1.56,4.7899,2.63,7.0299,4.21  c1.4301,1.89,1.5601,4.71,3.74,6.02c1.5,1.21,3.4,2.11,4.3301,3.9c7.51,13.58,13.7899,28.6,12.99,44.43  c-0.0701,4.65-1.59,9.28-0.6,13.92c4.4199,27.24,6.98,54.73,9.4099,82.2c2.5801-5.35,1.55-11.35,1.42-17.05  c-0.55-8.65-0.13-17.34-0.48-25.99c-3.02-9.72-3.39-20.2-0.77-30.06c1.6899-5.73,2.75-12.03,7.2-16.38  c0.75-3.63,3.52-5.88,6.4401-7.86c3.15,5.7,0.49,11.99,0.5699,18.04c-1.85,2.79-1.5399,6.16-2.62,9.22  c0.78,4.49-2.0699,8.14-3.99,11.89c-3.13,5.02-0.6799,11.8-4.87,16.37c-0.15,10.33-0.25,20.67,0.2001,30.99  c4.2799-13.81,8.34-27.7,13.24-41.31c1.72-4.18,1.0599-8.79,1.87-13.15c1.64-10.72,6.89-20.52,13.35-29.1  c2.37-2.99,4.3199-6.72,8.14-8.09c2.3099-0.82,3.1599-3.31,4.86-4.87c2.1-0.96,4.35-1.58,6.5-2.45c0.09,2.21,0.4199,4.49-0.16,6.67  c-1.15,4.61-5.03,8.16-5.3199,13.05c-1.9301,1.65-4.9501,3.09-3.98,6.17c-0.9801,0.9-1.9701,1.8-2.92,2.71  c0.02,5.4-5.22,8.05-8.4301,11.53c-5.2899,4.23-5.0599,12.51-11.25,15.88c-5.5599,14.81-10.1699,29.95-14.63,45.11  c-0.4099,1.5-0.9299,3-0.9299,4.58c0.28,7.21,0.65,14.41,1.2,21.61c6.49,1.62,12.9501,3.34,19.42,5.04  c1.35-14.39,1.89-28.88,4.11-43.16c1.4,3.32,1.9399,6.9,2.62,10.42c2.16,12.02,4.55,24,6.49,36.07c4.08,1.26,8.25,2.19,12.36,3.42  c2.78-14.84,5.0801-29.77,7.87-44.61c1.9401-11.25,4.6901-22.37,5.3301-33.8c0.73-5.35,0.36-10.95,2.2699-16.07  c0.4801,1.79,0.9701,3.58,1.4701,5.37c1.26-3.88,1.89-7.92,2.74-11.89c0.47-1.93,0.38-4.43,2.77-5.05  c-1.0601,10.95-2.63,21.85-3.92,32.78c-1.36,9.21-0.8199,18.55-0.91,27.83c0.2101,16.77,0.51,33.54,1.1901,50.29  c2.61,0.64,5.24,1.3,7.88,1.91c1.24-10.47,2.7999-20.9,4.1499-31.36c0.4-2-0.0399-4.67,2.3501-5.52c0.61,7.9-0.61,15.96,1.22,23.74  c0.98-11.31,1.64-22.66,2.71-33.97c-0.02-1.25,0.5701-2.13,1.77-2.63c1.6901,14.68,1.0601,29.63,3.64,44.19  c6.02-29.69,12.67-59.25,19.8199-88.69c0.2301-1.45,0.99-2.57,2.29-3.35c-1.13,13.56-3.61,26.98-5.05,40.51  c-0.8099,8.63-2.23,17.3-1.2999,25.9901c1.15,13.33,1.83,26.7,3.03,40.03c2.4199,1.01,5.0299,1.5,7.58,2.16  c4.75-31.25,10.61-62.4301,19.62-92.76c-0.1899,32.51-1,65.02-1.4,97.52c1.8201,0.48,3.66,0.95,5.51,1.44  c2.66-43.66,4.91-87.34,7.97-130.96c9.1801,42.3,12.8101,85.58,15.14,128.72c4.29-25.38,7.7201-50.93,11.73-76.37  c1.5801-8.55,0.66-17.26,0.64-25.88c-0.48-13.58-1.96-27.11-2.14-40.68c2.4901,1.35,2.0801,4.34,2.64,6.7  c4.87,28.79,9.16,57.67,12.98,86.61c1.7101-4.34,1.8301-9.06,2.6101-13.61c1.5199-9.74,2.5699-19.55,4.1899-29.28  c0.4301,0,1.28-0.02,1.71-0.03c0.5,11.85-0.1,23.72,0.42,35.56c2.25-7.43,1.63-15.31,2.88-22.91c1.26,0.46,1.86,1.36,1.78,2.7  c1.75,26.37,3.1899,52.78,4.96,79.15c4.38-38.67,9.3101-77.33,11.6801-116.2c-0.2101-13.58-1.5-27.12-1.79-40.7  c0.4399,0.29,1.3099,0.86,1.75,1.15c1.1,5.24,1.4301,10.62,2.41,15.89c0.76-1.71,1.5399-3.43,2.5299-5.03  c1.05,9.48,0.2401,19.06,1.0801,28.55c4.1699,35.64,7.73,71.36,10.1699,107.16c2.8201-11.28,4.6001-22.8,7.3301-34.1  c3.28-12.3,6.47-24.62,9.7899-36.91c1.8501-5.85,2.5901-12.14,5.4801-17.6c0.5599,4.5,0.46,9.05,0.6,13.58  c0.21,29.39,0.52,58.79,0.76,88.18c5.0599-17.24,10.72-34.32,17.3199-51.05c2.24-5.38,2.59-11.32,2.9301-17.07  c0.49,0.66,1,1.33,1.52,2c-0.1901,1.62-0.2201,3.29-0.24,4.94c1.6399-3.8,1.5199-8,2.5199-11.96c0.65-2.08,0.1001-4.2401-0.23-6.3  c-0.8199,4.05-1.39,8.16-1.62,12.29c-0.54-0.72-1.0599-1.44-1.5499-2.16c0.5499-3.6,1-7.21,1.5099-10.82  c1.1001-5.46-1.1499-10.7599-2.0699-16.07c-2.73-12.12-5.65-24.2-9.13-36.12c-0.53-2.34-2.88-3.48-4.0599-5.4  c-1.88-3.07-2.5-6.71-4.2401-9.85c-2.6-4.28-7.22-7.02-9.5-11.48c-0.5399-2.67-1.3799-5.23-3.5499-7.02  c0.12-0.67,0.37-2.01,0.5-2.68c-1.37-1.11-2.71-2.21-4.03-3.34c0.1801-4.12-2.4399-7.51-3.76-11.22  c-1.27-2.88-0.9199-6.05-0.2999-9.03c2.85,1.58,6.7899,1.98,8.1699,5.37c1.35,2.95,5.22,3.23,6.8301,5.97  c5.1499,7.36,9.9199,15.13,12.6799,23.73c2.54,7.09,2.5,14.67,2.67,22.09c3.6,14.77,7.87,29.43,10.48,44.43  c0.52,0.09,1.5599,0.27,2.08,0.36c-0.8999,3.7599-0.59,7.6299,0.76,11.25c4.13-24.79,8.38-49.58,14.04-74.08  c0.97-4.96,3.02-9.84,2.26-14.98c-1.54-18.05,6.66-35.06,16.5699-49.58c1.39-2.04,3.91-2.72,5.76-4.23c1.23-1.54,1.8201-3.51,3.14-5  c2.46-1.41,5.1801-2.31,7.71-3.62c0.28,2.76,0.91,5.57,0.3101,8.34c-0.96,5.21-4.85,9.62-4.41,15.12  c-1.47,1.37-2.97,2.7-4.4299,4.07c1.22,2.9-0.8401,4.95-2.5,7.03c-0.01,8.78-9.86,12.52-12.4,20.27c-1.65,4.96-3,10.31-7.3,13.71  c-2.58,7.74-3.97,15.84-5.85,23.78c-2.16,10.69-4.75,21.32-6.0599,32.15c2.6899-9.44,4.4399-19.16,7.5-28.49  c-1.7201,32.17-5.8201,64.2-7.3401,96.38c3.23,17.43,5.38,35.04,8,52.56c3.01-18.9901,5.85-38,8.8201-57  c0.95-5.44,0.52-10.97,0.64-16.46c0.1899-21.47,0.37-42.94,0.6499-64.41c1.7201,3.58,1.65,7.64,2.4401,11.47  c1.48,8.32,2.37,16.74,4,25.04c3.21-16.45,6.76-32.83,10.22-49.23c0.67-3.11,1.12-6.31,2.51-9.2c-1.59,27.1-4.0601,54.18-5.54,81.27  c4.4501,21.62,8.4701,43.34,12.1001,65.11c4.4399-24.12,9.21-48.19,14.7-72.1c0.89-3.06,0.66-6.8,3.34-9.01  c0.38,10.36-0.78,20.74-0.97,31.1c0.5699,4.34,2.1,8.4901,2.96,12.78c2.26,9.47,3.63,19.16,6.17,28.57  c1.1799-4.02,1.23-8.23,1.4399-12.37c2.2201-37.01,4.5601-74.02,5.64-111.09c0.0901-2.54-0.0699-5.18,1.02-7.54  c2.62,18.09,3.6,36.38,5.13,54.58c1.89,28.13,2.96,56.3101,3.64,84.4901c1-0.53,2.26-0.96,2.27-2.35  c6.7999-28.4,14.96-56.49,24.74-84.02c0.34-1.38,1.3199-2.32,2.7-2.75c-3.36,19.18-8.2799,38.16-9.58,57.65  c2.99-10.36,4.35-21.12,7.33-31.47l1.37,0.2c0.29,8.01-1.39,15.97-0.87,23.97c1.05-2.04,1.03-4.4,1.23-6.63  c0.67-11.44,1.14-22.89,1.9401-34.31c0.9399,0.49,2.12,1,1.96,2.32c1.42,18.83,2.89,37.67,4.1801,56.52  c0.15-0.01,0.45-0.04,0.6-0.05c2.26-20.2599,5.34-40.42,8.05-60.62c1.4099-8.79,2.0299-17.74,4.23-26.38  c1.26,9.42,0.6799,18.98,0.96,28.47c0.37,30.36,0.28,60.72,0.55,91.08c3.12-10.33,5.7799-20.8,9.3199-31  c1.77-6.33,5.01-12.38,4.9501-19.08c0.7599-18.92-0.5801-37.83-1.1901-56.71c0.9301,1.8,1.58,3.73,2.01,5.73  c2.55,11.29,4.96,22.61,7.39,33.93c0.66-7.6,3.8199-15.16,2.0499-22.81c-1.8199-10.51-2.49-21.21-4.1599-31.73  c-4.37-9.43-5.55-20.09-3.8101-30.3c1.12-5.56,1.41-11.7,5.4301-16.09c0.4299-3.72,2.85-6.32,5.7-8.51  c3.91,5.26,1.3301,11.85,2.8,17.73c-0.66,1.26-1.3,2.51-1.92,3.78c1.12,1.93,0.65,3.98-0.22,5.89c1.71,4.5-1.47,8.57-2.8201,12.69  c-1.6399,3.9-0.45,8.2-1.24,12.24c-0.6899,2.33-1.9299,4.58-1.4199,7.1c0.88,9.35,1.76,18.75,3.58,27.97  c2.13-15.32,5.83-30.37,9.1801-45.46c0.1699-5.78-0.55-11.65,0.73-17.37c2-10.76,7.38-20.49,13.35-29.52  c1.27-2.02,3.8-2.64,5.41-4.32c0.83-1.22,1.47-2.58,2.37-3.76c2.0499-1.34,4.39-2.18,6.5699-3.31c0.39,2.27,1.04,4.6,0.53,6.91  c-0.76,4.59-4.25,8.44-3.83,13.25c-1.3101,1.24-2.64,2.43-3.9601,3.64c0.12,0.71,0.37,2.14,0.49,2.86  c-1.0499,1.32-2.6,2.47-2.72,4.28c-0.28,4.84-4.62,7.67-7.3199,11.2c-3.53,3.51-3.9501,8.7-6.11,12.96  c-1.0801,2.11-3.5701,3.3-4.03,5.73c-3.53,13.82-6.34,27.83-8.9401,41.86c-0.5499,3.06-1.5499,6.18-0.75,9.3  c0.98,4.95,1.3201,10.03,2.76,14.88c0.04-1.94,0.0701-3.87,0.2101-5.79c2.1699,0.54,1.85,2.92,2.2799,4.59  c1.65,12.36,3.3401,24.71,5.01,37.07c3.1901-12.71,5.1801-25.74,8.98-38.29c1.88,1.99,1.0601,4.87,1.17,7.34  c-0.75,16.32-1.09,32.66-1.4399,49c0.08,10.14-0.78,20.3-0.05,30.4301c1.7-6.86,1.5699-13.95,2.36-20.92  c0.76-10.5,2.12-20.97,2.08-31.51c0.2401-14.22,0.1801-28.4399,0.5-42.65c0.4801,0.1,1.4401,0.3,1.9301,0.41  c2.8199,17.89,5.67,35.78,8.52,53.67c4.48-17.85,8.84-35.75,14.1-53.4c3.58-9.95,1.7-20.68,1.95-30.99  c0.4301,0.3,1.28,0.91,1.7001,1.21c0.87,3.54,1.13,7.19,1.83,10.78c2.15-6.92,4.7001-13.71,7.01-20.58  c0.73-1.74,0.96-4.12,3.22-4.65c-1.9299,14.49-5.4299,28.76-7.4199,43.23c3.24,21.87,5.09,43.92,7.2,65.93  c5.86-16.99,11.88-33.92,17.78-50.89c0.4-2.2599,3-3.06,3.5599-5.19c2.37-8.97,4.8601-17.97,5.7201-27.23  c0.5299-0.15,1.6-0.46,2.13-0.62c1.7-7.14,3.1399-14.36,5.35-21.37c0.4299,0.54,1.2999,1.62,1.74,2.16  c1.39,0.55,0.5499-1.98,1.04-2.65c0.6599-6.3,1.5399-12.58,2.48-18.84l1.0299,0.01c0.1201,29.55-1.2799,59.08-1.72,88.62  c2.8201,16.91,4.4,34,6.47,51.02c-0.0199,1.31,0.5901,2.23,1.8301,2.78c5.2999-32.41,11.54-64.67,18.74-96.71  c2.21-8.61,3.4-17.5,6.22-25.92l1.21,0.75c-0.09,4.76-1.0499,9.46-1.4099,14.21c-2,18.29-3.24,36.66-4.75,55.01  c-0.9,7.94,0.26,15.9,0.47,23.86c1.02,16.06,1.6899,32.15,2.64,48.22c9.0699-56.41,7.4399-113.78,7.98-170.73  c0.4301,0.41,1.3,1.23,1.73,1.63c3.3301,29.74,6.0701,59.58,8.05,89.42c0.5399-1.05,1-2.18,1.0399-3.37  c0.4501-6.22,0.3201-12.47,1.13-18.65l1.2001,0.05c1.33,2.15,0.61,5.12,1.03,7.6c1.97,25.64,3.1799,51.36,5.45,76.96  c1.35-23.93,0.9399-47.92,0.04-71.85c1.13,0.58,1.85,1.47,2.1599,2.66c5.3,23.42,9.91,47.02,13.62,70.75  c3.0801-12.16,5.87-24.41,8.62-36.66c2.0601-20.08,0.5601-40.33,1.3101-60.46c2.63,10.34,4.28,20.91,6.23,31.4  c6.99-19.57,14.04-39.13,22.03-58.31c1.34-5.89,1.29-12.02,2-18c0.4399,0.22,1.3199,0.67,1.76,0.9  c1.8199,21.14,2.4299,42.4,4.28,63.55c0.61-25.5-1.0601-51.04-0.2301-76.53c2.7201,12.31,3.7201,24.97,5.64,37.43  c4.0901,26.51,5.65,53.31,7.67,80.03c0.85,10,0.41,20.1,1.84,30.0601c1.6901-37.33,1.9501-74.91-3.25-111.9901  c0.39-0.23,1.17-0.7,1.5601-0.93c3.38,13.68,6.1,27.54,9.6699,41.17c0-10.53,0.28-21.08-0.25-31.6c0.4801,1.26,0.9501,2.53,1.5,3.8  c0.26,1.37,0.55,2.76,0.9401,4.14c0.08,0.48,0.24,1.44,0.3199,1.92c1.64,2.46,3.63,4.67,5.04,7.3v514.27  c-1.4301,0.5601-2.62,1.5601-3.36,2.89H2.95c-0.06-1.59-1.78-2.3199-2.95-3V532.1c2.78-0.02,5.56-0.02,8.32,0.32  c2.87-1.08,5.72-2.18,8.59-3.26c0.38-3.77,0.86-7.53,1.24-11.3c0.02-1.32,0.62-2.48,1.43-3.49c0.52,4.61,0.16,9.26,0.24,13.89  c13.08-3.9,26.27-7.47,39.55-10.64c-0.15-3-0.29-6,0.01-8.98c0.84,2.76,1.44,5.59,1.94,8.43c8.99-2.51,18.07-4.74,27.11-7.08  c-1.1-5.7-2.09-11.46-3.68-17.05c-1.3-1.84-3.21-3.25-4.1-5.36c-2.07-4.7-2.38-10.26-5.91-14.25c-3.39-4.74-9-8.71-8.64-15.18  c-1.69-2.05-3.49-4.17-2.22-6.95c-1.65-1.86-4.56-3.31-4.29-6.18c-0.19-4.66-3.26-8.55-3.9-13.13c-0.65-2.83,0.13-5.67,0.68-8.43  c2.4,1.39,5.01,2.38,7.37,3.86c1.13,1.56,1.73,3.46,2.89,5.01c1.61,1.4,3.73,2.18,5.13,3.82c9.34,14.46,16.88,31.24,15.53,48.84  c-1.32,8.33,2.24,16.29,3.13,24.48c2.1-0.56,4.2-1.1,6.3-1.63c1.52-7.45,2.15-15.72,7.29-21.71c0.6-3.5,3.19-5.75,5.83-7.84  c0.82,1.81,1.88,3.6,2.09,5.63c0.33,4.1-1.39,8.19-0.18,12.25c-0.71,1.21-1.43,2.44-2.12,3.67c1.22,2.82-0.98,5.56-0.23,8.44  c2.21,0.05,4.43,0.14,6.65,0.24c1.78-12.55,8.27-23.76,15.68-33.81c1.28-1.83,3.54-2.48,5.26-3.78c1.18-1.21,1.87-2.82,2.99-4.08  c2.07-1.2,4.38-1.93,6.63-2.7c2.35,7.36-4.17,13.03-4.6,20c-1.32,1.07-2.65,2.13-3.98,3.19c0.1,0.68,0.29,2.03,0.39,2.7  c-2.38,1.91-3.24,4.68-3.87,7.54c-2.93,4.18-7.23,7.23-10.09,11.51c12.52,1.09,24.99,2.61,37.4,4.54c0.13-1.99,0.27-3.97,0.5-5.94  c0.77,1.54,1.42,3.12,2.07,4.74l0.48,0.06c0.51-3.81,1.18-7.59,1.74-11.39c0.37-1.94,0.22-4.38,2.49-5.16  c-0.05,6.27-0.91,12.5-1.19,18.76c13.47,2.1,26.82,4.93,40.19,7.58c0.5-2.61,0.95-5.2401,1.43-7.85c0.43-1.93,0.37-4.35,2.59-5.17  c-0.02,4.55-0.54,9.07-1.08,13.57c8.24,1.64,16.43,3.52,24.72,4.88c0.15-1.03,0.46-3.1,0.62-4.14c0.3,1.5,0.54,3,0.8,4.53  c3.58,0.76,7.17,1.41,10.76,2.08c-0.08-46.06-0.04-92.12-0.02-138.18c-2.66,0-5.33,0-7.99,0c0.03-7.67,0.03-15.33,0-22.99  c2.43,0,4.85-0.01,7.28-0.01c-0.03,2.32-0.05,4.65-0.06,6.98c1.19-0.01,2.38-0.02,3.57-0.03c-0.05-20.52-0.11-41.05,0.03-61.57  c-0.5-0.08-1.5-0.22-2-0.29c4.65-10.87,9.2-21.78,13.84-32.65c1.14-2.71,2.63-5.41,2.58-8.44c0.22-6,0.26-12.01,0.59-18  c0.05-3.67,0.75-7.51-0.8-10.98c0.4-0.16,1.21-0.47,1.61-0.63c0.17,1.06,0.35,2.11,0.54,3.17c5.56-0.45,11.18-0.46,16.7,0.43  c-0.48,1.01-0.96,2.03-1.43,3.04c12.57,0.18,25.29-2.79,37.73,0.26c-3.33,0.31-6.67,0.41-10,0.39l0.13,1.1  c3.02,0.16,6.08,0.37,8.97,1.36c-5.47,0.33-11.03-0.73-16.43,0.63c-6.65,1.61-13.33,3.27-20.21,3.5c-0.04-0.64-0.13-1.92-0.17-2.56  c-5.3,0.93-10.6,1.86-15.83,3.11c0.51,6.01,0.06,12.08,0.65,18.07c5.39,12.88,11.24,25.58,16.79,38.39c-0.75-0.04-2.25-0.11-3-0.15  c-0.09,20.61-0.03,41.22-0.04,61.83c0.86,0.02,2.58,0.05,3.44,0.06c0.01-2.35,0.01-4.71,0.02-7.06c2.28,0.02,4.57,0.05,6.86,0.07  c-0.09,7.65-0.04,15.31-0.04,22.96c-2.68,0-5.37,0.01-8.05,0.05c0.07,6.52,0.05,13.05,0.03,19.57c6.51-0.04,13.03-0.01,19.55-0.03  c-0.04,3.08-0.06,6.16-0.13,9.25c6.76-0.02,13.51-0.01,20.27-0.01c0.02-3.09,0.03-6.17,0.01-9.25c2.65,0.01,5.3,0.03,7.96,0.08  c0.24-19.51-0.02-39.01,0.13-58.52c6.84,0.02,13.69,0.01,20.53,0.03c-0.03,3.07-0.05,6.14-0.07,9.21  c6.13-0.02,12.26-0.05,18.39,0.01c-0.05-3.1-0.06-6.2-0.07-9.3c1.87,0.04,3.74,0.09,5.61,0.13c-0.01-25.4-0.08-50.81,0.04-76.21  c-0.78,0-2.33,0.01-3.11,0.01c8.24-19.62,16.58-39.2,24.87-58.8c0.89-2.01,0.78-4.26,0.9-6.4  C398.5,198.23,399.23,184.67,399.29,171.09 M1665.66,612.98c1.4-10.61,1.02-21.4,1.9399-32.06c-0.5-7.11-2.5399-14.04-3.13-21.16  C1658.84,577.15,1663.92,595.37,1665.66,612.98 M1206.27,575.09c0.97,3.65,0.5499,7.44,1.12,11.15c1.37-5.57-0.05-11.41-0.04-17.07  C1206.39,570.98,1205.54,573.01,1206.27,575.09z"/>
<path stroke="#000000" stroke-width="0.0938" d="M527.13,243.52c1.63-0.46,2.17,0.09,1.64,1.66  C527.09,245.69,526.54,245.14,527.13,243.52z"/>
<path stroke="#000000" stroke-width="0.0938" d="M1483.4,466.96c1.6899-5.9-1.85-12.67,2.47-17.92c2.26,2.41,6.01,4.16,5.33,8.12  c4.25,3.45,4.78,9.02,6,14c1.7201,8.1,2.24,16.59,0.1801,24.69c-0.8199,4.11-3.36,7.78-3.2,12.09c-0.25,9.22-1.9,18.36-2.1101,27.57  c-0.6-0.51-1.1799-1.01-1.73-1.51c0.99-9.62,1.78-19.26,2.3301-28.92c-3.9701-4.6-0.9401-11.12-3.5901-16.22  c-1.21-3.62-4.3099-7.02-3.4299-11.03c0.88-2.5-2.2001-4.74,0.03-7.03C1484.9,469.51,1484.15,468.23,1483.4,466.96z"/>
<path fill="#FFFFFF" stroke="#FFFFFF" stroke-width="0.0938" d="M1665.66,612.98c-1.74-17.61-6.8201-35.83-1.1901-53.22  c0.5901,7.12,2.63,14.05,3.13,21.16C1666.6801,591.58,1667.0601,602.37,1665.66,612.98z"/>
<path fill="#FFFFFF" stroke="#FFFFFF" stroke-width="0.0938" d="M1206.27,575.09c-0.73-2.08,0.12-4.11,1.08-5.92  c-0.01,5.66,1.41,11.5,0.04,17.07C1206.8199,582.53,1207.24,578.74,1206.27,575.09z"/>
<path fill="#FFFFFF" stroke="#FFFFFF" stroke-width="0.0938" d="M0,1070c1.17,0.6801,2.89,1.41,2.95,3H0V1070z"/>
<path fill="#FFFFFF" stroke="#FFFFFF" stroke-width="0.0938" d="M1916.64,1073c0.74-1.33,1.9299-2.33,3.36-2.89v2.89H1916.64z"/>
</svg>