<?xml version="1.0" encoding="UTF-8" standalone="no"?>
<!-- Created with Inkscape (http://www.inkscape.org/) -->

<svg
   xmlns:dc="http://purl.org/dc/elements/1.1/"
   xmlns:cc="http://creativecommons.org/ns#"
   xmlns:rdf="http://www.w3.org/1999/02/22-rdf-syntax-ns#"
   xmlns:svg="http://www.w3.org/2000/svg"
   xmlns="http://www.w3.org/2000/svg"
   xmlns:sodipodi="http://sodipodi.sourceforge.net/DTD/sodipodi-0.dtd"
   xmlns:inkscape="http://www.inkscape.org/namespaces/inkscape"
   width="297mm"
   height="210mm"
   viewBox="0 0 297 210"
   version="1.1"
   id="svg8"
   inkscape:version="0.92.2 2405546, 2018-03-11"
   sodipodi:docname="drawing.svg">
  <defs
     id="defs2">
	
	
	
	

		
		
	
			
			
			
			
		</defs>
  <sodipodi:namedview
     id="base"
     pagecolor="#ffffff"
     bordercolor="#666666"
     borderopacity="1.0"
     inkscape:pageopacity="0.0"
     inkscape:pageshadow="2"
     inkscape:zoom="0.49497475"
     inkscape:cx="787.35568"
     inkscape:cy="270.62003"
     inkscape:document-units="mm"
     inkscape:current-layer="layer1"
     showgrid="false"
     inkscape:snap-perpendicular="true"
     inkscape:measure-start="0,0"
     inkscape:measure-end="0,0"
     inkscape:window-width="1356"
     inkscape:window-height="733"
     inkscape:window-x="5"
     inkscape:window-y="5"
     inkscape:window-maximized="1" />
  <metadata
     id="metadata5">
    <rdf:RDF>
      <cc:Work
         rdf:about="">
        <dc:format>image/svg+xml</dc:format>
        <dc:type
           rdf:resource="http://purl.org/dc/dcmitype/StillImage" />
        <dc:title></dc:title>
        <cc:license
           rdf:resource="http://artlibre.org/licence/lal" />
      </cc:Work>
      <cc:License
         rdf:about="http://artlibre.org/licence/lal">
        <cc:permits
           rdf:resource="http://creativecommons.org/ns#Reproduction" />
        <cc:permits
           rdf:resource="http://creativecommons.org/ns#Distribution" />
        <cc:permits
           rdf:resource="http://creativecommons.org/ns#DerivativeWorks" />
        <cc:requires
           rdf:resource="http://creativecommons.org/ns#ShareAlike" />
        <cc:requires
           rdf:resource="http://creativecommons.org/ns#Notice" />
        <cc:requires
           rdf:resource="http://creativecommons.org/ns#Attribution" />
      </cc:License>
    </rdf:RDF>
  </metadata>
  <g
     inkscape:label="Layer 1"
     inkscape:groupmode="layer"
     id="layer1"
     transform="translate(0,-87)">
    <g
       id="g121"
       transform="matrix(0.26458333,0,0,0.26458333,32.208357,102.8502)">
				
				<g
   id="g119">
					
				</g>

			</g>
    <path
       style="fill:#fb0909;fill-opacity:1;stroke:#f60000;stroke-width:0.14020015;stroke-miterlimit:4;stroke-dasharray:none;stroke-opacity:1"
       d="m 120.8069,98.002782 c -1.93964,0.0557 -3.8035,0.87274 -4.58249,2.639368 -1.09429,2.42971 -0.0374,4.00616 0.25938,8.36478 0.0371,0.46369 -0.0184,0.90904 -0.22243,1.33563 -0.3153,0.64915 -1.18702,0.42637 -1.39104,-0.31552 -0.33385,-1.22413 1.26136,-4.32146 -1.428,-7.25193 -3.70947,-4.043338 -17.749887,-3.412578 -19.734457,11.46238 -0.0186,0.0742 0.0186,0.14838 0.0927,0.18547 0.3524,0.14838 0.18548,-0.55642 1.57652,-2.22567 0.0557,-0.0557 0.0927,-0.13005 0.20395,-0.13005 -0.0371,0.22257 -0.11114,0.51961 -0.12968,0.85346 0,0.11129 -0.0187,0.25952 0.12968,0.31517 0.33385,0.11128 0.24119,-0.72342 1.55805,-1.83626 -0.0186,0.24112 -0.0743,0.40826 -0.0743,0.59373 0.0186,0.16693 0.18554,0.20402 0.25973,0.0927 0.7048,-1.0201 1.48357,-1.6881 2.744787,-1.87357 1.89183,-0.25967 3.46858,-0.16685 4.95238,1.00163 0.67106,0.52096 1.0061,0.89135 1.23311,1.1621 0.0266,0.16519 0.0375,0.32389 0.003,0.46368 0.11075,2.23392 0.24319,4.47399 0.10867,6.70819 -0.29751,1.41555 0.38853,2.78974 0.39558,4.19959 0.0859,2.45412 0.0811,4.91549 0.23546,7.36495 0.3626,0.72974 1.59612,0.64297 2.41913,0.86469 0.53741,0.07 1.69948,0.38789 1.70621,0.42167 0.62571,0.13631 0.62492,-0.40389 1.18166,-0.35538 0.15106,-0.0484 0.22354,-0.10961 0.25032,-0.17641 0.46153,0.19531 1.07796,0.22632 1.56674,0.35392 0.69309,0.27469 1.64463,0.0404 1.49102,-0.48904 0.64671,-0.34068 -0.16392,-0.68769 0.0409,-1.09038 -0.60033,-0.44813 -1.52583,0.0637 -2.26299,0.0601 -0.6251,-0.22483 -0.57541,-1.25231 -0.94801,-1.7696 -0.74399,-1.91178 -1.66875,-3.78 -2.40174,-5.69352 -0.38881,-1.00909 -0.47564,-2.05988 -0.56728,-3.10196 -0.30379,-0.95484 -0.61704,-1.93038 -0.69009,-2.93207 -0.22353,-1.79554 -0.43957,-3.59503 -0.76001,-5.3809 0.71418,-0.8793 1.93018,-1.25331 2.59952,-1.12878 2.80065,0.55642 3.20869,3.11567 6.02788,2.67053 4.65537,-0.72335 -0.1854,-7.32604 1.83626,-10.51618 0.55642,-0.89028 1.63224,-1.18711 2.57815,-0.72343 0.74189,0.37094 1.24274,0.92759 1.92899,1.15016 0.53092,0.16914 1.00429,0.11034 1.3896,-0.0989 0.36278,0.25981 0.80632,0.58284 0.98424,0.74805 0.3153,0.29675 0.24133,0.33371 0.87194,3.09726 0.12983,0.55642 0.22235,1.26106 0.5191,1.52073 0.24112,0.22256 0.37102,-0.11107 0.44522,-0.42637 0.18547,-0.77899 0.33392,-1.55819 0.4452,-2.35573 0.16693,-1.35395 0.38942,-1.92871 -0.0743,-2.65205 -0.44001,-0.65187 -1.53088,-1.86746 -2.22966,-2.5557 -0.10688,-0.42504 -0.32101,-0.843297 -0.66364,-1.209568 -0.53788,-0.57496 -1.16849,-0.98286 -1.94748,-1.14979 -0.62597,-0.14374 -1.28099,-0.20981 -1.92754,-0.19126 z M 108.15561,122.3994 c 0.008,-0.003 0.0165,-0.002 0.0257,0.003 1.25515,2.64062 2.36256,5.31652 3.43271,8.00288 -0.20705,-0.003 -0.40515,0.0132 -0.55715,0.0496 -0.89545,0.01 -1.79107,0.0157 -2.68646,0.029 -0.0422,-2.27351 -0.15929,-4.54517 -0.33617,-6.81469 0.0128,-0.33106 5.7e-4,-1.22567 0.12135,-1.26969 z"
       id="path5025"
       inkscape:connector-curvature="0" />
    <path
       style="fill:#fb0909;fill-opacity:1;stroke:#f60000;stroke-width:0.2;stroke-miterlimit:4;stroke-dasharray:none;stroke-opacity:1"
       inkscape:connector-curvature="0"
       class="st21"
       d="m 46.30018,220.11017 c -0.47625,-0.60854 -1.05833,-1.00541 -1.61396,-1.08479 -1.71979,-0.23812 -2.43416,0.79375 -3.91583,1.08479 0.15875,-0.58208 0.635,-1.21708 0.97896,-1.56104 0.76729,-0.84667 1.50812,-1.71979 1.03187,-3.09562 -0.29104,-0.82021 -1.19062,-1.42875 -1.71979,-1.66688 -0.66146,-0.29104 -3.06916,-1.48167 -2.80458,0.0265 0.18521,1.16417 1.71979,2.96333 1.66687,4.39208 -0.0264,0.34396 -0.0529,1.08479 -0.37041,0.26459 -0.50271,-1.29646 -0.635,-2.64584 -1.95792,-3.81 -1.85208,-1.61396 -4.39208,0 -5.66208,0.74083 -1.19063,0.68792 -2.16959,1.79917 -1.08479,2.09021 0.97895,0.26458 2.16958,0.42333 2.7252,0.58208 1.00542,0.29104 2.91042,1.5875 2.51355,2.40771 -0.60855,1.21707 -2.59292,-0.0529 -3.20146,-0.3175 -1.77271,-0.79375 -3.96875,-2.27542 -5.50334,-1.82563 -0.79375,0.23813 -0.89958,0.92605 -1.24354,1.64042 -0.18521,0.34396 -1.08479,1.26999 0.34396,1.26999 1.87854,0.0265 3.30729,-0.26458 5.97958,0.84667 2.01084,0.82021 -0.79375,1.05833 -2.27541,0.55562 -0.58209,-0.21166 -2.80459,-0.82021 -3.86292,-0.71437 -2.11667,0.23812 -4.7625,1.85208 -4.86833,3.94229 -0.0529,1.48167 0.0794,0.76729 1.66687,2.16958 0.89959,0.79375 6.19125,4.7625 7.24959,1.905 0.635,-1.66687 1.32291,-3.30729 2.75166,-3.67771 0.44979,-0.13229 0.55563,0.1323 0.34396,0.68792 -0.58208,1.5875 -1.82562,3.33375 -3.04271,4.68313 -0.47625,0.5027 0.0265,1.4552 0.84667,1.61395 0.84667,0.15875 1.5875,0.66146 2.27542,0.10584 1.34937,-1.11125 1.19062,-4.15396 2.11666,-6.11188 0.0265,-0.0529 0.58209,-1.19062 0.74084,-1.24354 0.26458,1.21708 -2.40771,6.79979 -0.37042,7.01146 1.13771,0.10583 3.25437,-0.84667 4.81542,-1.48167 1.87854,-0.76729 1.11125,-4.25979 0.76729,-7.46125 -0.0265,-0.29104 0.0265,-0.29104 0.10583,-0.39687 1.53458,1.40229 0.58208,7.22312 1.98438,6.45583 0.39687,-0.21167 2.16958,-2.91042 2.64583,-4.36562 0.44979,-1.50813 1.34937,-3.83646 -0.0529,-5.66208 z"
       id="path161" />
    <path
       style="fill:#fb0909;fill-opacity:1;stroke:#f60000;stroke-width:0.2;stroke-miterlimit:4;stroke-dasharray:none;stroke-opacity:1"
       inkscape:connector-curvature="0"
       class="st21"
       d="m 47.698303,205.12413 c 0.13229,-0.21167 0.29104,-0.23813 1.03187,-0.58208 0.60854,-0.29105 1.05833,-0.42334 1.03188,-1.11125 -0.0265,-1.0848 -1.66688,-3.4925 -3.12209,-2.64584 -0.82021,0.47625 -1.40229,1.16417 -2.27541,1.56104 -0.15875,-0.55562 1.19062,-1.4552 1.53458,-2.0902 0.68792,-1.29646 -2.09021,-2.40771 -3.4925,-2.8575 -1.24354,-0.39688 -1.50813,0.58208 -2.11667,1.95791 -0.89958,1.95792 -1.95791,1.29646 -1.79916,0.74084 0.1852,-0.58209 1.16416,-1.24355 1.56104,-2.11667 0.89958,-2.03729 -6.50875,-2.30188 -11.35063,1.93146 -0.60854,0.52916 -1.13771,0.92604 -1.93146,0.79375 -0.37041,-0.0529 -0.58208,0.3175 -0.60854,0.66146 -0.0794,1.00541 1.53459,-0.0794 2.01084,0.60854 0.635,0.87312 1.69333,3.59833 3.46604,4.33916 0.47625,0.18521 1.32291,0.23813 1.45521,-0.60854 0.0529,-0.37041 -0.0529,-0.71437 -0.1323,-1.29646 -0.10583,-0.71437 0.29105,-1.37583 0.55563,-0.47625 0.34396,1.19063 -0.50271,2.06375 0.18521,2.91042 0.66146,0.84667 2.40771,1.85208 2.93687,1.87854 1.34938,0.0529 0.92604,-2.16958 1.74625,-2.72521 0.10584,-0.0794 0.18521,-0.0529 0.26459,0.0529 0.58208,0.82021 -1.93146,2.56646 0.10583,3.62479 1.40229,0.74084 3.96875,1.50813 5.13292,1.66688 0.47625,0.0529 1.05833,-0.0265 1.40229,-0.21167 1.34937,-0.66146 -0.47625,-2.51354 0.37041,-3.175 0.23813,-0.18521 0.50271,0 0.60855,0.29104 0.5027,1.16417 -0.50271,2.77813 0.76729,3.43959 0.87312,0.44979 1.40229,0.58208 2.67229,1.29645 0.50271,0.29105 0.97896,0.58209 1.29646,-0.0529 0.42333,-0.89959 0.39687,-2.8575 0.3175,-3.83646 -0.34396,-4.07458 -0.3175,-4.20688 -3.46604,-3.96875 0,0 -0.0794,0 -0.15875,0 z"
       id="path163" />
    <path
       inkscape:connector-curvature="0"
       id="path496"
       d="m 83.61911,147.8381 c -0.523894,-0.34197 -0.160684,-0.52312 1.553551,-0.77487 0.833253,-0.12236 1.795202,-0.34412 2.137675,-0.4928 0.610952,-0.26524 0.624673,-0.29031 0.729703,-1.33349 0.05888,-0.58474 0.195681,-3.20709 0.304004,-5.82742 0.151217,-3.6577 0.149756,-5.07794 -0.0067,-6.1148 -0.111777,-0.74281 -0.272826,-1.41001 -0.357884,-1.48269 -0.267869,-0.22885 -0.631353,0.17739 -0.738422,0.82528 -0.05607,0.33944 -0.251568,0.86446 -0.434398,1.16669 -0.18283,0.30224 -0.383547,0.9574 -0.446048,1.4559 -0.208757,1.66518 -0.658575,2.3049 -1.260494,1.79267 -0.584343,-0.49724 -0.374506,-3.32959 0.354442,-4.78419 0.370748,-0.73981 1.097846,-1.36117 1.757754,-1.50211 0.221186,-0.0473 0.440065,-0.16996 0.486386,-0.2727 0.134599,-0.29848 -0.677038,-3.32689 -1.065112,-3.97421 -0.454655,-0.75838 -1.057786,-1.15462 -2.143656,-1.40831 -0.479185,-0.11195 -1.602644,-0.37345 -2.496571,-0.58108 -3.584508,-0.83259 -6.103466,-2.2922 -6.837653,-3.96206 -0.41621,-0.94664 -0.460508,-2.45438 -0.101902,-3.46836 0.333825,-0.94392 1.328949,-2.18418 2.457611,-3.06301 2.689969,-2.09454 3.448894,-2.76824 3.882905,-3.44682 0.540439,-0.845 0.650052,-1.933 0.27282,-2.70801 -0.262544,-0.53937 -0.680168,-0.60227 -1.667664,-0.25115 -0.337815,0.12011 -0.895628,0.21839 -1.239588,0.21839 -0.854785,0 -1.31893,0.31405 -1.444445,0.97735 -0.05738,0.30324 -0.279391,0.84617 -0.493366,1.20651 -0.780185,1.31386 -1.842464,0.58343 -1.843007,-1.26729 l -2.67e-4,-0.90331 1.411467,-1.25957 c 0.776306,-0.69277 1.436637,-1.35215 1.467398,-1.46528 0.075,-0.27577 1.128343,-0.637 1.857538,-0.637 1.113215,0 2.240101,0.42809 2.960716,1.12476 1.016614,0.98282 1.436066,2.02842 1.446969,3.60694 0.01372,1.98371 -0.369484,2.57293 -3.219183,4.95006 -2.611879,2.17877 -3.18769,2.95328 -3.187248,4.28712 3.39e-4,1.04822 0.430193,1.81113 1.055111,1.87262 0.593017,0.0584 1.183516,-0.40275 2.667792,-2.08319 1.905458,-2.1573 3.681712,-2.90759 6.884204,-2.90787 1.952654,-1.8e-4 3.225668,0.26883 5.116964,1.08126 2.622896,1.12672 5.765945,3.89762 6.883228,6.06819 0.20058,0.38967 0.5133,0.88853 0.69492,1.10856 0.44458,0.53859 0.34422,1.13408 -0.23777,1.41081 -0.39819,0.18934 -0.59268,0.1923 -1.454234,0.0222 -0.547001,-0.10799 -1.941656,-0.20428 -3.09923,-0.21398 -2.10109,-0.0176 -2.105477,-0.0169 -2.566298,0.39574 -0.253886,0.22735 -0.682872,0.51168 -0.953304,0.63183 l -0.491704,0.21846 0.833875,0.72477 c 0.458635,0.39862 1.345947,1.0493 1.971814,1.44596 2.293885,1.45378 1.764528,2.11664 -2.02055,2.5301 -1.114225,0.12171 -2.391558,0.29375 -2.838531,0.3823 -0.959728,0.19016 -0.937678,0.0762 -0.488687,2.5265 0.317029,1.73021 0.316533,1.77002 -0.0946,7.5707 -0.227308,3.20725 -0.448233,5.97153 -0.490939,6.14288 -0.107659,0.4319 -0.297553,0.46991 -2.863849,0.57322 -1.888144,0.076 -2.320599,0.0541 -2.605985,-0.13223 z m 7.955531,-18.07559 c 2.349247,-0.33738 2.318471,-0.32642 1.937222,-0.68996 -0.707787,-0.67492 -3.349838,-2.15125 -3.849899,-2.15125 -0.4965,0 -0.814125,1.61015 -0.54419,2.75869 0.08991,0.38255 0.173879,0.45229 0.470492,0.3908 0.198579,-0.0412 1.092443,-0.1799 1.986375,-0.30828 z"
       style="fill:#fb0909;fill-opacity:1;stroke:#f60000;stroke-width:0.13160986;stroke-miterlimit:4;stroke-dasharray:none;stroke-opacity:1" />
    <path
       id="path6328"
       style="fill:#fb0909;fill-opacity:1;stroke:#f60000;stroke-width:0.2;stroke-miterlimit:4;stroke-dasharray:none;stroke-opacity:1"
       d="m 26.707322,289.05219 c 0.138583,-0.22911 -0.131665,-0.80881 -0.600518,-1.28808 -0.827853,-0.84625 -0.834622,-0.99942 -0.234673,-5.31345 0.696857,-5.01132 0.814268,-8.98297 0.265503,-8.98297 -0.202314,0 -0.574728,1.70282 -0.827781,3.78406 -1.043603,8.58406 -1.054374,8.98552 -0.284967,10.64298 0.737516,1.58877 1.220723,1.92117 1.68246,1.15746 z m -4.432585,0.837 c 0,-0.13614 0.22331,-0.47557 0.496173,-0.75455 0.365202,-0.37329 0.375057,-0.77902 0.03731,-1.53672 -0.341042,-0.76514 -0.302729,-1.85079 0.149204,-4.22824 1.043853,-5.49109 1.210051,-10.975 0.386347,-12.74939 -0.664594,-1.43169 -0.66457,-1.60015 3.22e-4,-2.63749 0.596786,-0.93108 0.624626,-1.2717 0.174144,-2.13206 -0.457736,-0.87427 -0.423623,-1.15099 0.233438,-1.89308 0.947118,-1.06982 1.482345,-1.11015 1.490893,-0.11228 0.005,0.64677 0.06619,0.6625 0.416582,0.10816 0.536019,-0.84788 0.562623,-5.50783 0.0284,-4.95173 -0.217136,0.22591 -0.486515,1.18927 -0.598615,2.14072 -0.112154,0.95139 -0.130679,-0.85525 -0.04149,-4.01478 0.186756,-6.6032 0.517961,-7.62196 3.598605,-11.06762 1.91911,-2.14648 2.151659,-2.27153 5.281732,-2.84006 4.365444,-0.79289 7.262572,-2.33893 8.864998,-4.73075 0.69824,-1.04218 2.607862,-3.28017 4.243634,-4.97335 2.714011,-2.80919 3.056289,-3.36835 3.913291,-6.39272 0.516553,-1.82288 0.939187,-3.62222 0.939187,-3.99858 0,-1.92557 3.554932,-10.641 5.337856,-13.08655 0.710616,-0.97469 0.847864,-1.43555 0.474929,-1.59456 -0.701772,-0.29921 0.834451,-1.57541 1.89641,-1.57541 0.428191,0 0.89371,-0.30681 1.03449,-0.6818 0.140796,-0.37501 0.705922,-0.85672 1.255892,-1.07044 0.54998,-0.21366 0.99996,-0.6854 0.99996,-1.04804 0,-0.44438 0.41389,-0.65942 1.26916,-0.65942 0.69807,0 1.24664,0.14603 1.21909,0.32437 -0.14327,0.92796 0.14031,1.35879 0.97696,1.48353 0.62527,0.0932 1.03471,0.566 1.25824,1.45277 0.18231,0.72304 1.01671,2.1331 1.85439,3.13349 3.17257,3.78885 0.46984,4.52322 -6.15479,1.67238 -1.08165,-0.46546 -1.66855,0.30084 -3.455375,4.51162 -1.726135,4.06776 -1.728184,4.07918 -2.094596,11.68891 -0.299566,6.2214 -0.571122,8.32139 -1.481876,11.46032 -1.654152,5.70104 -1.649729,5.62248 -0.422561,7.51809 1.334971,2.06212 1.329115,1.89442 0.204289,5.85157 l -0.904209,3.1811 0.933557,3.80911 c 0.513439,2.09501 1.464954,5.17139 2.11443,6.83639 0.899813,2.30668 1.180236,3.74783 1.178161,6.05451 -0.005,4.7837 0.982835,11.93712 1.868419,13.53924 0.434811,0.78662 0.790551,1.5164 0.790551,1.62173 0,0.30655 -3.63793,0.22076 -3.944882,-0.093 -0.153146,-0.15656 -0.09387,-0.51164 0.131423,-0.78917 0.264242,-0.32545 0.262957,-2.64262 -0.005,-6.52676 -0.478241,-6.96808 -1.03202,-10.12268 -2.126809,-12.11518 -0.429329,-0.78137 -1.209358,-2.26004 -1.733422,-3.28587 l -0.952675,-1.8652 -0.509412,2.16234 c -0.280201,1.18927 -0.527721,3.36714 -0.550051,4.83972 -0.02223,1.47255 -0.230968,2.79765 -0.463666,2.94465 -0.859842,0.54322 -0.199347,10.0852 0.888424,12.83474 0.252015,0.63701 0.726351,1.26339 1.054054,1.39195 1.308244,0.51319 0.481403,1.12582 -1.519423,1.12582 -1.559738,0 -2.115296,-0.16364 -2.115296,-0.62318 0,-0.34276 0.19096,-0.74377 0.424191,-0.89116 0.283559,-0.17907 0.283559,-0.53664 0,-1.07827 -0.233191,-0.44566 -0.428737,-3.20702 -0.434294,-6.13639 -0.005,-2.92937 -0.170705,-6.03192 -0.366758,-6.89461 -0.201077,-0.88424 -0.172676,-4.34042 0.06521,-7.92264 0.286548,-4.31605 0.283091,-6.49599 -0.0099,-6.79637 -0.294749,-0.3013 -1.085202,-0.0696 -2.48072,0.72669 -2.786314,1.59015 -7.778014,1.9723 -9.677139,0.74084 l -1.269187,-0.82298 -1.849895,2.41567 c -1.017419,1.32861 -2.491885,3.84873 -3.276558,5.60025 -2.428945,5.42171 -3.059302,8.15758 -3.37317,14.63994 l -0.289093,5.96999 1.153257,1.40103 1.15326,1.40103 -0.989482,0.0431 c -4.029859,0.17614 -6.700789,0.1541 -6.700789,-0.0555 z"
       inkscape:connector-curvature="0" />
    <path
       style="fill:#fb0909;fill-opacity:1;stroke:#f60000;stroke-width:0.2;stroke-miterlimit:4;stroke-dasharray:none;stroke-opacity:1"
       d="m 180.25806,287.65414 c 0,-0.10713 0.18433,-0.67547 0.40963,-1.26289 0.65931,-1.71903 1.3333,-6.29443 1.35693,-9.2115 0.0195,-2.41493 -0.0252,-2.72565 -0.55448,-3.85015 -0.31665,-0.67275 -1.17964,-1.97308 -1.91772,-2.88962 -0.73809,-0.91652 -1.45391,-1.93569 -1.59073,-2.26482 -0.13681,-0.32913 -0.33864,-0.52903 -0.44852,-0.44422 -0.31458,0.24281 -0.23312,1.60047 0.1179,1.96426 0.17469,0.18107 0.47122,0.99347 0.65897,1.80533 0.18774,0.81187 0.47073,1.7093 0.62888,1.99429 0.55322,0.99701 0.29929,1.84066 -1.98178,6.58408 -3.6407,7.57073 -3.24328,6.95182 -4.46401,6.95182 -1.18606,0 -1.30582,-0.20683 -0.46928,-0.81046 0.31884,-0.23009 1.22537,-1.69129 2.02585,-3.26541 2.86945,-5.6427 3.05601,-6.83862 1.61805,-10.37224 -0.49976,-1.22808 -1.23238,-3.03634 -1.62806,-4.01833 -0.39568,-0.98201 -0.85321,-1.84959 -1.01675,-1.92797 -0.16353,-0.0784 -0.84122,0.11161 -1.50596,0.42229 -1.0447,0.48817 -1.57726,0.55575 -3.92678,0.49832 -3.05669,-0.0747 -2.92227,-0.15055 -3.78545,2.13607 -0.3695,0.97883 -0.44089,1.62555 -0.4151,3.76046 0.0398,3.29571 0.43212,9.10156 0.73554,10.8852 0.31239,1.83635 0.0283,2.69207 -0.89376,2.69207 -0.51801,0 -0.62869,-0.0931 -0.54605,-0.45971 0.31511,-1.39777 0.33988,-2.3133 0.12313,-4.55169 -0.2739,-2.82854 -0.70756,-4.44012 -1.07224,-3.98466 -0.3173,0.39628 -0.6566,5.10327 -0.49967,6.93161 0.14273,1.66288 -0.15639,2.32714 -1.04796,2.32714 -0.72436,0 -0.81561,-0.40804 -0.28987,-1.29617 0.45693,-0.77187 0.45989,-0.83755 0.22813,-5.06245 -0.12915,-2.35424 -0.44153,-5.99451 -0.69419,-8.08949 l -0.45937,-3.80903 -0.99378,-1.32731 c -0.54658,-0.73002 -1.05779,-1.57921 -1.13604,-1.8871 -0.0838,-0.32965 -0.72195,-0.95616 -1.55227,-1.52386 -2.61744,-1.7896 -3.07824,-2.42892 -4.60767,-6.39272 -0.7597,-1.96889 -1.39229,-3.59967 -1.40575,-3.62394 -0.0135,-0.0243 -0.54189,0.12352 -1.17428,0.32835 -1.34509,0.43577 -3.64367,0.49046 -4.22696,0.10058 -0.25834,-0.17268 -0.40685,-0.54941 -0.40685,-1.03208 0,-0.78258 0.53124,-1.56708 2.2853,-3.37469 0.64774,-0.66753 0.94865,-1.26283 1.29462,-2.56126 l 0.45072,-1.6916 -0.46181,-0.93325 c -0.5272,-1.06536 -0.41001,-1.48313 0.21718,-0.77425 0.48473,0.54789 0.4646,0.56354 0.84504,-0.65673 0.40172,-1.28844 3.93704,-5.5318 5.41731,-6.50225 0.66246,-0.4343 1.58309,-0.87042 2.04582,-0.96917 l 0.84133,-0.17951 -1.11374,0.70255 c -1.23884,0.78147 -5.37128,5.57334 -6.02475,6.98612 -0.37615,0.81323 -0.31082,0.7735 0.84134,-0.51173 2.12017,-2.36501 4.45659,-4.45704 6.04238,-5.41034 2.33482,-1.40358 2.72193,-1.39724 1.0961,0.0179 -4.6367,4.03594 -7.64701,7.4234 -7.40471,8.3324 0.16276,0.61064 0.76085,0.44188 1.06869,-0.30156 0.17257,-0.41684 0.4554,-0.90467 0.62848,-1.08408 0.25818,-0.26761 0.35512,-0.23189 0.53971,0.19889 0.12375,0.28879 0.22501,0.88927 0.22501,1.3344 0,0.44514 0.27643,1.42815 0.61429,2.18449 0.33786,0.75634 0.91234,2.34946 1.27665,3.54028 0.69731,2.27943 1.11026,2.84826 2.26395,3.11858 0.57506,0.13469 0.93039,-0.0154 2.00541,-0.84758 l 1.30653,-1.01132 3.786,-0.17828 c 2.90727,-0.13694 4.37182,-0.33892 6.31,-0.87037 5.14036,-1.40946 7.45955,-1.20713 10.89959,0.95087 1.37469,0.86236 1.6991,1.19172 1.97476,2.00474 0.58835,1.73534 0.29311,7.1834 -0.46791,8.63399 -0.19079,0.36367 -0.2286,0.64725 -0.0996,0.74684 0.36982,0.28545 0.23165,2.12267 -0.21266,2.82816 -0.57343,0.91044 -0.53079,1.2072 0.34823,2.4239 1.91072,2.64467 2.0226,3.10059 1.44465,5.88622 -0.17075,0.82297 -0.40639,2.25857 -0.52365,3.19023 -0.11729,0.93168 -0.43141,3.28981 -0.69813,5.2403 l -0.48493,3.54635 -0.88442,0.0808 c -0.48644,0.0444 -0.88443,-0.007 -0.88443,-0.11413 z"
       id="path6324"
       inkscape:connector-curvature="0" />
    <path
       style="fill:#fb0909;fill-opacity:1;stroke:#f60000;stroke-width:0.14010732;stroke-miterlimit:4;stroke-dasharray:none;stroke-opacity:1"
       d="m 193.43774,287.86754 c -0.14324,-0.14005 -0.34763,-0.20192 -0.45422,-0.13752 -0.13893,0.084 -0.1645,-0.0262 -0.0903,-0.38877 0.0681,-0.33344 -0.004,-0.74543 -0.2144,-1.20853 -0.17482,-0.38646 -0.43475,-1.43418 -0.57762,-2.32826 -0.36089,-2.25839 -0.70821,-4.09628 -1.09476,-5.7932 -0.46335,-2.03397 -0.43669,-2.4592 0.19844,-3.16653 l 0.52798,-0.58799 -0.29776,-0.49287 c -0.23503,-0.38904 -0.31013,-0.94396 -0.35639,-2.63359 -0.0524,-1.91438 -0.10419,-2.22894 -0.48949,-2.97551 -0.57268,-1.10958 -0.71848,-3.15347 -0.36582,-5.12792 0.3289,-1.84137 0.60478,-2.34266 1.8263,-3.31859 1.38427,-1.10596 1.66907,-1.26392 3.9837,-2.20952 l 2.01217,-0.82203 2.10245,0.10474 c 1.51322,0.0754 3.24586,0.0103 6.18234,-0.23221 5.02774,-0.41525 5.58464,-0.54104 7.37548,-1.66594 1.61668,-1.01553 3.64861,-1.23759 5.28051,-0.57709 0.50374,0.20387 1.42982,0.67493 2.05795,1.04678 1.65981,0.98263 2.55098,1.13752 4.47326,0.77745 0.84993,-0.1592 2.25722,-0.56113 3.12732,-0.89319 0.87009,-0.33207 2.16276,-0.80661 2.87258,-1.05455 0.70981,-0.24793 1.29057,-0.49482 1.29057,-0.54864 0,-0.0539 -0.23869,-0.33867 -0.53046,-0.63299 -0.44944,-0.45343 -0.54149,-0.6846 -0.60284,-1.51393 l -0.0725,-0.97879 0.47795,0.003 c 0.68064,0.006 1.84215,0.55961 2.40395,1.14767 0.45544,0.47673 0.97928,0.58773 1.09866,0.23281 0.11333,-0.33693 -0.63599,-1.23792 -1.81939,-2.18762 -1.16862,-0.93787 -1.95462,-1.94958 -1.95462,-2.51593 0,-0.43071 0.20842,-0.31361 1.34342,0.75491 1.11835,1.05282 2.15363,1.74041 2.15363,1.43034 0,-0.0966 -0.41214,-0.56599 -0.91589,-1.04307 -0.84729,-0.80244 -1.16406,-1.40496 -0.73861,-1.40496 0.0975,0 0.36271,0.2155 0.58937,0.47887 0.22664,0.26338 0.97932,0.89631 1.67259,1.40651 1.35277,0.99552 1.72391,1.56324 1.72391,2.63701 0,0.41401 0.14301,0.81419 0.42375,1.18575 0.23306,0.30845 0.57772,1.05585 0.76588,1.66088 0.18817,0.60504 0.44174,1.15458 0.5635,1.22123 0.12175,0.0667 0.37417,0.46972 0.5609,0.89574 0.40114,0.91509 1.48462,2.52026 2.37776,3.52266 0.60328,0.67707 0.63705,0.77322 0.63705,1.81442 0,1.2093 -0.0737,1.29714 -1.08821,1.29714 -0.80534,0 -1.33506,-0.2854 -1.67485,-0.90235 -0.2671,-0.48497 -0.4355,-0.57246 -1.6978,-0.88202 -1.37711,-0.33772 -2.90775,-0.9798 -3.11413,-1.30632 -0.28605,-0.45257 -2.78255,0.28113 -3.02063,0.88775 -0.0543,0.13859 -0.37771,0.41616 -0.71852,0.61685 -0.3408,0.20067 -1.17556,0.85287 -1.85502,1.44932 -1.93545,1.69905 -2.8746,2.48274 -3.58015,2.98757 -1.22409,0.87585 -2.09359,1.78876 -2.75984,2.89766 -0.40023,0.66613 -0.82778,1.16809 -1.07237,1.25902 -0.51462,0.19131 -0.77201,0.84126 -0.63437,1.60192 0.25768,1.42409 0.91439,3.93256 1.28425,4.90552 0.22128,0.58213 0.44829,1.61654 0.50447,2.29872 0.0765,0.92893 0.34903,1.91281 1.08551,3.91892 0.54086,1.47323 1.0356,2.98085 1.09943,3.35025 0.0638,0.36942 0.22261,0.75814 0.35283,0.86383 0.13023,0.10567 0.23678,0.28492 0.23678,0.39832 0,0.27543 -1.02199,0.45061 -1.52904,0.26212 -0.35024,-0.13021 -0.43049,-0.31419 -0.59875,-1.37237 -0.21072,-1.32528 -1.67806,-5.69309 -2.52336,-7.51125 -0.77803,-1.67346 -1.84324,-4.83628 -1.84431,-5.47608 -0.002,-1.04964 -0.34087,-1.83708 -1.09836,-2.55042 -0.97974,-0.92261 -1.44995,-1.02692 -2.05862,-0.4567 -0.25952,0.2431 -0.60252,0.78347 -0.76224,1.20083 -0.15972,0.41735 -0.5373,1.23511 -0.83906,1.81722 -0.30178,0.58212 -0.6971,1.63194 -0.8785,2.33295 -0.1814,0.70101 -0.51659,1.54366 -0.74485,1.87256 -0.59459,0.8567 -1.11113,1.85483 -1.11113,2.14706 0,0.1382 -0.24972,0.7621 -0.55495,1.38647 -0.88367,1.80758 -1.67063,4.28062 -1.68255,5.2874 l -0.0106,0.89556 -0.76396,0.0486 c -1.02578,0.0652 -1.32942,-0.25455 -0.94714,-0.99732 0.14627,-0.28419 0.35493,-0.99299 0.46369,-1.57511 0.10875,-0.58212 0.52281,-1.75449 0.92011,-2.60528 0.74285,-1.59075 0.87333,-2.02326 1.32623,-4.39642 0.32922,-1.72508 0.94624,-3.58344 1.77593,-5.3489 0.3514,-0.74777 0.63893,-1.46219 0.63893,-1.58761 0,-0.36302 -0.70315,-0.26933 -1.85473,0.24714 -1.39541,0.62585 -4.1193,1.06526 -5.8121,0.93763 -1.7085,-0.12883 -3.71938,-0.77677 -4.88185,-1.573 -0.5251,-0.35967 -1.04508,-0.65375 -1.1555,-0.65351 -0.11042,3.4e-4 -0.78529,0.49485 -1.49971,1.09911 -1.00604,0.85091 -1.54189,1.48058 -2.37624,2.79222 -0.71101,1.11772 -1.04431,1.79526 -0.98024,1.99262 0.0533,0.16447 0.58884,0.96872 1.18991,1.78722 2.17571,2.96277 3.04921,4.82856 3.04921,6.51309 0,1.13054 -0.14909,1.45288 -0.48755,1.05412 -0.10571,-0.12456 -0.36821,-0.26967 -0.58333,-0.32246 -0.52455,-0.12873 -0.64483,-0.50805 -0.34243,-1.07985 0.23238,-0.4394 0.22656,-0.48399 -0.0844,-0.64673 -0.20649,-0.10808 -0.33542,-0.34359 -0.33769,-0.61686 -0.005,-0.70995 -0.56715,-1.72658 -1.52209,-2.7569 -0.48888,-0.52746 -1.14529,-1.32151 -1.45868,-1.76454 l -0.5698,-0.80553 -0.34296,0.73274 c -0.4607,0.98431 -0.44382,3.20408 0.0483,6.35039 0.34603,2.21233 0.63714,3.09377 1.02181,3.09377 0.0895,0 0.16268,0.17534 0.16268,0.38966 0,0.5904 -0.76233,0.79563 -1.23576,0.3327 z"
       id="path6320"
       inkscape:connector-curvature="0" />
    <path
       style="fill:#fb0909;fill-opacity:1;stroke:#f60000;stroke-width:0.2;stroke-miterlimit:4;stroke-dasharray:none;stroke-opacity:1"
       d="m 271.72426,264.27063 c 0.12171,-0.55023 0.15605,-1.68088 0.0779,-2.56125 -0.077,-0.86689 -0.22197,-2.52556 -0.32225,-3.68595 -0.19344,-2.23837 -0.916,-4.65875 -1.6254,-5.44461 -0.40407,-0.44763 -0.44223,-0.42363 -1.25277,0.78808 -1.53944,2.30138 -3.43009,5.97097 -3.43574,6.66848 -0.002,0.23516 -0.14543,0.57472 -0.31896,0.75458 -0.17352,0.17986 -0.31549,0.57964 -0.31549,0.88839 0,0.30876 -0.18931,0.70904 -0.42068,0.88949 -0.28606,0.22312 -0.42066,0.61261 -0.42066,1.2172 0,0.93982 -0.26119,1.208 -1.17652,1.208 -0.48262,0 -0.50346,-0.0623 -0.3739,-1.11644 0.17086,-1.39002 0.65534,-2.61949 2.12126,-5.38319 1.78246,-3.36047 2.85002,-6.09123 2.71382,-6.94181 -0.18997,-1.18628 -1.38555,-3.59282 -2.09529,-4.21752 -0.36495,-0.3212 -0.85284,-0.88044 -1.08421,-1.2427 -0.23136,-0.36229 -0.62579,-0.95653 -0.87649,-1.32055 l -0.45584,-0.66186 -1.39365,0.85688 c -1.08187,0.66519 -1.83771,0.91439 -3.37857,1.11393 -3.89982,0.50507 -4.14924,0.69717 -4.92523,3.79336 -0.25555,1.01965 -0.74363,2.78696 -1.08464,3.92736 -0.341,1.1404 -0.56504,2.26341 -0.49786,2.49558 0.15536,0.53697 2.44936,2.99681 4.59124,4.92315 1.1621,1.04516 1.83835,1.48127 2.27295,1.46583 0.87123,-0.031 0.99823,0.62515 0.28166,1.455 -0.3913,0.45315 -0.66868,0.59661 -0.8428,0.43585 -0.14274,-0.13172 -0.8105,-0.69551 -1.48391,-1.25273 -0.6734,-0.55722 -1.98761,-1.80684 -2.92045,-2.77693 -2.11737,-2.20192 -2.96781,-2.94025 -3.13958,-2.72572 -0.20025,0.2501 -0.1521,3.73735 0.0679,4.92246 0.22265,1.19902 -0.0199,1.98736 -0.61134,1.98736 -0.49402,0 -0.58599,-1.09753 -0.73738,-8.80022 -0.14266,-7.25882 -0.23182,-8.19737 -0.81405,-8.56919 -0.25191,-0.16087 -0.6,-0.50088 -0.77353,-0.75557 -0.17352,-0.25467 -1.33753,-1.02693 -2.58668,-1.71611 -1.24914,-0.68918 -3.09482,-1.91987 -4.1015,-2.73488 -1.00667,-0.81501 -2.30357,-1.82104 -2.88199,-2.23561 -0.57842,-0.41456 -1.11989,-0.89548 -1.20328,-1.06869 -0.0834,-0.17323 -0.50109,-0.64788 -0.92825,-1.0548 -0.79896,-0.76109 -1.07847,-0.82638 -5.75597,-1.34458 -1.86589,-0.20671 -2.37571,-0.73052 -1.36718,-1.40464 0.73213,-0.48936 0.65943,-0.69425 -0.31549,-0.88895 -0.63503,-0.12681 -0.84134,-0.28896 -0.84134,-0.6612 0,-0.93557 0.71851,-1.50886 2.80229,-2.23598 2.91088,-1.01573 4.33743,-2.18585 5.11672,-4.19696 0.96142,-2.4811 2.18341,-3.27045 4.17517,-2.69697 3.01863,0.86913 4.62383,0.12203 6.44379,-2.99934 0.49924,-0.85623 0.93558,-1.55677 0.96965,-1.55677 0.13386,0 -0.87854,2.29273 -1.46625,3.32057 -0.68743,1.20224 -2.3259,2.45866 -3.20626,2.45866 -0.64953,0 -0.63871,0.63342 0.0123,0.69449 0.22122,0.0207 0.49686,0.0638 0.61254,0.0955 1.67485,0.45932 4.00471,-1.42622 5.14242,-4.16175 0.14035,-0.33746 0.3012,-0.55608 0.35745,-0.48584 0.16825,0.21015 -0.92915,2.71956 -1.61755,3.69877 -0.78036,1.11005 -2.18556,1.99804 -3.15996,1.99691 -0.39729,-5.2e-4 -1.56791,-0.18555 -2.60136,-0.41132 -1.70409,-0.37228 -1.95862,-0.37224 -2.73433,2.5e-4 -0.79516,0.38195 -1.80184,1.74283 -1.80184,2.43582 0,0.52696 0.63785,0.59483 1.95234,0.20774 1.90106,-0.55974 2.67499,-0.5214 2.67499,0.13261 0,0.39705 0.1413,0.52636 0.57842,0.5294 0.41133,0.003 0.49468,0.0703 0.28855,0.23334 -0.15942,0.12606 -0.22482,0.36072 -0.14532,0.52136 0.087,0.17564 -0.0168,0.29205 -0.2602,0.29205 -0.22258,0 -0.63085,0.22217 -0.90725,0.49371 -0.27639,0.27154 -0.68358,0.53751 -0.90485,0.59106 -0.86868,0.21021 -0.498,0.75608 1.24658,1.83576 1.57994,0.97777 1.99646,1.12399 3.23811,1.13667 1.23251,0.0119 1.6071,-0.10698 2.77371,-0.88555 4.09805,-2.73482 3.40792,-2.503 7.75503,-2.60493 2.14504,-0.0504 4.65727,-0.10579 5.58274,-0.12338 3.29345,-0.0624 6.42009,0.36798 8.35211,1.14969 2.0886,0.84504 2.6904,1.20001 2.6904,1.58685 0,0.42111 1.21938,2.53456 2.19927,3.81182 1.19322,1.55529 1.83906,1.55622 3.23786,0.004 0.64683,-0.71747 1.33031,-1.21653 1.82478,-1.33239 0.91535,-0.21446 1.24898,0.087 1.45378,1.31336 0.11348,0.67982 0.0518,0.85916 -0.39954,1.16084 -0.53718,0.35905 -0.71426,0.79341 -0.32348,0.79341 0.33796,0 0.24332,0.48419 -0.20377,1.04258 -0.89804,1.12159 -4.47997,0.31667 -6.71641,-1.50929 -0.96429,-0.78729 -1.17096,-0.86938 -1.36717,-0.54291 -0.12713,0.21152 -0.57553,0.9094 -0.99644,1.55085 -0.94253,1.43641 -1.56829,3.52907 -1.36209,4.55514 0.1684,0.83805 1.8313,3.14614 3.36607,4.67208 l 1.02837,1.02247 0.0656,4.91523 c 0.0361,2.70337 0.14267,5.89047 0.23693,7.08244 l 0.17138,2.16721 h -0.88025 -0.88027 z"
       id="path6298"
       inkscape:connector-curvature="0" />
    <path
       id="path6292"
       style="fill:#fb0909;fill-opacity:1;stroke:#f60000;stroke-width:0.2;stroke-miterlimit:4;stroke-dasharray:none;stroke-opacity:1"
       d="m 131.25902,194.24411 c -0.23504,-1.02344 -1.44248,-3.87473 -1.64083,-3.87473 -0.10439,0 -0.12256,0.20687 -0.0405,0.45971 0.0822,0.25284 0.32834,1.09701 0.54722,1.87593 0.21888,0.77893 0.50469,1.57686 0.63515,1.77318 0.36782,0.55353 0.64951,0.42137 0.49896,-0.23409 z m -42.35359,17.41732 c -0.947963,-0.76298 -1.709053,-2.23611 -1.709053,-3.30802 0,-0.90654 0.924052,-3.39071 1.432145,-3.85008 0.499189,-0.45132 2.564198,-5.60653 2.564198,-6.40141 0,-0.50219 -0.161967,-0.67405 -0.854854,-0.90707 -0.470177,-0.15812 -1.436255,-0.87262 -2.146844,-1.58775 -0.710589,-0.71515 -2.13243,-1.84239 -3.159633,-2.50499 l -1.867643,-1.20472 -1.272413,0.27992 c -1.545158,0.33993 -2.18815,0.82868 -2.36176,1.7952 -0.07221,0.40221 -0.311726,1.02683 -0.532189,1.38804 -0.333059,0.5457 -0.568309,0.65231 -1.39142,0.63059 -0.858408,-0.0226 -1.069402,-0.14528 -1.581167,-0.91943 l -0.590563,-0.89328 0.517574,-0.48162 c 0.61703,-0.57418 0.66656,-0.96319 0.122691,-0.96319 -0.217208,0 -0.519834,-0.188 -0.672516,-0.41776 -0.252063,-0.37931 -0.304075,-0.37328 -0.565226,0.0657 -0.274784,0.46186 -0.306875,0.45413 -0.718744,-0.17329 -0.237117,-0.36121 -0.590735,-0.62373 -0.785812,-0.58341 -0.397966,0.0822 -0.963881,-1.18054 -1.168795,-2.60813 -0.115568,-0.80537 -0.01842,-1.02024 1.143323,-2.52727 1.000835,-1.29833 1.269674,-1.82103 1.269674,-2.46853 0,-1.29079 1.277523,-3.03108 2.899206,-3.94942 1.482143,-0.83934 4.177969,-1.77181 7.078624,-2.44847 1.033995,-0.24122 2.773002,-0.78189 3.864449,-1.20149 2.791758,-1.07329 3.267785,-1.02348 5.888553,0.61621 l 2.204325,1.37913 3.184392,0.0882 c 3.981198,0.11026 6.517518,-0.312 12.530168,-2.08592 8.73082,-2.57588 12.64469,-1.93584 16.19567,2.64846 1.75411,2.26456 2.73864,4.37573 5.94429,12.74661 2.37839,6.21069 2.72641,6.96869 3.83802,8.35923 2.23411,2.79472 3.97358,3.62046 6.44683,3.06033 1.52969,-0.34643 2.25319,-0.90906 2.80015,-2.17751 0.38982,-0.90405 0.38874,-0.92364 -0.19351,-3.49943 -0.32203,-1.42467 -0.67253,-2.79717 -0.77887,-3.05001 -0.59494,-1.41447 1.21457,-2.05588 2.57342,-0.9122 1.7375,1.46239 2.6336,5.96573 1.67778,8.43172 -0.58922,1.52016 -2.05018,3.18647 -3.55158,4.0508 -1.06416,0.61261 -1.45818,0.68843 -3.63136,0.69886 l -2.43769,0.0119 -1.97931,-1.2289 c -1.08864,-0.67589 -2.37298,-1.65113 -2.8541,-2.16722 -0.83524,-0.89593 -1.32598,-1.16732 -1.34039,-0.74129 -0.004,0.10832 -0.13611,1.40504 -0.29434,2.88152 -0.40274,3.75821 -1.26303,5.32763 -2.92037,5.32763 -0.39171,0 -0.99811,0.12457 -1.34759,0.27664 -0.40477,0.17624 -1.19868,0.20008 -2.1873,0.0657 -1.50635,-0.20478 -1.55393,-0.2331 -1.62091,-0.96512 -0.16964,-1.85374 0.77582,-3.05207 2.40949,-3.0539 0.96489,-10e-4 1.27609,-0.3221 1.46679,-1.513 0.18508,-1.15576 -0.24392,-2.51851 -1.13195,-3.59576 -0.76383,-0.9266 -7.06541,-5.13725 -7.68829,-5.13725 -0.17721,0 -0.39153,0.26598 -0.47628,0.59106 -0.28092,1.07768 -0.14643,4.52977 0.25169,6.45993 0.52253,2.53337 0.37016,2.84552 -2.40374,4.92409 -1.19249,0.89356 -2.35057,1.86921 -2.57352,2.16809 -0.22295,0.29889 -0.75154,0.62453 -1.17464,0.72368 -0.84207,0.19729 -5.36107,-0.0301 -6.12312,-0.30805 -0.57671,-0.21038 -0.80189,-1.16271 -0.54281,-2.29562 0.23123,-1.01113 1.08009,-1.45591 2.82061,-1.47795 1.75311,-0.0222 3.2159,-0.66352 4.21158,-1.84647 0.77567,-0.92156 0.84673,-1.1103 0.71325,-1.8945 -0.31712,-1.86312 -1.83573,-6.81508 -2.30147,-7.50472 -0.0247,-0.0365 -0.6046,0.16877 -1.28872,0.45623 -2.53913,1.06688 -9.55278,1.78085 -12.12865,1.23465 l -0.999085,-0.21185 v 1.10305 c 0,0.60667 0.155077,2.63126 0.344617,4.49909 0.411778,4.05795 0.279538,4.84654 -1.095464,6.53193 l -0.904354,1.10848 -2.731715,0.0611 c -2.360148,0.0528 -2.813295,0.13366 -3.331592,0.59457 -0.807824,0.71839 -1.941678,0.6454 -2.98212,-0.19201 z"
       inkscape:connector-curvature="0" />
    <path
       style="fill:#fb0909;fill-opacity:1;stroke:#f60000;stroke-width:0.25162524;stroke-miterlimit:4;stroke-dasharray:none;stroke-opacity:1"
       d="m 268.03718,149.70638 c -1.05521,-0.0628 -1.91854,-0.23917 -1.91854,-0.39206 0,-0.15297 0.30884,-0.53076 0.68632,-0.83964 1.18445,-0.96928 1.72421,-3.07359 1.77902,-6.93549 0.0442,-3.11563 -0.006,-3.51094 -0.55202,-4.36455 -0.33034,-0.51626 -0.83571,-1.58091 -1.12303,-2.36591 l -0.5224,-1.42729 -2.0525,1.98138 c -1.47647,1.42536 -2.62256,2.22012 -4.08382,2.83193 -1.84986,0.77453 -2.4055,0.84923 -6.21872,0.83613 -2.30304,-0.008 -4.72277,-0.14342 -5.37716,-0.30101 -1.38757,-0.33424 -1.68931,-0.0245 -1.43398,1.47215 0.093,0.54532 0.24511,2.10693 0.33797,3.47025 0.12254,1.79931 0.33202,2.76452 0.76421,3.52128 0.32749,0.57338 0.59542,1.20546 0.59542,1.40462 0,0.24785 -1.3778,0.36211 -4.36633,0.36211 -4.36276,0 -5.32639,-0.27738 -3.58992,-1.03343 0.91238,-0.39723 1.60522,-1.58126 1.60522,-2.74329 0,-1.44859 -1.02638,-4.24364 -2.52674,-6.88077 -1.1172,-1.96371 -1.75867,-2.75141 -2.75318,-3.38081 -0.71313,-0.45132 -1.37298,-1.12111 -1.46632,-1.4884 -0.22339,-0.87913 -1.03008,-0.85201 -1.51002,0.0508 -0.37492,0.70522 -0.3901,0.69345 -0.815,-0.63287 -0.49302,-1.53887 -0.85604,-1.94779 -1.16673,-1.31433 -0.23813,0.48548 -1.83723,1.87724 -4.04306,3.51882 -1.14648,0.85321 -1.83565,1.11335 -3.32115,1.25367 -1.83614,0.17341 -1.88498,0.15766 -2.39037,-0.77454 -0.36144,-0.66659 -0.52352,-1.55489 -0.54121,-2.96613 -0.014,-1.108 -0.1082,-2.18201 -0.20943,-2.38672 -0.10141,-0.2047 -0.68798,-0.65051 -1.30376,-0.9907 -0.61576,-0.3402 -2.18866,-1.52975 -3.49532,-2.6435 -4.50756,-3.84198 -4.63516,-4.26657 -0.86421,-2.8761 3.94679,1.45531 7.35727,2.25614 7.72355,1.81356 0.48175,-0.58207 -1.26097,-3.09736 -2.42098,-3.49423 -0.32748,-0.1121 -0.59541,-0.33631 -0.59541,-0.49837 0,-0.53688 2.07395,-0.30551 3.58316,0.39971 l 1.48602,0.6944 0.62655,-0.73515 c 0.34461,-0.40432 0.83068,-1.57197 1.08013,-2.59477 0.24946,-1.02278 0.63884,-2.26862 0.8653,-2.76848 0.3762,-0.83047 0.37257,-0.99172 -0.0424,-1.86877 -0.82835,-1.75133 -0.45091,-3.00613 0.90422,-3.00613 0.4969,0 0.77705,0.21224 0.89553,0.6784 0.13783,0.54239 0.24765,0.60041 0.54774,0.28935 0.21036,-0.21804 0.71319,-0.30466 1.14395,-0.19706 0.58313,0.14566 0.85437,0.0332 1.12401,-0.46613 0.46783,-0.86633 2.95743,-1.69216 4.32477,-1.43459 0.58218,0.10971 1.50301,0.57593 2.04627,1.03618 0.74198,0.62859 1.51552,0.90325 3.10886,1.10386 2.34932,0.2958 2.79755,0.43257 4.44886,1.35757 1.51539,0.84883 5.59784,1.14204 8.3906,0.60261 4.37361,-0.84477 5.08002,-0.90358 7.1449,-0.59496 1.16436,0.17396 3.57417,0.50614 5.35514,0.73804 2.78465,0.36259 3.41397,0.55742 4.49376,1.39117 1.41506,1.09267 3.47741,4.09336 4.51364,6.56733 0.67326,1.60745 0.69442,1.84346 0.77584,8.6538 0.0589,4.92585 -0.005,7.06932 -0.21356,7.23074 -0.36985,0.28547 -0.79754,-0.5092 -0.63358,-1.17727 0.2255,-0.91885 0.33438,-4.87676 0.14462,-5.26009 -0.10908,-0.22053 -0.33936,0.21391 -0.54874,1.03543 -0.19839,0.77848 -0.69506,2.17107 -1.1037,3.09464 -0.83698,1.89165 -0.9735,4.12887 -0.43109,7.06377 l 0.31192,1.68765 -1.16832,1.48679 c -0.93699,1.19238 -1.152,1.68122 -1.08586,2.46881 l 0.0825,0.98204 -1.54156,-0.0655 c -0.84784,-0.0362 -2.40488,-0.11701 -3.46007,-0.17979 z"
       id="path6290"
       inkscape:connector-curvature="0" />
    <path
       id="path6282"
       style="fill:#fb0909;fill-opacity:1;stroke:#f60000;stroke-width:0.34423494;stroke-miterlimit:4;stroke-dasharray:none;stroke-opacity:1"
       d="m 195.82677,180.97773 c 1.10519,-1.00157 1.16168,-2.31507 0.13293,-3.09216 -0.51613,-0.38984 -1.02915,-0.70882 -1.14006,-0.70882 -0.11094,0 -0.20178,0.9774 -0.20178,2.17199 0,2.26196 0.20529,2.53846 1.20878,1.62899 z m -27.11192,9.7796 c -1.68215,-0.13574 -1.99923,-0.30144 -2.13231,-1.11424 -0.0859,-0.52512 -0.50968,-3.10506 -0.94158,-5.73316 -0.441,-2.68319 -1.08967,-5.25456 -1.47944,-5.8644 -0.38175,-0.5973 -1.59142,-1.61573 -2.6882,-2.26318 -1.82512,-1.07746 -2.0778,-1.12464 -2.9824,-0.5568 -2.9367,1.84345 -4.19769,5.07025 -4.41233,11.29076 l -0.1349,3.9096 -3.21323,0.12532 -3.21324,0.12533 v -1.1838 c 0,-0.6511 0.35517,-2.64295 0.78924,-4.42633 0.66703,-2.74062 0.79828,-4.57384 0.84781,-11.84286 0.032,-4.7302 -0.0387,-8.46372 -0.15748,-8.29673 -0.21582,0.3032 -1.96799,9.28785 -2.40762,12.34558 -0.13991,0.97343 -0.73129,2.22626 -1.4865,3.14939 -1.63567,1.99942 -2.34167,1.97 -1.15373,-0.0481 0.51184,-0.86955 0.93065,-1.97816 0.93065,-2.46356 0,-0.48543 0.23773,-1.19121 0.52828,-1.56839 0.95383,-1.23825 2.48166,-11.99533 2.9685,-20.90048 0.25069,-4.58558 3.82591,-11.28356 7.95803,-14.90897 3.29336,-2.88953 4.92739,-3.83505 8.37205,-4.84445 2.33672,-0.68475 2.94334,-0.71472 4.71007,-0.23261 4.39672,1.19976 6.60284,1.07575 10.59262,-0.59551 2.90914,-1.21857 3.94137,-1.88681 4.9987,-3.23599 1.53469,-1.95841 1.99267,-2.08422 9.98697,-2.74374 11.97757,-0.98811 10.88685,-1.0492 13.20314,0.73921 1.13162,0.87375 2.62146,2.30417 3.3108,3.17873 1.50534,1.90989 3.83357,5.91671 3.83357,6.59746 0,0.26837 0.84781,1.78607 1.88404,3.37268 1.0362,1.58663 1.88401,3.22591 1.88401,3.64286 0,0.96693 1.44051,2.52948 2.33191,2.52948 0.37542,0 0.68256,0.22275 0.68256,0.4952 0,0.49101 2.48205,0.3244 5.04866,-0.33888 0.81995,-0.21188 1.01974,-0.14717 0.80133,0.26035 -0.54813,1.02248 -3.3861,2.17059 -5.38916,2.18019 l -1.98843,0.01 0.15854,3.58381 c 0.12221,2.75562 -0.0103,4.18607 -0.57728,6.19016 -0.53404,1.89116 -0.81631,4.58835 -1.0287,9.82894 -0.32856,8.10754 -0.69506,9.41398 -3.04817,10.86449 -1.38865,0.85598 -5.43455,1.14309 -5.82574,0.41337 -0.27221,-0.50778 0.98299,-3.07286 1.50545,-3.07651 0.2176,-0.001 0.58206,0.21215 0.80988,0.47483 0.6839,0.78844 1.92481,0.0222 2.18605,-1.34813 0.13258,-0.69607 0.0679,-3.47278 -0.14349,-6.17048 -0.21165,-2.69772 -0.49588,-6.46875 -0.63183,-8.38012 -0.13597,-1.91135 -0.46899,-3.97064 -0.74005,-4.57619 -0.27103,-0.60556 -0.61114,-1.87616 -0.75578,-2.82358 -0.36874,-2.41516 -1.01981,-3.42935 -2.54876,-3.97034 -1.26054,-0.44598 -1.38045,-0.39243 -2.58441,1.15428 -1.17018,1.50327 -1.49638,1.66105 -4.45828,2.15636 -1.75765,0.29393 -3.49212,0.71725 -3.85436,0.94077 -1.03618,0.6393 -1.92478,4.86348 -1.71913,8.17215 0.13902,2.23543 0.45604,3.40128 1.45894,5.36449 3.07737,6.02399 3.33647,6.66363 3.34501,8.25696 0.0102,2.09832 -0.77971,4.27982 -1.93729,5.34311 -1.34505,1.23551 -2.19876,2.83532 -2.19876,4.12044 0,2.14579 -0.98787,2.62407 -5.13229,2.48488 l -3.72264,-0.12478 -0.26739,-2.82359 c -0.14691,-1.55297 -0.42897,-4.77837 -0.62648,-7.16759 -0.47775,-5.77908 -0.88907,-7.72206 -2.04641,-9.66682 -0.53272,-0.89513 -1.08287,-2.16695 -1.22253,-2.82624 -0.13974,-0.6593 -0.38355,-1.29103 -0.54191,-1.40387 -0.15836,-0.11273 -2.83999,0.96414 -5.95912,2.3933 -3.11912,1.42917 -5.9342,2.59849 -6.25572,2.59849 -0.32151,0 -0.88521,0.52899 -1.25266,1.17559 -1.60799,2.82947 -0.001,12.00812 2.61204,14.93324 0.78645,0.87991 1.42995,2.01367 1.42995,2.51946 0,0.98165 -0.72252,1.05028 -6.30925,0.59947 z"
       inkscape:connector-curvature="0" />
    <path
       style="fill:#fb0909;fill-opacity:1;stroke:#f60000;stroke-width:0.14728267;stroke-miterlimit:4;stroke-dasharray:none;stroke-opacity:1"
       d="m 131.11613,148.72191 c -0.73416,-0.54223 -0.83998,-1.4596 -0.37837,-3.28052 0.62727,-2.47455 1.561,-8.30382 1.47252,-9.19314 -0.0725,-0.72868 0.26069,-1.42474 1.49002,-3.11285 0.87087,-1.19587 1.54394,-2.39035 1.49572,-2.65439 -0.11028,-0.60424 -2.47866,-1.20568 -4.90836,-1.24649 -1.7773,-0.0298 -2.98303,-0.54667 -3.54647,-1.52019 -0.13249,-0.22893 -0.6409,-0.41625 -1.12974,-0.41625 -0.48883,0 -0.88879,-0.14287 -0.88879,-0.31766 0,-0.17477 -0.21137,-0.31765 -0.46968,-0.31765 -0.25831,0 -0.40283,-0.11403 -0.32114,-0.25339 0.24863,-0.42421 -0.26729,-1.02386 -1.01072,-1.17483 -0.38657,-0.0786 -0.9954,-0.43252 -1.35294,-0.78672 -0.35756,-0.35417 -0.79871,-0.64396 -0.9803,-0.64396 -0.41473,0 -1.91522,-3.12289 -1.5994,-3.32872 0.12775,-0.0832 0.31929,-0.69064 0.42554,-1.34967 0.10628,-0.65906 0.56572,-1.66872 1.02102,-2.2437 l 0.82782,-1.04545 1.25678,0.46756 c 1.94005,0.72174 2.70167,1.38036 3.39517,2.93603 0.35117,0.78773 0.73496,1.37999 0.85286,1.31617 0.11788,-0.0637 1.06058,-0.5385 2.09479,-1.05482 1.11005,-0.55417 1.8814,-1.14045 1.88287,-1.43111 0.003,-0.78159 0.64574,-1.25474 1.7019,-1.25474 0.53699,0 1.06015,-0.14288 1.16257,-0.31765 0.10241,-0.17477 0.92563,-0.31766 1.82942,-0.31766 0.90379,0 1.90964,-0.17549 2.23525,-0.38986 0.45277,-0.29815 0.80609,-0.30463 1.50221,-0.0275 0.76553,0.30468 0.91018,0.28511 0.91018,-0.12326 0,-0.42561 0.0932,-0.42104 0.75623,0.0372 0.55035,0.38023 0.90768,0.43699 1.31268,0.20845 0.781,-0.44073 2.48293,0.11186 3.35332,1.08878 0.93773,1.0525 1.15202,1.00709 1.69329,-0.35885 0.56911,-1.43617 0.25538,-3.03121 -1.43539,-7.29793 -0.97668,-2.46474 -1.16124,-3.28814 -1.16124,-5.18096 v -2.25048 h 1.20912 c 0.66501,0 1.44452,0.13244 1.73225,0.29446 0.28772,0.16199 0.79425,0.39644 1.12563,0.52105 0.52894,0.19889 0.49214,0.25318 -0.30126,0.44451 -2.64409,0.63762 -2.82155,1.55717 -1.1737,6.08229 1.77937,4.88628 2.01352,5.9543 2.04648,9.33469 0.0269,2.7572 -0.0619,3.36002 -0.67213,4.56625 -0.40446,0.79937 -0.63335,1.67111 -0.53883,2.05219 0.30406,1.22608 -0.42054,3.3173 -1.42718,4.11884 -1.0888,0.86695 -4.46015,1.67251 -5.19207,1.24062 -0.7617,-0.44948 -1.88698,-0.0662 -2.95873,1.00762 -0.77854,0.78011 -1.03303,1.34444 -1.19422,2.64816 -0.13965,1.12961 -0.0822,1.87029 0.18074,2.32767 0.44179,0.76864 4.52617,3.68488 6.60719,4.71753 0.93682,0.46487 1.46187,0.94909 1.5836,1.46048 0.10012,0.42076 0.85896,1.37967 1.68625,2.13089 0.82731,0.75124 1.50427,1.44438 1.50434,1.54032 2.5e-4,0.28096 -2.09799,-0.058 -2.27986,-0.36836 -0.0911,-0.1555 -0.50346,-0.28255 -0.91636,-0.28255 -0.56862,0 -0.85427,-0.2613 -1.1775,-1.07697 -0.23471,-0.5923 -0.93951,-1.50298 -1.56624,-2.0237 -1.5296,-1.27088 -4.91478,-3.43294 -5.82645,-3.72125 -0.40462,-0.12793 -1.04787,-0.44046 -1.42939,-0.69438 -0.61384,-0.40856 -0.67058,-0.62414 -0.49299,-1.87288 0.11029,-0.77614 0.13177,-1.41116 0.0475,-1.41116 -0.51729,0 -1.69892,3.44496 -2.12942,6.20816 -0.88054,5.65183 -0.59956,7.45107 1.16361,7.45107 0.3926,0 0.79763,0.14288 0.90004,0.31765 0.31626,0.5396 -3.24299,0.38223 -3.99997,-0.17675 z"
       id="path6280"
       inkscape:connector-curvature="0" />
    <path
       style="fill:#fb0909;fill-opacity:1;stroke:#f60000;stroke-width:0.81097245;stroke-miterlimit:4;stroke-dasharray:none;stroke-opacity:1"
       d="m 25.821748,150.96648 c -0.16924,-0.42043 0.0565,-1.35175 0.50084,-2.06964 0.57933,-0.93538 0.86437,-2.82457 1.00603,-6.66745 0.14874,-4.03745 0.4661,-6.03564 1.28444,-8.08779 0.85543,-2.14527 1.00244,-3.14922 0.69048,-4.71581 -0.46707,-2.34546 -0.54164,-2.76212 -0.61751,-3.45114 -0.0334,-0.28463 -0.71889,-0.5357 -1.52778,-0.55763 -0.81054,-0.0235 -2.30873,-0.65272 -3.33754,-1.40516 -2.44005,-1.78453 -4.11004,-2.41402 -5.32002,-2.00533 -0.539581,0.18227 -1.398901,0.22715 -1.909612,0.0997 -1.50343,-0.37516 -0.79136,-3.75557 1.137321,-5.39926 1.621401,-1.38187 3.073041,-1.60177 5.283301,-0.80028 1.28047,0.46433 1.52101,0.33423 3.70611,-2.00424 1.99361,-2.13353 2.38488,-2.88165 2.66433,-5.09446 0.18007,-1.42651 0.61725,-3.56483 0.97121,-4.75179 0.35376,-1.187 0.55053,-2.67246 0.43679,-3.30106 -0.3642,-2.012061 0.3709,-2.394328 5.06605,-2.635828 2.41577,-0.12442 5.05985,-0.263777 5.87568,-0.309827 1.47812,-0.0835 1.48338,-0.0744 1.49163,2.509945 0.004,1.47579 0.35249,3.20342 0.8073,4.00843 0.43951,0.7781 0.9592,2.54233 1.15496,3.92047 0.22386,1.57696 0.78368,2.97534 1.50996,3.77264 1.13994,1.25146 1.16328,1.2554 1.91136,0.3236 0.41641,-0.51873 0.76437,-1.29716 0.77305,-1.72987 0.0445,-2.21859 1.40015,-2.867 3.62276,-1.73251 3.25044,1.65913 3.21215,4.02997 -0.14609,9.02871 -1.35972,2.02397 -2.47216,3.85811 -2.47216,4.07586 0,0.53253 -1.33353,0.99116 -2.1014,0.72275 -1.34605,-0.4705 -1.99478,0.66487 -2.33481,4.08613 -0.26813,2.69945 -0.15695,3.99743 0.50193,5.85104 0.46565,1.3101 1.00941,4.81156 1.20837,7.78106 0.19881,2.96951 0.6679,6.24792 1.04217,7.28541 1.09141,3.02561 1.05635,3.06526 -2.70864,3.06526 -3.73908,0 -3.99097,-0.2248 -4.0065,-3.57883 -0.007,-1.47832 -2.09951,-4.61941 -3.422,-5.13646 -0.82129,-0.32121 -4.47929,1.86517 -4.53309,2.70933 -0.0208,0.32046 -0.092,1.8005 -0.15918,3.28881 -0.0673,1.48832 -0.21719,2.78516 -0.33374,2.88188 -0.11646,0.0968 -1.83115,0.31336 -3.81032,0.4817 -3.05339,0.25941 -3.64501,0.19012 -3.906,-0.4587 z"
       id="path6554"
       inkscape:connector-curvature="0" />
    <path
       style="fill:#fb0909;fill-opacity:1;stroke:#f60000;stroke-width:0.44814378;stroke-miterlimit:4;stroke-dasharray:none;stroke-opacity:1"
       d="m 42.248955,194.93777 c -1.91723,-0.28233 -2.36782,-0.96346 -2.13492,-3.22737 0.20391,-1.98304 0.45803,-2.60891 1.34558,-3.31539 0.7339,-0.58416 1.42507,-2.76377 1.41689,-4.46806 l -0.007,-1.22628 -0.49331,0.64936 c -0.27133,0.35715 -0.86161,1.86703 -1.31177,3.3553 -1.14368,3.78128 -2.096841,4.71911 -4.796232,4.71911 -0.907471,0 -1.493151,-0.17097 -2.038542,-0.59471 -1.54135,-1.19782 -1.51558,-1.45326 0.170291,-1.68789 1.012,-0.14094 1.489321,-0.0822 1.980171,0.24323 0.35569,0.23586 0.82131,0.42881 1.03472,0.42881 0.621871,0 1.465501,-1.30648 1.890581,-2.92784 1.375541,-5.24637 2.502731,-6.78418 5.652601,-7.71168 1.22551,-0.36087 2.1186,-0.37704 6.71537,-0.12167 l 5.30185,0.29459 1.10994,-0.65205 c 0.61048,-0.35863 1.58742,-0.73733 2.17101,-0.84157 1.52064,-0.27164 1.98949,-0.58508 1.98949,-1.33005 0,-1.01946 0.89398,-1.37773 3.37049,-1.35075 1.74951,0.0202 2.30442,0.12795 2.82685,0.55467 0.35752,0.29201 1.19916,0.9537 1.87028,1.4704 1.13109,0.87084 1.20923,1.00813 1.06914,1.87896 -0.0831,0.51673 -0.32269,1.0736 -0.53235,1.2375 -0.20974,0.1638 -0.38122,0.48131 -0.38122,0.70531 0,0.7398 -0.73121,1.12581 -1.4793,0.7809 -0.36727,-0.1694 -0.8389,-0.30788 -1.04805,-0.30788 -0.6987,0 -3.30847,1.87521 -3.30847,2.37727 0,0.26499 -0.29844,0.7655 -0.66316,1.11222 -0.36474,0.34673 -0.66316,0.89506 -0.66316,1.21851 0,0.32342 -0.26311,0.92651 -0.58465,1.34017 -0.5028,0.64681 -0.57786,1.04877 -0.53611,2.87112 0.0556,2.42518 0.12884,2.62292 0.9713,2.62292 0.71625,0 1.33168,0.63543 1.13015,1.16688 -0.20973,0.55323 -2.6019,0.78754 -3.91476,0.38343 -1.56913,-0.48299 -1.86824,-1.08581 -1.92513,-3.87987 l -0.0482,-2.36786 -2.91907,0.0937 -2.91908,0.0937 -2.05471,-1.07595 -2.05472,-1.07593 -1.84344,2.02445 c -1.0139,1.11343 -1.91707,2.36366 -2.00708,2.77829 -0.21892,1.00841 0.2642,1.85905 1.05578,1.85905 0.59355,0 1.47363,0.61643 1.46451,1.02576 -0.0179,0.80993 -2.40832,1.24008 -4.87363,0.87704 z"
       id="path6536"
       inkscape:connector-curvature="0" />
    <path
       style="fill:#fb0909;fill-opacity:1;stroke:#f60000;stroke-width:0.44814378;stroke-miterlimit:4;stroke-dasharray:none;stroke-opacity:1"
       d="m 163.98249,129.69435 c -0.12279,-0.47499 -0.22272,-0.53067 -0.48189,-0.26842 -0.17993,0.18195 -0.41688,0.33089 -0.52674,0.33089 -0.1098,0 -0.74045,-1.05939 -1.40133,-2.35424 -0.73623,-1.44246 -1.71287,-2.86379 -2.52168,-3.66996 l -1.3201,-1.31573 -0.27608,0.73478 c -0.15192,0.40414 -0.27489,0.9383 -0.27348,1.18704 0.004,0.79485 1.32729,3.37489 2.19889,4.28903 0.70213,0.73641 0.77699,0.92627 0.4481,1.13667 -0.21713,0.13893 -0.78573,0.25446 -1.2635,0.25672 -0.69045,0.002 -0.92179,-0.13735 -1.12757,-0.68496 -0.19338,-0.51438 -0.38774,-0.64771 -0.76698,-0.52592 -0.45672,0.14677 -0.52469,-0.0202 -0.67284,-1.65961 -0.0908,-1.00255 -0.41747,-2.82461 -0.72626,-4.049 l -0.56144,-2.22623 0.82317,-0.86066 c 0.45274,-0.47335 1.01393,-1.32343 1.24708,-1.88906 0.41141,-0.99812 0.40368,-1.06335 -0.26302,-2.2145 -0.37778,-0.65234 -0.84816,-1.18608 -1.04523,-1.18608 -0.87011,0 -0.9193,-2.36667 -0.0836,-4.01859 0.47154,-0.93199 0.92773,-1.35255 2.17263,-2.00296 1.55109,-0.81038 1.64034,-0.82369 5.70319,-0.85031 4.76,-0.0311 5.77446,-0.27384 8.40993,-2.01136 2.06321,-1.36025 3.93535,-1.68049 5.38611,-0.92134 0.47796,0.25011 1.52593,0.52335 2.3288,0.60722 1.34432,0.14027 1.44804,0.11203 1.31158,-0.35805 -0.28222,-0.97234 -0.50311,-3.06053 -0.32372,-3.06053 0.56731,0 1.30874,0.71683 1.75579,1.6975 l 0.51097,1.12095 -0.16156,-0.93947 c -0.0887,-0.51673 -0.52229,-1.78502 -0.96321,-2.81847 -0.59783,-1.401137 -0.83447,-2.433053 -0.93062,-4.057953 -0.14609,-2.46782 0.0831,-2.86082 1.16596,-1.99899 0.88822,0.70697 1.00595,0.69695 1.37235,-0.11674 0.46674,-1.03658 0.84406,-0.7966 0.84406,0.53685 0,0.66435 0.11943,1.20791 0.26527,1.20791 0.14588,0 0.26526,-0.11675 0.26526,-0.25917 0,-0.39979 1.52801,-1.88823 1.93842,-1.88823 0.51714,0 0.41494,2.31648 -0.14945,3.38837 -0.68483,1.30061 -0.11831,1.41484 1.47482,0.29735 0.71125,-0.49892 0.7663,-0.50107 1.26002,-0.0489 0.28394,0.26003 0.51626,0.63905 0.51626,0.84224 0,0.20323 0.17904,0.438976 0.39791,0.523966 0.48243,0.18732 0.5099,0.728137 0.0731,1.436117 -0.24673,0.39977 -0.25078,0.60157 -0.0179,0.83823 0.23389,0.23669 0.54501,0.1703 1.29236,-0.27594 1.75634,-1.04861 1.58087,-0.19382 -0.27261,1.32787 -1.99507,1.63797 -2.32923,2.39602 -0.7646,1.7345 1.03541,-0.4378 1.39976,-0.69586 2.4057,-1.70398 0.88849,-0.89046 1.03501,-0.53305 0.25666,0.62606 -1.19334,1.77709 -3.09966,2.81972 -5.16202,2.8233 -0.47415,8.1e-4 -0.86211,0.065 -0.86211,0.14273 0,0.0778 0.676,0.8597 1.5022,1.73782 2.05303,2.18196 2.47297,2.89554 2.47503,4.2056 0.002,1.77759 -0.15327,1.96803 -1.61211,1.96803 -1.09201,0 -1.36038,-0.10577 -1.73508,-0.68452 -0.28461,-0.43956 -0.63961,-0.6557 -0.99199,-0.60397 -0.59018,0.0867 -0.87549,0.5635 -1.77467,2.96613 -0.31957,0.85385 -0.74165,1.54346 -0.94473,1.54346 -0.20189,0 -0.45491,0.0157 -0.56224,0.0334 -0.26698,0.0457 -1.31588,-2.00394 -1.52976,-2.98934 -0.33671,-1.55121 -1.3968,-0.99338 -3.55598,1.87118 -1.72499,2.28856 -1.87057,2.82111 -1.23062,4.50167 0.21197,0.55662 0.51173,1.73676 0.66619,2.62256 0.28443,1.63151 1.12961,3.13907 2.73331,4.87554 0.9206,0.99682 0.77605,1.43242 -0.47539,1.43242 -0.61772,0 -0.98918,-0.16223 -1.17456,-0.51263 -0.17926,-0.33898 -0.45204,-0.46477 -0.80513,-0.37133 -0.2937,0.0777 -0.53399,0.0833 -0.53399,0.0134 0,-1.05834 -0.73883,-3.34736 -1.46563,-4.5407 -0.50918,-0.83604 -0.99999,-1.89547 -1.09067,-2.35428 -0.22206,-1.1235 -0.62689,-1.32102 -0.62689,-0.30588 0,0.44951 -0.13691,1.3354 -0.30433,1.96867 -0.43833,1.65842 -0.097,3.51233 0.84677,4.60011 0.4245,0.48924 0.69495,0.96729 0.601,1.06237 -0.34509,0.34921 -1.95556,0.17365 -2.10856,-0.22981 -0.084,-0.22139 -0.38881,-0.40264 -0.67737,-0.40264 -0.48919,0 -0.51897,-0.15886 -0.44026,-2.3487 0.0464,-1.29179 0.0565,-3.45738 0.0224,-4.81246 -0.0782,-3.11692 -0.24386,-3.32563 -2.36463,-2.9812 -0.84899,0.1378 -2.12839,0.17477 -2.84316,0.082 -0.75514,-0.0981 -1.84507,-0.0273 -2.60183,0.16895 -1.0507,0.27249 -1.40679,0.27171 -1.84315,-0.004 -0.66139,-0.41796 -0.73941,-0.3465 -1.03658,0.94917 -0.67244,2.93183 -0.1555,4.24854 2.86281,7.29278 1.79641,1.81178 2.16037,2.31074 1.90907,2.61712 -0.17074,0.20816 -0.69973,0.37857 -1.17548,0.37857 -0.67199,0 -0.89958,-0.13378 -1.01991,-0.59933 z"
       id="path6534"
       inkscape:connector-curvature="0" />
    <path
       style="fill:#fb0909;fill-opacity:1;stroke:#f60000;stroke-width:0.44814378;stroke-miterlimit:4;stroke-dasharray:none;stroke-opacity:1"
       d="m 122.79686,286.48572 c -0.38563,-0.24713 -0.37505,-0.27885 0.85844,-2.57579 0.63859,-1.18911 0.541,-2.15389 -0.31598,-3.12446 -0.70554,-0.79904 -0.80568,-0.83227 -1.63116,-0.54107 -0.48372,0.17052 -1.1932,0.31023 -1.57666,0.31023 -0.38345,0 -0.98354,0.20301 -1.33354,0.45101 -0.51604,0.36575 -1.42868,0.46728 -4.82751,0.53706 l -4.1912,0.086 -0.43467,-0.67125 c -0.23908,-0.3692 -0.57333,-0.67128 -0.7428,-0.67128 -0.38829,0 -1.78404,-2.14779 -1.59591,-2.45585 0.0766,-0.1257 0.34135,-0.23016 0.58807,-0.23236 0.24671,-0.002 0.69943,-0.15304 1.00605,-0.33552 3.2273,-1.91945 3.63325,-2.22602 4.01204,-3.02981 0.55803,-1.18413 0.33893,-1.58554 -1.08583,-1.98918 -1.29233,-0.36616 -3.35107,-1.95173 -3.35107,-2.58093 0,-0.46849 -0.0466,-0.46923 1.32633,0.0202 1.43021,0.51061 3.97898,0.54501 3.97898,0.0538 0,-0.19203 -0.12951,-0.47997 -0.28773,-0.64011 -0.15819,-0.16021 -0.24777,-0.57685 -0.19897,-0.92607 0.12682,-0.90632 1.1546,-0.98685 2.04058,-0.15998 1.18379,1.10494 1.55037,1.09985 3.34416,-0.0466 0.90841,-0.58055 3.07267,-1.54085 4.80948,-2.13399 1.73678,-0.59315 4.23211,-1.45822 5.54517,-1.92238 3.37667,-1.19364 5.77418,-1.55598 10.90363,-1.64799 4.23675,-0.076 4.61077,-0.0405 6.84277,0.6473 1.29857,0.40022 2.62366,0.90178 2.9446,1.11458 1.89952,1.25944 1.92836,4.75017 0.0849,10.29389 -1.15657,3.47829 -1.17196,3.56926 -0.67954,4.02018 0.58355,0.53439 0.47492,1.63004 -0.27178,2.74125 -0.2532,0.3768 -0.77699,1.59103 -1.16394,2.69828 -0.54203,1.55082 -0.83139,2.03287 -1.26002,2.09894 -0.30604,0.0473 -0.55642,0.2122 -0.55642,0.36645 0,0.18464 -0.51379,0.21578 -1.50054,0.091 -2.6885,-0.3399 -2.75093,-0.51279 -1.00615,-2.78632 1.1952,-1.55741 1.20405,-1.58427 0.90861,-2.75169 -0.17746,-0.70107 -0.75606,-1.70891 -1.42751,-2.48639 -1.31486,-1.52246 -1.51359,-1.51616 -3.66026,0.11607 -1.58594,1.20584 -2.04533,1.28765 -2.75624,0.49078 -0.44904,-0.50331 -0.69086,-0.54725 -2.17097,-0.39434 -2.95954,0.3057 -3.24109,0.40936 -3.24759,1.19563 -0.002,0.38753 -0.24193,1.23116 -0.53053,1.87471 -0.28858,0.64358 -0.52469,1.61702 -0.52469,2.16319 0,1.66002 -0.47026,2.03305 -2.56423,2.0342 -1.29841,8e-4 -1.9987,0.13422 -2.46851,0.47073 -0.72136,0.51664 -1.27347,0.58507 -1.83199,0.22709 z"
       id="path6532"
       inkscape:connector-curvature="0" />
    <path
       style="fill:#fb0909;fill-opacity:1;stroke:#f60000;stroke-width:0.44814378;stroke-miterlimit:4;stroke-dasharray:none;stroke-opacity:1"
       d="m 92.687782,259.63089 c -0.847504,-0.13422 -1.724968,-0.77782 -1.723078,-1.26363 5.3e-4,-0.16156 0.354157,-0.83241 0.785654,-1.49057 l 0.784517,-1.19664 -1.183544,-1.14754 c -0.857677,-0.83159 -1.183569,-1.35762 -1.183569,-1.91054 0,-0.81117 -0.94036,-1.93027 -1.62194,-1.93027 -0.21668,0 -0.5384,0.14609 -0.71484,0.32459 -0.25087,0.25385 -0.41296,0.19136 -0.74374,-0.28645 -0.23263,-0.33609 -0.58646,-0.54757 -0.78631,-0.46997 -0.19987,0.0775 -0.45605,-0.004 -0.56932,-0.18329 -0.32878,-0.51781 -1.90078,-1.26077 -2.07255,-0.97953 -0.27828,0.45565 -0.63303,0.26577 -1.05832,-0.56644 -0.32896,-0.64371 -0.53614,-0.78113 -0.96835,-0.64232 -0.30243,0.0973 -0.62449,0.0614 -0.71568,-0.0793 -0.0912,-0.14072 -0.49673,-0.33777 -0.90113,-0.43795 -0.53475,-0.13243 -0.77764,-0.0706 -0.89051,0.2271 -0.0874,0.23052 -0.47633,0.40922 -0.89064,0.40922 -0.54989,0 -0.98224,0.30476 -1.71361,1.2079 -0.53797,0.66435 -1.19206,1.20791 -1.45355,1.20791 -0.26147,0 -1.01787,-0.48315 -1.68086,-1.07369 -0.82304,-0.73309 -1.45306,-1.07368 -1.98606,-1.07368 -0.71611,0 -1.47473,-0.27126 -3.24304,-1.15964 -0.66473,-0.33394 -0.76439,-0.49267 -1.96885,-3.13515 -0.75707,-1.66098 -1.48611,-4.38305 -1.48611,-5.5488 0,-0.42565 -0.17522,-1.02706 -0.38937,-1.33646 -0.21421,-0.3094 -0.46811,-1.09123 -0.56432,-1.73738 -0.0961,-0.64614 -0.39847,-1.55145 -0.67168,-2.01177 -0.70903,-1.19463 -0.67148,-3.75858 0.0787,-5.37351 0.88618,-1.9077 3.19203,-4.25602 5.08567,-5.17931 2.41968,-1.17976 3.4939,-1.37959 6.43604,-1.19721 3.60818,0.22362 4.98956,0.17477 5.10673,-0.18105 0.0549,-0.16627 0.92902,-1.25335 1.9427,-2.4155 2.07515,-2.3791 3.83683,-3.43399 6.92461,-4.1464 4.06138,-0.93707 12.235888,-0.43016 17.564808,1.08921 1.75074,0.49919 3.89939,0.98226 4.77477,1.07355 3.70881,0.38677 9.69299,1.22807 11.53901,1.62224 1.09421,0.23364 3.40376,0.92638 5.13232,1.53941 5.45032,1.93298 6.31069,3.21864 6.48916,9.69683 0.0975,3.54092 0.0423,4.25075 -0.47052,6.03952 -0.3196,1.11487 -0.66431,2.329 -0.76606,2.69809 -0.13355,0.48472 -0.36737,0.67105 -0.84175,0.67105 -0.53105,0 -0.79606,-0.2826 -1.3844,-1.47632 -0.66041,-1.33999 -0.71309,-1.65997 -0.57029,-3.46484 0.0865,-1.09367 0.33194,-2.48276 0.54532,-3.08686 0.78336,-2.21764 0.94086,-3.79932 0.48761,-4.89698 -0.52626,-1.27457 -1.1425,-1.97251 -1.74156,-1.97251 -0.43667,0 -0.43414,0.0654 0.041,1.06074 0.56795,1.18953 0.70148,4.56271 0.24444,6.17529 -0.14408,0.50848 -0.44976,2.03965 -0.67919,3.40259 -0.50344,2.99058 -0.34206,3.46799 1.92214,5.68648 1.39195,1.36386 1.45118,1.47768 1.32677,2.55003 -0.0717,0.61734 -0.40638,1.84718 -0.74392,2.73298 -0.53114,1.3939 -0.62722,2.20628 -0.71427,6.03952 -0.0567,2.49448 -0.22049,4.57555 -0.3749,4.76453 -0.1508,0.18464 -0.55811,0.33553 -0.90498,0.33553 -0.38831,0 -0.63069,0.15729 -0.63069,0.40929 0,0.61498 -1.13567,0.93283 -3.33307,0.93283 -2.29867,0 -2.46542,-0.26891 -1.26675,-2.04282 1.82289,-2.69769 2.75891,-5.8852 2.36004,-8.0367 -0.15775,-0.85069 -0.24041,-0.94571 -0.54694,-0.62852 -1.22551,1.26827 -3.57964,6.9428 -3.57964,8.62861 0,0.714 -1.44432,2.11976 -1.96871,1.91613 -0.23026,-0.0894 -0.41866,-0.3237 -0.41866,-0.52064 0,-0.74125 -0.55512,-0.66692 -0.82284,0.11025 -0.2484,0.72106 -0.42721,0.82729 -1.65105,0.98096 -2.11127,0.26512 -3.47385,0.0825 -3.57919,-0.47989 -0.0912,-0.48725 3.13264,-4.59755 3.81341,-4.86189 0.46935,-0.18217 1.53479,-2.32266 2.07744,-4.17345 0.85262,-2.90792 0.4641,-4.53997 -1.66579,-6.99741 l -1.04691,-1.2079 -0.71591,0.67105 c -0.39374,0.36909 -1.40269,1.57699 -2.24213,2.68424 -1.53832,2.02911 -2.57625,3.13188 -2.75647,2.92864 -0.0538,-0.0607 -0.32244,-0.55973 -0.59713,-1.10917 l -0.49939,-0.99896 -3.60952,-0.1219 -3.60953,-0.12189 -1.14712,1.18274 -1.14709,1.18272 -0.0381,3.02593 c -0.0477,3.77756 -0.29062,4.36011 -1.721854,4.12853 -1.160794,-0.18777 -1.362591,0.0721 -1.016874,1.30974 0.437407,1.56604 0.291557,2.20718 -0.571357,2.51158 -0.437677,0.15439 -0.795784,0.39965 -0.795784,0.54501 0,0.47765 -2.603078,0.88925 -4.111589,0.65012 z"
       id="path6526"
       inkscape:connector-curvature="0" />
    <path
       style="fill:#fb0909;fill-opacity:1;stroke:#f60000;stroke-width:0.65008545;stroke-miterlimit:4;stroke-dasharray:none;stroke-opacity:1"
       d="m 73.372409,288.22572 c -1.05329,-0.17662 -1.48433,-1.31382 -0.49787,-1.31382 0.95664,0 1.72254,-1.21118 1.71541,-2.71272 -0.003,-0.80459 -0.26001,-2.98402 -0.56936,-4.84316 -0.46139,-2.77268 -0.7334,-3.51318 -1.51349,-4.11965 -0.52303,-0.40664 -1.29455,-1.3909 -1.71446,-2.18722 -0.41994,-0.79634 -1.42602,-2.61109 -2.2358,-4.03282 -2.67201,-4.69116 -2.72557,-4.89398 -2.43277,-9.21183 l 0.26383,-3.8885 1.07173,0.585 c 1.40528,0.76701 2.95705,0.74258 3.79704,-0.0597 0.9543,-0.91156 1.69021,-0.45526 2.08137,1.29048 0.26767,1.19406 0.75925,1.81206 2.39902,3.01515 3.74623,2.74859 4.62566,2.94116 9.91511,2.17117 6.91901,-1.00721 9.14763,-0.91117 11.23184,0.48394 1.53166,1.02525 1.798,1.43428 2.5251,3.87739 1.601541,5.3814 2.608741,9.92133 2.616481,11.79389 0.006,1.6649 -0.0787,1.87547 -0.68021,1.67393 -0.60551,-0.20283 -0.71773,0.0936 -0.93487,2.47002 -0.33736,3.69205 -0.36925,3.76097 -1.597891,3.44975 -1.39732,-0.35399 -1.53712,-0.53779 -0.75866,-0.99764 0.47045,-0.27786 0.65621,-0.88858 0.65621,-2.15742 0,-0.97337 -0.13053,-1.76977 -0.29024,-1.76977 -0.15945,0 -0.62586,1.02899 -1.0361,2.28665 l -0.7459,2.28665 -1.78967,0.12119 c -2.00656,0.13571 -2.36935,-0.42662 -0.67674,-1.0494 0.7973,-0.29346 1.20957,-0.78365 1.45394,-1.72903 0.49033,-1.89712 -0.17601,-3.3058 -2.94779,-6.23136 l -2.37412,-2.50589 -1.5424,0.59201 c -0.84833,0.32566 -3.1531,0.90001 -5.12169,1.27646 -1.96863,0.37646 -3.76666,0.73446 -3.99564,0.79558 -0.48968,0.13082 -0.89235,2.3929 -0.8982,5.04618 -0.003,1.03582 -0.20878,2.69116 -0.45906,3.67854 -0.38751,1.52929 -0.59683,1.79606 -1.41287,1.80071 -0.52689,0.003 -1.29707,0.0693 -1.71151,0.14711 -0.41443,0.0781 -1.2198,0.0637 -1.78964,-0.0332 z"
       id="path6524"
       inkscape:connector-curvature="0" />
    <path
       style="fill:#fb0909;fill-opacity:1;stroke:#f60000;stroke-width:0.74218881;stroke-miterlimit:4;stroke-dasharray:none;stroke-opacity:1"
       d="m 183.04364,222.58109 c -0.65553,-0.83036 -0.21029,-2.15016 0.818,-2.42418 1.77108,-0.47204 2.18374,-0.94212 2.76455,-3.14929 0.70101,-2.66403 0.28059,-4.09527 -2.05583,-7.00004 -1.38556,-1.72255 -1.8339,-2.02185 -2.43084,-1.62281 -0.40256,0.26906 -2.14547,0.87819 -3.87313,1.35351 -1.72767,0.47532 -3.42432,1.17671 -3.77035,1.5587 -0.346,0.38198 -1.29003,2.53627 -2.09775,4.78729 -0.80775,2.25105 -1.6588,4.5964 -1.89127,5.21191 -0.47671,1.26232 -1.57214,1.42213 -3.96902,0.57911 -1.08601,-0.38197 -1.6405,-0.38114 -1.94361,0.004 -0.49456,0.62649 -3.37273,0.70828 -4.10866,0.11674 -0.73264,-0.58884 -0.26037,-1.65929 1.29801,-2.94148 1.03217,-0.84929 1.36567,-1.46984 1.36567,-2.54126 0,-0.86639 0.52833,-2.2633 1.35877,-3.59263 0.99562,-1.59375 1.22455,-2.27023 0.85658,-2.53109 -0.50719,-0.35957 -3.48947,0.5431 -4.02166,1.21727 -0.49426,0.62608 -2.00141,0.399 -2.51061,-0.37824 -0.53283,-0.81326 -3.00526,-0.62073 -4.60172,0.35831 -1.11873,0.68611 -4.00405,-0.0606 -4.55869,-1.17962 -0.3214,-0.64859 -0.066,-1.30623 1.23525,-3.17863 0.90231,-1.29851 1.64055,-2.85675 1.64055,-3.46282 0,-0.60601 0.63043,-2.14778 1.40097,-3.42609 1.31977,-2.18951 1.37439,-2.42613 0.94248,-4.08389 -0.53074,-2.03711 -0.5586,-1.97266 1.04061,-2.40622 1.04749,-0.28398 1.37147,-0.11081 2.24109,1.19848 l 1.01658,1.53039 2.27435,-1.05399 c 3.19095,-1.47873 6.77869,-2.28575 14.14226,-3.18105 l 6.37074,-0.77459 4.62071,1.53014 c 2.84423,0.94186 5.10897,2.00192 5.89077,2.75724 1.87459,1.81123 3.06916,4.83982 4.01035,10.16761 0.46116,2.61053 1.1985,5.49632 1.63854,6.41287 0.50669,1.05548 0.71439,2.09871 0.56646,2.84536 -0.19635,0.99045 -0.40471,1.12859 -1.30454,0.86428 -0.58905,-0.17306 -1.46233,-0.62364 -1.94062,-1.00142 -0.47832,-0.37784 -0.96422,-0.68712 -1.07981,-0.68712 -0.11575,0 -0.21028,1.41006 -0.21028,3.13351 0,1.77398 -0.20431,3.39247 -0.47118,3.73036 -0.25904,0.32843 -1.40762,0.59685 -2.5522,0.59685 -1.81025,0 -2.08103,-0.12785 -2.08103,-0.98198 0,-0.58807 0.47253,-1.29153 1.17795,-1.7536 1.00905,-0.661 1.17794,-1.05507 1.17794,-2.74837 0,-1.08725 -0.17314,-1.97677 -0.38468,-1.97677 -0.49666,0 -1.76683,3.15991 -2.32428,5.78224 -0.39117,1.84028 -0.58306,2.07727 -1.90603,2.3543 -1.93088,0.40441 -3.4364,0.399 -3.76152,-0.013 z"
       id="path6512"
       inkscape:connector-curvature="0" />
    <path
       style="fill:#fb0909;fill-opacity:1;stroke:#f60000;stroke-width:0.44814378;stroke-miterlimit:4;stroke-dasharray:none;stroke-opacity:1"
       d="m 246.40292,186.67665 c -0.0661,-0.0668 -0.82156,-0.1871 -1.67886,-0.26725 -0.8573,-0.0802 -1.61974,-0.20749 -1.69434,-0.28291 -0.23915,-0.24202 0.53414,-0.97519 1.42653,-1.35248 0.47961,-0.20278 1.05773,-0.74195 1.29644,-1.20905 0.47687,-0.93314 0.59159,-3.1956 0.19808,-3.90707 -0.22139,-0.40021 -0.3388,-0.34267 -0.94677,0.46392 -0.38173,0.50645 -0.83649,1.57794 -1.01052,2.38105 -0.35554,1.64057 -1.18402,2.72396 -2.67746,3.50126 -0.98258,0.5114 -0.99313,0.5112 -1.32382,-0.0246 -0.18329,-0.29705 -0.53631,-0.54008 -0.78438,-0.54008 -0.2481,0 -0.51882,-0.11091 -0.60164,-0.24652 -0.26375,-0.43185 1.05895,-5.12195 1.44451,-5.12195 0.12279,0 0.49002,-0.45298 0.81631,-1.0066 0.32627,-0.55361 1.06322,-1.58501 1.63765,-2.29198 0.66458,-0.81789 0.98484,-1.44251 0.88061,-1.71742 -0.18128,-0.47815 -0.23134,-0.44353 -2.20471,1.52649 -1.26052,1.25836 -2.20604,1.87505 -2.87821,1.8772 -0.79666,0.002 -1.3229,0.71948 -1.82858,2.49121 -0.40541,1.42048 -0.557,1.6165 -1.81431,2.34637 -0.75456,0.43804 -1.75903,0.87115 -2.23216,0.96248 -0.96884,0.1871 -4.07674,-0.34086 -5.15363,-0.87534 -0.83937,-0.41657 -1.81147,-1.71435 -1.81147,-2.41834 0,-0.63872 0.93763,-2.44191 1.7211,-3.3099 1.48363,-1.64366 1.74064,-3.44513 0.63585,-4.45686 -0.72474,-0.66367 -0.64154,-1.83624 0.17298,-2.43658 0.90483,-0.66697 1.45062,-2.33229 1.2544,-3.82735 l -0.1564,-1.19174 0.62897,0.59293 0.62895,0.59294 2.26561,-2.37536 c 1.29704,-1.35989 3.68309,-3.40412 5.58138,-4.78183 7.19381,-5.22092 8.79877,-5.87391 18.40841,-7.48944 7.35641,-1.23675 10.66026,-1.2443 13.42336,-0.0307 0.94832,0.4165 2.81127,1.14758 4.13991,1.62461 3.32388,1.1934 4.65603,2.05014 6.2104,3.99408 0.733,0.91672 1.75652,2.18038 2.27444,2.80811 1.50309,1.82173 2.15593,3.25953 2.61021,5.74863 0.23355,1.27975 0.60096,2.66884 0.81643,3.08689 0.74891,1.45301 0.35244,2.48695 -0.73628,1.92014 -0.32266,-0.16806 -0.50506,-0.13579 -0.58696,0.10329 -0.0654,0.19091 -0.42123,1.17566 -0.7909,2.18838 -0.64676,1.77185 -0.65785,1.90349 -0.2938,3.49193 0.32768,1.42972 0.32759,1.91981 0,3.66141 -0.20839,1.1059 -0.37909,2.63011 -0.37925,3.38711 0,2.02422 -0.22048,2.12956 -3.6592,1.75263 -1.56205,-0.1712 -3.54498,-0.31115 -4.40649,-0.31093 -1.46796,2.7e-4 -1.54114,-0.0291 -1.16479,-0.46936 0.5857,-0.6851 0.70063,-1.43323 0.45836,-2.98412 -0.11831,-0.75777 -0.11674,-2.00802 0.004,-2.77831 0.12033,-0.77032 0.17074,-1.52526 0.11204,-1.67765 -0.0587,-0.15237 -1.02981,-0.7385 -2.15795,-1.30242 l -2.05115,-1.02531 -1.23813,0.55834 c -2.43988,1.10029 -5.92355,1.26142 -14.33402,0.66301 -2.03464,-0.14475 -2.39701,-0.10106 -3.05056,0.36826 -0.4079,0.29291 -0.98036,0.57795 -1.27217,0.63341 -0.43517,0.0827 -0.54216,0.34162 -0.59533,1.44058 -0.0356,0.73684 -0.25511,2.06444 -0.48767,2.95024 -1.05876,4.03276 -1.21131,4.42898 -1.70526,4.42898 -0.26628,0 -0.64936,0.0641 -0.85127,0.14251 -0.20189,0.0784 -0.42121,0.0878 -0.48729,0.0202 z"
       id="path6508"
       inkscape:connector-curvature="0" />
    <path
       style="fill:#fb0909;fill-opacity:1;stroke:#f60000;stroke-width:0.33110091;stroke-miterlimit:4;stroke-dasharray:none;stroke-opacity:1"
       d="m 247.08156,287.39463 c -0.48909,-0.34858 -1.28681,-1.13446 -1.7727,-1.74641 -0.85387,-1.0754 -0.87636,-1.13744 -0.67199,-1.85399 0.11624,-0.40774 0.16964,-0.81414 0.11849,-0.90315 -0.13872,-0.24146 -0.67789,0.0176 -1.28501,0.61716 -1.14114,1.1271 -1.06575,1.72401 0.24794,1.96282 0.91065,0.16559 1.38473,0.69871 1.30314,1.46562 l -0.0618,0.58047 -1.59463,0.06 c -1.42147,0.0534 -1.64266,0.0119 -2.03695,-0.38724 -0.75628,-0.76448 -1.37605,-3.38815 -1.13157,-4.7903 0.0851,-0.48778 0.46701,-1.13645 1.11959,-1.90136 0.74758,-0.87624 1.07898,-1.47614 1.35128,-2.44614 0.3425,-1.22004 0.34442,-1.32212 0.0379,-2.01378 -0.25687,-0.5796 -0.37614,-0.68108 -0.58322,-0.49618 -0.3763,0.33603 -0.94709,1.99102 -1.72259,4.99452 -0.80715,3.12605 -0.97699,3.51089 -1.97978,4.48567 -0.93556,0.90943 -1.33348,1.02733 -3.13686,0.92934 -1.55655,-0.0845 -2.20195,-0.47413 -2.20195,-1.32909 0,-0.53331 0.0562,-0.54809 1.84288,-0.48502 0.84001,0.0297 1.34074,-0.0622 1.74641,-0.31991 0.69465,-0.44151 1.45645,-1.91041 1.63428,-3.15112 0.2754,-1.92175 1.08846,-5.00496 1.61676,-6.13105 1.06769,-2.27576 3.24617,-3.82097 6.80057,-4.82368 2.4835,-0.7006 4.53677,-0.8168 8.78638,-0.49729 3.72037,0.27975 4.01606,0.25622 6.6891,-0.53195 1.10197,-0.3249 1.41923,-0.34207 2.36764,-0.12803 0.60235,0.13589 1.65475,0.59465 2.33867,1.01936 0.68395,0.42471 1.92775,1.07823 2.76402,1.45227 0.83625,0.37405 2.00586,0.9153 2.59912,1.20277 0.8805,0.42666 1.25584,0.50009 2.04315,0.39976 0.98947,-0.12615 1.24342,0.0895 0.7416,0.62939 -0.17052,0.18347 -0.17052,0.36359 0,0.76626 0.12266,0.28955 0.22292,1.03189 0.22292,1.64969 0,0.71972 0.13663,1.41133 0.38011,1.92499 0.45892,0.96789 0.47226,1.37997 0.079,2.43771 -0.36534,0.98244 -0.97521,1.4478 -1.8974,1.4478 -0.55068,0 -0.8829,-0.18517 -1.6314,-0.90926 -1.31015,-1.26743 -2.71912,-1.82741 -4.62771,-1.83919 -1.2941,-0.008 -1.64782,0.0688 -2.37575,0.51627 -0.75243,0.46248 -0.86262,0.62055 -0.91637,1.31468 -0.0713,0.92133 0.64933,3.8469 1.13865,4.62233 0.24186,0.38328 0.46056,0.50979 0.7709,0.44594 0.2383,-0.049 0.67318,0.008 0.9664,0.12907 0.48418,0.19807 0.52775,0.29794 0.47464,1.0878 l -0.0585,0.8697 -1.71054,0.13332 c -1.28621,0.1002 -1.84746,0.0622 -2.26242,-0.15329 -0.30353,-0.15774 -1.08417,-0.28668 -1.73479,-0.28668 -1.24028,0 -1.45831,-0.13093 -1.70384,-1.02251 -0.0774,-0.28118 -0.26909,-0.6686 -0.42594,-0.86093 -0.19012,-0.23311 -0.24864,-0.57401 -0.17556,-1.02251 0.0604,-0.37003 0.12908,-1.27096 0.153,-2.00205 l 0.0434,-1.32925 -4.35927,-0.11677 c -2.66015,-0.0712 -4.56687,-0.21031 -4.89187,-0.35688 -0.4721,-0.2129 -0.58007,-0.18479 -0.9503,0.24744 -0.71754,0.83763 -1.51346,2.74291 -1.38175,3.3076 0.18701,0.80171 0.78846,1.3153 1.54032,1.3153 0.36922,0 0.96792,0.13332 1.33043,0.29631 0.5662,0.25453 0.65911,0.39293 0.65911,0.98161 0,1.03148 -0.25771,1.17607 -2.09609,1.17607 -1.51582,0 -1.70728,-0.048 -2.52921,-0.63376 z"
       id="path6500"
       inkscape:connector-curvature="0" />
    <path
       style="fill:#fb0909;fill-opacity:1;stroke:#f60000;stroke-width:0.44814378;stroke-miterlimit:4;stroke-dasharray:none;stroke-opacity:1"
       d="m 82.666311,162.22346 c -1.11496,-0.73157 -1.39574,-1.24389 -1.40233,-2.55872 -0.002,-0.39728 -0.12301,-0.79698 -0.26888,-0.88822 -0.14588,-0.0912 -0.26528,-0.62729 -0.26528,-1.19119 0,-0.86756 -0.11226,-1.07097 -0.72947,-1.32222 -0.40122,-0.16335 -0.96821,-0.29228 -1.26,-0.28657 -0.29181,0.007 -0.82927,-0.065 -1.19442,-0.15685 -0.3651,-0.0921 -1.02163,-0.0157 -1.45895,0.16761 -0.79014,0.33286 -0.79104,0.33563 -0.14229,0.44731 0.71517,0.12302 1.32295,0.77157 1.31437,1.40233 -0.004,0.27519 -0.13714,0.21153 -0.42182,-0.20121 -0.60208,-0.87339 -2.30198,-0.85031 -2.87789,0.039 -0.46515,0.71838 -1.4527,1.11357 -1.4527,0.58134 0,-0.18486 0.83558,-1.117 1.85684,-2.07164 1.02127,-0.95461 1.85686,-1.92672 1.85686,-2.16023 0,-0.68532 -0.85217,-0.84683 -1.31542,-0.2493 -0.22485,0.28999 -0.85644,0.7125 -1.40354,0.93886 -0.91307,0.37781 -1.36014,0.97583 -0.72949,0.97583 0.14587,0 0.26526,0.11338 0.26526,0.25175 0,0.13847 -0.20884,0.25398 -0.46421,0.25674 -0.95302,0.0112 -3.34732,0.55684 -3.61184,0.82449 -0.41892,0.42393 -0.75427,0.33038 -0.49517,-0.13802 0.21286,-0.38496 2.67382,-1.84849 4.37229,-2.60022 1.17526,-0.52019 0.83482,-1.75617 -0.65304,-2.37091 -1.50955,-0.62368 -4.38414,-2.62838 -5.19331,-3.62174 -0.65658,-0.80603 -0.80043,-1.26325 -0.92598,-2.94294 -0.0818,-1.09374 -0.21936,-2.10459 -0.30601,-2.24632 -0.0865,-0.14161 -1.73739,-0.89449 -3.66851,-1.67283 -2.882035,-1.16161 -3.808195,-1.41764 -5.169045,-1.42893 -0.91184,-0.007 -1.65791,-0.11629 -1.65791,-0.24162 0,-0.7261 1.02667,-2.19742 1.96408,-2.81465 1.02374,-0.67412 1.27024,-0.71542 4.26964,-0.71542 3.079475,0 3.243695,0.0298 5.040035,0.91291 1.02127,0.50211 2.1115,0.88789 2.42271,0.85728 0.57461,-0.0565 1.6889,1.0777 1.6889,1.71906 0,0.1815 0.3394,1.08657 0.75424,2.01129 l 0.75423,1.68135 2.05469,0.65552 c 1.7872,0.57019 2.24317,0.85405 3.50218,2.18017 1.90737,2.00903 3.13564,4.61868 3.56174,7.56752 0.26429,1.82907 0.54001,2.62706 1.43986,4.1672 1.1118,1.90293 1.57691,3.59503 1.23452,4.49131 -0.16603,0.43475 -0.27484,0.41366 -1.28491,-0.24907 z"
       id="path6486"
       inkscape:connector-curvature="0" />
    <path
       style="fill:#fb0909;fill-opacity:1;stroke:#f60000;stroke-width:0.30879149;stroke-miterlimit:4;stroke-dasharray:none;stroke-opacity:1"
       d="m 124.69141,172.97517 c 0.003,-0.13324 0.11518,-0.38809 0.24878,-0.56624 0.23408,-0.31205 0.19495,-1.24824 -0.0522,-1.24824 -0.0662,0 -0.28288,0.35373 -0.48134,0.78607 -0.32309,0.70385 -0.43503,0.79222 -1.07033,0.84492 -0.9134,0.0758 -1.13433,-0.1544 -0.6692,-0.69704 0.64987,-0.75822 0.65679,-1.515 0.0263,-2.86557 -0.31166,-0.6675 -0.56703,-1.27581 -0.56748,-1.35184 -3.7e-4,-0.076 -0.37001,-0.67921 -0.82125,-1.34043 -0.45123,-0.66124 -0.95685,-1.51433 -1.12358,-1.89581 -0.16675,-0.38147 -0.37293,-0.69358 -0.45822,-0.69358 -0.0852,0 -0.15504,-0.16647 -0.15504,-0.36992 0,-0.51043 -0.2273,-0.46406 -0.9159,0.18685 -0.32396,0.30621 -0.8056,0.60904 -1.07032,0.67292 -0.26472,0.064 -0.55698,0.15993 -0.64948,0.21342 -0.0925,0.0534 -0.50375,0.10437 -0.9139,0.11318 -0.44959,0.009 -0.73039,0.0991 -0.70711,0.22559 0.0284,0.15393 -0.16095,0.15845 -0.71231,0.0168 -0.63073,-0.16201 -0.78594,-0.14452 -0.96959,0.10962 -0.19635,0.27172 -0.24269,0.25712 -0.45442,-0.14328 -0.26017,-0.49194 -2.80662,-2.26955 -3.31066,-2.31112 -0.38633,-0.0318 -0.58256,1.27989 -0.64889,4.33759 -0.0397,1.83106 -0.16711,3.62053 -0.28307,3.97656 -0.11595,0.35604 -0.19346,0.95946 -0.17219,1.34093 l 0.0386,0.69359 h -1.47541 c -1.76791,0 -2.0091,-0.24781 -1.13703,-1.16817 0.5396,-0.56949 0.55919,-0.64993 0.59377,-2.43848 0.0511,-2.64359 -0.67858,-6.52446 -1.51276,-8.04558 -0.25103,-0.45777 -0.64752,-1.41491 -0.88108,-2.12701 -0.23355,-0.71206 -0.63507,-1.53219 -0.89227,-1.82248 -0.68935,-0.77803 -2.14679,-1.67283 -4.610905,-2.83091 -2.40274,-1.12922 -1.98495,-1.07588 -5.40698,-0.69027 -0.93262,0.10514 -0.95958,0.0949 -0.95958,-0.35927 0,-0.34386 -0.10869,-0.48298 -0.41125,-0.52647 -0.34844,-0.05 -0.41958,-0.18864 -0.46574,-0.90718 -0.0514,-0.80065 -0.0156,-0.87416 0.63973,-1.31454 0.38182,-0.25656 1.20575,-0.96613 1.83098,-1.57685 l 1.13679,-1.11037 -0.10901,-0.99678 -0.109,-0.99676 0.8247,0.80373 c 0.9941,0.96878 1.42543,0.96385 1.65513,-0.0188 0.0933,-0.39874 0.27209,-0.69232 0.4219,-0.69232 0.14297,0 0.63037,0.34537 1.08292,0.76749 0.73581,0.68633 0.87005,0.74569 1.269585,0.56149 0.37831,-0.17442 0.48676,-0.14823 0.70764,0.17088 0.16359,0.23635 0.30607,0.30283 0.38212,0.17833 0.17126,-0.2804 0.46525,-0.24675 0.46525,0.0533 0,0.1728 0.15239,0.22234 0.48554,0.15788 0.29517,-0.0571 0.56414,0.008 0.68607,0.16436 0.26429,0.34036 0.65546,0.41133 0.65899,0.1195 10e-4,-0.14312 0.0539,-0.16078 0.13711,-0.0462 0.25085,0.3455 0.92681,0.6459 0.99405,0.44177 0.0753,-0.22871 1.05943,-0.0192 1.05943,0.22563 0,0.0906 0.28788,0.1649 0.63973,0.1649 0.39154,0 0.63973,0.0902 0.63973,0.23229 0,0.30247 0.96412,0.73236 1.32672,0.59156 0.16175,-0.0628 0.43651,0.0597 0.64749,0.28897 0.35005,0.3802 0.37526,0.38284 0.56144,0.0588 0.12553,-0.21849 0.19693,-0.2493 0.20052,-0.0865 0.003,0.16772 0.13927,0.2174 0.40298,0.14761 0.25614,-0.0678 0.49983,0.0139 0.68543,0.22946 0.18553,0.21558 0.50189,0.32156 0.88914,0.29786 0.33063,-0.0202 0.64476,0.0346 0.69806,0.12182 0.0533,0.0872 0.17346,0.11086 0.26706,0.0524 0.0936,-0.0585 0.17014,0.0233 0.17014,0.18195 0,0.15859 0.0617,0.27849 0.13711,0.26644 0.0753,-0.0123 0.1782,-0.003 0.22847,0.0198 0.0504,0.023 0.29701,0.0599 0.54834,0.0823 0.25132,0.0223 0.7037,0.14931 1.00528,0.2824 0.30158,0.13308 0.91847,0.27082 1.37085,0.30619 1.22521,0.0957 1.27945,0.11194 1.27945,0.37937 0,0.29351 0.29483,0.32708 0.46244,0.0526 0.0687,-0.11239 0.20765,-0.12737 0.33066,-0.0358 0.11672,0.0869 0.43837,0.14962 0.71484,0.13912 0.27646,-0.0108 0.50264,0.0528 0.50264,0.1408 0,0.0879 0.15476,0.11009 0.34391,0.0493 0.22068,-0.0709 0.38397,-0.005 0.45567,0.18422 0.0615,0.16207 0.18754,0.24725 0.28019,0.18931 0.0926,-0.0579 0.19755,-0.017 0.23311,0.0909 0.0355,0.10792 0.37027,0.21251 0.74379,0.23235 0.37351,0.0198 0.72099,0.14544 0.77218,0.27899 0.0511,0.13355 0.1765,0.19073 0.27851,0.12692 0.29781,-0.18625 0.71945,0.37471 0.60744,0.80816 -0.0729,0.28216 -0.0179,0.39412 0.19364,0.39412 0.16252,0 0.29549,0.0684 0.29549,0.15192 0,0.0835 0.37442,0.54729 0.83203,1.03056 0.45762,0.48329 0.91299,1.09419 1.01194,1.35757 0.22509,0.59904 0.38647,6.52747 0.18488,6.79122 -0.25965,0.33972 -0.54455,1.84071 -0.44522,2.34558 0.0526,0.26782 0.006,0.54323 -0.10421,0.61203 -0.32108,0.20079 -0.23891,0.42849 0.42159,1.1683 l 0.6216,0.69621 -0.11889,1.84747 -0.11888,1.84747 -0.68543,0.0575 c -0.47426,0.0397 -0.68363,-0.0173 -0.6796,-0.18497 z"
       id="path6478"
       inkscape:connector-curvature="0" />
    <path
       style="fill:#fb0909;fill-opacity:1;stroke:#f60000;stroke-width:0.61839348;stroke-miterlimit:4;stroke-dasharray:none;stroke-opacity:1"
       d="m 170.00112,248.96426 c 0.003,-0.051 0.30054,-1.04904 0.66119,-2.21805 0.49308,-1.59807 1.03334,-2.45245 2.17746,-3.44343 1.09177,-0.94567 1.58927,-1.70553 1.76097,-2.68973 0.13178,-0.75444 1.11852,-3.12184 2.19306,-5.26089 2.49776,-4.97201 2.57187,-5.40395 0.9037,-5.26624 -1.91746,0.15831 -7.22272,2.47324 -9.89801,4.31902 -2.60542,1.79757 -3.66036,3.23128 -3.66036,4.97444 0,0.94562 0.33403,1.38468 2.00211,2.63164 2.68125,2.00437 2.99385,2.6484 2.11611,4.35986 -0.37914,0.73932 -0.86405,1.40314 -1.07759,1.47518 -0.66875,0.22571 -0.87749,-1.05155 -0.39348,-2.40799 0.44599,-1.25003 0.42162,-1.33147 -0.62339,-2.08205 -2.34143,-1.68171 -3.12188,-2.70785 -3.12188,-4.10458 0,-0.73883 0.23344,-1.79337 0.51886,-2.3435 1.68831,-3.25433 9.05316,-7.84972 15.45486,-9.64329 1.43734,-0.40267 3.00073,-0.94196 3.47421,-1.19837 0.88488,-0.4792 7.52371,-1.2714 14.95971,-1.7851 6.33482,-0.43761 7.55541,-1.30994 10.04061,-7.17568 0.49734,-1.1739 1.15951,-2.23348 1.47147,-2.35462 0.31194,-0.12116 0.56718,-0.51599 0.56718,-0.87748 0,-1.18843 3.89554,-4.45806 4.53749,-3.80847 0.13082,0.13233 0.47858,-0.10694 0.77277,-0.53209 0.29406,-0.42505 1.01814,-0.94327 1.60873,-1.15161 0.89367,-0.31525 1.18048,-0.25941 1.70964,0.33214 0.3497,0.39104 0.85734,0.71094 1.12814,0.71094 0.27085,0 0.49234,0.33337 0.49234,0.7408 0,0.78122 0.53251,0.99676 0.91509,0.37039 0.33075,-0.54152 0.91509,-0.45223 0.91509,0.13976 0,0.28075 0.23715,0.70952 0.52728,0.9531 0.29002,0.24365 0.43711,0.68063 0.32688,0.97134 -0.12433,0.32805 0.0322,0.52851 0.41247,0.52851 0.45338,0 0.55025,0.19974 0.37221,0.76734 -0.14934,0.47601 -0.0185,1.01487 0.34244,1.41933 1.5875,1.77506 1.47685,8.5876 -0.14811,9.10947 -0.37635,0.12088 -0.7912,0.71226 -0.92184,1.31417 -0.13081,0.60191 -0.47155,1.0944 -0.75752,1.0944 -0.32444,0 -0.51999,0.38681 -0.51999,1.0287 0,0.67942 -0.37285,1.35981 -1.09811,2.00378 -0.91719,0.81442 -1.09811,1.25194 -1.09811,2.65566 0,1.64768 -1.34275,4.89001 -2.26356,5.46592 -0.51117,0.31964 1.24145,3.54673 3.58383,6.599 1.58614,2.06683 1.72953,2.16143 3.01139,1.98746 1.05,-0.14255 1.4989,-0.0124 2.04125,0.59473 l 0.69529,0.77742 h -3.32727 c -3.75092,0 -5.03315,-0.34993 -5.38428,-1.46937 -0.13289,-0.42406 -1.17659,-1.46908 -2.31907,-2.32225 -1.14248,-0.8532 -2.61627,-2.12427 -3.27507,-2.82464 -1.07833,-1.14631 -1.29013,-1.23088 -2.12196,-0.84735 -0.50826,0.23437 -1.46952,0.42604 -2.13618,0.42604 -1.05915,0 -1.37007,0.2455 -2.46439,1.9446 -2.06476,3.20613 -2.24275,3.82075 -1.30044,4.4904 0.68739,0.48854 0.72352,0.62436 0.25292,0.95097 -0.59551,0.41327 -4.49053,0.54011 -4.86765,0.15862 -0.12709,-0.12861 -0.0507,-0.57505 0.16974,-0.99197 0.22046,-0.41692 0.61376,-2.18682 0.87385,-3.93307 0.26004,-1.74625 0.58568,-3.46668 0.72349,-3.82322 0.22355,-0.57859 -0.0185,-0.64884 -2.25939,-0.65447 -2.15102,-0.006 -3.9533,-0.37334 -9.23818,-1.88617 -0.3537,-0.10115 -0.63382,0.46745 -0.93226,1.89247 -0.23468,1.12044 -0.62479,2.40125 -0.86702,2.84623 -1.04079,1.91197 0.27054,5.20374 1.90728,4.78803 0.82237,-0.20871 3.14289,0.96568 3.14289,1.59079 0,0.56493 -2.08884,0.86014 -4.10273,0.57986 -2.39342,-0.3331 -3.77597,-1.1931 -5.05097,-3.14194 -0.82633,-1.26303 -0.97901,-1.82976 -0.81875,-3.03874 0.1818,-1.37133 0.14347,-1.45692 -0.49739,-1.10762 -0.38188,0.2081 -1.10614,0.82504 -1.60942,1.37074 -0.50331,0.54573 -1.90342,1.56246 -3.11135,2.25946 -3.44171,1.98584 -3.72242,2.26056 -3.19061,3.12232 0.43226,0.7004 0.34992,0.7316 -1.93084,0.7316 -1.31028,0 -2.37992,-0.0417 -2.37696,-0.0927 z"
       id="path6440"
       inkscape:connector-curvature="0" />
    <path
       style="fill:#fb0909;fill-opacity:1;stroke:#f60000;stroke-width:0.7894879;stroke-miterlimit:4;stroke-dasharray:none;stroke-opacity:1"
       d="m 257.97909,229.23987 c -1.24667,-0.24278 -1.31647,-0.54815 -0.29763,-1.30192 1.18892,-0.87972 1.06936,-4.94949 -0.19856,-6.75102 -0.56247,-0.79931 -1.02266,-2.11209 -1.02266,-2.91719 0,-0.80513 -0.22264,-1.46384 -0.49489,-1.46384 -0.27238,0 -0.36238,0.21711 -0.20054,0.4821 0.1619,0.26528 0.0315,1.27594 -0.28618,2.24617 -0.31934,0.97025 -0.54834,3.41319 -0.50867,5.42884 l 0.0722,3.6648 h -1.83353 c -2.02615,0 -3.01621,-0.8596 -1.46329,-1.27053 0.55197,-0.14604 1.13155,-0.80918 1.31538,-1.50499 0.4954,-1.87512 0.34184,-5.23659 -0.26725,-5.85307 -0.29645,-0.3 -0.53879,-1.26262 -0.53879,-2.13952 0,-1.71614 -0.87383,-2.94534 -2.09383,-2.94534 -0.42464,0 -0.9762,-0.63142 -1.25272,-1.4341 -0.40526,-1.17629 -0.67388,-1.37628 -1.49447,-1.11234 -1.61126,0.51818 -2.82296,0.50893 -3.52561,-0.0277 -0.36079,-0.27514 -0.78136,-0.46334 -0.93464,-0.41823 -0.72495,0.21356 -3.7835,-2.00324 -3.7835,-2.74206 0,-0.45691 -0.18514,-0.94646 -0.41121,-1.08791 -0.89073,-0.55709 -2.05393,-5.41015 -2.10513,-8.78332 -0.0509,-3.34917 -0.1101,-3.53876 -1.06395,-3.40574 -0.55553,0.0773 -1.13623,-0.0659 -1.29049,-0.31854 -0.36475,-0.59737 1.49691,-3.78321 2.99784,-5.13 1.82967,-1.64169 2.62252,-1.71058 4.53694,-0.39433 0.96732,0.66514 1.98683,1.20938 2.26553,1.20938 0.27868,0 0.78324,1.43635 1.12115,3.19189 0.33789,1.75559 0.7107,3.36187 0.82833,3.56956 0.29881,0.52784 1.3192,-0.40498 3.9916,-3.64958 3.42583,-4.15941 7.10449,-6.89492 9.27215,-6.89492 2.34467,0 3.22288,0.98509 3.22288,3.61503 0,1.77344 0.13653,2.10201 0.81779,1.96825 0.78875,-0.15468 0.88,-0.38923 0.99756,-2.55875 0.0805,-1.48455 2.14231,-3.49743 3.58261,-3.49743 2.07498,0 4.47412,1.44488 5.16089,3.1081 0.3466,0.83955 0.90704,1.81366 1.24534,2.16469 0.70818,0.73482 2.21519,3.85346 2.21519,4.5841 0,0.27118 0.36789,0.7709 0.81779,1.11072 0.44981,0.33989 1.43241,1.53355 2.18361,2.65268 1.46764,2.18646 1.47409,2.29769 0.99384,17.11677 -0.0462,1.43047 -0.52757,3.6648 -1.06936,4.96526 -0.54179,1.3004 -1.22351,3.28087 -1.51491,4.40104 -0.5123,1.96933 -0.58564,2.03185 -2.21937,1.89148 -1.91308,-0.16419 -2.61045,-1.17372 -0.97347,-1.40906 1.55535,-0.22383 2.66692,-2.85666 2.69404,-6.38169 0.0123,-1.60422 -0.105,-3.25339 -0.26131,-3.6648 -0.52347,-1.38033 -1.11829,-0.76548 -1.11829,1.15597 0,1.61629 -0.30709,2.21475 -2.03265,3.96083 -1.11794,1.13125 -2.43225,3.04 -2.92071,4.24168 -0.85912,2.11361 -0.95279,2.18487 -2.87413,2.1866 -2.16469,0.002 -2.62927,-0.71993 -0.89318,-1.38787 2.46241,-0.94735 5.27156,-6.2426 5.61026,-10.57532 0.15362,-1.96495 -0.96725,-6.06386 -1.92252,-7.0305 -0.34935,-0.35369 -0.9556,-0.17176 -2.05406,0.61685 -1.88632,1.35402 -2.20804,1.45424 -5.76412,1.79535 -1.54211,0.14799 -2.71576,0.3754 -2.60807,0.50543 0.10781,0.12984 -0.0976,0.76841 -0.45554,1.41863 -0.91526,1.66111 -0.61999,8.02922 0.53305,11.49691 0.50268,1.51176 0.79214,2.94811 0.64325,3.19191 -0.27356,0.44756 -1.44094,0.48549 -3.36993,0.1094 z"
       id="path6432"
       inkscape:connector-curvature="0" />
    <path
       style="fill:#fb0909;fill-opacity:1;stroke:#f60000;stroke-width:0.73641729;stroke-miterlimit:4;stroke-dasharray:none;stroke-opacity:1"
       d="m 34.207782,171.80515 c -1.740805,-0.53441 -1.743829,-0.53927 -1.873252,-3.02199 -0.115685,-2.21625 -0.0033,-2.60589 1.037604,-3.58193 1.024097,-0.96092 1.128411,-1.30347 0.850717,-2.79404 l -0.316657,-1.69885 -0.88036,1.76435 c -1.843575,3.69474 -4.67378,5.33759 -7.119084,4.13229 -2.018451,-0.99486 -1.896685,-1.77982 0.22276,-1.43682 1.643984,0.26585 1.946903,0.15874 3.299669,-1.16796 0.819182,-0.80347 1.798401,-2.40206 2.176006,-3.55237 1.577613,-4.80641 5.446244,-6.66947 11.953262,-5.75649 4.352145,0.61067 6.979686,0.0332 9.242326,-2.03691 1.63654,-1.49614 1.697078,-1.64765 1.416063,-3.54397 l -0.29347,-1.98095 1.257506,0.3358 c 0.691649,0.18483 2.098609,0.38566 3.126617,0.44652 1.43833,0.0851 2.267158,0.47228 3.596178,1.6796 1.848817,1.67946 2.115173,2.52273 1.073214,3.39778 -0.359743,0.30194 -0.653821,0.92178 -0.653821,1.37729 0,0.52234 -0.308933,0.82817 -0.836173,0.82817 -1.226202,0 -2.214985,0.46387 -2.21602,1.03964 -4.44e-4,0.27727 -0.901855,1.8912 -2.00302,3.58647 l -2.002166,3.08226 0.288293,3.11436 c 0.314093,3.39043 0.499223,3.87435 1.647189,4.30291 0.419541,0.15644 0.762818,0.58877 0.762818,0.96029 0,0.50489 -0.48744,0.67548 -1.929895,0.67548 -2.323916,0 -3.499604,-1.21332 -3.966044,-4.09308 -0.459702,-2.838 -1.124434,-3.3694 -3.599087,-2.87714 -1.130958,0.22498 -3.542903,0.28683 -5.359874,0.13738 -3.302429,-0.27175 -3.304089,-0.27137 -4.705002,1.17862 -1.683603,1.74252 -1.750138,3.58274 -0.137705,3.81398 0.993269,0.14247 1.747723,1.18441 1.234007,1.70426 -0.514981,0.52109 -3.575013,0.51255 -5.292698,-0.0148 z"
       id="path6424"
       inkscape:connector-curvature="0" />
    <circle
       style="fill:#fb0909;fill-opacity:1;stroke:#f60000;stroke-width:0.2;stroke-miterlimit:4;stroke-dasharray:none;stroke-opacity:1"
       id="path6556"
       cx="6.7279787"
       cy="291.40598"
       r="2.6458333" />
    <circle
       style="fill:#fb0909;fill-opacity:1;stroke:#f60000;stroke-width:0.2;stroke-miterlimit:4;stroke-dasharray:none;stroke-opacity:1"
       id="path6556-5"
       cx="5.6696429"
       cy="93.270836"
       r="2.6458333" />
    <circle
       style="fill:#fb0909;fill-opacity:1;stroke:#f60000;stroke-width:0.2;stroke-miterlimit:4;stroke-dasharray:none;stroke-opacity:1"
       id="path6556-6"
       cx="291.26849"
       cy="291.36816"
       r="2.6458333" />
    <circle
       style="fill:#fb0909;fill-opacity:1;stroke:#f60000;stroke-width:0.2;stroke-miterlimit:4;stroke-dasharray:none;stroke-opacity:1"
       id="path6556-5-4"
       cx="290.21014"
       cy="93.233025"
       r="2.6458333" />
  </g>
  <style
     id="style111"
     type="text/css">
	.st0{fill:#1A1A1A;}
	.st1{fill:#46B3AF;}
	.st2{fill:#4C87C2;}
	.st3{fill:#89A667;}
	.st4{fill:#90952B;}
	.st5{fill:#3D3611;}
	.st6{fill:#A3936E;}
	.st7{fill:#693C6B;}
	.st8{fill:#7C5E82;}
	.st9{fill:#421653;}
	.st10{fill:#E6E6E6;}
	.st11{fill:#EDD1D1;}
	.st12{fill:#B1956B;}
	.st13{fill:#F2F2F2;}
	.st14{fill:#FFFFFF;}
	.st15{fill:#E6A8A1;}
	.st16{fill:#F0A967;}
	.st17{fill:#36302B;}
	.st18{fill:#E3AAB7;}
	.st19{fill:#CF8495;}
	.st20{fill:#DF7087;}
	.st21{fill:#91AF27;}
</style>
</svg>
