<?xml version="1.0" encoding="UTF-8" standalone="no"?>
<!-- Created with Inkscape (http://www.inkscape.org/) -->

<svg
   xmlns:dc="http://purl.org/dc/elements/1.1/"
   xmlns:cc="http://creativecommons.org/ns#"
   xmlns:rdf="http://www.w3.org/1999/02/22-rdf-syntax-ns#"
   xmlns:svg="http://www.w3.org/2000/svg"
   xmlns="http://www.w3.org/2000/svg"
   xmlns:sodipodi="http://sodipodi.sourceforge.net/DTD/sodipodi-0.dtd"
   xmlns:inkscape="http://www.inkscape.org/namespaces/inkscape"
   width="1500mm"
   height="1000mm"
   viewBox="0 0 1500 1000"
   version="1.1"
   id="svg8"
   inkscape:version="0.92.3 (2405546, 2018-03-11)"
   sodipodi:docname="small-people.svg">
  <sodipodi:namedview
     id="base"
     pagecolor="#ffffff"
     bordercolor="#666666"
     borderopacity="1.0"
     inkscape:pageopacity="0.0"
     inkscape:pageshadow="2"
     inkscape:zoom="0.175"
     inkscape:cx="677.71921"
     inkscape:cy="388.4476"
     inkscape:document-units="mm"
     inkscape:current-layer="layer1"
     showgrid="false"
     inkscape:showpageshadow="false"
     inkscape:window-width="1366"
     inkscape:window-height="717"
     inkscape:window-x="0"
     inkscape:window-y="0"
     inkscape:window-maximized="1"
     inkscape:lockguides="true"
     showguides="true"
     inkscape:snap-page="true"
     inkscape:snap-intersection-paths="true"
     inkscape:measure-start="0,0"
     inkscape:measure-end="0,0"
     inkscape:guide-bbox="true"
     fit-margin-top="0"
     fit-margin-left="0"
     fit-margin-right="-1.3"
     fit-margin-bottom="0"
     showborder="false" />
  <defs
     id="defs2" />
  <metadata
     id="metadata5">
    <rdf:RDF>
      <cc:Work
         rdf:about="">
        <dc:format>image/svg+xml</dc:format>
        <dc:type
           rdf:resource="http://purl.org/dc/dcmitype/StillImage" />
        <dc:title></dc:title>
        <dc:creator>
          <cc:Agent>
            <dc:title>milux</dc:title>
          </cc:Agent>
        </dc:creator>
        <dc:subject>
          <rdf:Bag>
            <rdf:li>lasercut</rdf:li>
          </rdf:Bag>
        </dc:subject>
      </cc:Work>
    </rdf:RDF>
  </metadata>
  <g
     transform="translate(250,401.55554)"
     id="layer1"
     inkscape:groupmode="layer"
     inkscape:label="Layer 1"
     style="display:inline">
    <path
       style="fill:none;stroke:#ff711b;stroke-width:0.72516358;stroke-opacity:1"
       d="m -224.21487,560.72254 c -0.38897,-1.02306 -0.70722,-2.1652 -0.70722,-2.53808 0,-0.37287 -2.03952,-0.68305 -4.53227,-0.68928 -5.35887,-0.0134 -12.0652,-1.46895 -14.68902,-3.18814 -2.79872,-1.83379 -3.44133,-4.24143 -2.30812,-8.64768 0.73076,-2.84142 0.79925,-5.43316 0.28413,-10.752 l -0.67872,-7.00814 -3.17563,-2.28056 c -1.7727,-1.27306 -3.38262,-3.10526 -3.64415,-4.1473 -0.25769,-1.0267 -0.0833,-6.5048 0.38755,-12.17355 0.63132,-7.60087 0.64597,-11.24037 0.0558,-13.86271 -1.12281,-4.98909 -0.93359,-15.82541 0.36297,-20.78585 1.0384,-3.97276 1.02212,-4.24665 -0.33279,-5.60157 -3.40371,-3.40371 -2.9071,-7.24853 2.3584,-18.25896 4.91522,-10.278 8.36665,-14.32816 12.69529,-14.89763 1.70479,-0.22428 3.26691,-0.67844 3.47137,-1.00927 0.20446,-0.33082 -1.19037,-1.39365 -3.09963,-2.36184 -4.18339,-2.12141 -5.24352,-3.26157 -7.85094,-8.44358 -2.68303,-5.33228 -3.20818,-8.00166 -2.35822,-11.98688 0.58898,-2.76156 0.50686,-3.56402 -0.47588,-4.64993 -3.48985,-3.85625 -1.25158,-11.68507 4.26509,-14.91805 3.5127,-2.05859 7.44744,-2.32594 10.55806,-0.71737 1.56192,0.8077 2.58491,0.90044 3.99959,0.36258 2.75249,-1.0465 10.45792,-0.88657 14.18635,0.29443 1.76612,0.55943 4.81541,1.43283 6.77619,1.9409 6.36172,1.64842 11.24872,7.68439 11.28486,13.93802 0.0163,2.82774 -1.68661,7.03434 -2.84771,7.03434 -1.65522,0 -5.11316,3.8578 -5.11316,5.70442 0,1.07232 -0.43001,2.59335 -0.95558,3.38006 -0.52558,0.78671 -1.52573,2.96522 -2.22257,4.84113 -0.69683,1.8759 -2.38455,4.39198 -3.75048,5.59128 l -2.4835,2.18054 1.47242,2.49556 c 1.14199,1.93553 1.54618,4.17954 1.80115,9.99973 0.18081,4.1273 0.70417,10.84082 1.16303,14.91893 0.45885,4.0781 0.65595,10.0165 0.43799,13.19645 -0.32947,4.80688 -0.16375,6.21558 0.98288,8.35495 1.82899,3.4125 1.72494,7.36453 -0.28745,10.91786 -1.99729,3.52665 -4.37365,3.97608 -4.72792,0.89416 -0.12685,-1.10358 -0.53476,-1.81854 -0.90645,-1.58883 -1.11898,0.69158 -0.74856,6.85926 0.78211,13.02245 2.43123,9.78927 2.60536,12.97806 0.80691,14.77651 -1.35067,1.35067 -1.53967,2.37494 -1.53967,8.34418 0,6.4581 0.0831,6.82428 1.63162,7.19263 4.98877,1.18668 12.00714,4.41601 13.77811,6.33967 2.22771,2.4198 2.48891,4.08954 0.96585,6.17435 -0.90313,1.23623 -1.94072,1.40764 -8.52067,1.40764 -4.12078,0 -8.76116,-0.26799 -10.31197,-0.59555 l -2.81964,-0.59554 0.48794,3.67829 c 0.29182,2.19983 0.17614,4.26093 -0.28781,5.12782 -1.10597,2.06652 -3.51271,1.84032 -4.3685,-0.41059 z"
       id="path6247"
       inkscape:connector-curvature="0" />
    <path
       style="fill:none;stroke:#ff711b;stroke-width:0.72516358;stroke-opacity:1"
       d="m -225.91003,538.1581 c -0.26609,-4.65902 -0.56057,-8.52167 -0.65439,-8.58365 -0.0938,-0.062 -2.53642,0.034 -5.42801,0.2134 l -5.25744,0.3261 v 5.3569 c 0,2.94629 -0.0252,5.60164 -0.056,5.90077 -0.0631,0.61236 0.27951,0.80956 5.85731,3.37212 6.28404,2.88701 6.09256,3.1147 5.53853,-6.58564 z"
       id="path6245"
       inkscape:connector-curvature="0" />
    <path
       style="fill:none;stroke:#ff711b;stroke-width:0.72516358;stroke-opacity:1"
       d="m -178.47569,560.95104 c -0.36198,-0.89739 -1.32386,-20.32849 -2.13753,-43.18023 -0.81367,-22.85174 -1.67191,-41.86009 -1.90719,-42.24079 -0.23528,-0.38068 -0.99591,-0.69216 -1.69029,-0.69216 -0.69437,0 -1.65408,-0.39159 -2.13269,-0.8702 -1.32424,-1.32424 -1.04445,-6.27127 0.47762,-8.44499 0.95346,-1.36167 1.49107,-3.88158 1.83745,-8.61258 0.90599,-12.37449 3.84483,-20.8385 9.28451,-26.73986 2.3726,-2.57396 2.77363,-3.38911 2.07907,-4.226 -0.58055,-0.69952 -1.6672,-0.90601 -3.33967,-0.6346 -1.68453,0.27336 -3.09215,6.3e-4 -4.39178,-0.85092 -1.68832,-1.10622 -1.86627,-1.59909 -1.51716,-4.20195 0.34659,-2.58395 0.13292,-3.19402 -1.7272,-4.93163 -1.16748,-1.0906 -2.12271,-2.66779 -2.12271,-3.50487 0,-1.7381 2.3913,-4.42262 3.93953,-4.42262 0.57139,0 1.24602,-0.65265 1.4992,-1.45033 0.25318,-0.79768 0.76465,-1.45033 1.13661,-1.45033 0.37196,0 0.6763,-1.6031 0.6763,-3.56246 0,-5.25238 3.69637,-12.06301 7.98587,-14.71412 4.11823,-2.54525 10.35686,-3.7635 14.50267,-2.83199 1.68891,0.37947 3.52007,0.51753 4.06922,0.30681 0.54915,-0.21074 1.56952,-0.13168 2.26749,0.17567 0.69797,0.30736 2.08485,0.63458 3.08195,0.72716 3.63646,0.33764 7.43078,1.68533 9.06356,3.21925 2.25256,2.11616 3.46105,7.13417 2.61984,10.87818 -0.56863,2.53076 -0.47098,3.02909 0.7183,3.66558 0.75702,0.40514 1.3764,1.30527 1.3764,2.00027 0,0.69502 0.65265,1.82247 1.45033,2.50547 1.66888,1.42893 1.93604,5.02629 0.46403,6.24796 -0.55093,0.45723 -0.83737,1.59769 -0.64891,2.58356 0.3393,1.77492 -0.44104,2.7831 -5.22183,6.74646 -1.08247,0.89739 -2.89269,1.63162 -4.02271,1.63162 -2.49262,0 -4.34869,0.65213 -4.34869,1.52791 0,0.35617 0.50097,0.64758 1.11326,0.64758 2.16632,0 4.60247,2.32376 8.2158,7.83674 4.57595,6.98171 5.67028,9.60549 6.27171,15.03708 0.68154,6.15516 -0.23291,7.99263 -5.08263,10.21291 -2.19541,1.00509 -3.98917,1.88511 -3.98612,1.95558 0.003,0.0705 0.65319,2.24923 1.44478,4.84169 1.57564,5.16025 1.93037,13.70166 0.66707,16.06216 -0.43079,0.80494 -0.81936,4.45463 -0.86349,8.11042 -0.0605,5.01472 -0.40171,7.18107 -1.38951,8.82237 -1.61826,2.68885 -1.79018,9.41785 -0.27921,10.92881 1.69796,1.69796 2.21574,8.43674 0.83799,10.90626 -1.50238,2.69291 -5.93742,8.91175 -7.73356,10.84403 -1.02561,1.10336 -1.39158,2.55732 -1.39158,5.52868 0,4.11488 1.11486,6.7167 5.52452,12.8929 3.59552,5.03592 0.80674,9.57134 -5.88531,9.57134 -2.92342,0 -3.83807,-0.35903 -5.72873,-2.24868 -2.12378,-2.12267 -2.24509,-2.54257 -2.16467,-7.49335 0.0469,-2.88458 0.3287,-7.08102 0.6263,-9.32542 l 0.54109,-4.08073 -2.62048,-0.30592 c -2.55199,-0.29794 -2.6205,-0.24214 -2.6205,2.1342 0,1.34207 0.33311,3.06255 0.74023,3.82327 1.19449,2.23193 2.16014,8.49392 1.68003,10.89453 -0.24392,1.21958 -1.43773,3.21166 -2.65292,4.42684 -2.04841,2.04842 -2.51235,2.18752 -6.36609,1.90877 -2.28617,-0.16537 -4.67361,-0.72969 -5.30543,-1.25406 -1.87131,-1.55305 -1.40145,-5.80266 1.03993,-9.4056 1.18926,-1.75509 2.16229,-3.63587 2.16229,-4.17953 0,-0.54365 0.3714,-1.58317 0.82534,-2.31003 0.51725,-0.82826 0.63929,-2.5622 0.32691,-4.64521 -0.41051,-2.7375 -0.84381,-3.44877 -2.45694,-4.03315 -1.0772,-0.39022 -2.58174,-0.96096 -3.34341,-1.26829 -1.3452,-0.54277 -1.37027,-0.14814 -0.87494,13.77294 0.53503,15.03695 0.32684,16.36921 -2.5581,16.36921 -0.75739,0 -1.67325,-0.73422 -2.03522,-1.63161 z"
       id="path6243"
       inkscape:connector-curvature="0" />
    <path
       style="fill:none;stroke:#ff711b;stroke-width:0.72516358;stroke-opacity:1"
       d="m -138.62762,450.22509 c 0,-0.3753 -0.32633,-0.88405 -0.72517,-1.13054 -0.39884,-0.2465 -0.72516,0.0606 -0.72516,0.68236 0,0.6218 0.32632,1.13055 0.72516,1.13055 0.39884,0 0.72517,-0.30707 0.72517,-0.68237 z"
       id="path6241"
       inkscape:connector-curvature="0" />
    <path
       style="fill:none;stroke:#ff711b;stroke-width:0.72516358;stroke-opacity:1"
       d="m -150.23024,425.52673 c 0,-0.39884 -0.57107,-0.72017 -1.26904,-0.71406 -1.08452,0.01 -1.11088,0.11331 -0.18129,0.71406 1.36854,0.88442 1.45033,0.88442 1.45033,0 z"
       id="path6239"
       inkscape:connector-curvature="0" />
    <path
       style="fill:none;stroke:#ff711b;stroke-width:0.72516358;stroke-opacity:1"
       d="m -63.210602,561.85749 c -0.59826,-0.38663 -3.464074,-0.70795 -6.368484,-0.71406 -10.24489,-0.0215 -14.55423,-3.85552 -9.74221,-8.66755 1.65191,-1.6519 2.92058,-2.11502 6.98689,-2.55049 3.99524,-0.42785 5.30442,-0.89456 6.683554,-2.38267 0.9433,-1.01784 1.69767,-2.53719 1.67639,-3.37634 -0.0213,-0.83915 -1.93623,-6.7469 -4.255464,-13.12834 l -4.21677,-11.60262 -3.30978,-1.60132 c -3.05586,-1.47847 -3.35432,-1.8679 -3.89031,-5.07615 -0.31929,-1.91115 -0.58325,-10.24604 -0.58657,-18.52197 -0.005,-13.50342 -0.12893,-15.04714 -1.20378,-15.04714 -1.77407,0 -2.20246,-1.67662 -2.77924,-10.87746 -0.28753,-4.58666 -0.57372,-7.82519 -0.63596,-7.19675 -0.19998,2.01898 -3.22819,4.10795 -9.36712,6.46176 -4.19584,1.60879 -6.619414,2.15891 -8.089064,1.83612 -1.15409,-0.25348 -2.25563,-0.19703 -2.44787,0.12545 -0.19223,0.32248 0.41892,20.28827 1.35812,44.36841 1.16266,29.80927 1.47547,44.21591 0.98014,45.14144 -0.8604,1.60766 -3.05088,1.77947 -4.25099,0.33343 -0.58923,-0.70998 -1.30865,-13.83026 -2.33608,-42.60336 -0.81655,-22.8676 -1.74414,-42.23009 -2.06131,-43.02777 l -0.57668,-1.45033 -0.49159,1.45033 c -1.48068,4.36835 -3.89216,5.2282 -5.93193,2.11511 -1.71645,-2.61964 -1.58821,-10.03247 0.20791,-12.01715 2.41542,-2.66901 6.0321,-4.42597 8.21298,-3.98979 1.27418,0.25484 2.37439,0.0525 2.85354,-0.52486 0.42888,-0.51678 2.17054,-1.35059 3.87035,-1.8529 5.092764,-1.50498 8.397094,-3.70034 9.250124,-6.14567 0.42983,-1.23217 1.10262,-5.50354 1.49508,-9.49194 0.98751,-10.03542 1.25187,-11.00395 3.4382,-12.59659 l 1.92275,-1.40062 -2.91652,-0.78534 c -3.54265,-0.95394 -6.64499,-4.02392 -7.28127,-7.20532 -0.29676,-1.4838 -1.53305,-3.26489 -3.339534,-4.81117 -2.93822,-2.515 -4.00778,-5.03236 -4.70628,-11.07692 -0.30958,-2.67892 -0.008,-3.55279 2.3765,-6.88906 6.283074,-8.7905 12.347234,-12.96492 18.651014,-12.83893 2.94729,0.0589 10.39862,1.61687 11.10329,2.32154 0.29291,0.2929 1.11821,0.53256 1.834,0.53256 0.7158,0 2.59377,1.30529 4.17326,2.90065 2.016354,2.03661 3.488724,2.90066 4.942814,2.90066 4.32121,0 7.46986,4.12649 7.46986,9.7897 0,3.90625 -1.55233,7.3187 -3.62913,7.97786 -0.80825,0.25652 -2.58112,2.20409 -3.93972,4.32792 -1.3586,2.12382 -3.47463,4.45485 -4.702304,5.18005 -1.22767,0.7252 -2.23212,1.57451 -2.23212,1.88736 0,0.31285 1.63026,0.56881 3.622814,0.56881 3.4534,0 3.86613,0.2233 8.82629,4.77524 2.86192,2.62638 6.789511,6.11259 8.727971,7.74712 7.69556,6.48899 8.03375,10.00833 1.64935,17.16347 l -3.96489,4.44353 2.89702,5.76188 c 3.1112,6.18787 3.50331,8.54558 1.84275,11.07993 -0.57985,0.88496 -1.34863,3.89197 -1.7084,6.68225 -0.35977,2.79028 -1.25135,7.8663 -1.98129,11.28004 l -1.32715,6.2068 2.74177,5.84264 c 2.64824,5.64329 2.70293,5.91778 1.60281,8.04517 -0.62643,1.21139 -2.27083,2.90206 -3.65421,3.75703 l -2.515231,1.55451 1.476701,3.41036 c 2.42302,5.5958 4.72954,12.4064 6.74513,19.91674 1.04494,3.89358 2.70439,8.5923 3.68766,10.44159 2.44603,4.60033 2.32284,6.46807 -0.5415,8.20998 -4.75296,2.89044 -19.403431,4.80204 -22.326281,2.91314 z"
       id="path6237"
       inkscape:connector-curvature="0" />
    <path
       style="fill:none;stroke:#ff711b;stroke-width:0.72516358;stroke-opacity:1"
       d="m -51.168642,547.77826 c 0.2166,-0.56446 -1.26402,-5.21457 -3.29026,-10.33358 -3.48429,-8.80254 -5.76878,-13.54267 -4.83513,-10.03246 0.21217,0.79768 1.24601,5.20305 2.29743,9.78971 1.88001,8.2012 3.25871,11.60262 4.70293,11.60262 0.40216,0 0.90843,-0.46183 1.12503,-1.02629 z"
       id="path6235"
       inkscape:connector-curvature="0" />
    <path
       style="fill:none;stroke:#ff711b;stroke-width:0.72516358;stroke-opacity:1"
       d="m -15.044432,561.59231 c -4.28787,-1.94119 -4.75687,-6.48028 -1.2904,-12.4889 0.9406,-1.6304 1.71019,-3.62591 1.71019,-4.43447 0,-0.80856 0.6671,-2.3182 1.48245,-3.35475 1.40235,-1.7828 1.44352,-2.33293 0.76191,-10.18116 -0.39629,-4.56309 -0.52844,-11.68866 -0.29366,-15.83461 l 0.42688,-7.53809 -2.99466,-0.89722 c -2.34815,-0.70352 -3.08378,-1.32191 -3.40747,-2.86442 -0.69306,-3.30268 -1.39933,-4.0677 -5.65401,-6.12439 -4.03437,-1.9502 -4.09948,-2.03091 -4.09477,-5.07615 0.003,-1.86731 0.57613,-3.95715 1.44555,-5.26993 1.17056,-1.76749 1.44166,-3.40881 1.44554,-8.75164 0.003,-3.79107 0.47697,-8.16615 1.1197,-10.33048 0.85015,-2.86277 0.92297,-4.11301 0.30661,-5.26467 -0.96636,-1.80567 0.79064,-6.94163 2.87391,-8.40081 0.707,-0.49519 2.53252,-2.85787 4.05673,-5.25039 2.87972,-4.52025 4.30335,-5.44848 9.5956304,-6.25651 3.63871,-0.55555 3.89486,-1.28072 0.89177,-2.52464 -2.49752,-1.0345 -5.5970304,-4.42474 -6.1842204,-6.76429 -0.21844,-0.87035 -1.34876,-2.12859 -2.51182,-2.7961 -2.44781,-1.40484 -3.42007,-4.28851 -2.2855,-6.77862 0.59871,-1.31404 0.54333,-2.32632 -0.22832,-4.17314 -0.56033,-1.34106 -1.11448,-5.2638 -1.23146,-8.71723 -0.26199,-7.73454 -0.46518,-7.50342 11.5780604,-13.16938 8.77029,-4.12614 8.99477,-4.18737 14.14069,-3.8569 2.87591,0.18468 6.3710596,0.85348 7.7669996,1.4862 1.39594,0.63272 3.2723,1.36151 4.16969,1.61951 0.89739,0.25802 1.63162,0.73491 1.63162,1.05978 0,0.32486 1.47388,2.17923 3.27529,4.12082 3.53045,3.80518 3.67114,4.16032 4.3284,10.92581 0.42594,4.38435 0.37343,4.56502 -2.13317,7.33953 -1.59329,1.76357 -2.56987,3.58148 -2.56987,4.78381 0,1.84529 -2.79919,5.49916 -4.21286,5.49916 -0.35913,0 -1.59528,1.49077 -2.747,3.31284 -1.15172,1.82206 -3.15697,3.96979 -4.45613,4.77271 -1.29916,0.80292 -2.3621196,1.73957 -2.3621196,2.08145 0,0.34187 1.5500396,0.84012 3.4445296,1.1072 4.62636,0.65224 6.19361,1.76982 9.3068,6.63653 1.45142,2.26893 3.39329,4.71869 4.31526,5.44392 1.64751,1.29593 2.98192,4.96334 2.5842,7.10222 -0.11125,0.59826 -0.69863,1.64307 -1.30529,2.32179 -0.94527,1.05755 -0.97336,1.77451 -0.19645,5.01304 0.49862,2.07845 0.98159,6.58114 1.07328,10.00599 0.12389,4.62717 0.57982,7.12851 1.77467,9.73597 2.27748,4.97004 1.655,6.67544 -3.25747,8.92444 -3.62169,1.65806 -3.96142,2.01706 -3.96142,4.18612 0,2.53427 -1.4332,4.26394 -4.24418,5.12211 -1.62395,0.49578 -1.67854,0.71821 -1.1335,4.61805 0.31494,2.25345 0.59321,9.34107 0.61837,15.75026 0.0396,10.09195 0.21576,11.82327 1.31479,12.92346 0.69797,0.6987 1.26903,1.75342 1.26903,2.34382 0,0.59039 1.14213,3.28046 2.53807,5.97793 2.76238,5.33791 2.95558,6.36372 1.71243,9.09214 -1.14549,2.51408 -4.81266,4.05746 -9.64082,4.05746 -9.1413796,0 -11.1938096,-2.91393 -9.7045996,-13.77811 0.54309,-3.96209 1.31655,-6.69739 2.16528,-7.65742 1.23501,-1.39696 1.27435,-2.40507 0.60839,-15.59102 -0.39158,-7.75362 -0.71641,-14.66234 -0.72184,-15.35271 -0.006,-0.73275 -0.77148,-1.44637 -1.83968,-1.71447 -1.0064,-0.25259 -2.32685,-1.1562 -2.93431,-2.00802 -1.04386,-1.46375 -1.14566,-1.47689 -1.85452,-0.23952 -0.41253005,0.72008 -1.53951005,1.60939 -2.50442,1.97625 l -1.75438,0.66702 v 15.79711 c 0,15.01175 0.0721,15.84214 1.45033,16.70286 0.80379995,0.50198 1.45032995,1.69109 1.45032995,2.6675 0,0.96898 0.49765,3.90761 1.10589,6.5303 2.02334005,8.72446 -0.42228,12.15861 -8.92457995,12.53192 -3.0506004,0.13394 -5.7062804,-0.16394 -7.1043704,-0.79687 z"
       id="path6233"
       inkscape:connector-curvature="0" />
    <path
       style="fill:none;stroke:#ff711b;stroke-width:0.72516358;stroke-opacity:1"
       d="m 3.0807284,500.479 c 0.52766,-1.37507 -0.11714,-3.88624 -0.99789,-3.88624 -0.91774,0 -1.56299005,2.21897 -1.08404005,3.72798 0.52897005,1.66664 1.47549005,1.7386 2.08193005,0.15826 z"
       id="path6231"
       inkscape:connector-curvature="0" />
    <path
       style="fill:none;stroke:#ff711b;stroke-width:0.72516358;stroke-opacity:1"
       d="m -15.700892,483.57606 c -0.24684,-0.77774 0.0575,-2.39316 0.6763,-3.5898 0.72789,-1.40758 1.12511,-4.1264 1.12511,-7.7009 0,-5.31503 -0.0621,-5.51636 -1.63162,-5.29345 -2.18704,0.31061 -3.35148,3.89494 -3.4036,10.47686 -0.0361,4.56474 0.14981,5.30203 1.59069,6.30715 2.11733,1.47697 2.17317,1.47017 1.64312,-0.19986 z"
       id="path6229"
       inkscape:connector-curvature="0" />
    <path
       style="fill:none;stroke:#ff711b;stroke-width:0.72516358;stroke-opacity:1"
       d="m 22.005458,480.58387 c 0.26147,-1.54761 0.27216,-3.88149 0.0238,-5.18638 -0.91954,-4.83044 -2.05087,-8.53643 -2.60593,-8.53643 -0.65534,0 -1.17229,8.88297 -0.80744,13.8747 0.20813,2.84766 0.44896,3.30663 1.57988,3.0109 0.88528,-0.23151 1.4943,-1.29587 1.80971,-3.16279 z"
       id="path6227"
       inkscape:connector-curvature="0" />
    <path
       style="fill:none;stroke:#ff711b;stroke-width:0.72516358;stroke-opacity:1"
       d="m 42.352488,561.44311 c -1.53492,-1.53492 -1.4385,-2.55239 0.51747,-5.46098 1.26773,-1.88515 2.489,-2.67082 5.19844,-3.34426 1.94778,-0.48413 3.83311,-1.29994 4.18961,-1.81291 0.94041,-1.35316 -0.32164,-18.11842 -2.28104,-30.3018 -1.53933,-9.57145 -0.4053,-29.73636 2.18182,-38.79625 1.31108,-4.59129 0.31122,-12.39245 -1.92965,-15.05557 -3.75651,-4.46436 -4.99927,-7.8019 -4.92474,-13.22581 0.0983,-7.15581 2.22721,-19.59244 3.92273,-22.91592 0.97963,-1.92024 2.05643,-2.93903 3.41597,-3.23194 1.09195,-0.23527 3.1742,-0.96908 4.62719,-1.6307 l 2.641824,-1.20295 -1.685264,-2.0028 c -0.92688,-1.10155 -1.9091,-2.7388 -2.18269,-3.63834 -0.2736,-0.89954 -1.32782,-2.31579 -2.34271,-3.14723 -1.48821,-1.2192 -1.86324,-2.20139 -1.93823,-5.07615 -0.0511,-1.96044 -0.50913,-4.31685 -1.01778,-5.23646 -0.64743,-1.17055 -0.76271,-2.91045 -0.38438,-5.80131 0.29723,-2.27111 0.56319,-5.04712 0.59101,-6.1689 0.0409,-1.64994 0.67403,-2.37757 3.31383,-3.80853 10.128464,-5.49038 13.798964,-6.27985 20.304574,-4.36715 5.40517,1.58915 5.45282,1.63189 7.94377,7.12555 1.82805,4.03167 2.11769,5.40717 1.75019,8.31145 -0.24222,1.91414 -0.89082,4.203 -1.44135,5.08636 -0.55053,0.88336 -1.00097,3.06235 -1.00097,4.84222 0,2.5034 -0.37568,3.53536 -1.65924,4.55778 -0.91258,0.72692 -2.08095,2.34999 -2.59637,3.60682 -0.51544,1.25684 -1.72341,3.02381 -2.6844,3.92662 l -1.74725,1.64145 2.97249,1.33083 c 1.63488,0.73196 3.61096,1.33083 4.39131,1.33083 3.42979,0 6.39961,3.66413 6.39961,7.89579 0,1.19157 0.46266,4.22627 1.02815,6.74377 0.56548,2.5175 1.2427,7.18786 1.50493,10.37858 l 0.47677,5.80131 -3.74592,5.32383 c -4.09536,5.82043 -4.18671,6.46013 -2.24291,15.70592 3.46345,16.47404 4.20741,32.9425 2.04744,45.32272 -1.32831,7.61352 -2.69428,19.53214 -2.69428,23.50874 0,2.94127 1.61647,4.32134 5.95118,5.08079 3.1928,0.5594 5.65143,3.31501 5.65143,6.33407 0,2.47397 -2.02253,3.51976 -6.75497,3.49277 -4.847,-0.0276 -13.96702,-2.81325 -15.42537,-4.71154 -1.1188,-1.45629 -0.57111,-27.03914 0.78808,-36.8117 1.34512,-9.6714 1.35906,-16.36366 0.0517,-24.81193 -1.39671,-9.0257 -1.4191,-9.06454 -5.22345,-9.06454 -3.9827,0 -4.18985,0.45053 -5.76141,12.53052 -1.18842,9.13483 -1.16702,9.87861 0.73487,25.54057 0.62962,5.18492 1.07801,12.85352 0.99643,17.04134 -0.0816,4.18782 0.11177,8.92456 0.4297,10.52609 0.46484,2.34159 0.31529,3.23232 -0.76366,4.54815 -3.23842,3.94945 -18.789824,6.89547 -21.594484,4.0908 z"
       id="path6225"
       inkscape:connector-curvature="0" />
    <path
       style="fill:none;stroke:#ff711b;stroke-width:0.72516358;stroke-opacity:1"
       d="m 150.73816,561.18 c -0.41287,-0.77146 -0.75067,-2.40308 -0.75067,-3.62582 0,-2.18044 -0.0688,-2.22316 -3.57861,-2.22316 -6.44952,0 -9.75442,-2.13403 -12.91493,-8.33938 -2.98908,-5.86877 -2.34101,-15.0936 2.0123,-28.64397 l 2.21324,-6.88905 -2.75293,-13.7014 c -2.87881,-14.32792 -3.90714,-16.63694 -6.32629,-14.20511 -1.55205,1.56019 -4.5845,13.56955 -5.47896,21.69829 -0.76355,6.93902 -0.75091,7.04966 1.33513,11.68294 2.13609,4.74445 4.37509,13.44133 5.91787,22.98668 0.78893,4.8812 0.73738,5.48784 -0.72259,8.50375 -0.86467,1.78617 -2.51615,4.04192 -3.66995,5.01279 -3.95882,3.33112 -14.36493,4.1202 -17.5499,1.33077 -2.96724,-2.59872 -0.92144,-6.45714 5.43873,-10.25749 1.49565,-0.8937 2.71936,-2.11614 2.71936,-2.71656 0,-0.60041 -1.28083,-4.79625 -2.84629,-9.32408 -5.79975,-16.77484 -7.06853,-27.88437 -5.61055,-49.12674 0.47556,-6.92881 0.37465,-9.18252 -0.53578,-11.9652 -2.10681,-6.43942 -2.7845,-13.42758 -1.89522,-19.54306 1.64863,-11.33737 5.14506,-21.27298 8.57769,-24.37473 0.80983,-0.73177 2.811,-1.51003 4.44703,-1.72947 1.63605,-0.21944 3.13522,-0.65883 3.33151,-0.97643 0.42681,-0.69059 -2.52809,-5.45715 -4.80293,-7.74762 -0.89238,-0.89851 -1.90935,-3.17945 -2.26323,-5.07614 -0.35346,-1.89443 -0.82792,-4.33966 -1.05437,-5.43384 -0.62962,-3.04229 0.35975,-6.91752 2.32274,-9.0979 0.97331,-1.0811 2.77103,-3.37747 3.99492,-5.10307 2.89918,-4.08756 6.85333,-5.89032 12.96559,-5.91118 8.09951,-0.0276 13.6871,4.08561 14.93656,10.99541 0.26573,1.46958 1.10348,3.23336 1.86167,3.91951 1.79305,1.62269 1.76468,5.03479 -0.0718,8.63697 -0.79768,1.56461 -1.45033,3.51894 -1.45033,4.34296 0,1.85206 -1.93445,4.72159 -3.18299,4.72159 -1.23844,0 -5.71174,5.6279 -5.17,6.50445 0.23489,0.38005 1.58107,0.9075 2.99153,1.17211 5.70767,1.07076 7.87893,4.85794 9.73438,16.979 0.70151,4.58268 0.61389,23.48083 -0.16641,35.8956 -0.14514,2.30909 0.29306,16.73902 1.70803,56.24518 0.47944,13.38589 0.66033,24.88879 0.402,25.56201 -0.63705,1.66013 -3.19079,1.54929 -4.11554,-0.17861 z"
       id="path6223"
       inkscape:connector-curvature="0" />
    <path
       style="fill:none;stroke:#ff711b;stroke-width:0.72516358;stroke-opacity:1"
       d="m 149.19617,537.7458 -0.0661,-5.9826 -1.3382,4.26538 c -1.21951,3.88707 -1.2384,4.41769 -0.21304,5.9826 0.61884,0.94447 1.2508,1.71722 1.40435,1.71722 0.15354,0 0.24941,-2.69217 0.21303,-5.9826 z"
       id="path6221"
       inkscape:connector-curvature="0" />
    <g
       id="g6283">
      <path
         inkscape:connector-curvature="0"
         id="path6219"
         d="m -250.13728,376.09414 c -1.92378,-0.98023 -2.80008,-3.69743 -1.86689,-5.78878 0.36,-0.8068 2.90643,-2.66237 5.65873,-4.12351 2.7523,-1.46114 5.34018,-3.20893 5.75085,-3.88398 0.95032,-1.56215 -0.11316,-9.16294 -3.9871,-28.49604 -4.43032,-22.10978 -5.08425,-27.91463 -4.94325,-43.8807 0.0687,-7.77738 -0.0985,-14.67366 -0.3716,-15.32508 -0.27306,-0.65141 0.0133,-2.40446 0.63637,-3.89566 0.62307,-1.49121 1.13285,-2.79828 1.13285,-2.9046 0,-0.10633 -1.13276,-0.40583 -2.51723,-0.66556 -2.66939,-0.50078 -4.73441,-2.70627 -4.73441,-5.05648 0,-0.78033 -0.38762,-2.49072 -0.86137,-3.80088 -0.75316,-2.08281 -0.64239,-2.84964 0.88167,-6.10358 0.95868,-2.04682 2.29008,-4.35223 2.95868,-5.12313 0.6686,-0.7709 1.606,-3.59495 2.08312,-6.27568 1.47715,-8.29951 2.2503,-9.5876 5.75476,-9.5876 1.10622,0 2.56989,-0.61723 3.25261,-1.37164 1.18365,-1.30791 1.14016,-1.44365 -0.93618,-2.92214 -1.19763,-0.85278 -2.58997,-2.69117 -3.09409,-4.0853 -0.5473,-1.51353 -1.87784,-3.10194 -3.30241,-3.94245 -2.06137,-1.21624 -2.38581,-1.79963 -2.38581,-4.28999 0,-1.58527 0.32513,-3.08325 0.72251,-3.32884 0.45255,-0.27969 0.28861,-1.28559 -0.43879,-2.69222 -1.74216,-3.36897 -2.24104,-13.1064 -0.78531,-15.32812 0.67943,-1.03695 4.6634,-3.48684 9.71012,-5.97112 8.16012,-4.01686 8.81083,-4.21146 13.99671,-4.18573 4.10658,0.0204 6.18653,0.41036 8.49178,1.59219 1.67918,0.86087 3.47396,1.57911 3.9884,1.5961 0.7923,0.0262 4.17305,3.83212 7.63624,8.59667 0.49477,0.68069 1.05499,3.58749 1.24492,6.45956 0.32946,4.98187 0.24643,5.33457 -1.80604,7.67221 -1.18326,1.34766 -2.15138,2.99447 -2.15138,3.65959 0,2.02813 -2.07218,5.35776 -3.64506,5.85697 -0.81702,0.25931 -2.27961,1.72945 -3.2502,3.26696 -0.97059,1.53752 -2.89958,3.70103 -4.28665,4.80779 -2.75916,2.20159 -2.45217,3.88434 0.70863,3.88434 4.83481,0 6.54207,2.0884 8.5959,10.51488 0.68048,2.79188 2.06302,6.2778 3.0723,7.7465 1.59742,2.32455 1.7373,2.9819 1.0802,5.07614 -0.41517,1.32319 -1.01533,3.87425 -1.3337,5.66903 -0.41902,2.36228 -1.02931,3.46087 -2.21045,3.97906 -1.47919,0.64896 -1.6437,1.25868 -1.7609,6.52648 -0.17006,7.64333 -0.22773,7.12519 1.53453,13.78744 2.21761,8.38371 2.69957,23.09103 1.22383,37.34593 -0.63999,6.18202 -1.32331,17.9669 -1.51848,26.18862 -0.40571,17.09069 -0.90864,15.62691 6.67209,19.41922 3.20034,1.601 4.64813,2.77359 4.96033,4.0175 1.141,4.54611 -2.12502,6.62283 -9.48629,6.03194 -5.7083,-0.45821 -10.75672,-2.84294 -13.59442,-6.4216 l -2.07238,-2.61352 0.003,-21.61936 c 0.002,-15.62906 -0.28252,-23.14298 -1.02736,-27.11819 -0.56667,-3.02436 -1.52599,-9.54822 -2.13182,-14.49747 -0.60583,-4.94925 -1.24023,-9.13735 -1.40977,-9.30689 -1.62276,-1.62276 -1.21949,26.25461 0.50607,34.98429 0.6307,3.19072 1.54137,12.91131 2.02371,21.60131 l 0.87698,15.79999 -2.13565,2.69168 c -3.1166,3.92804 -8.01214,6.13091 -14.28458,6.4277 -2.99617,0.14177 -5.87559,-0.10883 -6.82828,-0.59425 z"
         style="fill:none;stroke:#ff711b;stroke-width:0.72516358;stroke-opacity:1" />
      <path
         inkscape:connector-curvature="0"
         id="path6217"
         d="m -144.61022,376.09814 c -3.10209,-1.13298 -2.73712,-4.20925 0.86076,-7.2551 3.62729,-3.0706 8.02249,-9.78619 8.02249,-12.25771 0,-2.52822 -2.07877,-8.37829 -5.65077,-15.90237 l -2.92625,-6.16389 -0.0624,9.45606 c -0.0413,6.25479 0.30577,10.86987 1.02527,13.6322 1.5681,6.02035 1.42238,8.86489 -0.52394,10.22815 -0.88642,0.62087 -2.11013,1.12913 -2.71936,1.12944 -0.60923,3.1e-4 -3.22879,1.02841 -5.82125,2.28466 -8.25147,3.99848 -18.85425,2.97107 -18.85425,-1.82698 0,-2.48243 1.96261,-3.85895 8.79465,-6.16833 9.03659,-3.05456 10.64542,-4.03613 11.14683,-6.8008 0.25156,-1.38696 -0.45753,-6.82619 -1.72502,-13.23243 -1.18368,-5.9826 -2.6804,-14.439 -3.32602,-18.79201 -0.64564,-4.353 -1.31451,-8.14208 -1.48637,-8.42017 -0.17187,-0.27809 -0.80425,-3.54611 -1.4053,-7.26228 -0.60104,-3.71616 -1.46294,-6.98541 -1.91533,-7.265 -0.45238,-0.27959 -1.46362,-4.03474 -2.2472,-8.34476 -1.36203,-7.4918 -1.37237,-8.14927 -0.23513,-14.95047 0.65426,-3.91273 0.97831,-7.45587 0.72012,-7.87363 -0.25819,-0.41776 -0.003,-1.47945 0.56736,-2.3593 0.57024,-0.87985 1.24412,-4.335 1.49751,-7.67811 l 0.46073,-6.07838 -4.28184,4.08418 c -7.5842,7.2341 -10.69982,5.30446 -11.43897,-7.08468 l -0.39646,-6.6452 -4.18447,0.0238 c -3.61621,0.0205 -4.56319,-0.28173 -6.9732,-2.22578 -3.29964,-2.66169 -3.7874,-4.56423 -1.66302,-6.48676 1.26681,-1.14645 2.63903,-1.4057 7.46485,-1.41032 5.80089,-0.006 5.9142,-0.04 5.99135,-1.81857 0.16759,-3.86402 0.33144,-4.32537 1.81887,-5.12142 2.04819,-1.09616 3.01937,0.0397 4.19632,4.90764 0.73266,3.03035 0.73301,4.27127 0.001,6.29345 -0.72913,2.01637 -0.73046,3.32477 -0.006,6.55897 0.49728,2.22207 1.14601,4.04012 1.44163,4.04012 1.08024,0 4.32673,-4.08432 6.15627,-7.74503 2.02831,-4.05845 4.21806,-6.03307 6.69032,-6.03307 0.85952,0 1.9264,-0.43816 2.37083,-0.97367 0.64952,-0.78262 0.0122,-1.15178 -3.24818,-1.88142 -2.76267,-0.61826 -4.928,-1.69532 -6.78977,-3.37731 -1.50328,-1.35827 -3.10172,-2.46958 -3.55193,-2.46958 -0.45021,0 -0.81856,-0.75343 -0.81856,-1.6743 0,-0.92088 -0.47911,-2.30775 -1.06469,-3.08195 -1.2628,-1.66957 -1.43199,-4.78479 -0.32024,-5.89654 0.57065,-0.57064 0.19453,-1.14264 -1.35204,-2.05623 -2.90571,-1.71645 -4.51467,-4.6744 -4.51467,-8.29989 0,-2.60462 0.52215,-3.6164 3.80711,-7.37713 2.09391,-2.39717 5.27556,-5.23064 7.07034,-6.2966 2.94738,-1.75052 4.00025,-1.94591 10.87746,-2.01861 6.40912,-0.0677 8.01591,-0.32556 10.15229,-1.62891 1.61805,-0.98713 3.74743,-1.5494 5.87439,-1.55112 7.02551,-0.006 12.20069,3.19624 14.9808,9.26879 1.64319,3.5892 1.78296,4.59388 1.39802,10.04857 -0.39927,5.6577 -0.33437,6.06065 0.9762,6.06065 1.28397,0 1.36765,0.38722 0.97944,4.53227 -0.26675,2.8483 -0.98112,5.32305 -1.92265,6.66059 -0.824,1.17057 -1.45296,2.47586 -1.39769,2.90065 0.83871,6.4463 0.7314,7.68262 -0.73499,8.46741 -0.82401,0.44099 -2.59557,0.62372 -3.9368,0.40607 -1.34124,-0.21766 -2.43862,-0.1001 -2.43862,0.26123 0,0.36133 1.42626,2.86982 3.16946,5.57443 3.69114,5.72686 6.57959,11.35509 7.24286,14.11297 0.66804,2.77769 -0.25351,4.57835 -5.61748,10.97632 l -4.75245,5.66856 2.1543,3.8172 c 1.73226,3.06939 2.1543,4.67842 2.1543,8.21326 0,3.50934 -0.2547,4.49379 -1.26269,4.88059 -0.82219,0.31551 -1.68083,-0.0318 -2.4613,-0.99568 -0.91128,-1.12539 -1.36366,-1.2664 -1.88716,-0.58824 -0.87053,1.12772 -2.81926,8.5223 -3.43381,13.0298 -0.57972,4.25209 -2.02389,5.86115 -4.72754,5.26733 -1.8621,-0.40898 -2.04336,-0.22706 -2.81094,2.82128 -1.18601,4.71005 -1.05284,5.81854 1.25332,10.43241 2.72063,5.4431 5.41433,13.79539 7.7696,24.091 1.04926,4.58666 2.69013,9.70279 3.64638,11.36917 1.03332,1.80068 1.73865,4.19668 1.73865,5.90621 0,4.13581 -2.58355,11.90562 -4.5835,13.78446 -2.96546,2.78592 -8.70695,3.7486 -13.00172,2.18001 z"
         style="fill:none;stroke:#ff711b;stroke-width:0.72516358;stroke-opacity:1" />
      <path
         inkscape:connector-curvature="0"
         id="path6215"
         d="m -130.36097,261.12875 2.82792,-4.83443 -1.65966,-3.12848 c -0.91281,-1.72051 -1.8764,-3.12833 -2.14131,-3.12833 -0.69487,0 -3.66779,9.54507 -3.66779,11.77605 0,2.14838 0.65842,4.18416 1.34662,4.16366 0.25646,-0.008 1.73886,-2.18938 3.29422,-4.84831 z"
         style="fill:none;stroke:#ff711b;stroke-width:0.72516358;stroke-opacity:1" />
      <path
         inkscape:connector-curvature="0"
         id="path6213"
         d="m -132.1026,232.83592 c 7.3e-4,-0.0881 -1.02249,-1.61277 -2.27398,-3.38826 -1.78663,-2.53473 -2.52656,-3.08456 -3.44453,-2.55959 -0.643,0.36772 -2.06649,0.98697 -3.1633,1.37611 -2.22908,0.79087 -2.55481,2.25472 -0.87539,3.93413 0.80144,0.80144 2.3438,1.07327 5.43728,0.95825 2.37517,-0.0883 4.31913,-0.23259 4.31992,-0.32064 z"
         style="fill:none;stroke:#ff711b;stroke-width:0.72516358;stroke-opacity:1" />
      <path
         inkscape:connector-curvature="0"
         id="path6211"
         d="m -97.131946,375.08696 c -2.01108,-1.40862 -2.08806,-4.16602 -0.23685,-8.48473 0.75617,-1.76404 1.74398,-4.98547 2.19514,-7.15874 0.75156,-3.62026 0.64061,-4.53517 -1.3241,-10.91783 -3.275,-10.63937 -3.794944,-14.469 -3.25307,-23.96044 0.46853,-8.20665 0.42914,-8.54897 -1.128934,-9.81063 -1.99701,-1.61707 -4.76909,-10.82695 -5.96708,-19.82484 -0.68911,-5.17583 -0.66608,-7.7911 0.11593,-13.16649 0.53672,-3.68927 0.92074,-7.68673 0.85338,-8.88325 -0.51199,-9.09453 -0.85877,-12.12027 -1.80924,-15.78599 -1.24056,-4.78453 -0.73175,-7.71976 2.12174,-12.23999 0.95989,-1.52056 1.74526,-3.52318 1.74526,-4.45027 0,-0.92708 1.14213,-2.93252 2.53807,-4.45654 1.395944,-1.52401 2.538074,-3.05623 2.538074,-3.40494 0,-1.58754 3.05635,-3.5376 5.62002,-3.58577 l 2.71936,-0.0511 -2.67802,-0.98438 c -3.37,-1.23873 -6.38399,-3.4119 -10.816174,-7.79875 -3.90461,-3.86466 -4.7864,-6.57816 -3.90551,-12.01816 0.30188,-1.86422 0.53221,-4.20531 0.51186,-5.20241 -0.0737,-3.61195 1.96564,-10.37771 3.69092,-12.24495 0.96338,-1.04266 2.36174,-2.96323 3.10745,-4.26793 2.473574,-4.3278 5.568094,-5.16161 18.978644,-5.11371 11.57456,0.0413 11.81949,0.0747 13.41552,1.82543 0.89414,0.98083 2.964314,3.14516 4.600374,4.80964 2.36761,2.40872 3.08517,3.76627 3.5161,6.65213 0.29777,1.9942 1.48748,5.4206 2.64379,7.61422 2.76632,5.24796 2.69307,8.10952 -0.35463,13.85439 -3.23203,6.09233 -7.33509,9.04083 -15.251344,10.95978 -6.99195,1.6949 -8.03115,2.38402 -2.68311,1.77926 4.79249,-0.54194 6.18094,0.15175 8.1442,4.06899 0.84286,1.68173 2.354774,3.9356 3.359804,5.0086 1.00503,1.073 1.65196,2.40789 1.43764,2.96642 -0.21433,0.55853 -0.11843,1.45441 0.21311,1.99086 0.47893,0.77492 0.82273,0.79283 1.67301,0.0872 1.71365,-1.4222 -0.12284,-10.65795 -2.39901,-12.06471 -1.15287,-0.71251 -0.86196,-3.79174 0.40413,-4.27758 0.62716,-0.24066 1.74783,-0.11241 2.4904,0.285 2.03441,1.08878 2.17063,0.95505 2.17063,-2.13089 0,-5.3772 2.38127,-8.25332 4.81682,-5.81778 0.52442,0.52442 1.04015,0.41339 1.68415,-0.36258 2.350261,-2.83189 5.207601,0.0889 3.997881,4.08662 -0.41603,1.37486 -0.33488,1.51757 0.44214,0.7775 0.52343,-0.49855 1.70224,-0.90646 2.61957,-0.90646 1.25695,0 1.66788,0.41093 1.66788,1.66788 0,0.91733 -0.35918,2.02705 -0.79816,2.46604 -0.58078,0.58077 -0.38327,0.92984 0.72516,1.28164 0.97199,0.3085 1.52332,1.09345 1.52332,2.16879 0,1.29364 -0.68466,1.95925 -2.94599,2.86406 -3.39735,1.35935 -6.19404,4.28936 -6.756391,7.07849 -0.21468,1.06473 -0.97479,2.13401 -1.68914,2.37616 -0.71436,0.24216 -2.27781,2.14201 -3.47433,4.22189 -1.21655,2.1147 -3.07646,4.21182 -4.21947,4.7576 -1.86314,0.88967 -2.29934,0.80701 -4.93064,-0.9343 -1.587684,-1.05067 -3.068654,-2.38451 -3.291054,-2.96408 -0.69368,-1.8077 -1.32677,-1.20156 -3.81782,3.65521 l -2.41523,4.70899 1.4703,3.44911 c 2.30854,5.41549 4.01867,16.99269 3.50879,23.75369 -0.47946,6.35773 -3.0501,17.83259 -5.98896,26.73371 -1.48701,4.50379 -2.32164,5.95333 -3.96666,6.88906 -2.39809,1.36408 -2.48798,1.72038 -1.00502,3.98367 1.44428,2.20424 4.35181,10.81009 6.527,19.3189 0.98264,3.84385 3.42259,10.25481 5.51981,14.50327 3.915784,7.93242 5.090004,13.06562 3.617974,15.81614 -1.746864,3.26404 -9.128374,3.35341 -12.031344,0.14567 -1.10692,-1.22314 -1.2055,-2.04889 -0.67045,-5.61595 0.34501,-2.30008 0.55976,-6.44701 0.47721,-9.2154 -0.14053,-4.71334 -0.5083,-5.73908 -5.78343,-16.12998 l -5.63337,-11.09635 -0.24149,5.97768 c -0.319,7.89605 1.16417,22.29183 2.85724,27.7326 2.00385,6.4395 1.81628,9.45764 -0.74706,12.02098 -1.69377,1.69378 -2.75421,2.11971 -5.27737,2.11971 -1.73672,0 -3.88293,-0.50799 -4.76935,-1.12886 z"
         style="fill:none;stroke:#ff711b;stroke-width:0.72516358;stroke-opacity:1" />
      <path
         inkscape:connector-curvature="0"
         id="path6209"
         d="m -97.293296,254.7979 c 0,-2.94756 -1.12025,-6.2111 -2.13203,-6.2111 -1.366774,0 -2.243794,2.85251 -1.776154,5.77693 0.39386,2.46312 0.73938,2.92504 2.187954,2.92504 1.47632,0 1.72023,-0.35317 1.72023,-2.49087 z"
         style="fill:none;stroke:#ff711b;stroke-width:0.72516358;stroke-opacity:1" />
      <path
         inkscape:connector-curvature="0"
         id="path6207"
         d="m 44.134078,375.44783 c -2.33127,-0.98171 -2.89651,-1.95271 -2.91003,-4.99901 -0.008,-1.85129 0.60293,-3.13719 2.34568,-4.93558 l 2.35678,-2.43203 0.10801,-33.4981 c 0.0594,-18.42395 0.38987,-34.96655 0.73437,-36.76133 0.75474,-3.93208 -0.31433,-9.83343 -3.0909,-17.06205 -1.61036,-4.19246 -2.0345,-6.78845 -2.48471,-15.20773 l -0.54287,-10.15229 2.9264,-6.16389 c 3.88205,-8.17675 5.78296,-10.64259 8.68642,-11.2679 3.15727,-0.67997 6.35365,-2.36003 6.35365,-3.33956 0,-0.43564 -0.96117,-1.88681 -2.13594,-3.22478 -1.17476,-1.33799 -2.45507,-3.58853 -2.84513,-5.00122 -0.39006,-1.41269 -1.55,-3.56775 -2.57763,-4.78902 -1.02764,-1.22128 -1.86843,-2.82886 -1.86843,-3.5724 0,-0.74354 -0.32632,-1.55357 -0.72516,-1.80006 -0.39884,-0.2465 -0.72517,-1.274 -0.72517,-2.28334 0,-1.023 -0.71521,-2.41432 -1.6161,-3.14381 -1.5328,-1.24118 -1.57187,-1.51952 -0.75796,-5.39984 0.47197,-2.25016 0.68461,-4.54341 0.47252,-5.09611 -0.53003,-1.38123 0.98764,-4.0189 2.3124,-4.0189 0.59674,0 1.25743,-0.44939 1.4682,-0.99865 0.21077,-0.54925 2.40322,-2.28848 4.8721,-3.86496 3.88213,-2.47889 5.371054,-2.97362 11.015354,-3.66016 5.40707,-0.65768 6.80195,-0.61666 8.13258,0.23915 0.88336,0.56814 2.21965,1.03298 2.96955,1.03298 0.7499,0 1.95409,0.65265 2.67598,1.45033 0.72189,0.79768 1.86402,1.45032 2.53807,1.45032 1.45498,0 3.62582,2.21697 3.62582,3.70286 0,0.57782 0.50449,1.77085 1.12109,2.65117 1.96969,2.81212 1.26373,16.04526 -0.93285,17.48624 -0.37955,0.249 -0.91677,1.37821 -1.19383,2.50937 -0.27704,1.13116 -1.3868,2.92594 -2.46612,3.9884 -1.07932,1.06246 -2.55374,3.23704 -3.27649,4.8324 -0.72276,1.59536 -2.14632,3.77153 -3.16347,4.83593 -1.01716,1.0644 -1.64766,2.26165 -1.40113,2.66056 0.24654,0.39891 2.5711,1.91245 5.16568,3.36342 2.59459,1.45098 5.18436,3.3538 5.75506,4.2285 1.74556,2.67537 2.74103,13.90972 2.6012,29.356 -0.12127,13.39806 0.008,15.1378 1.45008,19.47036 1.88927,5.67728 1.56512,9.06097 -1.13837,11.88281 l -1.88457,1.96707 0.45308,11.51655 c 0.2492,6.3341 0.52018,20.20905 0.60218,30.83324 l 0.1491,19.31668 3.06808,3.32847 c 5.13786,5.57392 3.71948,10.48411 -3.22114,11.15101 -5.01035,0.48144 -8.1888,-1.14988 -11.41069,-5.85642 -3.74232,-5.46679 -5.25129,-10.63548 -4.11329,-14.08925 0.61788,-1.87521 0.93016,-9.63687 1.01352,-25.19038 0.10223,-19.07458 -0.0703,-23.30399 -1.13931,-27.9188 -1.43826,-6.20924 -3.15155,-8.96846 -5.7646,-9.28382 -4.89048,-0.59019 -7.286294,16.59594 -5.68161,40.75637 0.50595,7.61759 1.22858,15.80811 1.60585,18.20115 1.63645,10.38016 0.32312,15.03969 -5.926814,21.02749 -1.69571,1.6246 -2.94759,2.10522 -5.9689,2.29156 -2.10273,0.12969 -4.62976,-0.10386 -5.61559,-0.519 z"
         style="fill:none;stroke:#ff711b;stroke-width:0.72516358;stroke-opacity:1" />
      <path
         inkscape:connector-curvature="0"
         id="path6205"
         d="m 50.170188,266.5346 c 0.79905,-6.65243 0.59341,-9.971 -0.61786,-9.971 -0.89055,0 -1.08774,1.24889 -1.08774,6.88906 0,7.46369 0.96897,9.21459 1.7056,3.08194 z"
         style="fill:none;stroke:#ff711b;stroke-width:0.72516358;stroke-opacity:1" />
      <path
         inkscape:connector-curvature="0"
         id="path6203"
         d="m 8.0841184,370.44634 c -1.94384,-0.82873 -3.11549,-2.89882 -3.17199,-5.60439 -0.0396,-1.8968 -0.10402,-1.94082 -0.90646,-0.61963 -0.47509,0.78223 -1.73609,2.33227 -2.80223,3.44452 -1.64847005,1.7198 -2.51919,2.02229 -5.82124,2.02229 -4.74695,0 -7.1061904,-1.42869 -7.1061904,-4.30331 0,-1.12507 0.47878,-2.44292 1.06394,-2.92857 1.5357104,-1.27452 5.9413504,-9.42891 6.4752204,-11.98496 0.26346,-1.26138 -0.44309,-7.0507 -1.68151,-13.77811 -1.17473,-6.38144 -2.54863,-15.16299 -3.0531,-19.51455 -0.87914,-7.58336 -1.00458,-7.95979 -3.0207804,-9.06454 -3.21751,-1.76299 -9.00435,-6.45745 -9.47637,-7.68751 -0.2314,-0.60304 0.36532,-4.11107 1.32605,-7.79564 2.34558,-8.99569 2.88896,-24.24502 0.93362,-26.20071 -0.9598,-0.95997 -1.26903,-2.4711 -1.26903,-6.20142 0,-3.42455 -0.46266,-5.9781 -1.5136,-8.3539 -1.52584,-3.44942 -1.69385,-9.20974 -0.35504,-12.17236 0.44672,-0.98853 0.23575,-1.26904 -0.95443,-1.26904 -0.84036,0 -2.15586,-0.62795 -2.92335,-1.39544 -0.76749,-0.76748 -2.10143,-1.77327 -2.96431,-2.23507 -1.16182,-0.62179 -1.45944,-1.27568 -1.14707,-2.52025 0.23199,-0.92434 -0.0283,-2.75099 -0.57833,-4.05922 -1.276839,-3.03673 -0.305779,-6.12663 2.35837,-7.50432 4.18359,-2.16341 4.71641,-3.44644 3.85174,-9.27504 -0.78013,-5.25884 -0.40976,-8.92737 1.20611,-11.94667 0.49367,-0.92243 0.6524,-2.87163 0.38985,-4.78718 -0.25037,-1.82666 -0.0682,-4.36641 0.41902,-5.8428 0.88166,-2.67147 5.93483,-7.70411 9.68892,-9.64959 2.35861,-1.22229 8.4124004,-1.44601 10.3964204,-0.38419 0.74688,0.39972 2.22744995,0.56055 3.29015995,0.3574 2.76517005,-0.5286 6.54729005,0.91795 8.94589005,3.42154 1.1374996,1.18729 2.4572696,2.15872 2.9328196,2.15872 1.51712,0 6.49269,5.39979 8.0527,8.73926 1.69587,3.63034 3.13911,9.73085 3.13911,13.26889 0,3.08782 1.15862,4.28514 3.03787,3.13932 1.15284,-0.70291 1.57772,-0.61687 2.39521,0.48504 0.54658,0.73673 0.82328,1.78383 0.61489,2.32687 -0.20838,0.54305 0.004,2.14762 0.47205,3.56571 0.7352,2.22768 0.64556,3.00262 -0.65905,5.69759 -0.8305,1.71557 -1.50999,3.64959 -1.50999,4.29781 0,0.64821 -0.32633,1.38025 -0.72517,1.62675 -0.39884,0.2465 -0.72638,1.32631 -0.72787,2.39958 -0.004,2.74549 -2.51197,6.54046 -4.6828,7.0853 -1.50257,0.37713 -1.7515,0.77137 -1.39184,2.20437 0.2409,0.95982 0.11504,2.14878 -0.27968,2.64215 -0.89343,1.11672 -1.86458,19.40907 -2.49232,46.94493 -0.0682,2.9913 0.13808,7.08766 0.45838,9.10303 l 0.58236,3.66429 -3.78834,3.40605 c -2.08359,1.87332 -4.07937,3.40604 -4.43507,3.40604 -1.2308996,0 -0.63922,6.29602 1.15503,12.29058 0.99098,3.31083 2.15822,9.65006 2.59387,14.08719 0.43566,4.43713 1.23872,8.76316 1.78459,9.6134 1.20171,1.87175 3.24137,13.08715 3.24458,17.84079 0.002,2.72269 -0.41034,3.89489 -1.99189,5.6648 -2.1702,2.42867 -6.45383,3.4216 -9.3797196,2.1742 z"
         style="fill:none;stroke:#ff711b;stroke-width:0.72516358;stroke-opacity:1" />
      <path
         inkscape:connector-curvature="0"
         id="path6201"
         d="m 8.3056484,351.79607 c 0.34866,-3.35184 0.0547,-5.49763 -1.42303,-10.38832 -4.56354,-15.10326 -4.10645,-14.51074 -3.63619,-4.71357 0.25823,5.37995 0.93731,10.36298 1.77883,13.05295 0.74862,2.39304 1.37526,5.32995 1.39254,6.52647 0.0516,3.57621 1.37711,0.43249 1.88785,-4.47753 z"
         style="fill:none;stroke:#ff711b;stroke-width:0.72516358;stroke-opacity:1" />
      <path
         inkscape:connector-curvature="0"
         id="path6199"
         d="m 143.06547,368.63434 c -1.11054,-1.11053 -1.77995,-2.6105 -1.77995,-3.9884 0,-2.48238 -1.11365,-2.96129 -1.8069,-0.77704 -0.8982,2.82996 -3.88517,4.3699 -8.47614,4.3699 -3.58385,0 -4.57781,-0.29165 -6.0661,-1.77995 -2.22163,-2.22162 -2.23421,-3.36696 -0.0655,-5.95992 3.09853,-3.70461 7.18892,-10.60515 7.74324,-13.06296 0.32281,-1.43129 -0.002,-6.66867 -0.79868,-12.8767 -0.73854,-5.75528 -1.56677,-14.21032 -1.84051,-18.78899 l -0.49771,-8.32483 -3.06704,-0.77229 c -1.68688,-0.42476 -3.55418,-0.95922 -4.14956,-1.18769 -0.77041,-0.29564 -1.21125,0.22824 -1.52899,1.81695 -0.88089,4.40442 -3.19388,3.56959 -7.50669,-2.70941 -1.79351,-2.61115 -1.32141,-7.72552 1.11098,-12.03548 1.15872,-2.05314 2.33713,-5.19944 2.6187,-6.9918 0.28157,-1.79235 1.64656,-8.38309 3.03331,-14.64608 2.40022,-10.84005 2.46323,-11.47602 1.31119,-13.23423 -1.43367,-2.18807 -1.00894,-2.11475 -3.89892,-0.67304 -3.04517,1.51913 -5.84642,0.46342 -5.84642,-2.20334 0,-0.98212 -0.32752,-1.98808 -0.72782,-2.23548 -0.40031,-0.2474 -0.52279,-1.26678 -0.27218,-2.26528 0.36659,-1.46058 -0.0493,-2.278 -2.12768,-4.1817 -1.42083,-1.30143 -2.78652,-3.3198 -3.03486,-4.48528 -0.24835,-1.16547 -0.75814,-2.68568 -1.13289,-3.37824 -1.01226,-1.87074 -0.82596,-3.45437 0.40639,-3.45437 1.43446,0 1.34091,-1.68377 -0.36258,-6.52647 -3.49719,-9.94182 -0.23778,-18.95911 8.288,-22.92911 4.21278,-1.96167 8.9591,-2.2198 11.99069,-0.6521 1.8987,0.98186 2.37844,0.94126 5.57232,-0.47154 4.80565,-2.12577 12.1266,-2.57318 16.65535,-1.01786 5.06717,1.74023 11.98794,6.85526 13.55296,10.01679 1.70224,3.43872 1.04292,7.13729 -1.86214,10.44597 -2.08419,2.37375 -2.1209,2.53102 -0.90463,3.87499 0.93874,1.03729 1.13924,2.01984 0.77261,3.7862 -0.27231,1.31197 -0.55712,3.36436 -0.63292,4.56088 -0.1344,2.12165 -1.59173,4.23165 -5.85226,8.47316 -1.15155,1.14641 -1.86534,2.31276 -1.5862,2.5919 0.27913,0.27914 2.36056,1.49325 4.6254,2.69803 5.15441,2.74189 8.16848,7.36502 6.65065,10.20112 -2.31973,4.33447 2.08804,30.40349 5.90829,34.94361 2.29934,2.7326 3.85528,7.52785 3.23915,9.9827 -0.52152,2.0779 -5.25717,6.87987 -6.79051,6.88561 -1.2045,0.004 -2.49759,-3.43011 -1.94586,-5.16846 0.50979,-1.60618 -0.5783,-1.79103 -1.80959,-0.30741 -0.49099,0.5916 -2.02807,1.02037 -3.53333,0.98562 -3.3423,-0.0771 -6.65267,1.22504 -6.65267,2.61692 0,0.58287 0.65182,3.7726 1.44848,7.0883 0.82068,3.41565 1.64355,10.11444 1.89854,15.45566 0.25219,5.2828 0.83651,10.06472 1.32913,10.87746 1.15844,1.91117 2.87558,17.75235 2.27268,20.9661 -0.71434,3.80779 -4.01231,6.22753 -8.48776,6.22753 -2.85868,0 -3.97091,-0.36776 -5.38309,-1.77995 z"
         style="fill:none;stroke:#ff711b;stroke-width:0.72516358;stroke-opacity:1" />
      <path
         inkscape:connector-curvature="0"
         id="path6197"
         d="m 145.71821,351.00509 c 0.76431,-3.70122 0.76613,-5.31417 0.01,-8.70196 -0.51063,-2.28724 -1.68963,-7.74818 -2.62,-12.13542 l -1.69159,-7.9768 -0.0576,11.24004 c -0.0411,8.02121 0.25164,12.25945 1.02229,14.79981 0.59394,1.95788 1.08982,4.89479 1.10195,6.52647 0.0289,3.88951 0.99044,2.27539 2.23514,-3.75214 z"
         style="fill:none;stroke:#ff711b;stroke-width:0.72516358;stroke-opacity:1" />
      <path
         inkscape:connector-curvature="0"
         id="path6195"
         d="m 158.24928,296.02571 c 0.72427,-1.88741 0.41011,-4.12425 -1.01016,-7.19233 l -1.34276,-2.90065 -0.0458,2.90065 c -0.0968,6.12837 1.25345,10.17686 2.39872,7.19233 z"
         style="fill:none;stroke:#ff711b;stroke-width:0.72516358;stroke-opacity:1" />
      <path
         inkscape:connector-curvature="0"
         id="path6193"
         d="m 129.79198,248.12267 c 1.53537,-0.24552 2.79158,-0.73101 2.79158,-1.07888 0,-0.34786 -0.24474,-0.64669 -0.54387,-0.66406 -0.29913,-0.0174 -1.9151,-0.29701 -3.59104,-0.62143 -2.86013,-0.55365 -3.08926,-0.47382 -3.73294,1.30061 -0.37717,1.03976 -0.94533,2.5348 -1.26258,3.32231 -0.53744,1.33412 -0.43608,1.32115 1.48523,-0.19016 1.13412,-0.8921 3.31825,-1.82288 4.85362,-2.06839 z"
         style="fill:none;stroke:#ff711b;stroke-width:0.72516358;stroke-opacity:1" />
      <path
         inkscape:connector-curvature="0"
         id="path6191"
         d="m -246.32776,173.41543 c -1.1094,-1.10941 -1.17986,-2.65197 -0.27619,-6.04695 0.23325,-0.87631 -0.69331,-1.13014 -4.76656,-1.30585 -5.38856,-0.23244 -6.1549,-0.72434 -6.17283,-3.96225 -0.008,-1.45089 0.58214,-2.36564 2.13591,-3.31054 5.9496,-3.61817 9.59756,-14.06276 5.64849,-16.17234 -2.66778,-1.42512 -7.77062,-6.69674 -7.78353,-8.04097 -0.007,-0.68603 -0.99493,-1.97406 -2.19633,-2.86228 -1.92443,-1.4228 -2.1535,-1.97388 -1.92511,-4.6314 0.62808,-7.30828 10.92142,-16.23391 18.90633,-16.39419 1.72046,-0.0345 4.33803,0.33652 5.81682,0.82457 2.86784,0.94647 4.13383,0.5447 2.72449,-0.86464 -1.55994,-1.55993 -0.9092,-3.27919 1.71195,-4.52302 2.46139,-1.168 2.70283,-1.15531 5.70973,0.30031 2.65501,1.28527 3.20613,1.92945 3.57022,4.17305 0.50122,3.08869 -0.42521,4.55777 -2.87426,4.55777 -2.10713,0 -2.20001,1.27571 -0.32696,4.49082 3.20017,5.49312 2.45326,12.24995 -1.79726,16.2587 -2.41425,2.27693 -2.42127,2.30268 -0.98222,3.60499 1.58088,1.43069 5.00814,7.82399 5.00814,9.34233 0,0.51993 1.46846,3.77594 3.26324,7.23558 4.12534,7.95207 4.1765,9.70901 0.37047,12.72344 -3.66388,2.90184 -5.35445,2.58962 -6.98452,-1.28994 -0.19444,-0.46277 -4.42079,1.73944 -6.80148,3.54402 -4.57474,3.46769 -9.8293,4.49803 -11.97854,2.34879 z"
         style="fill:none;stroke:#ff711b;stroke-width:0.72516358;stroke-opacity:1" />
      <path
         inkscape:connector-curvature="0"
         id="path6189"
         d="m -197.925,174.13477 c -1.5547,-0.62554 -3.07501,-4.36306 -2.65772,-6.53376 0.32898,-1.71128 0.0423,-2.24103 -1.75447,-3.24269 -1.76765,-0.98539 -2.30186,-1.93991 -3.01898,-5.39425 -1.41347,-6.80864 -0.60064,-10.27397 3.23938,-13.81037 l 3.25533,-2.99794 -0.94171,-9.6499 c -0.77624,-7.95432 -1.17418,-9.78479 -2.26477,-10.41759 -2.60669,-1.51248 -6.1462,-4.90025 -7.63273,-7.30551 l -1.51295,-2.448 1.56292,-3.06357 c 1.36895,-2.68335 1.45846,-3.41218 0.72127,-5.87268 -0.4629,-1.54503 -0.64469,-3.42964 -0.40398,-4.18804 0.27272,-0.85928 -0.29223,-2.48182 -1.49921,-4.30569 -4.36793,-6.60039 -2.80864,-14.24502 4.41589,-21.64937 3.44352,-3.52923 4.23494,-4.71078 3.33779,-4.98317 -5.84772,-1.77549 -8.78277,-5.084554 -8.78749,-9.907274 -0.003,-3.01725 0.83519,-5.06308 3.08829,-7.53816 1.28682,-1.41359 1.35211,-1.86236 0.55197,-3.79408 -0.49912,-1.20497 -0.72653,-2.66242 -0.50536,-3.23877 0.22117,-0.57636 0.0323,-2.02767 -0.41969,-3.22515 -1.48552,-3.93558 1.72209,-7.70167 4.33454,-5.08922 0.60464,0.60464 1.72249,0.3698 4.31473,-0.90645 2.7992,-1.37815 4.65847,-1.72252 9.29997,-1.72252 5.05727,0 6.35934,0.28686 10.15229,2.23666 2.77175,1.42484 4.87739,3.11259 5.80131,4.64998 0.79768,1.32732 2.46677,3.4209 3.7091,4.65239 1.24232,1.2315 2.62919,2.95186 3.08194,3.82303 1.35377,2.60491 0.94098,7.30133 -1.08737,12.37141 -1.74358,4.35827 -1.80694,4.851324 -0.72516,5.642354 2.97562,2.17582 0.0624,6.78785 -5.30307,8.39537 -2.57571,0.77171 -2.97108,1.14007 -2.58935,2.41245 1.40712,4.69021 3.25875,15.07541 3.26696,18.32336 0.007,2.64337 0.56505,4.80874 1.86992,7.25163 1.25976,2.35845 1.73247,4.13363 1.46418,5.49849 -0.51448,2.61723 -3.63921,6.50213 -7.41162,9.2147 -2.9446,2.11733 -3.00444,2.24743 -3.28051,7.13323 -0.2705,4.78727 -0.4431,5.18795 -4.53752,10.53356 l -4.25631,5.557 0.49526,5.93857 c 0.27239,3.26622 0.81729,6.32661 1.2109,6.80088 0.3936,0.47426 1.19385,2.61319 1.77832,4.75318 3.2507,11.90204 3.15478,13.91348 -0.74114,15.5413 -2.40822,1.00621 -7.73547,1.3133 -9.62115,0.55461 z"
         style="fill:none;stroke:#ff711b;stroke-width:0.72516358;stroke-opacity:1" />
      <path
         inkscape:connector-curvature="0"
         id="path6187"
         d="m -190.43643,128.13154 c 1.41306,-2.73255 0.86005,-5.93314 -0.96442,-5.58177 -0.67915,0.13079 -1.35034,0.83771 -1.49154,1.57093 -0.27893,1.44832 0.4741,6.26443 0.97948,6.26443 0.17111,0 0.83552,-1.01412 1.47648,-2.25359 z"
         style="fill:none;stroke:#ff711b;stroke-width:0.72516358;stroke-opacity:1" />
      <path
         inkscape:connector-curvature="0"
         id="path6185"
         d="m -181.33367,89.7461 c -0.67283,-1.68535 -0.71392,-1.64398 -0.74982,0.75503 -0.0209,1.39594 0.20317,3.84337 0.49791,5.43873 l 0.53589,2.90065 0.21393,-3.65568 c 0.11767,-2.01064 -0.10639,-4.45806 -0.49791,-5.43873 z"
         style="fill:none;stroke:#ff711b;stroke-width:0.72516358;stroke-opacity:1" />
      <path
         inkscape:connector-curvature="0"
         id="path6183"
         d="m -203.50676,87.0566 c -0.0126,-2.69217 0.22154,-5.99519 0.52042,-7.34006 0.48246,-2.17083 0.41548,-2.33901 -0.59687,-1.49883 -1.55869,1.2936 -3.93495,6.08819 -3.93495,7.93956 0,2.07094 2.00716,5.79419 3.12357,5.79419 0.64332,0 0.90408,-1.43764 0.88783,-4.89486 z"
         style="fill:none;stroke:#ff711b;stroke-width:0.72516358;stroke-opacity:1" />
      <path
         inkscape:connector-curvature="0"
         id="path6181"
         d="m -137.1773,174.10565 c -4.32249,-1.58935 -4.58122,-4.66903 -1.02217,-12.16713 l 2.60365,-5.48529 -0.78106,-5.96371 c -0.42958,-3.28003 -1.27025,-10.66354 -1.86814,-16.40779 -0.59789,-5.74426 -1.18662,-10.54364 -1.30828,-10.6653 -0.12165,-0.12166 -0.93426,2.45708 -1.80579,5.73054 -0.87153,3.27345 -2.79803,10.35709 -4.28111,15.74143 -2.18444,7.93061 -2.66972,10.86379 -2.55546,15.44561 0.15675,6.28568 -0.72891,8.79922 -4.01429,11.39274 -1.60924,1.27035 -2.68889,1.52102 -5.42916,1.26053 -1.88125,-0.17882 -3.92078,-0.74036 -4.53227,-1.24785 -1.84086,-1.52778 -1.38975,-5.61172 0.86693,-7.84844 6.02451,-5.97122 5.94265,-5.78177 6.73969,-15.59728 0.40595,-4.99925 1.42542,-11.6449 2.26547,-14.7681 0.84006,-3.1232 1.75146,-7.423 2.02536,-9.5551 0.46626,-3.62962 0.38812,-3.91832 -1.2267,-4.53227 -2.26557,-0.86137 -2.13196,-0.91964 -2.65321,1.15718 -0.64823,2.58275 -2.75793,2.29111 -5.42841,-0.7504 -2.68809,-3.06156 -2.95078,-6.37551 -0.85647,-10.80456 0.76677,-1.62157 1.92773,-6.70103 2.57992,-11.28769 0.65219,-4.58666 1.37225,-9.15519 1.60014,-10.15229 0.33987,-1.48698 0.24108,-1.64995 -0.54946,-0.90646 -1.98902,1.87063 -3.43103,1.01117 -4.90264,-2.92206 -1.47786,-3.94996 -1.39493,-7.54914 0.20421,-8.86185 0.48587,-0.39884 1.45215,-2.53941 2.1473,-4.75682 l 1.26391,-4.03166 -2.41263,-3.878624 c -2.21101,-3.55448 -2.43382,-4.45039 -2.66622,-10.72041 l -0.25359,-6.84179 4.60457,-4.28966 c 6.72521,-6.26527 10.39163,-7.90311 17.69168,-7.90311 12.03543,0 18.65053,4.33715 21.43771,14.05549 0.7965,2.77724 -0.38866,9.84231 -2.26949,13.52905 -1.65566,3.24537 -2.44859,13.690814 -1.32485,17.452574 0.64326,2.1533 0.54776,3.10696 -0.54083,5.40098 -0.7271,1.53226 -1.23433,3.94506 -1.12716,5.36176 0.37561,4.96548 4.30518,17.18266 6.56694,20.41687 3.41205,4.87904 3.58459,7.14819 0.78593,10.3357 -1.27618,1.45349 -2.78626,2.64271 -3.35572,2.64271 -0.94316,0 -1.21543,-0.44536 -2.15576,-3.5262 -0.21253,-0.69633 -0.56674,-0.76882 -1.19946,-0.24546 -0.49383,0.40847 -1.87685,0.85313 -3.07337,0.98812 l -2.17549,0.24547 0.16815,5.43872 c 0.0925,2.9913 0.3012,11.9652 0.46382,19.942 0.16262,7.9768 0.65802,15.64325 1.10089,17.03656 0.44286,1.39331 0.80521,3.94742 0.80521,5.6758 0,5.41035 -4.97065,8.77273 -10.15229,6.86747 z"
         style="fill:none;stroke:#ff711b;stroke-width:0.72516358;stroke-opacity:1" />
      <path
         inkscape:connector-curvature="0"
         id="path6179"
         d="m -126.95525,105.20655 c -0.63563,-1.09199 -0.7542,-0.94686 -0.77287,0.94603 -0.0121,1.22976 0.22269,2.48445 0.52182,2.78821 0.86573,0.87911 1.08012,-2.30991 0.25105,-3.73424 z"
         style="fill:none;stroke:#ff711b;stroke-width:0.72516358;stroke-opacity:1" />
      <path
         inkscape:connector-curvature="0"
         id="path6177"
         d="m -148.4146,73.09279 c 0.18913,-0.30603 -0.17732,-0.98898 -0.81435,-1.51766 -0.98052,-0.81376 -1.3131,-0.74947 -2.16751,0.41901 -0.5551,0.75915 -1.00927,1.59897 -1.00927,1.86627 0,0.63626 3.54485,-0.0455 3.99113,-0.76762 z"
         style="fill:none;stroke:#ff711b;stroke-width:0.72516358;stroke-opacity:1" />
      <path
         inkscape:connector-curvature="0"
         id="path6175"
         d="m -130.65083,71.62136 c 0,-1.25113 -0.22082,-1.35765 -1.45032,-0.69965 -0.79768,0.42691 -1.45033,1.09104 -1.45033,1.47585 0,0.3848 0.65265,0.69964 1.45033,0.69964 0.97524,0 1.45032,-0.48344 1.45032,-1.47584 z"
         style="fill:none;stroke:#ff711b;stroke-width:0.72516358;stroke-opacity:1" />
      <path
         inkscape:connector-curvature="0"
         id="path6173"
         d="m -80.112606,174.15515 c -0.25573,-0.25572 -3.49177,-0.53143 -7.19121,-0.61268 -7.18078,-0.15771 -10.40735,-1.16274 -11.13958,-3.4698 -1.00782,-3.17536 2.48193,-6.20008 8.69328,-7.53486 4.15528,-0.89293 4.5967,-2.09666 3.06611,-8.36111 -1.71708,-7.02772 -2.38425,-8.56313 -3.72089,-8.56313 -1.78,0 -7.25171,-5.48732 -8.7212,-8.74608 -1.051354,-2.33147 -1.163164,-3.26256 -0.5162,-4.29851 0.45421,-0.72731 1.0246,-3.88206 1.26753,-7.01055 0.43383,-5.58681 3.19172,-14.56791 5.22143,-17.00358 0.87076,-1.04492 0.4333,-1.20377 -4.30472,-1.56316 -6.236694,-0.47306 -8.557144,-1.40232 -10.683494,-4.27837 -2.14509,-2.90139 -1.68855,-4.51288 1.40537,-4.96055 2.46921,-0.35728 2.50469,-0.41297 2.42625,-3.80711 -0.11203,-4.84687 -0.12404,-4.89486 -1.22496,-4.89486 -3.32889,0 -6.97755,-6.47616 -5.95162,-10.56379 0.27514,-1.09627 2.63795,-4.20747 5.25067,-6.91379 4.45927,-4.619 5.17886,-5.06402 11.741334,-7.261304 4.28618,-1.43513 8.40386,-2.33233 10.64294,-2.31899 10.03088,0.0597 18.027824,8.348464 21.033024,21.800444 0.64598,2.89159 1.55626,5.29508 2.02284,5.34108 0.46658,0.046 1.17466,0.15947 1.5735,0.25213 0.39884,0.0927 1.13306,0.21819 1.63161,0.27894 1.22891,0.14974 1.14855,4.0653 -0.13434,6.54614 -1.31799,2.54869 -6.58141,7.34242 -8.06185,7.34242 -0.61692,0 -2.087484,0.49944 -3.267924,1.10987 l -2.14627,1.10987 2.81768,3.78499 c 4.366704,5.86577 4.535414,6.40124 4.008314,12.72176 -0.40725,4.88318 -0.30581,5.76629 0.70704,6.15494 1.47078,0.5644 1.5333,3.51877 0.1318,6.22897 -1.19053,2.30222 -4.883214,5.63835 -8.269304,7.47083 -1.25544,0.67942 -2.28262,1.50967 -2.28262,1.84499 0,1.33283 4.80288,8.53036 6.16389,9.23711 6.058764,3.14623 7.614224,4.88617 7.614224,8.51725 0,4.89504 -3.74402,10.42165 -8.205304,12.11199 -2.21019,0.83742 -10.83891,1.06695 -11.59735,0.3085 z"
         style="fill:none;stroke:#ff711b;stroke-width:0.72516358;stroke-opacity:1" />
      <path
         inkscape:connector-curvature="0"
         id="path6171"
         d="m -74.088066,160.28517 c 0,-1.68234 -3.80017,-7.25948 -4.17674,-6.12978 -0.15975,0.47926 0.38834,1.73433 1.21798,2.78905 0.82964,1.05471 1.50844,2.5263 1.50844,3.2702 0,0.74389 0.32632,1.35253 0.72516,1.35253 0.39884,0 0.72516,-0.5769 0.72516,-1.282 z"
         style="fill:none;stroke:#ff711b;stroke-width:0.72516358;stroke-opacity:1" />
      <path
         inkscape:connector-curvature="0"
         id="path6169"
         d="m -39.167311,173.84705 c -0.935,-0.37462 -1.87046,-1.33291 -2.07878,-2.12953 -0.46063,-1.76147 -0.80135,-1.79391 -2.51864,-0.23978 -0.73453,0.66473 -2.30605,1.2086 -3.49227,1.2086 -4.955211,0 -6.742041,-5.40227 -3.18502,-9.62956 2.35908,-2.80361 4.21818,-3.83727 7.82469,-4.35055 l 2.82675,-0.4023 0.083,-6.52977 c 0.0712,-5.6016 0.37571,-7.12803 2.14215,-10.73853 1.85942,-3.80051 1.95194,-4.32772 0.95385,-5.43542 -0.60792,-0.67467 -1.33213,-2.20565 -1.60934,-3.40217 -0.27723,-1.19652 -1.46281,-3.4025 -2.63465,-4.90219 -2.95393,-3.78038 -4.00502,-6.67115 -4.37429,-12.03042 -0.25609,-3.71671 -0.0976,-4.6883 0.82198,-5.03759 0.6266,-0.23803 1.73402,-1.18435 2.46093,-2.10294 0.72692,-0.91859 1.78747,-1.67017 2.35679,-1.67017 0.56931,0 1.03511,-0.32632 1.03511,-0.72516 0,-0.39884 0.81581,-0.72517 1.81291,-0.72517 1.14455,0 1.81291,-0.4094 1.81291,-1.1105 0,-0.61078 0.57106,-1.31303 1.26903,-1.56055 0.69797,-0.24753 1.75852,-0.84579 2.35678,-1.32946 1.768209,-1.42955 6.334229,-1.80712 8.898249,-0.7358 1.28819,0.53824 3.23947,0.80709 4.33618,0.59744 1.18769,-0.22705 1.99401,-0.0619 1.99401,0.40836 0,0.43425 1.55004,1.4656 3.44453,2.2919 3.0663704,1.33743 3.6644404,1.99644 5.4476304,6.00276 2.17459,4.88568 2.31624,5.68974 1.33746,7.59219 -0.35631,0.69256 -1.05851,3.05397 -1.56046,5.24759 -0.82944,3.62487 -1.81792,6.11506 -4.6531804,11.72237 -0.89144,1.76299 -0.82298,2.07757 0.77973,3.58324 2.1062904,1.97876 3.7639204,7.20235 4.3762304,13.79052 l 0.44911,4.83221 2.74757,0.43936 c 5.29967,0.84744 10.18136,6.95652 8.69107,10.87625 -0.7607,2.00081 -2.7837,3.34201 -5.04089005,3.34201 -0.81426,0 -2.54891995,0.65143 -3.85477995,1.44762 -3.14948,1.92024 -5.07955,1.82894 -7.6851704,-0.36355 -1.18739,-0.99913 -3.16305,-2.01742 -4.39035,-2.26288 -2.6352,-0.52705 -4.04718,-1.98394 -3.44462,-3.55418 0.57449,-1.49711 -1.03034,-3.96897 -2.57683,-3.96897 -1.59431,0 -2.26508,1.14411 -2.74359,4.67976 -0.3564,2.63333 -0.62608,2.92867 -3.31082,3.62582 -1.60754,0.41743 -3.647069,1.49319 -4.532269,2.39058 -1.69608,1.71943 -3.75336,1.98816 -6.57271,0.85856 z"
         style="fill:none;stroke:#ff711b;stroke-width:0.72516358;stroke-opacity:1" />
      <path
         inkscape:connector-curvature="0"
         id="path6167"
         d="m 19.349778,173.80155 c -1.05664,-0.3872 -2.30607,-1.63322 -2.77649,-2.76893 -1.00544,-2.42736 0.0523,-5.04249 3.24175,-8.01518 3.47258,-3.23653 3.98831,-5.55 3.08666,-13.84603 -0.60335,-5.55143 -0.58867,-9.1255 0.059,-14.35787 1.18271,-9.55498 1.08856,-11.41389 -0.70064,-13.83392 -1.62629,-2.19968 -1.64185,-3.63663 -0.18258,-16.86603 0.437,-3.96172 0.37346,-4.18622 -1.37276,-4.85013 -2.33412,-0.88743 -2.57633,-1.31677 -3.46993,-6.15068 -0.63929,-3.45823 -0.54922,-4.37106 0.66636,-6.7538 0.77306,-1.51531 1.79517,-4.20203 2.27136,-5.97047 0.48487,-1.80069 1.88702,-4.23657 3.18689,-5.53644 2.02491,-2.02492 2.1719,-2.41425 1.15193,-3.05123 -0.64302,-0.40158 -2.64953,-0.56329 -4.45888,-0.35935 -5.97128,0.67305 -10.7719396,-3.0309 -10.7307696,-8.279334 0.0204,-2.6104 2.2389496,-7.43923 4.2326396,-9.21295 1.24055,-1.10368 1.55271,-2.20489 1.55271,-5.47761 0,-5.07813 2.58913,-10.66975 6.22439,-13.44249 1.39022,-1.06038 4.44707,-2.57615 6.793,-3.36838 3.6899,-1.2461 4.96118,-1.34399 9.42326,-0.72564 10.10702,1.40061 16.02608,7.32129 15.97876,15.98311 -0.025,4.57047 -1.96726,13.88524 -3.17314,15.21773 -0.63998,0.70716 -1.16358,1.84731 -1.16358,2.53368 0,1.693864 -1.93118,5.314034 -3.06669,5.748774 -0.6307,0.24147 -0.40993,0.73069 0.69926,1.5495 1.02179,0.7543 2.19721,3.12755 3.17987,6.42039 0.85739,2.87308 1.99123,5.7245 2.51964,6.33648 0.70462,0.81609 0.84245,2.52352 0.51704,6.40503 -0.39277,4.68499 -0.63908,5.36661 -2.14641,5.93969 -2.12692,0.80866 -2.15947,2.27136 -0.23126,10.39016 1.86968,7.87237 1.98384,10.95837 0.46737,12.63406 -1.94693,2.15132 -2.15205,5.30644 -0.83915,12.90672 0.94264,5.45676 1.12797,9.21643 0.77412,15.70371 -0.52449,9.61551 -0.41256,10.00262 4.3914,15.18873 3.17294,3.42535 3.772254,5.33122 2.45208,7.79798 -2.1565,4.02946 -14.66502,3.74725 -16.24361,-0.36647 -0.73569,-1.91718 -0.51169,-12.53444 0.2747,-13.02046 0.98578,-0.60924 0.91675,-3.48843 -0.33904,-14.14069 -0.58774,-4.9855 -1.26729,-11.8793 -1.51012,-15.31957 -0.40968,-5.80421 -0.57479,-6.31574 -2.29085,-7.09764 -1.50172,-0.68423 -2.08346,-0.63076 -3.09474,0.28444 -1.00653,0.9109 -1.34376,3.03713 -1.75827,11.08604 -0.28209,5.47744 -0.76505,12.8959 -1.07326,16.48546 -0.41453,4.82786 -0.31692,7.02257 0.37505,8.43259 1.04204,2.12338 1.4733,10.2923 0.67598,12.80443 -1.03777,3.26972 -8.36849,4.86981 -13.57308,2.96262 z"
         style="fill:none;stroke:#ff711b;stroke-width:0.72516358;stroke-opacity:1" />
      <path
         inkscape:connector-curvature="0"
         id="path6165"
         d="m 74.207892,173.78265 c -3.7636,-2.05854 -4.20439,-5.33036 -1.45032,-10.76525 0.9971,-1.96768 1.8129,-4.13382 1.8129,-4.81365 0,-0.67982 0.43229,-1.75122 0.96064,-2.38089 0.74671,-0.8899 0.89064,-4.07029 0.64631,-14.28209 l -0.31431,-13.13725 -2.27794,-1.00344 c -1.53488,-0.67613 -2.50156,-1.76266 -2.96353,-3.33095 -0.44791,-1.5206 -1.40096,-2.62382 -2.74904,-3.18222 -5.43156,-2.24982 -6.71243,-4.86472 -4.40537,-8.99355 1.13027,-2.02277 2.17111,-10.37121 2.6671,-21.39232 0.17763,-3.9473 1.36293,-7.25164 2.6012,-7.25164 0.35229,0 1.37171,-1.22371 2.2654,-2.71936 2.84344,-4.7587 5.06653,-6.70777 7.65082,-6.70777 3.4803,0 3.53349,-1.06631 0.12976,-2.60118 -1.86805,-0.84237 -3.7086,-2.45482 -4.8751,-4.27091 -1.0307,-1.60469 -2.81103,-3.839814 -3.95629,-4.966944 -1.75752,-1.7297 -2.02542,-2.47331 -1.71768,-4.76776 0.20055,-1.49513 -0.0669,-3.97364 -0.59431,-5.50778 -1.90779,-5.5494 -2.04083,-8.31851 -0.4819,-10.03045 0.78886,-0.86628 1.82143,-2.7172 2.29459,-4.11314 0.78348,-2.31147 6.19963,-7.25164 7.95032,-7.25164 0.34559,0 1.14059,-0.78177 1.76666,-1.73728 0.84406,-1.2882 2.03718,-1.84987 4.61567,-2.17286 4.42862,-0.55474 4.97548,-0.56033 8.91609,-0.0911 6.73461,0.802 9.104658,1.31753 10.494938,2.28286 0.78671,0.54624 2.81475,0.99317 4.50675,0.99317 2.37159,0 3.26093,0.34483 3.88194,1.50521 0.44306,0.82787 1.46179,2.16145 2.26385,2.9635 1.01206,1.01206 1.32362,1.99477 1.01824,3.21155 -0.26805,1.06797 0.0239,2.46141 0.74702,3.56497 1.01279,1.5457 1.07914,2.58334 0.45193,7.06715 -0.92314,6.59929 -2.05945,9.58561 -5.11522,13.44329 -1.64635,2.07838 -2.97728,3.05218 -4.17158,3.05218 -1.11717,0 -2.6774,1.022244 -4.29788,2.815924 -1.39921,1.54876 -3.515308,3.21825 -4.702458,3.70998 -2.54895,1.05581 -2.20465,2.17606 0.66879,2.17606 2.434378,0 5.476118,2.23749 6.970618,5.12754 0.59694,1.15436 2.04319,3.07869 3.21389,4.2763 2.73493,2.79779 3.57884,6.79909 1.83936,8.72119 -1.04941,1.15958 -1.12332,1.76988 -0.44873,3.70503 0.4442,1.27422 0.80763,4.87985 0.80763,8.01249 0,4.31029 0.35278,6.35394 1.45033,8.40173 2.4672,4.60327 1.61199,7.03781 -3.10186,8.83 -2.03947,0.77541 -2.25005,1.09308 -2.99709,4.52117 -0.28666,1.31546 -1.13248,2.17054 -2.68103,2.71036 -2.15501,0.75124 -2.23541,0.91797 -1.69582,3.517 0.31154,1.50059 0.59336,7.32811 0.62627,12.95003 0.0375,6.41215 0.36457,10.60121 0.87752,11.24004 0.44974,0.5601 1.0547,1.83417 1.34434,2.83127 0.28965,0.9971 1.30856,3.17631 2.26424,4.84269 4.01896,7.00766 1.18035,11.11091 -7.686458,11.11091 -3.79079,0 -4.68781,-0.26785 -6.30161,-1.88165 -1.82386,-1.82386 -1.86707,-2.07439 -1.40727,-8.15809 0.31864,-4.21599 0.89568,-6.87159 1.75777,-8.08935 1.18223,-1.66998 1.22431,-2.80711 0.53379,-14.42316 -0.70727,-11.89766 -0.83763,-12.64263 -2.30704,-13.18341 -0.85657,-0.31525 -1.77098,-0.91874 -2.03201,-1.3411 -0.42167,-0.68228 -1.20057,-0.37421 -4.61951,1.82712 -0.12768,0.0822 -0.23531,5.9084 -0.23918,12.94708 -0.005,9.59058 0.23462,13.08867 0.9573,13.95909 2.051,2.47026 3.46698,13.52424 2.0674,16.13938 -1.39454,2.6057 -10.03185,3.95099 -13.43084,2.09188 z"
         style="fill:none;stroke:#ff711b;stroke-width:0.72516358;stroke-opacity:1" />
      <path
         inkscape:connector-curvature="0"
         id="path6163"
         d="m 89.073752,120.55254 c 0,-1.05247 -0.31388,-1.66171 -0.72517,-1.40752 -0.39884,0.24649 -0.72516,1.08156 -0.72516,1.8557 0,0.77414 0.32632,1.40753 0.72516,1.40753 0.39884,0 0.72517,-0.83507 0.72517,-1.85571 z"
         style="fill:none;stroke:#ff711b;stroke-width:0.72516358;stroke-opacity:1" />
      <path
         inkscape:connector-curvature="0"
         id="path6161"
         d="m 73.699632,105.49671 c 0.47897,-1.32455 0.87084,-4.44854 0.87084,-6.94222 0,-3.88333 -0.17754,-4.49977 -1.23723,-4.29569 -1.56205,0.30082 -2.2245,2.66539 -2.3163,8.26788 -0.0973,5.93928 1.12119,7.2883 2.68269,2.97003 z"
         style="fill:none;stroke:#ff711b;stroke-width:0.72516358;stroke-opacity:1" />
      <path
         inkscape:connector-curvature="0"
         id="path6159"
         d="m 104.88142,103.34295 c 0.11916,-2.24667 -0.1938,-5.48412 -0.69547,-7.19434 l -0.91212,-3.10949 -0.39959,4.65655 c -0.51833,6.04017 -0.1027,10.35603 0.96347,10.00469 0.45488,-0.1499 0.92455,-2.11073 1.04371,-4.35741 z"
         style="fill:none;stroke:#ff711b;stroke-width:0.72516358;stroke-opacity:1" />
      <path
         inkscape:connector-curvature="0"
         id="path6157"
         d="m 129.32032,173.83045 c -2.29081,-1.32845 -3.26323,-2.9336 -3.26323,-5.38651 0,-2.71222 1.90895,-4.66378 6.52647,-6.67215 5.7751,-2.51185 5.9,-3.01793 4.25633,-17.24605 -0.73663,-6.3765 -1.08776,-7.51834 -2.90961,-9.46165 -1.13953,-1.2155 -2.0838,-2.84712 -2.09836,-3.62582 -0.0162,-0.86515 -1.25403,-2.1931 -3.18266,-3.41433 -1.78314,-1.1291 -3.67923,-3.10074 -4.35848,-4.53217 -1.14252,-2.40767 -1.12939,-2.68691 0.26394,-5.6157 0.80644,-1.69512 1.76847,-3.57152 2.13786,-4.16978 0.98373,-1.59328 2.26312,-14.37632 1.7861,-17.84585 -0.35909,-2.61178 -0.13237,-3.28381 1.83484,-5.43873 5.73093,-6.27779 6.41885,-7.13275 6.04217,-7.50942 -0.22121,-0.22122 -2.38415,-0.21596 -4.80653,0.0117 -3.67207,0.34507 -4.80342,0.16276 -6.80475,-1.09654 -4.56561,-2.87283 -5.46262,-8.53976 -2.30017,-14.5316 0.79143,-1.49953 1.46405,-4.615174 1.64379,-7.614224 0.37473,-6.25274 2.81075,-11.43567 7.10076,-15.10775 4.07347,-3.48675 8.40016,-4.83425 15.52225,-4.83425 4.89007,0 6.53508,0.32029 9.67105,1.88301 6.37972,3.17915 8.85717,9.36955 7.02112,17.54372 -0.40601,1.8076 -0.22462,2.72923 0.74888,3.80493 0.70656,0.78075 1.2568,2.399494 1.22275,3.597214 -0.0477,1.67694 0.25455,2.17767 1.3144,2.17767 0.75696,0 1.74434,0.68768 2.19417,1.52818 0.5981,1.11756 1.03362,1.31241 1.62087,0.72517 1.32862,-1.32862 3.99595,-0.94505 4.50135,0.64731 0.2992,0.94269 1.09719,1.45032 2.27992,1.45032 1.62631,0 1.79711,0.261 1.60792,2.45696 -0.11643,1.35132 0.21184,2.96726 0.72949,3.59098 1.41351,1.70318 0.71947,3.60919 -1.76748,4.85386 -4.09655,2.05025 -6.22919,4.24111 -7.18477,7.38094 -2.08767,6.8596 -3.38278,8.20139 -7.40338,7.67013 -1.94879,-0.25749 -1.96093,-0.19131 -1.35801,7.40466 0.3042,3.83254 1.31835,8.59198 2.68134,12.58352 2.95118,8.64262 3.04733,12.06615 0.41601,14.81265 -2.62186,2.73664 -5.17841,12.75144 -4.48367,17.56398 0.62601,4.33649 2.99337,8.42277 5.47526,9.45081 4.71949,1.95487 5.61848,6.19282 1.90003,8.95706 -2.58768,1.92364 -9.20967,2.03662 -12.64109,0.21566 -2.97886,-1.58079 -4.22653,-4.0695 -4.83559,-9.64549 -0.38692,-3.54238 -0.18631,-5.23499 0.99453,-8.39107 0.81357,-2.17447 1.785,-6.37775 2.15874,-9.34062 0.66012,-5.23318 0.62848,-5.42847 -1.10772,-6.83737 -1.16442,-0.94491 -1.97469,-2.56766 -2.3251,-4.65658 -0.77881,-4.64276 -2.33007,-4.74831 -2.33007,-0.15854 0,2.90488 -0.31579,3.86632 -1.55501,4.73431 -1.43734,1.00676 -1.52636,1.54869 -1.17622,7.16093 0.20834,3.33946 0.71979,6.70214 1.13655,7.47261 1.21213,2.24091 3.08681,12.83151 2.6227,14.8164 -0.81739,3.49572 -2.08964,5.21218 -5.22538,7.04985 -3.62507,2.12443 -11.80247,3.0327 -14.29431,1.58769 z"
         style="fill:none;stroke:#ff711b;stroke-width:0.72516358;stroke-opacity:1" />
      <path
         inkscape:connector-curvature="0"
         id="path6155"
         d="m 164.49076,86.48714 c 0,-0.21345 -0.51361,-1.17197 -1.14136,-2.13003 -0.62775,-0.95806 -1.36197,-3.20107 -1.63162,-4.98446 l -0.49026,-3.24254 -2.74677,2.78746 -2.74676,2.78746 2.49954,1.18612 c 1.37476,0.65236 3.06928,1.81566 3.76562,2.5851 1.20187,1.32804 2.49161,1.85132 2.49161,1.01089 z"
         style="fill:none;stroke:#ff711b;stroke-width:0.72516358;stroke-opacity:1" />
      <path
         inkscape:connector-curvature="0"
         id="path6141"
         d="m 163.3437,74.83245 c 1.22994,-0.47197 1.64733,-4.63598 0.46469,-4.63598 -0.84748,0 -1.16468,0.55254 -1.76926,3.08195 -0.51215,2.14269 -0.44328,2.22474 1.30457,1.55403 z"
         style="fill:none;stroke:#ff711b;stroke-width:0.72516358;stroke-opacity:1" />
    </g>
  </g>
  <g
     inkscape:label="axis"
     id="layer2"
     inkscape:groupmode="layer"
     transform="translate(250,98.555542)"
     style="display:none"
     sodipodi:insensitive="true">
    <g
       id="g6060">
      <path
         style="fill:none;fill-opacity:1;fill-rule:evenodd;stroke:#ff711b;stroke-width:1;stroke-miterlimit:4;stroke-dasharray:none;stroke-dashoffset:0.00094597;stroke-opacity:1"
         d="M -200.22841,901.44445 A 49.771594,49.77158 0 0 1 -250,951.21605 49.771594,49.77158 0 0 1 -299.7716,901.44445 49.771594,49.77158 0 0 1 -250,851.67286 a 49.771594,49.77158 0 0 1 49.77159,49.77159 z"
         id="path901"
         inkscape:connector-curvature="0" />
      <g
         style="stroke:#ff711b;stroke-width:1;stroke-miterlimit:4;stroke-dasharray:none;stroke-opacity:1"
         gcodetools="Preview group"
         id="g5358">
        <path
           inkscape:connector-curvature="0"
           d="m 0.22894919,750 v 500"
           gcodetools="Preview"
           style="fill:none;stroke:#ff711b;stroke-width:1;stroke-miterlimit:4;stroke-dasharray:none;stroke-opacity:1;marker-end:url(#DrawCurveMarker)"
           transform="translate(-250,-98.555542)"
           id="path5356" />
      </g>
      <path
         id="path41"
         style="fill:none;stroke:#ff711b;stroke-width:1;stroke-miterlimit:4;stroke-dasharray:none;stroke-dashoffset:0.00094597;stroke-opacity:1;marker-end:url(#DrawCurveMarker)"
         gcodetools="Preview"
         d="M -200,999.77 H 199.76835"
         inkscape:connector-curvature="0"
         transform="translate(-250,-98.555542)" />
    </g>
  </g>
  <defs
     id="defs50">
    <marker
       style="overflow:visible"
       refY="-2.41063"
       refX="-8"
       orient="auto"
       id="DrawCurveMarker">
      <path
         id="path47"
         style="fill:#000044;fill-rule:evenodd;stroke-width:0.625;stroke-linejoin:round"
         d="m -6.55552,-2.41063 v 0 L -13.11104,0 c 1.0473,-1.42323 1.04126,-3.37047 0,-4.82126"
         inkscape:connector-curvature="0" />
    </marker>
  </defs>
  <defs
     id="defs55">
    <marker
       style="overflow:visible"
       refY="-2.41063"
       refX="8"
       orient="auto"
       id="DrawCurveMarker_r">
      <path
         id="path52"
         style="fill:#000044;fill-rule:evenodd;stroke-width:0.625;stroke-linejoin:round"
         d="m 6.55552,-2.41063 v 0 L 13.11104,0 c -1.0473,-1.42323 -1.04126,-3.37047 0,-4.82126"
         inkscape:connector-curvature="0" />
    </marker>
  </defs>
  <g
     id="g5369" />
  <defs
     id="defs5374">
    <marker
       style="overflow:visible"
       refY="-1.687441"
       refX="-4"
       orient="auto"
       id="CheckToolsAndOPMarker">
      <path
         id="path5371"
         style="fill:#000044; fill-rule:evenodd;stroke:none;"
         d=" m -4.588864,-1.687441 0.0,0.0 L -9.177728,0.0 c 0.73311,-0.996261 0.728882,-2.359329 0.0,-3.374882" />
    </marker>
  </defs>
  <defs
     id="defs5379">
    <marker
       style="overflow:visible"
       refY="-1.687441"
       refX="-4"
       orient="auto"
       id="InOutPathMarker">
      <path
         id="path5376"
         style="fill:#0072a7; fill-rule:evenodd;stroke:none;"
         d="m -4.588864,-1.687441 0.0,0.0 L -9.177728,0.0 c 0.73311,-0.996261 0.728882,-2.359329 0.0,-3.374882" />
    </marker>
  </defs>
  <g
     id="g5735" />
</svg>
