<?xml version="1.0" encoding="UTF-8" standalone="no"?>
<!-- Created with Inkscape (http://www.inkscape.org/) -->

<svg
   xmlns:dc="http://purl.org/dc/elements/1.1/"
   xmlns:cc="http://creativecommons.org/ns#"
   xmlns:rdf="http://www.w3.org/1999/02/22-rdf-syntax-ns#"
   xmlns:svg="http://www.w3.org/2000/svg"
   xmlns="http://www.w3.org/2000/svg"
   xmlns:sodipodi="http://sodipodi.sourceforge.net/DTD/sodipodi-0.dtd"
   xmlns:inkscape="http://www.inkscape.org/namespaces/inkscape"
   width="148mm"
   height="105mm"
   viewBox="0 0 148 105"
   version="1.1"
   id="svg48"
   inkscape:version="0.92.1 r15381"
   sodipodi:docname="drawing.svg">
  <defs
     id="defs42">
    <inkscape:path-effect
       effect="spiro"
       id="path-effect4798"
       is_visible="true" />
    <inkscape:path-effect
       effect="spiro"
       id="path-effect4794"
       is_visible="true" />
    <inkscape:path-effect
       effect="spiro"
       id="path-effect4790"
       is_visible="true" />
    <inkscape:path-effect
       effect="spiro"
       id="path-effect4786"
       is_visible="true" />
    <inkscape:path-effect
       effect="spiro"
       id="path-effect4782"
       is_visible="true" />
    <inkscape:path-effect
       effect="spiro"
       id="path-effect4778"
       is_visible="true" />
    <inkscape:path-effect
       effect="spiro"
       id="path-effect4774"
       is_visible="true" />
    <inkscape:path-effect
       effect="spiro"
       id="path-effect4770"
       is_visible="true" />
    <inkscape:path-effect
       effect="spiro"
       id="path-effect4766"
       is_visible="true" />
    <inkscape:path-effect
       effect="spiro"
       id="path-effect4762"
       is_visible="true" />
    <inkscape:path-effect
       effect="spiro"
       id="path-effect4758"
       is_visible="true" />
    <inkscape:path-effect
       effect="spiro"
       id="path-effect4762-8"
       is_visible="true" />
    <inkscape:path-effect
       effect="spiro"
       id="path-effect4766-3"
       is_visible="true" />
    <inkscape:path-effect
       effect="spiro"
       id="path-effect4778-9"
       is_visible="true" />
    <inkscape:path-effect
       effect="spiro"
       id="path-effect4794-0"
       is_visible="true" />
    <inkscape:path-effect
       effect="spiro"
       id="path-effect4798-5"
       is_visible="true" />
    <inkscape:path-effect
       effect="spiro"
       id="path-effect4762-0"
       is_visible="true" />
    <inkscape:path-effect
       effect="spiro"
       id="path-effect4766-2"
       is_visible="true" />
    <inkscape:path-effect
       effect="spiro"
       id="path-effect4778-3"
       is_visible="true" />
    <inkscape:path-effect
       effect="spiro"
       id="path-effect4794-9"
       is_visible="true" />
    <inkscape:path-effect
       effect="spiro"
       id="path-effect4798-9"
       is_visible="true" />
    <inkscape:path-effect
       effect="spiro"
       id="path-effect4762-5"
       is_visible="true" />
    <inkscape:path-effect
       effect="spiro"
       id="path-effect4766-7"
       is_visible="true" />
    <inkscape:path-effect
       effect="spiro"
       id="path-effect4778-6"
       is_visible="true" />
    <inkscape:path-effect
       effect="spiro"
       id="path-effect4794-2"
       is_visible="true" />
    <inkscape:path-effect
       effect="spiro"
       id="path-effect4798-7"
       is_visible="true" />
  </defs>
  <sodipodi:namedview
     id="base"
     pagecolor="#ffffff"
     bordercolor="#666666"
     borderopacity="1.0"
     inkscape:pageopacity="0.0"
     inkscape:pageshadow="2"
     inkscape:zoom="1.4"
     inkscape:cx="209.6826"
     inkscape:cy="270.68209"
     inkscape:document-units="mm"
     inkscape:current-layer="layer3"
     showgrid="false"
     inkscape:window-width="1280"
     inkscape:window-height="751"
     inkscape:window-x="0"
     inkscape:window-y="1"
     inkscape:window-maximized="1" />
  <metadata
     id="metadata45">
    <rdf:RDF>
      <cc:Work
         rdf:about="">
        <dc:format>image/svg+xml</dc:format>
        <dc:type
           rdf:resource="http://purl.org/dc/dcmitype/StillImage" />
        <dc:title></dc:title>
      </cc:Work>
    </rdf:RDF>
  </metadata>
  <g
     inkscape:groupmode="layer"
     id="layer2"
     inkscape:label="decoupe"
     style="display:inline">
    <path
       style="opacity:1;fill:none;fill-opacity:1;fill-rule:evenodd;stroke:#0002f8;stroke-width:1.02047241;stroke-miterlimit:4;stroke-dasharray:none;stroke-opacity:0.90196078"
       d="M 134.71484,37.150391 90.939453,146.91406 v -24.06445 h -0.859375 a 3.9345214,20.541664 0 0 0 0.650391,-11.28516 3.9345214,20.541664 0 0 0 -3.933594,-20.541012 3.9345214,20.541664 0 0 0 -3.935547,20.541012 3.9345214,20.541664 0 0 0 0.650391,11.28516 h -2.669922 a 3.447338,20.590196 0 0 0 0.509765,-10.71289 3.447338,20.590196 0 0 0 -3.447265,-20.589845 3.447338,20.590196 0 0 0 -3.447266,20.589845 3.447338,20.590196 0 0 0 0.50586,10.71289 h -3.765625 a 3.6093936,20.573678 0 0 0 0.49414,-10.35547 3.6093936,20.573678 0 0 0 -3.609375,-20.574218 3.6093936,20.573678 0 0 0 -3.609375,20.574218 3.6093936,20.573678 0 0 0 0.496094,10.35547 h -1.285156 a 3.7717949,20.557509 0 0 0 0.402344,-9.19531 3.7717949,20.557509 0 0 0 -3.771485,-20.558597 3.7717949,20.557509 0 0 0 -3.771484,20.558597 3.7717949,20.557509 0 0 0 0.40039,9.19531 h -0.02344 v 33.58398 H 42.365234 v 133.54688 h 32.902344 v 4.29883 h 2.695313 c -1.695365,1.7492 -2.648222,4.11695 -2.650391,6.58593 8.6e-5,5.16061 4.070666,9.34399 9.091797,9.34375 5.021131,2.4e-4 9.091711,-4.18314 9.091797,-9.34375 -0.0027,-2.46927 -0.956263,-4.83705 -2.652344,-6.58593 h 86.89844 c -2.00482,1.62616 -3.25167,4.04402 -3.43555,6.66211 -0.0154,0.2197 -0.0232,0.43988 -0.0234,0.66015 -9.7e-4,5.16137 4.06992,9.34595 9.0918,9.34571 4.70746,-0.004 8.63351,-3.70019 9.04883,-8.51954 0.40683,4.77285 4.29918,8.51872 9.04883,8.51954 5.02187,2.4e-4 9.09276,-4.18434 9.09179,-9.34571 -2.4e-4,-0.22027 -0.008,-0.44045 -0.0234,-0.66015 -0.18388,-2.61809 -1.43073,-5.03595 -3.43555,-6.66211 h 86.89844 c -1.69609,1.74888 -2.64966,4.11667 -2.65235,6.58593 9e-5,5.16062 4.07067,9.34399 9.0918,9.34375 3.97322,1.9e-4 7.3431,-2.62312 8.58008,-6.27343 1.03391,4.12269 4.64864,7.00581 8.79101,7.01172 5.02188,2.4e-4 9.09277,-4.18434 9.0918,-9.34571 -2.4e-4,-0.22027 -0.008,-0.44045 -0.0234,-0.66015 -0.18387,-2.61809 -1.43072,-5.03595 -3.43554,-6.66211 h 86.89843 c -1.69608,1.74888 -2.64965,4.11666 -2.65234,6.58593 9e-5,5.16061 4.07067,9.34399 9.0918,9.34375 4.70745,-0.004 8.6335,-3.70018 9.04882,-8.51953 0.0455,5.11965 4.09371,9.25695 9.08594,9.25782 5.0219,2.4e-4 9.09278,-4.18433 9.0918,-9.34571 0,-0.22027 -0.008,-0.44045 -0.0234,-0.66015 -0.18406,-2.61809 -1.43073,-5.03595 -3.43555,-6.66211 h 86.89844 c -1.69606,1.74888 -2.64966,4.11667 -2.65234,6.58593 7e-5,5.16061 4.07067,9.344 9.09179,9.34375 5.02111,2.3e-4 9.09173,-4.18315 9.0918,-9.34375 -0.002,-2.46897 -0.95504,-4.83672 -2.65039,-6.58593 h 2.69531 V 151.3418 H 530.0332 L 480.92969,37.150391 441.46289,136.11133 v -13.26172 h -0.85937 a 3.9345214,20.541664 0 0 0 0.65039,-11.28516 3.9345214,20.541664 0 0 0 -3.9336,-20.541012 3.9345214,20.541664 0 0 0 -3.93554,20.541012 3.9345214,20.541664 0 0 0 0.65039,11.28516 h -2.66993 a 3.447338,20.590196 0 0 0 0.50977,-10.71289 3.447338,20.590196 0 0 0 -3.44727,-20.589845 3.447338,20.590196 0 0 0 -3.44726,20.589845 3.447338,20.590196 0 0 0 0.50586,10.71289 h -3.76563 a 3.6093936,20.573678 0 0 0 0.49414,-10.35547 3.6093936,20.573678 0 0 0 -3.60937,-20.574218 3.6093936,20.573678 0 0 0 -3.60938,20.574218 3.6093936,20.573678 0 0 0 0.4961,10.35547 h -1.28516 a 3.7717949,20.557509 0 0 0 0.40235,-9.19531 3.7717949,20.557509 0 0 0 -3.77149,-20.558597 3.7717949,20.557509 0 0 0 -3.77148,20.558597 3.7717949,20.557509 0 0 0 0.40039,9.19531 h -0.0234 v 13.16797 L 364.92969,37.150391 328.32422,128.93555 v -6.08594 h -0.85938 a 3.9345214,20.541664 0 0 0 0.65235,-11.28516 3.9345214,20.541664 0 0 0 -3.9336,-20.541012 h -0.002 a 3.9345214,20.541664 0 0 0 -3.93359,20.541012 3.9345214,20.541664 0 0 0 0.65039,11.28516 h -2.66992 a 3.447338,20.590196 0 0 0 0.50976,-10.71289 3.447338,20.590196 0 0 0 -3.44726,-20.589845 3.447338,20.590196 0 0 0 -3.44727,20.589845 3.447338,20.590196 0 0 0 0.50586,10.71289 h -3.76563 a 3.6093936,20.573678 0 0 0 0.49414,-10.35547 3.6093936,20.573678 0 0 0 -3.60937,-20.574218 3.6093936,20.573678 0 0 0 -3.60937,20.574218 3.6093936,20.573678 0 0 0 0.49609,10.35547 h -1.28516 a 3.7717949,20.557509 0 0 0 0.40235,-9.19531 3.7717949,20.557509 0 0 0 -3.77149,-20.558597 3.7717949,20.557509 0 0 0 -3.77148,20.558597 3.7717949,20.557509 0 0 0 0.40039,9.19531 h -0.0234 V 136.9707 L 251.38477,37.150391 212.5,134.65234 v -11.80273 h -0.85938 a 3.9345214,20.541664 0 0 0 0.6504,-11.28516 3.9345214,20.541664 0 0 0 -3.9336,-20.541012 3.9345214,20.541664 0 0 0 -3.93554,20.541012 3.9345214,20.541664 0 0 0 0.65039,11.28516 h -2.66993 a 3.447338,20.590196 0 0 0 0.50977,-10.71289 3.447338,20.590196 0 0 0 -3.44727,-20.589845 3.447338,20.590196 0 0 0 -3.44726,20.589845 3.447338,20.590196 0 0 0 0.50586,10.71289 h -3.76563 a 3.6093936,20.573678 0 0 0 0.49414,-10.35547 3.6093936,20.573678 0 0 0 -3.60937,-20.574218 3.6093936,20.573678 0 0 0 -3.60938,20.574218 3.6093936,20.573678 0 0 0 0.4961,10.35547 h -1.28516 a 3.7717948,20.557509 0 0 0 0.40234,-9.19531 3.7717948,20.557509 0 0 0 -3.77148,-20.558597 3.7717948,20.557509 0 0 0 -3.77148,20.558597 3.7717948,20.557509 0 0 0 0.40039,9.19531 h -0.0234 v 16.08203 z M 90.318359,175.58594 h 88.550781 v 62.60742 c 0.12145,-0.005 0.24066,-0.0176 0.36328,-0.0176 1.24611,1e-5 0.24788,0.24532 -0.36328,0.70508 v 1.14453 c -0.62737,-0.46824 -0.39218,-0.8495 0,-1.14453 v -0.6875 c -4.85131,0.18126 -8.72831,3.94207 -8.72852,8.56836 0.006,0.88713 0.15754,1.76803 0.44922,2.61133 -10.30123,-3.29213 -25.0399,-5.17753 -40.52148,-5.1836 -18.51369,7.8e-4 -29.78371,2.68529 -39.750001,7.1211 v 0.0371 h -0.08594 c 0.02841,-0.0127 0.05751,-0.0245 0.08594,-0.0371 z m 115.660161,0 h 92.55078 l -0.99805,62.43945 h -91.55273 z m 116.34179,0 h 92.55078 v 74.90039 c 0.72454,0.27985 1.42378,0.56573 2.08594,0.86133 h -2.08594 v -0.86133 c -10.20364,-3.94119 -26.41446,-6.29615 -43.75,-6.29688 -15.48158,0.006 -30.22025,1.89147 -40.52148,5.1836 0.29168,-0.8433 0.44322,-1.7242 0.44922,-2.61133 -2.1e-4,-4.62629 -3.8772,-8.3871 -8.72852,-8.56836 v 0.6875 c 0.39218,0.29503 0.62737,0.67629 0,1.14453 v -1.14453 c -0.61116,-0.45976 -1.60939,-0.70507 -0.36328,-0.70508 0.12263,0 0.24184,0.013 0.36328,0.0176 z m 117.10547,0 h 88.55078 l -0.99804,76.43945 H 439.42578 Z M 189.01953,294.2793 h 3.38281 0.043 3.38281 c -1.9761,1.60929 -3.19312,3.98367 -3.40234,6.54297 -0.20798,-2.57074 -1.44075,-4.93873 -3.40625,-6.54297 z m 117.86524,0 h 2.69531 2.58984 c -1.35225,1.10579 -2.36986,2.58478 -2.93359,4.26367 -0.40105,-1.59735 -1.19964,-3.07517 -2.35156,-4.26367 z m 116.34179,0 h 2.69532 3.35351 c -1.97213,1.60604 -3.18945,3.97398 -3.40234,6.52734 -0.0161,-2.44809 -0.9664,-4.7919 -2.64649,-6.52734 z"
       id="rect982"
       inkscape:connector-curvature="0"
       transform="scale(0.26458333)" />
  </g>
  <g
     inkscape:groupmode="layer"
     id="layer3"
     inkscape:label="plis"
     style="display:inline">
    <path
       style="display:inline;fill:none;stroke:#000000;stroke-width:0.26499999;stroke-linecap:butt;stroke-linejoin:miter;stroke-opacity:1;stroke-miterlimit:4;stroke-dasharray:0.79499996,0.26499999;stroke-dashoffset:0"
       d="M 140.23795,40.042517 2.4054257,40.053506"
       id="path4987"
       inkscape:connector-curvature="0" />
    <path
       style="display:inline;fill:none;stroke:#000000;stroke-width:0.26499999;stroke-linecap:butt;stroke-linejoin:miter;stroke-opacity:1;stroke-miterlimit:4;stroke-dasharray:0.79499996,0.26499999;stroke-dashoffset:0"
       d="M 51.467659,32.503959 51.283697,77.861397"
       id="path4989"
       inkscape:connector-curvature="0" />
    <path
       style="display:inline;fill:none;stroke:#000000;stroke-width:0.26499999;stroke-linecap:butt;stroke-linejoin:miter;stroke-opacity:1;stroke-miterlimit:4;stroke-dasharray:0.79499996,0.26499999;stroke-dashoffset:0"
       d="m 112.63861,32.503959 -0.18396,45.357439"
       id="path4989-4"
       inkscape:connector-curvature="0" />
    <path
       style="display:inline;fill:none;stroke:#000000;stroke-width:0.26499999;stroke-linecap:butt;stroke-linejoin:miter;stroke-opacity:1;stroke-miterlimit:4;stroke-dasharray:0.79499996,0.26499999;stroke-dashoffset:0"
       d="M 19.495452,32.503959 19.31149,77.861398"
       id="path4989-7"
       inkscape:connector-curvature="0" />
    <path
       style="display:inline;fill:none;stroke:#000000;stroke-width:0.26499999;stroke-linecap:butt;stroke-linejoin:miter;stroke-opacity:1;stroke-miterlimit:4;stroke-dasharray:0.79499996,0.26499999;stroke-dashoffset:0"
       d="M 81.646164,32.503959 81.462202,77.861398"
       id="path4989-1"
       inkscape:connector-curvature="0" />
  </g>
</svg>
