  0
SECTION
  2
HEADER
  9
$ACADVER
  1
AC1014
  9
$HANDSEED
  5
FFFF
  9
$MEASUREMENT
 70
     1
  0
ENDSEC
  0
SECTION
  2
TABLES
  0
TABLE
  2
VPORT
  5
8
330
0
100
AcDbSymbolTable
 70
     4
  0
VPORT
  5
2E
330
8
100
AcDbSymbolTableRecord
100
AcDbViewportTableRecord
  2
*ACTIVE
 70
     0
 10
0.0
 20
0.0
 11
1.0
 21
1.0
 12
210.0
 22
148.5
 13
0.0
 23
0.0
 14
10.0
 24
10.0
 15
10.0
 25
10.0
 16
0.0
 26
0.0
 36
1.0
 17
0.0
 27
0.0
 37
0.0
 40
341.0
 41
1.24
 42
50.0
 43
0.0
 44
0.0
 50
0.0
 51
0.0
 71
     0
 72
   100
 73
     1
 74
     3
 75
     0
 76
     0
 77
     0
 78
     0
  0
ENDTAB
  0
TABLE
  2
LTYPE
  5
5
330
0
100
AcDbSymbolTable
 70
     1
  0
LTYPE
  5
14
330
5
100
AcDbSymbolTableRecord
100
AcDbLinetypeTableRecord
  2
BYBLOCK
 70
     0
  3

 72
    65
 73
     0
 40
0.0
  0
LTYPE
  5
15
330
5
100
AcDbSymbolTableRecord
100
AcDbLinetypeTableRecord
  2
BYLAYER
 70
     0
  3

 72
    65
 73
     0
 40
0.0
  0
LTYPE
  5
16
330
5
100
AcDbSymbolTableRecord
100
AcDbLinetypeTableRecord
  2
CONTINUOUS
 70
     0
  3
Solid line
 72
    65
 73
     0
 40
0.0
  0
ENDTAB
  0
TABLE
  2
LAYER
  5
2
100
AcDbSymbolTable
 70
3
  0
LAYER
  5
50
100
AcDbSymbolTableRecord
100
AcDbLayerTableRecord
  2
0
 70
0
  6
CONTINUOUS
  0
LAYER
  5
51
100
AcDbSymbolTableRecord
100
AcDbLayerTableRecord
  2
decoupe
 70
0
  6
CONTINUOUS
  0
LAYER
  5
52
100
AcDbSymbolTableRecord
100
AcDbLayerTableRecord
  2
plis
 70
0
  6
CONTINUOUS
  0
ENDTAB
  0
TABLE
  2
STYLE
  5
3
330
0
100
AcDbSymbolTable
 70
     1
  0
STYLE
  5
11
330
3
100
AcDbSymbolTableRecord
100
AcDbTextStyleTableRecord
  2
STANDARD
 70
     0
 40
0.0
 41
1.0
 50
0.0
 71
     0
 42
2.5
  3
txt
  4

  0
ENDTAB
  0
TABLE
  2
VIEW
  5
6
330
0
100
AcDbSymbolTable
 70
     0
  0
ENDTAB
  0
TABLE
  2
UCS
  5
7
330
0
100
AcDbSymbolTable
 70
     0
  0
ENDTAB
  0
TABLE
  2
APPID
  5
9
330
0
100
AcDbSymbolTable
 70
     2
  0
APPID
  5
12
330
9
100
AcDbSymbolTableRecord
100
AcDbRegAppTableRecord
  2
ACAD
 70
     0
  0
ENDTAB
  0
TABLE
  2
DIMSTYLE
  5
A
330
0
100
AcDbSymbolTable
 70
     1
  0
DIMSTYLE
105
27
330
A
100
AcDbSymbolTableRecord
100
AcDbDimStyleTableRecord
  2
ISO-25
 70
     0
  3

  4

  5

  6

  7

 40
1.0
 41
2.5
 42
0.625
 43
3.75
 44
1.25
 45
0.0
 46
0.0
 47
0.0
 48
0.0
140
2.5
141
2.5
142
0.0
143
0.03937007874016
144
1.0
145
0.0
146
1.0
147
0.625
 71
     0
 72
     0
 73
     0
 74
     0
 75
     0
 76
     0
 77
     1
 78
     8
170
     0
171
     3
172
     1
173
     0
174
     0
175
     0
176
     0
177
     0
178
     0
270
     2
271
     2
272
     2
273
     2
274
     3
340
11
275
     0
280
     0
281
     0
282
     0
283
     0
284
     8
285
     0
286
     0
287
     3
288
     0
  0
ENDTAB
  0
TABLE
  2
BLOCK_RECORD
  5
1
330
0
100
AcDbSymbolTable
 70
     1
  0
BLOCK_RECORD
  5
1F
330
1
100
AcDbSymbolTableRecord
100
AcDbBlockTableRecord
  2
*MODEL_SPACE
  0
BLOCK_RECORD
  5
1B
330
1
100
AcDbSymbolTableRecord
100
AcDbBlockTableRecord
  2
*PAPER_SPACE
  0
ENDTAB
  0
ENDSEC
  0
SECTION
  2
BLOCKS
  0
BLOCK
  5
20
330
1F
100
AcDbEntity
  8
0
100
AcDbBlockBegin
  2
*MODEL_SPACE
 70
     0
 10
0.0
 20
0.0
 30
0.0
  3
*MODEL_SPACE
  1

  0
ENDBLK
  5
21
330
1F
100
AcDbEntity
  8
0
100
AcDbBlockEnd
  0
BLOCK
  5
1C
330
1B
100
AcDbEntity
 67
     1
  8
0
100
AcDbBlockBegin
  2
*PAPER_SPACE
  1

  0
ENDBLK
  5
1D
330
1B
100
AcDbEntity
 67
     1
  8
0
100
AcDbBlockEnd
  0
ENDSEC
  0
SECTION
  2
ENTITIES
  0
SPLINE
  5
100
100
AcDbEntity
  8
decoupe
 62
5
100
AcDbSpline
 70
8
 71
3
 72
8
 73
4
 74
0
 40
0
 40
0
 40
0
 40
0
 40
1
 40
1
 40
1
 40
1
 10
6.366156
 20
19.181244
 30
0.0
 10
6.366156
 20
19.181244
 30
0.0
 10
6.305996
 20
19.181244
 30
0.0
 10
6.305996
 20
19.181244
 30
0.0
  0
SPLINE
  5
101
100
AcDbEntity
  8
decoupe
 62
5
100
AcDbSpline
 70
8
 71
3
 72
8
 73
4
 74
0
 40
0
 40
0
 40
0
 40
0
 40
1
 40
1
 40
1
 40
1
 10
6.305996
 20
19.181244
 30
0.0
 10
6.335627
 20
19.415712
 30
0.0
 10
6.351455
 20
19.690353
 30
0.0
 10
6.351527
 20
19.971254
 30
0.0
  0
SPLINE
  5
102
100
AcDbEntity
  8
decoupe
 62
5
100
AcDbSpline
 70
8
 71
3
 72
8
 73
4
 74
0
 40
0
 40
0
 40
0
 40
0
 40
1
 40
1
 40
1
 40
1
 10
6.351527
 20
19.971254
 30
0.0
 10
6.351522
 20
20.765293
 30
0.0
 10
6.228247
 20
21.409027
 30
0.0
 10
6.076158
 20
21.409214
 30
0.0
  0
SPLINE
  5
103
100
AcDbEntity
  8
decoupe
 62
5
100
AcDbSpline
 70
8
 71
3
 72
8
 73
4
 74
0
 40
0
 40
0
 40
0
 40
0
 40
1
 40
1
 40
1
 40
1
 10
6.076158
 20
21.409214
 30
0.0
 10
6.003097
 20
21.409314
 30
0.0
 10
5.933023
 20
21.257860
 30
0.0
 10
5.881354
 20
20.988181
 30
0.0
  0
SPLINE
  5
104
100
AcDbEntity
  8
decoupe
 62
5
100
AcDbSpline
 70
8
 71
3
 72
8
 73
4
 74
0
 40
0
 40
0
 40
0
 40
0
 40
1
 40
1
 40
1
 40
1
 10
5.881354
 20
20.988181
 30
0.0
 10
5.829685
 20
20.718502
 30
0.0
 10
5.800655
 20
20.352694
 30
0.0
 10
5.800653
 20
19.971254
 30
0.0
  0
SPLINE
  5
105
100
AcDbEntity
  8
decoupe
 62
5
100
AcDbSpline
 70
8
 71
3
 72
8
 73
4
 74
0
 40
0
 40
0
 40
0
 40
0
 40
1
 40
1
 40
1
 40
1
 10
5.800653
 20
19.971254
 30
0.0
 10
5.800724
 20
19.690353
 30
0.0
 10
5.816552
 20
19.415712
 30
0.0
 10
5.846183
 20
19.181244
 30
0.0
  0
LWPOLYLINE
  5
106
100
AcDbEntity
  8
decoupe
 62
5
100
AcDbPolyline
 90
3
 70
0
 10
9.430623
 20
25.180561
 30
0.0
 10
6.366156
 20
17.496628
 30
0.0
 10
6.366156
 20
19.181244
 30
0.0
  0
SPLINE
  5
107
100
AcDbEntity
  8
decoupe
 62
5
100
AcDbSpline
 70
8
 71
3
 72
8
 73
4
 74
0
 40
0
 40
0
 40
0
 40
0
 40
1
 40
1
 40
1
 40
1
 10
5.659277
 20
19.181244
 30
0.0
 10
5.682480
 20
19.406901
 30
0.0
 10
5.694827
 20
19.666377
 30
0.0
 10
5.694962
 20
19.931193
 30
0.0
  0
SPLINE
  5
108
100
AcDbEntity
  8
decoupe
 62
5
100
AcDbSpline
 70
8
 71
3
 72
8
 73
4
 74
0
 40
0
 40
0
 40
0
 40
0
 40
1
 40
1
 40
1
 40
1
 10
5.694962
 20
19.931193
 30
0.0
 10
5.694960
 20
20.727236
 30
0.0
 10
5.586917
 20
21.372555
 30
0.0
 10
5.453639
 20
21.372571
 30
0.0
  0
SPLINE
  5
109
100
AcDbEntity
  8
decoupe
 62
5
100
AcDbSpline
 70
8
 71
3
 72
8
 73
4
 74
0
 40
0
 40
0
 40
0
 40
0
 40
1
 40
1
 40
1
 40
1
 10
5.453639
 20
21.372571
 30
0.0
 10
5.320360
 20
21.372555
 30
0.0
 10
5.212318
 20
20.727237
 30
0.0
 10
5.212315
 20
19.931193
 30
0.0
  0
SPLINE
  5
10a
100
AcDbEntity
  8
decoupe
 62
5
100
AcDbSpline
 70
8
 71
3
 72
8
 73
4
 74
0
 40
0
 40
0
 40
0
 40
0
 40
1
 40
1
 40
1
 40
1
 10
5.212315
 20
19.931193
 30
0.0
 10
5.212368
 20
19.666533
 30
0.0
 10
5.224620
 20
19.407068
 30
0.0
 10
5.247728
 20
19.181244
 30
0.0
  0
LWPOLYLINE
  5
10b
100
AcDbEntity
  8
decoupe
 62
5
100
AcDbPolyline
 90
2
 70
0
 10
5.846183
 20
19.181244
 30
0.0
 10
5.659277
 20
19.181244
 30
0.0
  0
SPLINE
  5
10c
100
AcDbEntity
  8
decoupe
 62
5
100
AcDbSpline
 70
8
 71
3
 72
8
 73
4
 74
0
 40
0
 40
0
 40
0
 40
0
 40
1
 40
1
 40
1
 40
1
 10
4.984118
 20
19.181244
 30
0.0
 10
5.006696
 20
19.401188
 30
0.0
 10
5.018633
 20
19.651341
 30
0.0
 10
5.018710
 20
19.906172
 30
0.0
  0
SPLINE
  5
10d
100
AcDbEntity
  8
decoupe
 62
5
100
AcDbSpline
 70
8
 71
3
 72
8
 73
4
 74
0
 40
0
 40
0
 40
0
 40
0
 40
1
 40
1
 40
1
 40
1
 10
5.018710
 20
19.906172
 30
0.0
 10
5.018711
 20
20.288154
 30
0.0
 10
4.992091
 20
20.654495
 30
0.0
 10
4.944706
 20
20.924602
 30
0.0
  0
SPLINE
  5
10e
100
AcDbEntity
  8
decoupe
 62
5
100
AcDbSpline
 70
8
 71
3
 72
8
 73
4
 74
0
 40
0
 40
0
 40
0
 40
0
 40
1
 40
1
 40
1
 40
1
 10
4.944706
 20
20.924602
 30
0.0
 10
4.897321
 20
21.194709
 30
0.0
 10
4.833052
 20
21.346455
 30
0.0
 10
4.766038
 20
21.346457
 30
0.0
  0
SPLINE
  5
10f
100
AcDbEntity
  8
decoupe
 62
5
100
AcDbSpline
 70
8
 71
3
 72
8
 73
4
 74
0
 40
0
 40
0
 40
0
 40
0
 40
1
 40
1
 40
1
 40
1
 10
4.766038
 20
21.346457
 30
0.0
 10
4.699024
 20
21.346455
 30
0.0
 10
4.634754
 20
21.194709
 30
0.0
 10
4.587369
 20
20.924602
 30
0.0
  0
SPLINE
  5
110
100
AcDbEntity
  8
decoupe
 62
5
100
AcDbSpline
 70
8
 71
3
 72
8
 73
4
 74
0
 40
0
 40
0
 40
0
 40
0
 40
1
 40
1
 40
1
 40
1
 10
4.587369
 20
20.924602
 30
0.0
 10
4.539984
 20
20.654495
 30
0.0
 10
4.513364
 20
20.288154
 30
0.0
 10
4.513366
 20
19.906172
 30
0.0
  0
SPLINE
  5
111
100
AcDbEntity
  8
decoupe
 62
5
100
AcDbSpline
 70
8
 71
3
 72
8
 73
4
 74
0
 40
0
 40
0
 40
0
 40
0
 40
1
 40
1
 40
1
 40
1
 10
4.513366
 20
19.906172
 30
0.0
 10
4.513483
 20
19.651269
 30
0.0
 10
4.525468
 20
19.401111
 30
0.0
 10
4.548094
 20
19.181244
 30
0.0
  0
LWPOLYLINE
  5
112
100
AcDbEntity
  8
decoupe
 62
5
100
AcDbPolyline
 90
2
 70
0
 10
5.247728
 20
19.181244
 30
0.0
 10
4.984118
 20
19.181244
 30
0.0
  0
SPLINE
  5
113
100
AcDbEntity
  8
decoupe
 62
5
100
AcDbSpline
 70
8
 71
3
 72
8
 73
4
 74
0
 40
0
 40
0
 40
0
 40
0
 40
1
 40
1
 40
1
 40
1
 10
4.458128
 20
19.181244
 30
0.0
 10
4.476564
 20
19.380977
 30
0.0
 10
4.486207
 20
19.601374
 30
0.0
 10
4.486294
 20
19.824956
 30
0.0
  0
SPLINE
  5
114
100
AcDbEntity
  8
decoupe
 62
5
100
AcDbSpline
 70
8
 71
3
 72
8
 73
4
 74
0
 40
0
 40
0
 40
0
 40
0
 40
1
 40
1
 40
1
 40
1
 10
4.486294
 20
19.824956
 30
0.0
 10
4.486301
 20
20.619741
 30
0.0
 10
4.368097
 20
21.264082
 30
0.0
 10
4.222273
 20
21.264147
 30
0.0
  0
SPLINE
  5
115
100
AcDbEntity
  8
decoupe
 62
5
100
AcDbSpline
 70
8
 71
3
 72
8
 73
4
 74
0
 40
0
 40
0
 40
0
 40
0
 40
1
 40
1
 40
1
 40
1
 10
4.222273
 20
21.264147
 30
0.0
 10
4.076450
 20
21.264081
 30
0.0
 10
3.958245
 20
20.619740
 30
0.0
 10
3.958253
 20
19.824956
 30
0.0
  0
SPLINE
  5
116
100
AcDbEntity
  8
decoupe
 62
5
100
AcDbSpline
 70
8
 71
3
 72
8
 73
4
 74
0
 40
0
 40
0
 40
0
 40
0
 40
1
 40
1
 40
1
 40
1
 10
3.958253
 20
19.824956
 30
0.0
 10
3.958297
 20
19.601433
 30
0.0
 10
3.967894
 20
19.381039
 30
0.0
 10
3.986282
 20
19.181244
 30
0.0
  0
LWPOLYLINE
  5
117
100
AcDbEntity
  8
decoupe
 62
5
100
AcDbPolyline
 90
2
 70
0
 10
4.548094
 20
19.181244
 30
0.0
 10
4.458128
 20
19.181244
 30
0.0
  0
SPLINE
  5
118
100
AcDbEntity
  8
decoupe
 62
5
100
AcDbSpline
 70
8
 71
3
 72
8
 73
4
 74
0
 40
0
 40
0
 40
0
 40
0
 40
1
 40
1
 40
1
 40
1
 10
5.457741
 20
7.180422
 30
0.0
 10
5.339058
 20
7.057970
 30
0.0
 10
5.272354
 20
6.892218
 30
0.0
 10
5.272202
 20
6.719378
 30
0.0
  0
SPLINE
  5
119
100
AcDbEntity
  8
decoupe
 62
5
100
AcDbSpline
 70
8
 71
3
 72
8
 73
4
 74
0
 40
0
 40
0
 40
0
 40
0
 40
1
 40
1
 40
1
 40
1
 10
5.272202
 20
6.719378
 30
0.0
 10
5.272208
 20
6.358113
 30
0.0
 10
5.557166
 20
6.065258
 30
0.0
 10
5.908667
 20
6.065275
 30
0.0
  0
SPLINE
  5
11a
100
AcDbEntity
  8
decoupe
 62
5
100
AcDbSpline
 70
8
 71
3
 72
8
 73
4
 74
0
 40
0
 40
0
 40
0
 40
0
 40
1
 40
1
 40
1
 40
1
 10
5.908667
 20
6.065275
 30
0.0
 10
6.260168
 20
6.065258
 30
0.0
 10
6.545126
 20
6.358113
 30
0.0
 10
6.545132
 20
6.719378
 30
0.0
  0
SPLINE
  5
11b
100
AcDbEntity
  8
decoupe
 62
5
100
AcDbSpline
 70
8
 71
3
 72
8
 73
4
 74
0
 40
0
 40
0
 40
0
 40
0
 40
1
 40
1
 40
1
 40
1
 10
6.545132
 20
6.719378
 30
0.0
 10
6.544943
 20
6.892238
 30
0.0
 10
6.478190
 20
7.057993
 30
0.0
 10
6.359457
 20
7.180422
 30
0.0
  0
LWPOLYLINE
  5
11c
100
AcDbEntity
  8
decoupe
 62
5
100
AcDbPolyline
 90
8
 70
0
 10
3.986282
 20
19.181244
 30
0.0
 10
3.984641
 20
19.181244
 30
0.0
 10
3.984641
 20
16.830220
 30
0.0
 10
2.965750
 20
16.830220
 30
0.0
 10
2.965750
 20
7.481359
 30
0.0
 10
5.269057
 20
7.481359
 30
0.0
 10
5.269057
 20
7.180422
 30
0.0
 10
5.457741
 20
7.180422
 30
0.0
  0
SPLINE
  5
11d
100
AcDbEntity
  8
decoupe
 62
5
100
AcDbSpline
 70
8
 71
3
 72
8
 73
4
 74
0
 40
0
 40
0
 40
0
 40
0
 40
1
 40
1
 40
1
 40
1
 10
12.442725
 20
7.180422
 30
0.0
 10
12.302378
 20
7.066584
 30
0.0
 10
12.215094
 20
6.897323
 30
0.0
 10
12.202221
 20
6.714045
 30
0.0
  0
SPLINE
  5
11e
100
AcDbEntity
  8
decoupe
 62
5
100
AcDbSpline
 70
8
 71
3
 72
8
 73
4
 74
0
 40
0
 40
0
 40
0
 40
0
 40
1
 40
1
 40
1
 40
1
 10
12.202221
 20
6.714045
 30
0.0
 10
12.201143
 20
6.698665
 30
0.0
 10
12.200597
 20
6.683252
 30
0.0
 10
12.200583
 20
6.667832
 30
0.0
  0
SPLINE
  5
11f
100
AcDbEntity
  8
decoupe
 62
5
100
AcDbSpline
 70
8
 71
3
 72
8
 73
4
 74
0
 40
0
 40
0
 40
0
 40
0
 40
1
 40
1
 40
1
 40
1
 10
12.200583
 20
6.667832
 30
0.0
 10
12.200515
 20
6.306514
 30
0.0
 10
12.485495
 20
6.013575
 30
0.0
 10
12.837049
 20
6.013592
 30
0.0
  0
SPLINE
  5
120
100
AcDbEntity
  8
decoupe
 62
5
100
AcDbSpline
 70
8
 71
3
 72
8
 73
4
 74
0
 40
0
 40
0
 40
0
 40
0
 40
1
 40
1
 40
1
 40
1
 10
12.837049
 20
6.013592
 30
0.0
 10
13.166591
 20
6.013872
 30
0.0
 10
13.441432
 20
6.272621
 30
0.0
 10
13.470506
 20
6.609997
 30
0.0
  0
SPLINE
  5
121
100
AcDbEntity
  8
decoupe
 62
5
100
AcDbSpline
 70
8
 71
3
 72
8
 73
4
 74
0
 40
0
 40
0
 40
0
 40
0
 40
1
 40
1
 40
1
 40
1
 10
13.470506
 20
6.609997
 30
0.0
 10
13.498986
 20
6.275876
 30
0.0
 10
13.771467
 20
6.013649
 30
0.0
 10
14.103963
 20
6.013592
 30
0.0
  0
SPLINE
  5
122
100
AcDbEntity
  8
decoupe
 62
5
100
AcDbSpline
 70
8
 71
3
 72
8
 73
4
 74
0
 40
0
 40
0
 40
0
 40
0
 40
1
 40
1
 40
1
 40
1
 10
14.103963
 20
6.013592
 30
0.0
 10
14.455516
 20
6.013575
 30
0.0
 10
14.740496
 20
6.306514
 30
0.0
 10
14.740428
 20
6.667832
 30
0.0
  0
SPLINE
  5
123
100
AcDbEntity
  8
decoupe
 62
5
100
AcDbSpline
 70
8
 71
3
 72
8
 73
4
 74
0
 40
0
 40
0
 40
0
 40
0
 40
1
 40
1
 40
1
 40
1
 10
14.740428
 20
6.667832
 30
0.0
 10
14.740411
 20
6.683252
 30
0.0
 10
14.739868
 20
6.698665
 30
0.0
 10
14.738790
 20
6.714045
 30
0.0
  0
SPLINE
  5
124
100
AcDbEntity
  8
decoupe
 62
5
100
AcDbSpline
 70
8
 71
3
 72
8
 73
4
 74
0
 40
0
 40
0
 40
0
 40
0
 40
1
 40
1
 40
1
 40
1
 10
14.738790
 20
6.714045
 30
0.0
 10
14.725918
 20
6.897323
 30
0.0
 10
14.638633
 20
7.066584
 30
0.0
 10
14.498287
 20
7.180422
 30
0.0
  0
LWPOLYLINE
  5
125
100
AcDbEntity
  8
decoupe
 62
5
100
AcDbPolyline
 90
2
 70
0
 10
6.359457
 20
7.180422
 30
0.0
 10
12.442725
 20
7.180422
 30
0.0
  0
SPLINE
  5
126
100
AcDbEntity
  8
decoupe
 62
5
100
AcDbSpline
 70
8
 71
3
 72
8
 73
4
 74
0
 40
0
 40
0
 40
0
 40
0
 40
1
 40
1
 40
1
 40
1
 10
20.581554
 20
7.180422
 30
0.0
 10
20.462821
 20
7.057993
 30
0.0
 10
20.396067
 20
6.892237
 30
0.0
 10
20.395878
 20
6.719378
 30
0.0
  0
SPLINE
  5
127
100
AcDbEntity
  8
decoupe
 62
5
100
AcDbSpline
 70
8
 71
3
 72
8
 73
4
 74
0
 40
0
 40
0
 40
0
 40
0
 40
1
 40
1
 40
1
 40
1
 10
20.395878
 20
6.719378
 30
0.0
 10
20.395885
 20
6.358113
 30
0.0
 10
20.680843
 20
6.065258
 30
0.0
 10
21.032344
 20
6.065275
 30
0.0
  0
SPLINE
  5
128
100
AcDbEntity
  8
decoupe
 62
5
100
AcDbSpline
 70
8
 71
3
 72
8
 73
4
 74
0
 40
0
 40
0
 40
0
 40
0
 40
1
 40
1
 40
1
 40
1
 10
21.032344
 20
6.065275
 30
0.0
 10
21.310486
 20
6.065262
 30
0.0
 10
21.546393
 20
6.248905
 30
0.0
 10
21.632987
 20
6.504443
 30
0.0
  0
SPLINE
  5
129
100
AcDbEntity
  8
decoupe
 62
5
100
AcDbSpline
 70
8
 71
3
 72
8
 73
4
 74
0
 40
0
 40
0
 40
0
 40
0
 40
1
 40
1
 40
1
 40
1
 10
21.632987
 20
6.504443
 30
0.0
 10
21.705365
 20
6.215836
 30
0.0
 10
21.958412
 20
6.014006
 30
0.0
 10
22.248396
 20
6.013592
 30
0.0
  0
SPLINE
  5
12a
100
AcDbEntity
  8
decoupe
 62
5
100
AcDbSpline
 70
8
 71
3
 72
8
 73
4
 74
0
 40
0
 40
0
 40
0
 40
0
 40
1
 40
1
 40
1
 40
1
 10
22.248396
 20
6.013592
 30
0.0
 10
22.599949
 20
6.013575
 30
0.0
 10
22.884929
 20
6.306514
 30
0.0
 10
22.884861
 20
6.667832
 30
0.0
  0
SPLINE
  5
12b
100
AcDbEntity
  8
decoupe
 62
5
100
AcDbSpline
 70
8
 71
3
 72
8
 73
4
 74
0
 40
0
 40
0
 40
0
 40
0
 40
1
 40
1
 40
1
 40
1
 10
22.884861
 20
6.667832
 30
0.0
 10
22.884844
 20
6.683252
 30
0.0
 10
22.884301
 20
6.698665
 30
0.0
 10
22.883223
 20
6.714045
 30
0.0
  0
SPLINE
  5
12c
100
AcDbEntity
  8
decoupe
 62
5
100
AcDbSpline
 70
8
 71
3
 72
8
 73
4
 74
0
 40
0
 40
0
 40
0
 40
0
 40
1
 40
1
 40
1
 40
1
 10
22.883223
 20
6.714045
 30
0.0
 10
22.870351
 20
6.897323
 30
0.0
 10
22.783066
 20
7.066584
 30
0.0
 10
22.642720
 20
7.180422
 30
0.0
  0
LWPOLYLINE
  5
12d
100
AcDbEntity
  8
decoupe
 62
5
100
AcDbPolyline
 90
2
 70
0
 10
14.498287
 20
7.180422
 30
0.0
 10
20.581554
 20
7.180422
 30
0.0
  0
SPLINE
  5
12e
100
AcDbEntity
  8
decoupe
 62
5
100
AcDbSpline
 70
8
 71
3
 72
8
 73
4
 74
0
 40
0
 40
0
 40
0
 40
0
 40
1
 40
1
 40
1
 40
1
 10
28.725987
 20
7.180422
 30
0.0
 10
28.607254
 20
7.057993
 30
0.0
 10
28.540500
 20
6.892238
 30
0.0
 10
28.540312
 20
6.719378
 30
0.0
  0
SPLINE
  5
12f
100
AcDbEntity
  8
decoupe
 62
5
100
AcDbSpline
 70
8
 71
3
 72
8
 73
4
 74
0
 40
0
 40
0
 40
0
 40
0
 40
1
 40
1
 40
1
 40
1
 10
28.540312
 20
6.719378
 30
0.0
 10
28.540318
 20
6.358113
 30
0.0
 10
28.825277
 20
6.065258
 30
0.0
 10
29.176777
 20
6.065275
 30
0.0
  0
SPLINE
  5
130
100
AcDbEntity
  8
decoupe
 62
5
100
AcDbSpline
 70
8
 71
3
 72
8
 73
4
 74
0
 40
0
 40
0
 40
0
 40
0
 40
1
 40
1
 40
1
 40
1
 10
29.176777
 20
6.065275
 30
0.0
 10
29.506319
 20
6.065555
 30
0.0
 10
29.781160
 20
6.324304
 30
0.0
 10
29.810234
 20
6.661679
 30
0.0
  0
SPLINE
  5
131
100
AcDbEntity
  8
decoupe
 62
5
100
AcDbSpline
 70
8
 71
3
 72
8
 73
4
 74
0
 40
0
 40
0
 40
0
 40
0
 40
1
 40
1
 40
1
 40
1
 10
29.810234
 20
6.661679
 30
0.0
 10
29.813419
 20
6.303282
 30
0.0
 10
30.096812
 20
6.013653
 30
0.0
 10
30.446289
 20
6.013592
 30
0.0
  0
SPLINE
  5
132
100
AcDbEntity
  8
decoupe
 62
5
100
AcDbSpline
 70
8
 71
3
 72
8
 73
4
 74
0
 40
0
 40
0
 40
0
 40
0
 40
1
 40
1
 40
1
 40
1
 10
30.446289
 20
6.013592
 30
0.0
 10
30.797844
 20
6.013575
 30
0.0
 10
31.082823
 20
6.306513
 30
0.0
 10
31.082755
 20
6.667832
 30
0.0
  0
SPLINE
  5
133
100
AcDbEntity
  8
decoupe
 62
5
100
AcDbSpline
 70
8
 71
3
 72
8
 73
4
 74
0
 40
0
 40
0
 40
0
 40
0
 40
1
 40
1
 40
1
 40
1
 10
31.082755
 20
6.667832
 30
0.0
 10
31.082755
 20
6.683252
 30
0.0
 10
31.082195
 20
6.698665
 30
0.0
 10
31.081117
 20
6.714045
 30
0.0
  0
SPLINE
  5
134
100
AcDbEntity
  8
decoupe
 62
5
100
AcDbSpline
 70
8
 71
3
 72
8
 73
4
 74
0
 40
0
 40
0
 40
0
 40
0
 40
1
 40
1
 40
1
 40
1
 10
31.081117
 20
6.714045
 30
0.0
 10
31.068232
 20
6.897323
 30
0.0
 10
30.980959
 20
7.066584
 30
0.0
 10
30.840613
 20
7.180422
 30
0.0
  0
LWPOLYLINE
  5
135
100
AcDbEntity
  8
decoupe
 62
5
100
AcDbPolyline
 90
2
 70
0
 10
22.642720
 20
7.180422
 30
0.0
 10
28.725987
 20
7.180422
 30
0.0
  0
SPLINE
  5
136
100
AcDbEntity
  8
decoupe
 62
5
100
AcDbSpline
 70
8
 71
3
 72
8
 73
4
 74
0
 40
0
 40
0
 40
0
 40
0
 40
1
 40
1
 40
1
 40
1
 10
36.923881
 20
7.180422
 30
0.0
 10
36.805150
 20
7.057993
 30
0.0
 10
36.738394
 20
6.892237
 30
0.0
 10
36.738206
 20
6.719378
 30
0.0
  0
SPLINE
  5
137
100
AcDbEntity
  8
decoupe
 62
5
100
AcDbSpline
 70
8
 71
3
 72
8
 73
4
 74
0
 40
0
 40
0
 40
0
 40
0
 40
1
 40
1
 40
1
 40
1
 10
36.738206
 20
6.719378
 30
0.0
 10
36.738211
 20
6.358113
 30
0.0
 10
37.023170
 20
6.065258
 30
0.0
 10
37.374671
 20
6.065275
 30
0.0
  0
SPLINE
  5
138
100
AcDbEntity
  8
decoupe
 62
5
100
AcDbSpline
 70
8
 71
3
 72
8
 73
4
 74
0
 40
0
 40
0
 40
0
 40
0
 40
1
 40
1
 40
1
 40
1
 10
37.374671
 20
6.065275
 30
0.0
 10
37.726170
 20
6.065259
 30
0.0
 10
38.011131
 20
6.358114
 30
0.0
 10
38.011136
 20
6.719378
 30
0.0
  0
SPLINE
  5
139
100
AcDbEntity
  8
decoupe
 62
5
100
AcDbSpline
 70
8
 71
3
 72
8
 73
4
 74
0
 40
0
 40
0
 40
0
 40
0
 40
1
 40
1
 40
1
 40
1
 10
38.011136
 20
6.719378
 30
0.0
 10
38.010996
 20
6.892217
 30
0.0
 10
37.944279
 20
7.057970
 30
0.0
 10
37.825597
 20
7.180422
 30
0.0
  0
LWPOLYLINE
  5
13a
100
AcDbEntity
  8
decoupe
 62
5
100
AcDbPolyline
 90
2
 70
0
 10
30.840613
 20
7.180422
 30
0.0
 10
36.923881
 20
7.180422
 30
0.0
  0
SPLINE
  5
13b
100
AcDbEntity
  8
decoupe
 62
5
100
AcDbSpline
 70
8
 71
3
 72
8
 73
4
 74
0
 40
0
 40
0
 40
0
 40
0
 40
1
 40
1
 40
1
 40
1
 10
30.904318
 20
19.181244
 30
0.0
 10
30.904318
 20
19.181244
 30
0.0
 10
30.844158
 20
19.181244
 30
0.0
 10
30.844158
 20
19.181244
 30
0.0
  0
SPLINE
  5
13c
100
AcDbEntity
  8
decoupe
 62
5
100
AcDbSpline
 70
8
 71
3
 72
8
 73
4
 74
0
 40
0
 40
0
 40
0
 40
0
 40
1
 40
1
 40
1
 40
1
 10
30.844158
 20
19.181244
 30
0.0
 10
30.873789
 20
19.415712
 30
0.0
 10
30.889617
 20
19.690353
 30
0.0
 10
30.889688
 20
19.971254
 30
0.0
  0
SPLINE
  5
13d
100
AcDbEntity
  8
decoupe
 62
5
100
AcDbSpline
 70
8
 71
3
 72
8
 73
4
 74
0
 40
0
 40
0
 40
0
 40
0
 40
1
 40
1
 40
1
 40
1
 10
30.889688
 20
19.971254
 30
0.0
 10
30.889684
 20
20.765294
 30
0.0
 10
30.766409
 20
21.409028
 30
0.0
 10
30.614319
 20
21.409214
 30
0.0
  0
SPLINE
  5
13e
100
AcDbEntity
  8
decoupe
 62
5
100
AcDbSpline
 70
8
 71
3
 72
8
 73
4
 74
0
 40
0
 40
0
 40
0
 40
0
 40
1
 40
1
 40
1
 40
1
 10
30.614319
 20
21.409214
 30
0.0
 10
30.541259
 20
21.409313
 30
0.0
 10
30.471184
 20
21.257859
 30
0.0
 10
30.419515
 20
20.988180
 30
0.0
  0
SPLINE
  5
13f
100
AcDbEntity
  8
decoupe
 62
5
100
AcDbSpline
 70
8
 71
3
 72
8
 73
4
 74
0
 40
0
 40
0
 40
0
 40
0
 40
1
 40
1
 40
1
 40
1
 10
30.419515
 20
20.988180
 30
0.0
 10
30.367846
 20
20.718501
 30
0.0
 10
30.338817
 20
20.352694
 30
0.0
 10
30.338815
 20
19.971254
 30
0.0
  0
SPLINE
  5
140
100
AcDbEntity
  8
decoupe
 62
5
100
AcDbSpline
 70
8
 71
3
 72
8
 73
4
 74
0
 40
0
 40
0
 40
0
 40
0
 40
1
 40
1
 40
1
 40
1
 10
30.338815
 20
19.971254
 30
0.0
 10
30.338886
 20
19.690353
 30
0.0
 10
30.354714
 20
19.415712
 30
0.0
 10
30.384345
 20
19.181244
 30
0.0
  0
SPLINE
  5
141
100
AcDbEntity
  8
decoupe
 62
5
100
AcDbSpline
 70
8
 71
3
 72
8
 73
4
 74
0
 40
0
 40
0
 40
0
 40
0
 40
1
 40
1
 40
1
 40
1
 10
30.384345
 20
19.181244
 30
0.0
 10
30.384345
 20
19.181244
 30
0.0
 10
30.197438
 20
19.181244
 30
0.0
 10
30.197438
 20
19.181244
 30
0.0
  0
SPLINE
  5
142
100
AcDbEntity
  8
decoupe
 62
5
100
AcDbSpline
 70
8
 71
3
 72
8
 73
4
 74
0
 40
0
 40
0
 40
0
 40
0
 40
1
 40
1
 40
1
 40
1
 10
30.197438
 20
19.181244
 30
0.0
 10
30.220642
 20
19.406901
 30
0.0
 10
30.232989
 20
19.666377
 30
0.0
 10
30.233124
 20
19.931193
 30
0.0
  0
SPLINE
  5
143
100
AcDbEntity
  8
decoupe
 62
5
100
AcDbSpline
 70
8
 71
3
 72
8
 73
4
 74
0
 40
0
 40
0
 40
0
 40
0
 40
1
 40
1
 40
1
 40
1
 10
30.233124
 20
19.931193
 30
0.0
 10
30.233122
 20
20.727237
 30
0.0
 10
30.125079
 20
21.372556
 30
0.0
 10
29.991800
 20
21.372571
 30
0.0
  0
SPLINE
  5
144
100
AcDbEntity
  8
decoupe
 62
5
100
AcDbSpline
 70
8
 71
3
 72
8
 73
4
 74
0
 40
0
 40
0
 40
0
 40
0
 40
1
 40
1
 40
1
 40
1
 10
29.991800
 20
21.372571
 30
0.0
 10
29.858522
 20
21.372553
 30
0.0
 10
29.750479
 20
20.727236
 30
0.0
 10
29.750477
 20
19.931193
 30
0.0
  0
SPLINE
  5
145
100
AcDbEntity
  8
decoupe
 62
5
100
AcDbSpline
 70
8
 71
3
 72
8
 73
4
 74
0
 40
0
 40
0
 40
0
 40
0
 40
1
 40
1
 40
1
 40
1
 10
29.750477
 20
19.931193
 30
0.0
 10
29.750530
 20
19.666533
 30
0.0
 10
29.762782
 20
19.407068
 30
0.0
 10
29.785889
 20
19.181244
 30
0.0
  0
SPLINE
  5
146
100
AcDbEntity
  8
decoupe
 62
5
100
AcDbSpline
 70
8
 71
3
 72
8
 73
4
 74
0
 40
0
 40
0
 40
0
 40
0
 40
1
 40
1
 40
1
 40
1
 10
29.785889
 20
19.181244
 30
0.0
 10
29.785889
 20
19.181244
 30
0.0
 10
29.522279
 20
19.181244
 30
0.0
 10
29.522279
 20
19.181244
 30
0.0
  0
SPLINE
  5
147
100
AcDbEntity
  8
decoupe
 62
5
100
AcDbSpline
 70
8
 71
3
 72
8
 73
4
 74
0
 40
0
 40
0
 40
0
 40
0
 40
1
 40
1
 40
1
 40
1
 10
29.522279
 20
19.181244
 30
0.0
 10
29.544858
 20
19.401188
 30
0.0
 10
29.556795
 20
19.651341
 30
0.0
 10
29.556871
 20
19.906172
 30
0.0
  0
SPLINE
  5
148
100
AcDbEntity
  8
decoupe
 62
5
100
AcDbSpline
 70
8
 71
3
 72
8
 73
4
 74
0
 40
0
 40
0
 40
0
 40
0
 40
1
 40
1
 40
1
 40
1
 10
29.556871
 20
19.906172
 30
0.0
 10
29.556873
 20
20.288154
 30
0.0
 10
29.530253
 20
20.654495
 30
0.0
 10
29.482868
 20
20.924601
 30
0.0
  0
SPLINE
  5
149
100
AcDbEntity
  8
decoupe
 62
5
100
AcDbSpline
 70
8
 71
3
 72
8
 73
4
 74
0
 40
0
 40
0
 40
0
 40
0
 40
1
 40
1
 40
1
 40
1
 10
29.482868
 20
20.924601
 30
0.0
 10
29.435482
 20
21.194708
 30
0.0
 10
29.371213
 20
21.346454
 30
0.0
 10
29.304199
 20
21.346457
 30
0.0
  0
SPLINE
  5
14a
100
AcDbEntity
  8
decoupe
 62
5
100
AcDbSpline
 70
8
 71
3
 72
8
 73
4
 74
0
 40
0
 40
0
 40
0
 40
0
 40
1
 40
1
 40
1
 40
1
 10
29.304199
 20
21.346457
 30
0.0
 10
29.237185
 20
21.346455
 30
0.0
 10
29.172916
 20
21.194709
 30
0.0
 10
29.125531
 20
20.924603
 30
0.0
  0
SPLINE
  5
14b
100
AcDbEntity
  8
decoupe
 62
5
100
AcDbSpline
 70
8
 71
3
 72
8
 73
4
 74
0
 40
0
 40
0
 40
0
 40
0
 40
1
 40
1
 40
1
 40
1
 10
29.125531
 20
20.924603
 30
0.0
 10
29.078145
 20
20.654496
 30
0.0
 10
29.051525
 20
20.288155
 30
0.0
 10
29.051527
 20
19.906172
 30
0.0
  0
SPLINE
  5
14c
100
AcDbEntity
  8
decoupe
 62
5
100
AcDbSpline
 70
8
 71
3
 72
8
 73
4
 74
0
 40
0
 40
0
 40
0
 40
0
 40
1
 40
1
 40
1
 40
1
 10
29.051527
 20
19.906172
 30
0.0
 10
29.051645
 20
19.651269
 30
0.0
 10
29.063629
 20
19.401111
 30
0.0
 10
29.086256
 20
19.181244
 30
0.0
  0
SPLINE
  5
14d
100
AcDbEntity
  8
decoupe
 62
5
100
AcDbSpline
 70
8
 71
3
 72
8
 73
4
 74
0
 40
0
 40
0
 40
0
 40
0
 40
1
 40
1
 40
1
 40
1
 10
29.086256
 20
19.181244
 30
0.0
 10
29.086256
 20
19.181244
 30
0.0
 10
28.996290
 20
19.181244
 30
0.0
 10
28.996290
 20
19.181244
 30
0.0
  0
SPLINE
  5
14e
100
AcDbEntity
  8
decoupe
 62
5
100
AcDbSpline
 70
8
 71
3
 72
8
 73
4
 74
0
 40
0
 40
0
 40
0
 40
0
 40
1
 40
1
 40
1
 40
1
 10
28.996290
 20
19.181244
 30
0.0
 10
29.014725
 20
19.380976
 30
0.0
 10
29.024369
 20
19.601373
 30
0.0
 10
29.024456
 20
19.824956
 30
0.0
  0
SPLINE
  5
14f
100
AcDbEntity
  8
decoupe
 62
5
100
AcDbSpline
 70
8
 71
3
 72
8
 73
4
 74
0
 40
0
 40
0
 40
0
 40
0
 40
1
 40
1
 40
1
 40
1
 10
29.024456
 20
19.824956
 30
0.0
 10
29.024463
 20
20.619741
 30
0.0
 10
28.906259
 20
21.264083
 30
0.0
 10
28.760435
 20
21.264147
 30
0.0
  0
SPLINE
  5
150
100
AcDbEntity
  8
decoupe
 62
5
100
AcDbSpline
 70
8
 71
3
 72
8
 73
4
 74
0
 40
0
 40
0
 40
0
 40
0
 40
1
 40
1
 40
1
 40
1
 10
28.760435
 20
21.264147
 30
0.0
 10
28.614612
 20
21.264080
 30
0.0
 10
28.496407
 20
20.619740
 30
0.0
 10
28.496415
 20
19.824956
 30
0.0
  0
SPLINE
  5
151
100
AcDbEntity
  8
decoupe
 62
5
100
AcDbSpline
 70
8
 71
3
 72
8
 73
4
 74
0
 40
0
 40
0
 40
0
 40
0
 40
1
 40
1
 40
1
 40
1
 10
28.496415
 20
19.824956
 30
0.0
 10
28.496459
 20
19.601433
 30
0.0
 10
28.506056
 20
19.381039
 30
0.0
 10
28.524444
 20
19.181244
 30
0.0
  0
LWPOLYLINE
  5
152
100
AcDbEntity
  8
decoupe
 62
5
100
AcDbPolyline
 90
7
 70
0
 10
37.825597
 20
7.180422
 30
0.0
 10
38.014281
 20
7.180422
 30
0.0
 10
38.014281
 20
17.186667
 30
0.0
 10
37.104624
 20
17.186667
 30
0.0
 10
33.667165
 20
25.180561
 30
0.0
 10
30.904318
 20
18.252866
 30
0.0
 10
30.904318
 20
19.181244
 30
0.0
  0
SPLINE
  5
153
100
AcDbEntity
  8
decoupe
 62
5
100
AcDbSpline
 70
8
 71
3
 72
8
 73
4
 74
0
 40
0
 40
0
 40
0
 40
0
 40
1
 40
1
 40
1
 40
1
 10
22.984120
 20
19.181244
 30
0.0
 10
22.984120
 20
19.181244
 30
0.0
 10
22.923960
 20
19.181244
 30
0.0
 10
22.923960
 20
19.181244
 30
0.0
  0
SPLINE
  5
154
100
AcDbEntity
  8
decoupe
 62
5
100
AcDbSpline
 70
8
 71
3
 72
8
 73
4
 74
0
 40
0
 40
0
 40
0
 40
0
 40
1
 40
1
 40
1
 40
1
 10
22.923960
 20
19.181244
 30
0.0
 10
22.953638
 20
19.415633
 30
0.0
 10
22.969515
 20
19.690280
 30
0.0
 10
22.969627
 20
19.971254
 30
0.0
  0
SPLINE
  5
155
100
AcDbEntity
  8
decoupe
 62
5
100
AcDbSpline
 70
8
 71
3
 72
8
 73
4
 74
0
 40
0
 40
0
 40
0
 40
0
 40
1
 40
1
 40
1
 40
1
 10
22.969627
 20
19.971254
 30
0.0
 10
22.969622
 20
20.765294
 30
0.0
 10
22.846347
 20
21.409028
 30
0.0
 10
22.694258
 20
21.409214
 30
0.0
  0
SPLINE
  5
156
100
AcDbEntity
  8
decoupe
 62
5
100
AcDbSpline
 70
8
 71
3
 72
8
 73
4
 74
0
 40
0
 40
0
 40
0
 40
0
 40
1
 40
1
 40
1
 40
1
 10
22.694258
 20
21.409214
 30
0.0
 10
22.694258
 20
21.409214
 30
0.0
 10
22.694118
 20
21.409214
 30
0.0
 10
22.694118
 20
21.409214
 30
0.0
  0
SPLINE
  5
157
100
AcDbEntity
  8
decoupe
 62
5
100
AcDbSpline
 70
8
 71
3
 72
8
 73
4
 74
0
 40
0
 40
0
 40
0
 40
0
 40
1
 40
1
 40
1
 40
1
 10
22.694118
 20
21.409214
 30
0.0
 10
22.542029
 20
21.409026
 30
0.0
 10
22.418755
 20
20.765292
 30
0.0
 10
22.418750
 20
19.971254
 30
0.0
  0
SPLINE
  5
158
100
AcDbEntity
  8
decoupe
 62
5
100
AcDbSpline
 70
8
 71
3
 72
8
 73
4
 74
0
 40
0
 40
0
 40
0
 40
0
 40
1
 40
1
 40
1
 40
1
 10
22.418750
 20
19.971254
 30
0.0
 10
22.418821
 20
19.690353
 30
0.0
 10
22.434650
 20
19.415712
 30
0.0
 10
22.464280
 20
19.181244
 30
0.0
  0
SPLINE
  5
159
100
AcDbEntity
  8
decoupe
 62
5
100
AcDbSpline
 70
8
 71
3
 72
8
 73
4
 74
0
 40
0
 40
0
 40
0
 40
0
 40
1
 40
1
 40
1
 40
1
 10
22.464280
 20
19.181244
 30
0.0
 10
22.464280
 20
19.181244
 30
0.0
 10
22.277374
 20
19.181244
 30
0.0
 10
22.277374
 20
19.181244
 30
0.0
  0
SPLINE
  5
15a
100
AcDbEntity
  8
decoupe
 62
5
100
AcDbSpline
 70
8
 71
3
 72
8
 73
4
 74
0
 40
0
 40
0
 40
0
 40
0
 40
1
 40
1
 40
1
 40
1
 10
22.277374
 20
19.181244
 30
0.0
 10
22.300577
 20
19.406902
 30
0.0
 10
22.312924
 20
19.666377
 30
0.0
 10
22.313059
 20
19.931193
 30
0.0
  0
SPLINE
  5
15b
100
AcDbEntity
  8
decoupe
 62
5
100
AcDbSpline
 70
8
 71
3
 72
8
 73
4
 74
0
 40
0
 40
0
 40
0
 40
0
 40
1
 40
1
 40
1
 40
1
 10
22.313059
 20
19.931193
 30
0.0
 10
22.313057
 20
20.727236
 30
0.0
 10
22.205014
 20
21.372553
 30
0.0
 10
22.071736
 20
21.372571
 30
0.0
  0
SPLINE
  5
15c
100
AcDbEntity
  8
decoupe
 62
5
100
AcDbSpline
 70
8
 71
3
 72
8
 73
4
 74
0
 40
0
 40
0
 40
0
 40
0
 40
1
 40
1
 40
1
 40
1
 10
22.071736
 20
21.372571
 30
0.0
 10
21.938457
 20
21.372556
 30
0.0
 10
21.830414
 20
20.727237
 30
0.0
 10
21.830412
 20
19.931193
 30
0.0
  0
SPLINE
  5
15d
100
AcDbEntity
  8
decoupe
 62
5
100
AcDbSpline
 70
8
 71
3
 72
8
 73
4
 74
0
 40
0
 40
0
 40
0
 40
0
 40
1
 40
1
 40
1
 40
1
 10
21.830412
 20
19.931193
 30
0.0
 10
21.830465
 20
19.666533
 30
0.0
 10
21.842717
 20
19.407068
 30
0.0
 10
21.865825
 20
19.181244
 30
0.0
  0
SPLINE
  5
15e
100
AcDbEntity
  8
decoupe
 62
5
100
AcDbSpline
 70
8
 71
3
 72
8
 73
4
 74
0
 40
0
 40
0
 40
0
 40
0
 40
1
 40
1
 40
1
 40
1
 10
21.865825
 20
19.181244
 30
0.0
 10
21.865825
 20
19.181244
 30
0.0
 10
21.602214
 20
19.181244
 30
0.0
 10
21.602214
 20
19.181244
 30
0.0
  0
SPLINE
  5
15f
100
AcDbEntity
  8
decoupe
 62
5
100
AcDbSpline
 70
8
 71
3
 72
8
 73
4
 74
0
 40
0
 40
0
 40
0
 40
0
 40
1
 40
1
 40
1
 40
1
 10
21.602214
 20
19.181244
 30
0.0
 10
21.624793
 20
19.401188
 30
0.0
 10
21.636730
 20
19.651341
 30
0.0
 10
21.636806
 20
19.906172
 30
0.0
  0
SPLINE
  5
160
100
AcDbEntity
  8
decoupe
 62
5
100
AcDbSpline
 70
8
 71
3
 72
8
 73
4
 74
0
 40
0
 40
0
 40
0
 40
0
 40
1
 40
1
 40
1
 40
1
 10
21.636806
 20
19.906172
 30
0.0
 10
21.636808
 20
20.288154
 30
0.0
 10
21.610188
 20
20.654495
 30
0.0
 10
21.562803
 20
20.924601
 30
0.0
  0
SPLINE
  5
161
100
AcDbEntity
  8
decoupe
 62
5
100
AcDbSpline
 70
8
 71
3
 72
8
 73
4
 74
0
 40
0
 40
0
 40
0
 40
0
 40
1
 40
1
 40
1
 40
1
 10
21.562803
 20
20.924601
 30
0.0
 10
21.515418
 20
21.194708
 30
0.0
 10
21.451149
 20
21.346454
 30
0.0
 10
21.384135
 20
21.346457
 30
0.0
  0
SPLINE
  5
162
100
AcDbEntity
  8
decoupe
 62
5
100
AcDbSpline
 70
8
 71
3
 72
8
 73
4
 74
0
 40
0
 40
0
 40
0
 40
0
 40
1
 40
1
 40
1
 40
1
 10
21.384135
 20
21.346457
 30
0.0
 10
21.317121
 20
21.346454
 30
0.0
 10
21.252852
 20
21.194708
 30
0.0
 10
21.205466
 20
20.924601
 30
0.0
  0
SPLINE
  5
163
100
AcDbEntity
  8
decoupe
 62
5
100
AcDbSpline
 70
8
 71
3
 72
8
 73
4
 74
0
 40
0
 40
0
 40
0
 40
0
 40
1
 40
1
 40
1
 40
1
 10
21.205466
 20
20.924601
 30
0.0
 10
21.158081
 20
20.654495
 30
0.0
 10
21.131461
 20
20.288154
 30
0.0
 10
21.131463
 20
19.906172
 30
0.0
  0
SPLINE
  5
164
100
AcDbEntity
  8
decoupe
 62
5
100
AcDbSpline
 70
8
 71
3
 72
8
 73
4
 74
0
 40
0
 40
0
 40
0
 40
0
 40
1
 40
1
 40
1
 40
1
 10
21.131463
 20
19.906172
 30
0.0
 10
21.131581
 20
19.651270
 30
0.0
 10
21.143565
 20
19.401112
 30
0.0
 10
21.166191
 20
19.181244
 30
0.0
  0
SPLINE
  5
165
100
AcDbEntity
  8
decoupe
 62
5
100
AcDbSpline
 70
8
 71
3
 72
8
 73
4
 74
0
 40
0
 40
0
 40
0
 40
0
 40
1
 40
1
 40
1
 40
1
 10
21.166191
 20
19.181244
 30
0.0
 10
21.166191
 20
19.181244
 30
0.0
 10
21.076225
 20
19.181244
 30
0.0
 10
21.076225
 20
19.181244
 30
0.0
  0
SPLINE
  5
166
100
AcDbEntity
  8
decoupe
 62
5
100
AcDbSpline
 70
8
 71
3
 72
8
 73
4
 74
0
 40
0
 40
0
 40
0
 40
0
 40
1
 40
1
 40
1
 40
1
 10
21.076225
 20
19.181244
 30
0.0
 10
21.094660
 20
19.380976
 30
0.0
 10
21.104304
 20
19.601373
 30
0.0
 10
21.104391
 20
19.824956
 30
0.0
  0
SPLINE
  5
167
100
AcDbEntity
  8
decoupe
 62
5
100
AcDbSpline
 70
8
 71
3
 72
8
 73
4
 74
0
 40
0
 40
0
 40
0
 40
0
 40
1
 40
1
 40
1
 40
1
 10
21.104391
 20
19.824956
 30
0.0
 10
21.104399
 20
20.619741
 30
0.0
 10
20.986194
 20
21.264083
 30
0.0
 10
20.840370
 20
21.264147
 30
0.0
  0
SPLINE
  5
168
100
AcDbEntity
  8
decoupe
 62
5
100
AcDbSpline
 70
8
 71
3
 72
8
 73
4
 74
0
 40
0
 40
0
 40
0
 40
0
 40
1
 40
1
 40
1
 40
1
 10
20.840370
 20
21.264147
 30
0.0
 10
20.694547
 20
21.264080
 30
0.0
 10
20.576343
 20
20.619740
 30
0.0
 10
20.576350
 20
19.824956
 30
0.0
  0
SPLINE
  5
169
100
AcDbEntity
  8
decoupe
 62
5
100
AcDbSpline
 70
8
 71
3
 72
8
 73
4
 74
0
 40
0
 40
0
 40
0
 40
0
 40
1
 40
1
 40
1
 40
1
 10
20.576350
 20
19.824956
 30
0.0
 10
20.576394
 20
19.601433
 30
0.0
 10
20.585991
 20
19.381039
 30
0.0
 10
20.604379
 20
19.181244
 30
0.0
  0
LWPOLYLINE
  5
16a
100
AcDbEntity
  8
decoupe
 62
5
100
AcDbPolyline
 90
6
 70
0
 10
28.524444
 20
19.181244
 30
0.0
 10
28.522806
 20
19.181244
 30
0.0
 10
28.522806
 20
18.259429
 30
0.0
 10
25.546662
 20
25.180561
 30
0.0
 10
22.984120
 20
18.755202
 30
0.0
 10
22.984120
 20
19.181244
 30
0.0
  0
SPLINE
  5
16b
100
AcDbEntity
  8
decoupe
 62
5
100
AcDbSpline
 70
8
 71
3
 72
8
 73
4
 74
0
 40
0
 40
0
 40
0
 40
0
 40
1
 40
1
 40
1
 40
1
 10
14.875922
 20
19.181244
 30
0.0
 10
14.875922
 20
19.181244
 30
0.0
 10
14.815762
 20
19.181244
 30
0.0
 10
14.815762
 20
19.181244
 30
0.0
  0
SPLINE
  5
16c
100
AcDbEntity
  8
decoupe
 62
5
100
AcDbSpline
 70
8
 71
3
 72
8
 73
4
 74
0
 40
0
 40
0
 40
0
 40
0
 40
1
 40
1
 40
1
 40
1
 10
14.815762
 20
19.181244
 30
0.0
 10
14.845392
 20
19.415711
 30
0.0
 10
14.861221
 20
19.690353
 30
0.0
 10
14.861293
 20
19.971254
 30
0.0
  0
SPLINE
  5
16d
100
AcDbEntity
  8
decoupe
 62
5
100
AcDbSpline
 70
8
 71
3
 72
8
 73
4
 74
0
 40
0
 40
0
 40
0
 40
0
 40
1
 40
1
 40
1
 40
1
 10
14.861293
 20
19.971254
 30
0.0
 10
14.861288
 20
20.765294
 30
0.0
 10
14.738013
 20
21.409028
 30
0.0
 10
14.585924
 20
21.409214
 30
0.0
  0
SPLINE
  5
16e
100
AcDbEntity
  8
decoupe
 62
5
100
AcDbSpline
 70
8
 71
3
 72
8
 73
4
 74
0
 40
0
 40
0
 40
0
 40
0
 40
1
 40
1
 40
1
 40
1
 10
14.585924
 20
21.409214
 30
0.0
 10
14.512863
 20
21.409313
 30
0.0
 10
14.442789
 20
21.257859
 30
0.0
 10
14.391120
 20
20.988180
 30
0.0
  0
SPLINE
  5
16f
100
AcDbEntity
  8
decoupe
 62
5
100
AcDbSpline
 70
8
 71
3
 72
8
 73
4
 74
0
 40
0
 40
0
 40
0
 40
0
 40
1
 40
1
 40
1
 40
1
 10
14.391120
 20
20.988180
 30
0.0
 10
14.339451
 20
20.718501
 30
0.0
 10
14.310421
 20
20.352694
 30
0.0
 10
14.310419
 20
19.971254
 30
0.0
  0
SPLINE
  5
170
100
AcDbEntity
  8
decoupe
 62
5
100
AcDbSpline
 70
8
 71
3
 72
8
 73
4
 74
0
 40
0
 40
0
 40
0
 40
0
 40
1
 40
1
 40
1
 40
1
 10
14.310419
 20
19.971254
 30
0.0
 10
14.310490
 20
19.690353
 30
0.0
 10
14.326319
 20
19.415712
 30
0.0
 10
14.355949
 20
19.181244
 30
0.0
  0
LWPOLYLINE
  5
171
100
AcDbEntity
  8
decoupe
 62
5
100
AcDbPolyline
 90
6
 70
0
 10
20.604379
 20
19.181244
 30
0.0
 10
20.602741
 20
19.181244
 30
0.0
 10
20.602741
 20
18.192707
 30
0.0
 10
17.598025
 20
25.180561
 30
0.0
 10
14.875922
 20
18.355002
 30
0.0
 10
14.875922
 20
19.181244
 30
0.0
  0
SPLINE
  5
172
100
AcDbEntity
  8
decoupe
 62
5
100
AcDbSpline
 70
8
 71
3
 72
8
 73
4
 74
0
 40
0
 40
0
 40
0
 40
0
 40
1
 40
1
 40
1
 40
1
 10
14.169042
 20
19.181244
 30
0.0
 10
14.192246
 20
19.406901
 30
0.0
 10
14.204593
 20
19.666377
 30
0.0
 10
14.204728
 20
19.931193
 30
0.0
  0
SPLINE
  5
173
100
AcDbEntity
  8
decoupe
 62
5
100
AcDbSpline
 70
8
 71
3
 72
8
 73
4
 74
0
 40
0
 40
0
 40
0
 40
0
 40
1
 40
1
 40
1
 40
1
 10
14.204728
 20
19.931193
 30
0.0
 10
14.204726
 20
20.727237
 30
0.0
 10
14.096683
 20
21.372556
 30
0.0
 10
13.963404
 20
21.372571
 30
0.0
  0
SPLINE
  5
174
100
AcDbEntity
  8
decoupe
 62
5
100
AcDbSpline
 70
8
 71
3
 72
8
 73
4
 74
0
 40
0
 40
0
 40
0
 40
0
 40
1
 40
1
 40
1
 40
1
 10
13.963404
 20
21.372571
 30
0.0
 10
13.830126
 20
21.372553
 30
0.0
 10
13.722083
 20
20.727236
 30
0.0
 10
13.722081
 20
19.931193
 30
0.0
  0
SPLINE
  5
175
100
AcDbEntity
  8
decoupe
 62
5
100
AcDbSpline
 70
8
 71
3
 72
8
 73
4
 74
0
 40
0
 40
0
 40
0
 40
0
 40
1
 40
1
 40
1
 40
1
 10
13.722081
 20
19.931193
 30
0.0
 10
13.722134
 20
19.666533
 30
0.0
 10
13.734386
 20
19.407068
 30
0.0
 10
13.757494
 20
19.181244
 30
0.0
  0
SPLINE
  5
176
100
AcDbEntity
  8
decoupe
 62
5
100
AcDbSpline
 70
8
 71
3
 72
8
 73
4
 74
0
 40
0
 40
0
 40
0
 40
0
 40
1
 40
1
 40
1
 40
1
 10
13.757494
 20
19.181244
 30
0.0
 10
13.757494
 20
19.181244
 30
0.0
 10
13.493883
 20
19.181244
 30
0.0
 10
13.493883
 20
19.181244
 30
0.0
  0
SPLINE
  5
177
100
AcDbEntity
  8
decoupe
 62
5
100
AcDbSpline
 70
8
 71
3
 72
8
 73
4
 74
0
 40
0
 40
0
 40
0
 40
0
 40
1
 40
1
 40
1
 40
1
 10
13.493883
 20
19.181244
 30
0.0
 10
13.516462
 20
19.401188
 30
0.0
 10
13.528399
 20
19.651341
 30
0.0
 10
13.528475
 20
19.906172
 30
0.0
  0
SPLINE
  5
178
100
AcDbEntity
  8
decoupe
 62
5
100
AcDbSpline
 70
8
 71
3
 72
8
 73
4
 74
0
 40
0
 40
0
 40
0
 40
0
 40
1
 40
1
 40
1
 40
1
 10
13.528475
 20
19.906172
 30
0.0
 10
13.528477
 20
20.288154
 30
0.0
 10
13.501857
 20
20.654495
 30
0.0
 10
13.454472
 20
20.924601
 30
0.0
  0
SPLINE
  5
179
100
AcDbEntity
  8
decoupe
 62
5
100
AcDbSpline
 70
8
 71
3
 72
8
 73
4
 74
0
 40
0
 40
0
 40
0
 40
0
 40
1
 40
1
 40
1
 40
1
 10
13.454472
 20
20.924601
 30
0.0
 10
13.407087
 20
21.194708
 30
0.0
 10
13.342818
 20
21.346454
 30
0.0
 10
13.275804
 20
21.346457
 30
0.0
  0
SPLINE
  5
17a
100
AcDbEntity
  8
decoupe
 62
5
100
AcDbSpline
 70
8
 71
3
 72
8
 73
4
 74
0
 40
0
 40
0
 40
0
 40
0
 40
1
 40
1
 40
1
 40
1
 10
13.275804
 20
21.346457
 30
0.0
 10
13.208789
 20
21.346455
 30
0.0
 10
13.144520
 20
21.194709
 30
0.0
 10
13.097135
 20
20.924603
 30
0.0
  0
SPLINE
  5
17b
100
AcDbEntity
  8
decoupe
 62
5
100
AcDbSpline
 70
8
 71
3
 72
8
 73
4
 74
0
 40
0
 40
0
 40
0
 40
0
 40
1
 40
1
 40
1
 40
1
 10
13.097135
 20
20.924603
 30
0.0
 10
13.049749
 20
20.654496
 30
0.0
 10
13.023130
 20
20.288155
 30
0.0
 10
13.023131
 20
19.906172
 30
0.0
  0
SPLINE
  5
17c
100
AcDbEntity
  8
decoupe
 62
5
100
AcDbSpline
 70
8
 71
3
 72
8
 73
4
 74
0
 40
0
 40
0
 40
0
 40
0
 40
1
 40
1
 40
1
 40
1
 10
13.023131
 20
19.906172
 30
0.0
 10
13.023249
 20
19.651269
 30
0.0
 10
13.035234
 20
19.401111
 30
0.0
 10
13.057860
 20
19.181244
 30
0.0
  0
LWPOLYLINE
  5
17d
100
AcDbEntity
  8
decoupe
 62
5
100
AcDbPolyline
 90
2
 70
0
 10
14.355949
 20
19.181244
 30
0.0
 10
14.169042
 20
19.181244
 30
0.0
  0
SPLINE
  5
17e
100
AcDbEntity
  8
decoupe
 62
5
100
AcDbSpline
 70
8
 71
3
 72
8
 73
4
 74
0
 40
0
 40
0
 40
0
 40
0
 40
1
 40
1
 40
1
 40
1
 10
12.967894
 20
19.181244
 30
0.0
 10
12.986329
 20
19.380977
 30
0.0
 10
12.995973
 20
19.601374
 30
0.0
 10
12.996059
 20
19.824956
 30
0.0
  0
SPLINE
  5
17f
100
AcDbEntity
  8
decoupe
 62
5
100
AcDbSpline
 70
8
 71
3
 72
8
 73
4
 74
0
 40
0
 40
0
 40
0
 40
0
 40
1
 40
1
 40
1
 40
1
 10
12.996059
 20
19.824956
 30
0.0
 10
12.996067
 20
20.619740
 30
0.0
 10
12.877862
 20
21.264080
 30
0.0
 10
12.732039
 20
21.264147
 30
0.0
  0
SPLINE
  5
180
100
AcDbEntity
  8
decoupe
 62
5
100
AcDbSpline
 70
8
 71
3
 72
8
 73
4
 74
0
 40
0
 40
0
 40
0
 40
0
 40
1
 40
1
 40
1
 40
1
 10
12.732039
 20
21.264147
 30
0.0
 10
12.586216
 20
21.264080
 30
0.0
 10
12.468012
 20
20.619740
 30
0.0
 10
12.468019
 20
19.824956
 30
0.0
  0
SPLINE
  5
181
100
AcDbEntity
  8
decoupe
 62
5
100
AcDbSpline
 70
8
 71
3
 72
8
 73
4
 74
0
 40
0
 40
0
 40
0
 40
0
 40
1
 40
1
 40
1
 40
1
 10
12.468019
 20
19.824956
 30
0.0
 10
12.468063
 20
19.601433
 30
0.0
 10
12.477660
 20
19.381039
 30
0.0
 10
12.496048
 20
19.181244
 30
0.0
  0
LWPOLYLINE
  5
182
100
AcDbEntity
  8
decoupe
 62
5
100
AcDbPolyline
 90
2
 70
0
 10
13.057860
 20
19.181244
 30
0.0
 10
12.967894
 20
19.181244
 30
0.0
  0
LWPOLYLINE
  5
183
100
AcDbEntity
  8
decoupe
 62
5
100
AcDbPolyline
 90
4
 70
0
 10
12.496048
 20
19.181244
 30
0.0
 10
12.494410
 20
19.181244
 30
0.0
 10
12.494410
 20
18.055432
 30
0.0
 10
9.430623
 20
25.180561
 30
0.0
  0
SPLINE
  5
184
100
AcDbEntity
  8
decoupe
 62
5
100
AcDbSpline
 70
8
 71
3
 72
8
 73
4
 74
0
 40
0
 40
0
 40
0
 40
0
 40
1
 40
1
 40
1
 40
1
 10
12.521616
 20
11.106681
 30
0.0
 10
12.530118
 20
11.107031
 30
0.0
 10
12.538463
 20
11.107913
 30
0.0
 10
12.547047
 20
11.107913
 30
0.0
  0
SPLINE
  5
185
100
AcDbEntity
  8
decoupe
 62
5
100
AcDbSpline
 70
8
 71
3
 72
8
 73
4
 74
0
 40
0
 40
0
 40
0
 40
0
 40
1
 40
1
 40
1
 40
1
 10
12.547047
 20
11.107913
 30
0.0
 10
12.634280
 20
11.107913
 30
0.0
 10
12.564400
 20
11.090740
 30
0.0
 10
12.521616
 20
11.058555
 30
0.0
  0
LWPOLYLINE
  5
186
100
AcDbEntity
  8
decoupe
 62
5
100
AcDbPolyline
 90
3
 70
0
 10
6.322677
 20
15.489472
 30
0.0
 10
12.521616
 20
15.489472
 30
0.0
 10
12.521616
 20
11.106681
 30
0.0
  0
SPLINE
  5
187
100
AcDbEntity
  8
decoupe
 62
5
100
AcDbSpline
 70
8
 71
3
 72
8
 73
4
 74
0
 40
0
 40
0
 40
0
 40
0
 40
1
 40
1
 40
1
 40
1
 10
12.521616
 20
10.978433
 30
0.0
 10
12.477697
 20
11.011211
 30
0.0
 10
12.494162
 20
11.037901
 30
0.0
 10
12.521616
 20
11.058555
 30
0.0
  0
LWPOLYLINE
  5
188
100
AcDbEntity
  8
decoupe
 62
5
100
AcDbPolyline
 90
2
 70
0
 10
12.521616
 20
11.058555
 30
0.0
 10
12.521616
 20
10.978433
 30
0.0
  0
SPLINE
  5
189
100
AcDbEntity
  8
decoupe
 62
5
100
AcDbSpline
 70
8
 71
3
 72
8
 73
4
 74
0
 40
0
 40
0
 40
0
 40
0
 40
1
 40
1
 40
1
 40
1
 10
12.521616
 20
11.106683
 30
0.0
 10
12.182003
 20
11.093994
 30
0.0
 10
11.910596
 20
10.830721
 30
0.0
 10
11.910582
 20
10.506860
 30
0.0
  0
SPLINE
  5
18a
100
AcDbEntity
  8
decoupe
 62
5
100
AcDbSpline
 70
8
 71
3
 72
8
 73
4
 74
0
 40
0
 40
0
 40
0
 40
0
 40
1
 40
1
 40
1
 40
1
 10
11.910582
 20
10.506860
 30
0.0
 10
11.911002
 20
10.444757
 30
0.0
 10
11.921610
 20
10.383090
 30
0.0
 10
11.942029
 20
10.324056
 30
0.0
  0
SPLINE
  5
18b
100
AcDbEntity
  8
decoupe
 62
5
100
AcDbSpline
 70
8
 71
3
 72
8
 73
4
 74
0
 40
0
 40
0
 40
0
 40
0
 40
1
 40
1
 40
1
 40
1
 10
11.942029
 20
10.324056
 30
0.0
 10
11.220898
 20
10.554519
 30
0.0
 10
10.189127
 20
10.686505
 30
0.0
 10
9.105350
 20
10.686930
 30
0.0
  0
SPLINE
  5
18c
100
AcDbEntity
  8
decoupe
 62
5
100
AcDbSpline
 70
8
 71
3
 72
8
 73
4
 74
0
 40
0
 40
0
 40
0
 40
0
 40
1
 40
1
 40
1
 40
1
 10
9.105350
 20
10.686930
 30
0.0
 10
7.809311
 20
10.686876
 30
0.0
 10
7.020361
 20
10.498948
 30
0.0
 10
6.322677
 20
10.188422
 30
0.0
  0
LWPOLYLINE
  5
18d
100
AcDbEntity
  8
decoupe
 62
5
100
AcDbPolyline
 90
2
 70
0
 10
12.521616
 20
11.058555
 30
0.0
 10
12.521616
 20
11.106683
 30
0.0
  0
SPLINE
  5
18e
100
AcDbEntity
  8
decoupe
 62
5
100
AcDbSpline
 70
8
 71
3
 72
8
 73
4
 74
0
 40
0
 40
0
 40
0
 40
0
 40
1
 40
1
 40
1
 40
1
 10
6.316661
 20
10.185825
 30
0.0
 10
6.318650
 20
10.186714
 30
0.0
 10
6.320687
 20
10.187540
 30
0.0
 10
6.322677
 20
10.188422
 30
0.0
  0
LWPOLYLINE
  5
18f
100
AcDbEntity
  8
decoupe
 62
5
100
AcDbPolyline
 90
3
 70
0
 10
6.322677
 20
10.188422
 30
0.0
 10
6.322677
 20
10.185825
 30
0.0
 10
6.316661
 20
10.185825
 30
0.0
  0
LWPOLYLINE
  5
190
100
AcDbEntity
  8
decoupe
 62
5
100
AcDbPolyline
 90
2
 70
0
 10
6.322677
 20
10.188422
 30
0.0
 10
6.322677
 20
15.489472
 30
0.0
  0
LWPOLYLINE
  5
191
100
AcDbEntity
  8
decoupe
 62
5
100
AcDbPolyline
 90
4
 70
1
 10
14.419390
 20
15.489472
 30
0.0
 10
20.898346
 20
15.489472
 30
0.0
 10
20.828479
 20
11.118440
 30
0.0
 10
14.419390
 20
11.118440
 30
0.0
  0
SPLINE
  5
192
100
AcDbEntity
  8
decoupe
 62
5
100
AcDbSpline
 70
8
 71
3
 72
8
 73
4
 74
0
 40
0
 40
0
 40
0
 40
0
 40
1
 40
1
 40
1
 40
1
 10
29.042777
 20
10.246120
 30
0.0
 10
29.093498
 20
10.226529
 30
0.0
 10
29.142447
 20
10.206516
 30
0.0
 10
29.188801
 20
10.185823
 30
0.0
  0
LWPOLYLINE
  5
193
100
AcDbEntity
  8
decoupe
 62
5
100
AcDbPolyline
 90
3
 70
0
 10
22.563820
 20
15.489472
 30
0.0
 10
29.042777
 20
15.489472
 30
0.0
 10
29.042777
 20
10.246120
 30
0.0
  0
SPLINE
  5
194
100
AcDbEntity
  8
decoupe
 62
5
100
AcDbSpline
 70
8
 71
3
 72
8
 73
4
 74
0
 40
0
 40
0
 40
0
 40
0
 40
1
 40
1
 40
1
 40
1
 10
29.042777
 20
10.246120
 30
0.0
 10
28.328478
 20
10.522020
 30
0.0
 10
27.193650
 20
10.686878
 30
0.0
 10
25.980087
 20
10.686929
 30
0.0
  0
SPLINE
  5
195
100
AcDbEntity
  8
decoupe
 62
5
100
AcDbSpline
 70
8
 71
3
 72
8
 73
4
 74
0
 40
0
 40
0
 40
0
 40
0
 40
1
 40
1
 40
1
 40
1
 10
25.980087
 20
10.686929
 30
0.0
 10
24.896309
 20
10.686509
 30
0.0
 10
23.864538
 20
10.554518
 30
0.0
 10
23.143407
 20
10.324054
 30
0.0
  0
SPLINE
  5
196
100
AcDbEntity
  8
decoupe
 62
5
100
AcDbSpline
 70
8
 71
3
 72
8
 73
4
 74
0
 40
0
 40
0
 40
0
 40
0
 40
1
 40
1
 40
1
 40
1
 10
23.143407
 20
10.324054
 30
0.0
 10
23.163826
 20
10.383089
 30
0.0
 10
23.174435
 20
10.444756
 30
0.0
 10
23.174855
 20
10.506859
 30
0.0
  0
SPLINE
  5
197
100
AcDbEntity
  8
decoupe
 62
5
100
AcDbSpline
 70
8
 71
3
 72
8
 73
4
 74
0
 40
0
 40
0
 40
0
 40
0
 40
1
 40
1
 40
1
 40
1
 10
23.174855
 20
10.506859
 30
0.0
 10
23.174840
 20
10.830719
 30
0.0
 10
22.903434
 20
11.093992
 30
0.0
 10
22.563820
 20
11.106681
 30
0.0
  0
LWPOLYLINE
  5
198
100
AcDbEntity
  8
decoupe
 62
5
100
AcDbPolyline
 90
3
 70
0
 10
29.188801
 20
10.185823
 30
0.0
 10
29.042777
 20
10.185823
 30
0.0
 10
29.042777
 20
10.246120
 30
0.0
  0
SPLINE
  5
199
100
AcDbEntity
  8
decoupe
 62
5
100
AcDbSpline
 70
8
 71
3
 72
8
 73
4
 74
0
 40
0
 40
0
 40
0
 40
0
 40
1
 40
1
 40
1
 40
1
 10
22.563820
 20
11.058553
 30
0.0
 10
22.591275
 20
11.037900
 30
0.0
 10
22.607739
 20
11.011210
 30
0.0
 10
22.563820
 20
10.978431
 30
0.0
  0
LWPOLYLINE
  5
19a
100
AcDbEntity
  8
decoupe
 62
5
100
AcDbPolyline
 90
2
 70
0
 10
22.563820
 20
11.106681
 30
0.0
 10
22.563820
 20
11.058553
 30
0.0
  0
SPLINE
  5
19b
100
AcDbEntity
  8
decoupe
 62
5
100
AcDbSpline
 70
8
 71
3
 72
8
 73
4
 74
0
 40
0
 40
0
 40
0
 40
0
 40
1
 40
1
 40
1
 40
1
 10
22.563820
 20
11.058553
 30
0.0
 10
22.521037
 20
11.090738
 30
0.0
 10
22.451156
 20
11.107911
 30
0.0
 10
22.538389
 20
11.107912
 30
0.0
  0
SPLINE
  5
19c
100
AcDbEntity
  8
decoupe
 62
5
100
AcDbSpline
 70
8
 71
3
 72
8
 73
4
 74
0
 40
0
 40
0
 40
0
 40
0
 40
1
 40
1
 40
1
 40
1
 10
22.538389
 20
11.107912
 30
0.0
 10
22.546974
 20
11.107912
 30
0.0
 10
22.555319
 20
11.107002
 30
0.0
 10
22.563820
 20
11.106680
 30
0.0
  0
LWPOLYLINE
  5
19d
100
AcDbEntity
  8
decoupe
 62
5
100
AcDbPolyline
 90
2
 70
0
 10
22.563820
 20
10.978431
 30
0.0
 10
22.563820
 20
11.058553
 30
0.0
  0
LWPOLYLINE
  5
19e
100
AcDbEntity
  8
decoupe
 62
5
100
AcDbPolyline
 90
2
 70
0
 10
22.563820
 20
11.106680
 30
0.0
 10
22.563820
 20
15.489472
 30
0.0
  0
LWPOLYLINE
  5
19f
100
AcDbEntity
  8
decoupe
 62
5
100
AcDbPolyline
 90
4
 70
1
 10
30.761711
 20
15.489472
 30
0.0
 10
36.960650
 20
15.489472
 30
0.0
 10
36.890783
 20
10.138379
 30
0.0
 10
30.761711
 20
10.138379
 30
0.0
  0
SPLINE
  5
1a0
100
AcDbEntity
  8
decoupe
 62
5
100
AcDbSpline
 70
8
 71
3
 72
8
 73
4
 74
0
 40
0
 40
0
 40
0
 40
0
 40
1
 40
1
 40
1
 40
1
 10
13.708820
 20
7.180422
 30
0.0
 10
13.570485
 20
7.067765
 30
0.0
 10
13.485288
 20
6.901548
 30
0.0
 10
13.470642
 20
6.722386
 30
0.0
  0
SPLINE
  5
1a1
100
AcDbEntity
  8
decoupe
 62
5
100
AcDbSpline
 70
8
 71
3
 72
8
 73
4
 74
0
 40
0
 40
0
 40
0
 40
0
 40
1
 40
1
 40
1
 40
1
 10
13.470642
 20
6.722386
 30
0.0
 10
13.456082
 20
6.902349
 30
0.0
 10
13.369783
 20
7.068118
 30
0.0
 10
13.232189
 20
7.180422
 30
0.0
  0
LWPOLYLINE
  5
1a2
100
AcDbEntity
  8
decoupe
 62
5
100
AcDbPolyline
 90
4
 70
0
 10
13.232187
 20
7.180422
 30
0.0
 10
13.468999
 20
7.180422
 30
0.0
 10
13.472009
 20
7.180422
 30
0.0
 10
13.708820
 20
7.180422
 30
0.0
  0
LWPOLYLINE
  5
1a3
100
AcDbEntity
  8
decoupe
 62
5
100
AcDbPolyline
 90
1
 70
1
 10
13.232189
 20
7.180422
 30
0.0
  0
SPLINE
  5
1a4
100
AcDbEntity
  8
decoupe
 62
5
100
AcDbSpline
 70
8
 71
3
 72
8
 73
4
 74
0
 40
0
 40
0
 40
0
 40
0
 40
1
 40
1
 40
1
 40
1
 10
21.853249
 20
7.180422
 30
0.0
 10
21.758586
 20
7.103012
 30
0.0
 10
21.687349
 20
6.999476
 30
0.0
 10
21.647885
 20
6.881947
 30
0.0
  0
SPLINE
  5
1a5
100
AcDbEntity
  8
decoupe
 62
5
100
AcDbSpline
 70
8
 71
3
 72
8
 73
4
 74
0
 40
0
 40
0
 40
0
 40
0
 40
1
 40
1
 40
1
 40
1
 10
21.647885
 20
6.881947
 30
0.0
 10
21.619810
 20
6.993768
 30
0.0
 10
21.563905
 20
7.097222
 30
0.0
 10
21.483266
 20
7.180422
 30
0.0
  0
LWPOLYLINE
  5
1a6
100
AcDbEntity
  8
decoupe
 62
5
100
AcDbPolyline
 90
3
 70
0
 10
21.483266
 20
7.180422
 30
0.0
 10
21.671949
 20
7.180422
 30
0.0
 10
21.853249
 20
7.180422
 30
0.0
  0
LWPOLYLINE
  5
1a7
100
AcDbEntity
  8
decoupe
 62
5
100
AcDbPolyline
 90
1
 70
1
 10
21.483266
 20
7.180422
 30
0.0
  0
SPLINE
  5
1a8
100
AcDbEntity
  8
decoupe
 62
5
100
AcDbSpline
 70
8
 71
3
 72
8
 73
4
 74
0
 40
0
 40
0
 40
0
 40
0
 40
1
 40
1
 40
1
 40
1
 10
30.051140
 20
7.180422
 30
0.0
 10
29.913082
 20
7.067992
 30
0.0
 10
29.827865
 20
6.902226
 30
0.0
 10
29.812962
 20
6.723480
 30
0.0
  0
SPLINE
  5
1a9
100
AcDbEntity
  8
decoupe
 62
5
100
AcDbSpline
 70
8
 71
3
 72
8
 73
4
 74
0
 40
0
 40
0
 40
0
 40
0
 40
1
 40
1
 40
1
 40
1
 10
29.812962
 20
6.723480
 30
0.0
 10
29.811834
 20
6.894857
 30
0.0
 10
29.745309
 20
7.058934
 30
0.0
 10
29.627696
 20
7.180422
 30
0.0
  0
LWPOLYLINE
  5
1aa
100
AcDbEntity
  8
decoupe
 62
5
100
AcDbPolyline
 90
3
 70
0
 10
29.627696
 20
7.180422
 30
0.0
 10
29.816380
 20
7.180422
 30
0.0
 10
30.051140
 20
7.180422
 30
0.0
  0
LWPOLYLINE
  5
1ab
100
AcDbEntity
  8
decoupe
 62
5
100
AcDbPolyline
 90
1
 70
1
 10
29.627696
 20
7.180422
 30
0.0
  0
LWPOLYLINE
  5
1ac
100
AcDbEntity
  8
plis
 62
7
100
AcDbPolyline
 90
2
 70
0
 10
37.104624
 20
17.186667
 30
0.0
 10
0.636436
 20
17.183760
 30
0.0
  0
LWPOLYLINE
  5
1ad
100
AcDbEntity
  8
plis
 62
7
100
AcDbPolyline
 90
2
 70
0
 10
13.617485
 20
19.181244
 30
0.0
 10
13.568811
 20
7.180422
 30
0.0
  0
LWPOLYLINE
  5
1ae
100
AcDbEntity
  8
plis
 62
7
100
AcDbPolyline
 90
2
 70
0
 10
29.802299
 20
19.181244
 30
0.0
 10
29.753626
 20
7.180422
 30
0.0
  0
LWPOLYLINE
  5
1af
100
AcDbEntity
  8
plis
 62
7
100
AcDbPolyline
 90
2
 70
0
 10
5.158172
 20
19.181244
 30
0.0
 10
5.109498
 20
7.180422
 30
0.0
  0
LWPOLYLINE
  5
1b0
100
AcDbEntity
  8
plis
 62
7
100
AcDbPolyline
 90
2
 70
0
 10
21.602214
 20
19.181244
 30
0.0
 10
21.553541
 20
7.180422
 30
0.0
  0
ENDSEC
  0
SECTION
  2
OBJECTS
  0
DICTIONARY
  5
C
330
0
100
AcDbDictionary
  3
ACAD_GROUP
350
D
  3
ACAD_MLINESTYLE
350
17
  0
DICTIONARY
  5
D
330
C
100
AcDbDictionary
  0
DICTIONARY
  5
1A
330
C
100
AcDbDictionary
  0
DICTIONARY
  5
17
330
C
100
AcDbDictionary
  3
STANDARD
350
18
  0
DICTIONARY
  5
19
330
C
100
AcDbDictionary
  0
ENDSEC
  0
EOF
