<?xml version="1.0" encoding="UTF-8" standalone="no"?>
<!-- Created with Inkscape (http://www.inkscape.org/) -->

<svg
   xmlns:dc="http://purl.org/dc/elements/1.1/"
   xmlns:cc="http://creativecommons.org/ns#"
   xmlns:rdf="http://www.w3.org/1999/02/22-rdf-syntax-ns#"
   xmlns:svg="http://www.w3.org/2000/svg"
   xmlns="http://www.w3.org/2000/svg"
   xmlns:sodipodi="http://sodipodi.sourceforge.net/DTD/sodipodi-0.dtd"
   xmlns:inkscape="http://www.inkscape.org/namespaces/inkscape"
   width="210mm"
   height="297mm"
   viewBox="0 0 744.09448819 1052.3622047"
   id="svg2"
   version="1.1"
   inkscape:version="0.92.3 (2405546, 2018-03-11)"
   sodipodi:docname="vasco-unite.svg">
  <defs
     id="defs4" />
  <sodipodi:namedview
     id="base"
     pagecolor="#ffffff"
     bordercolor="#666666"
     borderopacity="1.0"
     inkscape:pageopacity="0.0"
     inkscape:pageshadow="2"
     inkscape:zoom="2.0935598"
     inkscape:cx="234.33905"
     inkscape:cy="886.12616"
     inkscape:document-units="px"
     inkscape:current-layer="layer4"
     showgrid="false"
     inkscape:window-width="1366"
     inkscape:window-height="705"
     inkscape:window-x="0"
     inkscape:window-y="30"
     inkscape:window-maximized="1"
     inkscape:snap-bbox="false"
     inkscape:object-paths="true"
     inkscape:snap-intersection-paths="true"
     inkscape:object-nodes="true"
     inkscape:snap-midpoints="true"
     inkscape:snap-object-midpoints="false"
     inkscape:snap-global="false" />
  <metadata
     id="metadata7">
    <rdf:RDF>
      <cc:Work
         rdf:about="">
        <dc:format>image/svg+xml</dc:format>
        <dc:type
           rdf:resource="http://purl.org/dc/dcmitype/StillImage" />
        <dc:title></dc:title>
      </cc:Work>
    </rdf:RDF>
  </metadata>
  <g
     inkscape:groupmode="layer"
     id="layer4"
     inkscape:label="vasco10"
     style="display:inline">
    <path
       inkscape:connector-curvature="0"
       style="color:#000000;font-style:normal;font-variant:normal;font-weight:normal;font-stretch:normal;font-size:medium;line-height:normal;font-family:sans-serif;text-indent:0;text-align:start;text-decoration:none;text-decoration-line:none;text-decoration-style:solid;text-decoration-color:#000000;letter-spacing:normal;word-spacing:normal;text-transform:none;writing-mode:lr-tb;direction:ltr;baseline-shift:baseline;text-anchor:start;white-space:normal;clip-rule:nonzero;display:inline;overflow:visible;visibility:visible;opacity:1;isolation:auto;mix-blend-mode:normal;color-interpolation:sRGB;color-interpolation-filters:linearRGB;solid-color:#000000;solid-opacity:1;vector-effect:none;fill:none;fill-opacity:1;fill-rule:evenodd;stroke:#000000;stroke-width:0.92961705px;stroke-linecap:butt;stroke-linejoin:miter;stroke-miterlimit:4;stroke-dasharray:none;stroke-dashoffset:0;stroke-opacity:1;color-rendering:auto;image-rendering:auto;shape-rendering:auto;text-rendering:auto;enable-background:accumulate"
       d="m 442.33932,67.572892 c -2.01749,0.02455 -3.67482,0.212128 -4.85149,0.526312 -9.41335,2.513475 -26.35555,5.02496 -37.02401,6.281697 -10.66847,1.256736 -23.22045,13.825239 -33.88893,20.108919 -10.66846,6.28368 -13.17869,18.85119 -22.59204,30.79019 -9.41336,11.93901 -5.64645,43.35812 -0.626,63.46591 5.02046,20.10778 19.45327,56.55144 25.72884,60.32166 6.27556,3.77021 12.55057,1.88553 12.55057,1.88553 l -4.39219,38.95912 12.04705,1.07136 8.19071,-44.51521 7.21598,1.33196 -8.06482,43.83731 7.44222,0.66428 11.09785,-41.97903 9.48863,2.51744 -10.66577,40.34389 19.72743,1.75438 10.04147,-50.89741 c 0,0 21.33651,5.02765 35.77032,3.14255 5.52663,-0.72179 11.78768,-5.68543 17.55344,-11.81394 5.38104,0.0995 10.65998,0.26659 15.8898,0.46328 -5.01705,5.24627 -9.06676,16.23972 -9.06676,25.39761 0,14.21835 -3.55078,4.44215 -7.98827,4.44215 -4.4375,-10e-6 -13.31373,-2.66548 -18.63874,0.88911 -5.32499,3.55459 -3.55,15.99799 0,23.99581 0.53212,1.1988 1.3065,2.03155 2.23352,2.59239 -0.0483,0.26841 -1.25105,6.99231 -1.86608,15.61397 -0.62756,8.79715 -22.59263,59.694 -25.10285,63.46421 -2.51023,3.77021 -31.37713,12.56765 -49.57628,8.79744 -18.19915,-3.77021 -25.72998,-24.50751 -45.8118,-42.73019 -15.98564,-14.50571 -23.99837,-38.51395 -26.61001,-47.7259 2.16768,1.56629 4.56337,3.50524 7.19727,5.94786 13.22051,12.26034 7.10078,-15.10687 7.98828,-25.77063 0.8875,-10.66376 -26.18211,-21.77201 -34.1696,-23.10499 -7.98749,-1.33297 -2.66235,7.99675 -6.21234,14.21728 -0.68286,1.19654 -5.92611,3.84934 -14.02031,7.37009 1.45224,-11.58467 2.94606,-23.58575 4.43131,-35.60706 0.091,-0.73673 0.15251,-1.24423 0.24326,-1.97921 8.74931,0.79169 15.76988,1.56735 21.19886,2.26876 13.5566,1.75151 27.34657,2.29091 27.34657,2.29091 l -6.84174,-10.04934 c 0,0 -5.12513,-1.49616 -19.08102,-3.29926 -5.51675,-0.71275 -12.55205,-1.49194 -21.26521,-2.2841 4.95629,-26.63654 7.38994,-54.50607 5.79898,-75.21684 -18.19442,1.58418 -82.76399,1.29129 -141.04848,0.40368 -58.2845,-0.8876 -111.490509,-2.21937 -111.49051,-2.21937 l -13.293942,0.36961 1.486744,11.38473 1.767422,92.03501 c -1.2386,72.9869 -8.217842,142.99454 -14.164896,215.28266 -1.776041,24.89672 -3.55288,50.46107 -4.887204,71.16984 -1.334324,20.70878 -2.242024,35.89508 -2.242024,42.50876 0,11.94556 1.7815,65.69732 3.556959,117.69663 1.775459,51.99931 3.550155,101.32642 3.550155,101.32642 l 23.027525,-0.8312 c 0,0 -1.773915,-49.31143 -3.548453,-101.28383 -0.491133,-14.38418 -0.972591,-28.80108 -1.425506,-42.67909 11.055685,1.04021 29.318333,2.65559 53.805173,4.50007 -1.004745,20.98306 -1.713623,37.58681 -2.007275,47.28986 -1.778299,58.75974 -1.779331,115.69187 -1.779331,115.69187 h 11.131873 c 0,0 7.9e-4,-56.81124 1.77253,-115.35292 0.28847,-9.53209 0.99193,-25.97986 1.99026,-46.80613 18.57286,1.3431 40.19397,2.76703 64.36888,4.14068 -3.07447,38.93747 -4.49726,91.81553 0.626,160.2139 l 11.10295,-0.8346 c -5.09161,-67.97596 -3.65576,-120.32434 -0.60729,-158.76613 23.67572,1.28643 49.6527,2.5085 77.56927,3.55646 -1.97036,15.06888 -3.36713,41.85525 -1.30643,56.98663 0,0 47.92508,-3.99891 55.46883,0 7.54375,3.99891 58.575,5.33296 58.575,5.33296 v -16.8846 c 0,-6.66437 4.94672,-35.47298 6.16642,-42.48662 2.68257,0.0329 5.37357,0.0652 8.07672,0.0937 3.14095,20.5422 13.26843,67.27445 13.26843,67.27445 0,0 64.78821,0.88911 69.66945,0.88911 4.88125,0 33.72376,-10.66409 30.17377,-16.88462 -2.09802,-3.67628 -1.56037,-29.75823 -1.13633,-51.47481 16.75783,-0.24099 33.7502,-0.57511 50.97628,-1.02879 -0.0138,2.98571 -0.0348,6.00652 -0.0765,9.11596 -0.3845,28.65948 -0.32425,29.49637 1.19925,39.1601 1.5235,9.66373 4.53341,28.70815 10.23711,95.95427 l 9.83904,-0.83801 c -5.71527,-67.38267 -8.79865,-86.99229 -10.32215,-96.65602 -1.5235,-9.66373 -1.46297,-8.82801 -1.07848,-37.48749 0.0435,-3.24444 0.065,-6.40314 0.0782,-9.51622 25.05875,-0.71955 50.55825,-1.68095 76.38532,-2.91602 -0.0328,0.96319 -0.0643,1.90287 -0.097,2.86492 -2.66219,78.19203 -5.32268,153.72271 -5.32268,153.72271 l 23.02752,0.81416 c 0,0 2.66328,-75.54179 5.32609,-153.75166 2.6628,-78.20985 5.33118,-157.53884 5.33118,-170.12529 0,-4.0501 0.86319,-19.80024 2.29987,-39.85675 1.43667,-20.05651 3.42986,-45.05512 5.64248,-69.97926 2.21261,-24.92413 4.64718,-49.79064 6.95572,-69.52107 4.25948,-31.56961 11.00688,-60.65554 11.72385,-90.74223 0.45169,-19.22198 0,-35.90514 0,-35.90514 l -0.24326,-9.02227 -8.80479,-1.93493 c 0,0 -72.8062,-15.98917 -175.62124,-23.2157 -3.7485,-19.51427 -8.33758,-40.04717 -12.36006,-53.47277 -8.23668,-27.491102 -40.01609,-35.257678 -54.13857,-35.085858 z m -55.05548,31.943305 c 8.78581,0 16.94433,3.141273 16.31677,12.566803 -0.62755,9.42553 -8.15838,27.64962 -8.15838,36.44678 0,8.79715 -6.90285,21.99205 -13.80597,18.8502 -6.90312,-3.14183 -15.68906,-19.47999 -15.68906,-25.1353 0,-5.65532 5.64758,-13.19531 5.64758,-13.19531 2.51024,-18.85105 6.90328,-29.533173 15.68906,-29.533173 z m 64.01166,0.628513 c 7.53068,0 25.10143,11.31105 18.82586,24.50679 -6.27556,13.19574 -10.03963,30.16168 -16.94276,30.16168 -6.90312,0 -12.55242,-5.02666 -13.17997,-13.82381 -0.62756,-8.79717 1.25539,-17.59489 1.25539,-17.59489 5.02046,-16.33757 2.51081,-23.24977 10.04148,-23.24977 z m 0.83523,11.44604 c -2.1677,1.39376 -2.00759,5.70901 -2.09063,8.24047 0.62757,10.68226 3.76464,18.85105 4.39219,22.62126 0.62755,3.77021 5.64902,-15.08197 4.39389,-20.10892 -1.059,-4.2415 -4.79876,-10.71915 -6.69545,-10.75281 z m -72.49493,24.32284 c 3.81639,9.29906 8.36238,15.42963 8.78608,2.51404 2.7222,-22.89838 -13.24879,-25.76647 -8.78608,-2.51404 z M 62.08661,166.87751 c 11.128324,0.26706 33.765572,0.78334 68.94139,1.41884 -1.80988,19.5113 -3.59419,39.97693 -5.3431,61.13412 -15.85359,3.0526 -35.764454,6.61883 -62.189796,10.69659 z m 80.10558,1.61131 c 6.57581,0.11261 12.78427,0.23384 19.57432,0.33725 16.66648,0.25382 33.56189,0.47361 49.85357,0.6268 -0.004,6.03752 -0.008,10.21851 -0.0102,20.43765 -0.002,7.98802 -0.002,15.97667 0.002,21.97061 8.7e-4,1.84249 0.004,3.04738 0.007,4.45578 -16.88311,0.25186 -28.76611,1.80905 -43.39456,4.59204 -8.76425,1.66736 -18.62565,3.77502 -31.17741,6.28681 1.6868,-20.3099 3.40426,-39.96534 5.14578,-58.70694 z m 150.26323,0.56208 c -1.56883,12.91936 -3.63409,29.79505 -6.19193,50.58741 -11.53358,-0.90401 -25.35559,-1.79677 -42.18509,-2.59921 -8.01842,-0.38232 -15.00686,-0.61081 -21.32815,-0.70515 -0.002,-1.41115 -0.004,-2.62401 -0.005,-4.47963 -0.003,-5.98673 -0.003,-13.97419 -0.002,-21.96039 0.003,-10.17226 0.007,-14.29909 0.0102,-20.34568 27.90778,0.20185 52.95021,0.13095 69.70177,-0.49735 z m 220.54847,10.51945 c 29.93779,2.21876 56.76467,5.09433 79.64799,8.03608 -2.79424,9.698 -6.30668,24.39631 -8.47989,42.64672 -23.27513,-2.78155 -49.58609,-4.99019 -78.03365,-5.81841 5.03705,-6.7737 8.78855,-12.93796 9.79481,-14.95309 0.98611,-1.97475 -0.37001,-14.09049 -2.92926,-29.9113 z m 89.54657,9.33908 c 33.42211,4.53813 57.17912,9.00347 68.06364,11.18374 0.0727,6.47998 0.10116,15.19089 -0.14289,25.57645 -0.14726,6.26657 -0.50337,12.91971 -0.97472,19.23684 -16.11559,-3.72958 -42.21172,-9.07514 -75.55349,-13.43717 2.2142,-18.70278 5.87507,-33.3818 8.60746,-42.55986 z m -385.33213,27.35809 0.0341,0.029 c -0.003,0 -0.004,1e-5 -0.007,0 z m -6.02522,11.17863 c -0.18222,2.34437 -0.37827,4.85785 -0.66682,8.54364 -0.72766,9.29483 -1.77175,22.59923 -3.03303,38.63039 -0.5853,7.43926 -1.43629,18.22614 -2.17058,27.53523 -21.9062,7.85793 -40.35891,14.17273 -45.96149,15.6889 -15.3298,4.14855 -20.21485,-6.80618 -28.74145,-8.27794 1.77101,-24.02099 3.59626,-47.78855 5.47407,-70.82408 14.11991,-2.79828 24.95486,-5.12243 34.20873,-6.88295 14.10276,-2.68298 25.04938,-4.16276 40.89057,-4.41319 z m 11.16589,0.0136 c 6.20996,0.0981 13.13658,0.32975 21.18866,0.71368 16.4936,0.78641 30.04516,1.6615 41.35837,2.543 -0.0705,0.57075 -0.11818,0.96457 -0.18883,1.53636 -1.9282,15.60646 -3.33729,29.57364 -4.44322,41.6009 -17.43965,7.11166 -41.27817,16.08693 -63.4588,24.1508 0.58783,-7.45907 1.29577,-16.42746 1.77423,-22.50884 1.26134,-16.03195 2.30855,-29.3379 3.03643,-38.6355 0.31732,-4.05342 0.54495,-6.97552 0.73316,-9.4004 z m 301.46887,8.85024 c 21.31621,1.07603 41.22677,2.86919 59.24353,5.02468 -1.14305,14.28408 -1.36056,30.28536 0.17351,47.47212 l 9.83734,-0.88059 c -1.4674,-16.43995 -1.28408,-31.72568 -0.22284,-45.36856 33.79907,4.43254 60.03137,9.89141 75.62324,13.54619 -3.78007,20.42069 -7.41582,39.69162 -9.58559,58.1636 -1.33834,11.43844 -2.70511,24.54422 -4.04688,38.2727 -20.84741,-3.67682 -46.20474,-4.35115 -60.88166,-4.57502 -0.53185,-1.08903 -1.2436,-2.16188 -2.19439,-3.20046 -9.76249,-10.66377 -18.63874,0 -18.63874,0 l -50.58844,-78.20269 c 0,0 5.5656,-21.61328 1.28092,-30.25195 z m -399.08367,4.63463 c -2.90594,35.80198 -5.70143,73.21625 -8.33359,110.68594 -17.748434,2.24661 -37.522682,4.81722 -59.112542,7.6869 3.152076,-35.08861 5.82477,-99.20863 6.180025,-107.913 25.798807,-3.96139 45.432787,-7.44468 61.266107,-10.45984 z m 192.25441,43.3127 c 0,0 2.62142,0.0205 7.45583,2.51404 h -2.43594 c 0,0 -18.82615,83.57186 -20.08125,92.99738 -1.25513,9.42553 -10.67018,41.47245 -15.06307,45.87103 -1.90776,1.91023 -2.03767,8.08953 -1.5769,15.08425 -12.54518,-25.78658 -44.14109,-47.31326 -75.39189,-55.06364 0.91538,-11.60962 1.74786,-22.17102 2.69962,-34.23933 54.76586,-5.91267 68.48379,-5.93933 68.48379,-5.93933 l -8.15838,-11.14626 c 0,0 -5.76745,0.0592 -59.43575,5.80306 0.45801,-5.80919 0.85652,-10.86599 1.32854,-16.85224 0.73599,-0.33183 1.4622,-0.66376 2.22672,-0.99813 18.28247,-7.99577 41.54511,-16.89231 61.096,-24.10141 -0.69019,8.08391 -1.29524,14.82286 -1.87119,18.28301 l 6.58829,16.91357 c 0.95338,-5.7277 2.8977,-20.3107 5.27165,-38.85181 16.64805,-6.04577 28.86393,-10.27419 28.86393,-10.27419 z m 178.03677,6.30044 c 0,0 17.75047,13.32755 30.17547,28.43455 12.42499,15.107 21.30093,40.87872 21.30093,40.87872 0,0 -2.6639,7.99689 -2.6639,17.77201 0,9.77511 24.85109,0.88911 24.85109,0.88911 0,0 -9.76266,4.44418 -13.31266,11.55335 -3.54999,7.10919 5.32362,10.66347 16.86112,12.44076 0,0 -7.38318,30.86232 -10.28134,48.83815 -0.9413,13.69076 -25.20387,23.74235 -19.75805,36.10101 -2.60126,3.04546 -5.29374,9.03745 -7.0986,15.79792 -2.844,10.66815 -2.65562,19.98294 0.42187,20.80727 3.0782,0.82307 7.87938,-7.15881 10.72361,-17.82824 1.02419,-3.84748 1.69396,-7.69552 1.92222,-11.04917 1.98374,1.94596 3.65732,3.30777 3.65732,3.30777 l 0.1531,-0.0596 c -0.39202,1.28141 -0.70504,2.61552 -0.9322,3.97205 -0.68561,4.17613 -0.51708,8.31758 0.4695,11.51588 -1.39573,2.76898 -2.54188,6.5409 -3.20483,10.55011 -0.83839,5.09949 -0.80349,10.01878 0.0919,13.20553 -1.30478,2.56465 -2.32674,5.84027 -2.89865,9.2965 -0.99684,6.05117 -0.45263,11.49928 1.16865,14.3331 -23.78458,3.33004 -38.66556,4.07425 -38.66556,4.07425 l 0.11908,4.89692 -1.08019,-4.76407 -0.11737,0.0272 c -1.39804,-27.02877 -2.93542,-55.14972 -3.55526,-60.73555 -1.25511,-11.31064 12.55056,-82.94462 12.55056,-82.94462 0,0 -10.04105,-8.16822 -15.68906,-27.64764 -5.60107,-19.31755 -12.39823,-99.39714 -12.51144,-100.73368 3.89296,-1.01816 7.30273,-2.92963 7.30273,-2.92963 z m -291.83054,38.43623 c -0.34634,4.39004 -0.637,8.08604 -0.97472,12.36921 -6.43998,0.71172 -13.61717,1.53382 -21.13763,2.40674 4.86722,-3.98099 11.52044,-9.07773 22.11235,-14.77595 z m -74.16881,2.36585 c 3.89373,2.92106 13.46235,2.92453 13.46235,2.92453 0,0 2.21991,7.99806 2.21991,10.21968 0,0.79792 1.15878,1.99792 3.16061,3.22771 -4.73301,0.57819 -9.452,1.15377 -14.49151,1.77993 l -5.14066,-7.20657 c 0.25959,-3.65553 0.52694,-7.29483 0.7893,-10.94528 z m 72.30442,21.29781 c -0.86089,10.91512 -1.61946,20.53978 -2.43254,30.85491 -4.32947,-0.61197 -8.60912,-0.94872 -12.78192,-0.94872 -25.9075,0 -46.78828,3.72001 -61.18446,15.65995 1.39117,-4.9575 2.62677,-9.34175 4.38538,-15.65995 3.72182,-13.37152 18.63704,-21.32847 18.63704,-21.32847 l -3.25247,-1.89915 c 22.08077,-2.7159 40.92737,-4.93044 56.62897,-6.67857 z m 393.12138,5.32275 c 13.38897,0.52243 37.83565,1.89106 59.31667,5.69066 -0.64611,6.85646 -1.28483,13.7904 -1.9035,20.75958 -2.22489,25.06225 -4.22371,50.1607 -5.6714,70.371 -1.4477,20.2103 -2.36111,34.89354 -2.36111,41.50723 0,3.57676 -0.51518,21.37735 -1.22308,44.28697 -33.82856,10.05475 -65.01825,16.07918 -88.89845,19.68481 1.76981,-2.59809 3.28386,-6.62162 4.05027,-11.27401 0.96695,-5.88914 0.50163,-11.47736 -1.19756,-14.38079 0.96911,-2.45634 1.75191,-5.37586 2.25393,-8.41079 0.4161,-2.52794 0.62519,-5.05197 0.60729,-7.35988 2.46404,-1.37756 4.7329,-4.68986 6.19193,-9.03589 0.86457,2.3291 2.03311,3.80793 3.29499,4.16963 -0.7405,2.74121 -1.1557,6.4495 -1.15674,10.31505 8.8e-4,5.83468 0.94238,11.10954 2.39682,13.43036 -0.97407,1.9899 -1.52061,4.66532 -1.52246,7.45185 2.1e-4,5.88812 2.38243,10.6611 5.32269,10.66254 2.94095,5.7e-4 5.32586,-4.773 5.32607,-10.66254 -6.44318,-10.72227 -1.37993,-27.11093 -6.16981,-34.61234 0.57639,-1.31893 1.03016,-2.93883 1.32854,-4.74535 1.2583,3.51949 3.2121,5.58554 5.28526,5.58847 1.38894,-0.005 2.74361,-0.93974 3.87166,-2.67074 -0.49592,2.1964 -0.76541,4.84176 -0.76719,7.55916 0.003,5.8447 1.22519,10.95265 2.97689,12.44245 -0.20571,1.68768 -0.31271,3.49883 -0.313,5.32956 10e-5,7.60686 1.78855,13.77431 3.99414,13.77442 2.20558,-1.1e-4 3.99403,-6.16756 3.99414,-13.77442 -0.002,-6.17739 -1.19712,-11.59442 -2.92246,-13.25321 0.1697,-1.44384 0.25838,-2.97467 0.26027,-4.5188 2.3e-4,-7.11916 -1.78931,-12.89014 -3.99584,-12.88702 -0.43919,0.005 -0.8744,0.24512 -1.28942,0.70856 0.55462,-2.11752 0.8461,-4.50253 0.84713,-6.92894 -3e-4,-2.72373 -0.36718,-5.39019 -1.05637,-7.68179 2.42761,-0.57002 4.84022,-2.0265 6.442,-5.23418 4.43749,-8.88647 -11.53843,-21.32847 -11.53843,-21.32847 l 11.12506,-66.97126 c 0,0 15.49916,-7.67467 10.17416,-20.11574 -2.45977,-5.74687 -8.13441,-7.11352 -13.53379,-6.94086 1.45207,-1.6206 4.93838,-5.89682 6.4607,-10.94528 z m -481.4874,5.31935 c -0.74214,1.64556 -1.44767,3.22584 -2.28625,5.04511 -10.65,23.10482 -39.049388,96.86397 -44.374386,100.41856 -5.324997,3.55459 -16.86281,13.32895 -16.86281,21.32677 0,0.88251 0.06173,1.70176 0.165005,2.47487 -0.710319,0.0431 -1.472891,0.35632 -2.264138,0.92999 0.671711,-9.66475 1.354101,-19.44352 2.053204,-29.24362 3.353396,-47.00823 6.495962,-88.79942 6.853652,-93.55264 20.650549,-2.74996 39.558068,-5.21417 56.715723,-7.39904 z m 282.4678,28.7224 7.84368,7.85382 c -8.47201,3.45603 -12.23587,2.82837 -12.23587,10.68297 0,7.85461 9.41173,11.93773 11.60817,16.96468 2.19645,5.02694 10.04148,5.65616 10.04148,11.31147 0,5.65532 -8.78523,18.2234 -12.55057,18.2234 -3.76534,0 -14.43367,-3.77108 -14.43367,-3.77106 l -0.31469,-8.79744 c 0,0 11.92378,0.31503 12.23757,-3.76936 0.31377,-4.0844 -13.4917,-10.36715 -15.37437,-14.76574 -1.88267,-4.39857 -7.53025,-20.10778 -5.64758,-22.62125 1.88266,-2.51348 18.82586,-11.31149 18.82585,-11.31149 z m 78.75832,1.57043 c 6.90313,0.31418 24.15987,6.28418 21.64965,21.05083 -2.51023,14.76666 -4.07791,20.42225 -5.96058,23.87828 -1.88267,3.45602 -12.23772,11.93864 -20.39596,9.73936 -8.15824,-2.1993 -16.31612,-3.14065 -17.25746,-13.50872 -0.94132,-10.36808 -0.94012,-10.99829 1.5701,-15.71105 2.824,-13.82411 13.49111,-25.76288 20.39425,-25.4487 z m -136.17829,1.57042 9.72678,2.82915 -31.06343,54.35336 -7.53239,-51.21251 h 0.62771 l 7.21598,-0.62851 4.08089,31.10359 z m 27.61194,2.20063 16.62976,49.9555 -9.09908,1.25702 -8.15838,-16.02446 h -3.45149 l -14.74837,25.13361 -6.27528,-3.45596 19.45525,-55.92379 z m 63.23086,0.89082 c 4.05399,0.03 12.70367,0.99472 12.70367,0.99472 v 7.85382 c 0,0 -8.15988,0.3139 -10.98388,6.2834 -2.82401,5.9695 -2.50838,12.25339 0.6294,12.25339 h 11.29518 c 0,0 -1.56862,9.42574 -6.27529,12.2534 -4.70668,2.82766 -14.74816,12.2529 -17.57216,6.2834 -2.82401,-5.9695 -8.78551,-16.65112 -6.27529,-23.56317 2.51024,-6.91207 12.23736,-21.99368 15.06137,-22.30786 0.353,-0.0392 0.83786,-0.0554 1.417,-0.0511 z m 48.59306,13.48657 c -4.10342,0.13347 -7.98499,7.51618 -8.27916,10.75622 -0.31377,3.45601 0.62919,11.31148 3.4532,11.31148 2.824,0 8.47321,-3.45681 9.10077,-7.22702 0.62756,-3.77021 0.62593,-13.82318 -3.45319,-14.76573 -0.27455,-0.0589 -0.54807,-0.0838 -0.82162,-0.0749 z m -115.59012,1.64537 -2.82378,10.05446 7.53067,-0.3151 z m -258.72582,36.62222 c -0.36076,4.8766 -0.51333,10.07939 -0.44058,15.64292 0.12809,9.79445 1.67623,19.24508 4.44493,28.14159 -0.40568,6.6935 -0.80319,13.30034 -1.19076,19.82788 -0.34922,-1.53422 -0.80421,-3.10375 -1.34896,-4.65336 -2.30042,-6.49478 -5.841312,-11.72376 -8.787777,-12.97729 1.000584,-2.96733 1.089154,-6.18344 -0.217738,-9.4549 l -5.326083,-13.32987 c 0,0 6.700842,-12.00887 12.866968,-23.19697 z m 320.47334,9.6593 c 7.47506,0 15.28559,1.79015 19.5216,1.79015 7.53069,0 18.8267,22.61928 22.59205,28.90296 3.76535,6.28368 -8.15725,31.42011 -10.66747,37.7038 -2.51023,6.28368 -21.96549,27.01785 -26.98595,28.90295 -5.02045,1.88511 -28.2409,-4.39687 -33.88891,-7.53871 -5.64802,-3.14185 -6.275,-21.99362 -5.0199,-48.38507 2.51023,-10.68227 11.29532,-27.64793 19.45356,-36.44508 3.56923,-3.84876 9.18108,-4.931 14.99502,-4.931 z m -63.62891,16.86928 6.58828,3.14256 v 0.3134 c 0,75.78029 -7.84538,76.34612 -7.84538,76.34612 l -32.31882,-4.71298 4.70688,-29.21807 -10.98217,-6.2851 z m -72.68546,5.10985 c 0,0 -8.36645,60.49437 -25.40224,65.59841 0,0 -5.01242,18.42888 -8.9902,37.20133 -19.29305,-0.006 -38.99259,-0.18886 -58.74512,-0.58762 0.0632,-0.61006 0.12548,-1.21814 0.17182,-1.77482 0.14393,-1.72951 1.23209,-15.46942 1.66875,-20.9248 0.55262,0.01 1.10522,0.0222 1.66026,0.0222 52.44631,0 68.8247,-29.69024 89.63673,-79.53465 z m -214.77501,2.22278 c 0,0 -1.803174,6.33105 -2.45466,12.8342 -2.948063,0.85595 -6.105303,7.01293 -7.498362,14.62266 -1.024364,5.61185 -0.892786,10.9934 0.34532,14.1236 -2.079547,1.47156 -3.765257,4.58257 -4.42451,8.16553 -0.966498,5.29936 0.555556,10.11065 3.478709,10.99637 -0.981647,2.41149 -0.555303,6.10424 1.104001,9.56221 2.440404,5.08635 6.746029,8.09061 9.617908,6.71093 2.872441,-1.38089 3.222036,-6.62549 0.780797,-11.71346 -1.603279,-3.34017 -4.101487,-5.92699 -6.528747,-6.76032 1.376109,-1.68474 2.415542,-4.09325 2.89694,-6.71262 0.653725,-3.5842 0.180605,-7.09306 -1.241789,-9.20964 2.264458,-2.48866 4.290987,-7.47166 5.319278,-13.07949 0.17436,-0.95885 0.316709,-1.92123 0.425271,-2.87513 1.321892,0.25687 2.838699,0.19925 4.444923,-0.12604 -0.303661,1.97775 -0.460447,4.10492 -0.460993,6.25444 0.0023,5.70527 1.100282,10.9753 2.88163,13.83064 -1.780522,1.8234 -2.878411,5.18816 -2.88163,8.8315 0.0039,5.38603 2.366768,9.8422 5.40093,10.18561 -0.532218,2.54868 0.55105,6.10395 2.805081,9.20623 3.315978,4.56366 8.092576,6.74229 10.669177,4.86627 2.575301,-1.87784 1.974417,-7.0991 -1.342152,-11.66236 -2.177506,-2.99519 -5.099214,-5.08845 -7.63615,-5.47093 1.050318,-1.90531 1.639302,-4.46169 1.641542,-7.12482 -0.0022,-3.64516 -1.100218,-7.0123 -2.88163,-8.83661 1.780779,-2.85443 2.878708,-8.12209 2.88163,-13.82553 -0.002,-4.01282 -0.547817,-7.87701 -1.529271,-10.82605 1.160726,-0.89198 2.252501,-1.89243 3.247362,-2.97052 0.16015,2.96962 0.917792,6.48659 2.145063,9.95738 1.904321,5.37507 4.695785,9.97426 7.326552,12.07115 -1.069709,2.31497 -0.98156,5.85438 0.23135,9.28968 0.74328,2.08954 1.84967,3.98412 3.1521,5.39769 -0.80831,14.00357 -1.59872,27.83444 -2.30496,40.67262 -20.750812,-1.25919 -40.857695,-2.82418 -59.779371,-4.76066 0.06289,-4.78552 0.894611,-20.40029 2.172279,-40.22977 0.111109,-1.72441 0.262261,-3.88364 0.379341,-5.67363 2.970045,-2.95403 5.84495,-8.98598 7.557901,-15.85753 1.258663,-5.06066 1.765316,-10.09585 1.411897,-14.03162 1.541323,0.74375 3.376811,0.81694 5.334588,0.16351 5.324995,-1.77729 13.312655,-15.99549 13.312655,-15.99549 z m 347.24324,6.34641 c -0.16317,0.02 -0.32282,0.0662 -0.47971,0.14479 -2.51022,1.25673 -9.41207,17.59488 -9.41207,17.59488 -3.76534,10.68225 -8.15909,20.7363 -3.7662,23.24976 4.3929,2.51348 15.0618,-1.8851 16.94447,-7.54041 1.88267,-5.65532 2.19439,-22.30764 2.19439,-25.13531 0,-2.65092 -3.03332,-8.614 -5.48088,-8.31371 z m -302.76849,25.36525 c 14.5809,23.89385 39.10193,40.83284 67.90202,44.73665 -0.43354,5.4159 -1.5217,19.1544 -1.66196,20.83962 -0.06,0.72107 -0.15151,1.55251 -0.25515,2.4408 -23.5056,-0.57141 -46.9483,-1.4513 -69.72899,-2.69799 0.54711,-9.93835 1.17897,-20.84829 1.78783,-31.50557 0.14674,0.1106 0.29536,0.21908 0.44569,0.32532 4.64801,3.19371 9.87809,3.65052 11.68131,1.02027 1.80239,-2.63093 -0.50537,-7.35232 -5.15427,-10.545 -2.02342,-1.38793 -4.26075,-2.31666 -6.3025,-2.61624 0.41994,-7.25209 0.84088,-14.49042 1.28602,-21.99786 z m 525.2613,36.72612 c -0.88921,28.18356 -2.05593,63.51602 -3.26607,99.30122 -25.95854,1.24751 -51.58498,2.2165 -76.76806,2.94155 -0.29647,-45.70452 -3.54165,-74.30217 -3.54165,-74.30217 l -9.81183,1.12076 c 0,0 3.19826,28.1327 3.47871,73.44883 -17.16139,0.45319 -34.08962,0.78736 -50.78576,1.02878 0.14732,-9.74542 0.15569,-17.34992 -0.37764,-18.68498 -1.77501,-4.44324 -29.29045,-7.10995 -38.16543,-7.99859 -8.87501,-0.88865 -66.56135,-4.88811 -75.8801,-7.55405 -5.79031,-1.65652 -17.74884,-3.99693 -28.84862,-5.21374 3.24812,-0.33923 6.65305,-0.69938 9.53456,-0.9879 37.65341,-3.77021 65.89305,4.39914 80.95441,2.51403 15.06137,-1.8851 60.87316,1.88384 60.87316,1.88384 0,0 -0.98829,-20.18913 -2.14676,-42.95502 l 1.582,-0.35939 c 2.63124,-0.13659 61.68832,-3.40562 133.16908,-24.18317 z m -133.97539,13.07608 0.1531,6.24082 -0.1531,-0.6728 z M 42.530989,586.71896 c 18.739541,1.89732 38.568793,3.43203 58.993471,4.6721 -1.04764,19.32787 -1.96493,36.99228 -2.730237,52.48827 -25.603179,-1.93054 -43.987316,-3.57754 -54.69824,-4.59545 -0.703068,-21.90941 -1.288603,-41.15013 -1.564994,-52.56492 z m 70.113431,5.31934 c 22.5026,1.23271 45.61734,2.10768 68.79169,2.68097 -1.79643,12.08798 -4.50401,29.86484 -6.75158,54.14897 -24.35391,-1.38205 -46.12351,-2.81244 -64.78055,-4.16282 0.7674,-15.52161 1.68714,-33.25111 2.74044,-52.66712 z m 80.04434,2.94498 c 19.50251,0.4013 38.95117,0.58927 58.02045,0.60806 -2.57373,14.10038 -3.81475,26.25679 -0.85905,27.98319 2.2638,1.32224 10.49128,1.438 21.82316,0.87038 -1.84361,8.20245 -5.05826,22.1612 -7.01526,28.63043 -28.39644,-1.05523 -54.81916,-2.29017 -78.84847,-3.59393 2.29461,-24.6146 5.08209,-42.23412 6.87917,-54.49813 z"
       id="path4638"
       sodipodi:nodetypes="cssssssccccccccccccsccsccccccssccscccccccccccscccccsssccsccsccccccccccscscccsccccsccsccccccssssccccccsccscscscssssscsccscccccccccccsccccscccccsccccccccccccccsccccccccsscsccccccccccscccccccccccccccccccccccccsccccccccccccccscscccccccccccccccccccccscscccccccccsccccccscsccccccsscccccccccccccccccccccccccccccccccccsssccsccccscssccccccssccccscccccccccccccccccccccscsccccccssccccccccccccccccsssccscssccscccccccccccsccccccccccccccccccccccccccccccccccccscccccccccsscccccccccccccccccaccscccsccccccccccccccccccccccccc" />
    <path
       style="color:#000000;clip-rule:nonzero;display:inline;overflow:visible;visibility:visible;opacity:1;isolation:auto;mix-blend-mode:normal;color-interpolation:sRGB;color-interpolation-filters:linearRGB;solid-color:#000000;solid-opacity:1;fill:none;fill-opacity:1;fill-rule:evenodd;stroke:#000000;stroke-width:0.92961711px;stroke-linecap:butt;stroke-linejoin:miter;stroke-miterlimit:4;stroke-dasharray:none;stroke-dashoffset:0;stroke-opacity:1;color-rendering:auto;image-rendering:auto;shape-rendering:auto;text-rendering:auto;enable-background:accumulate"
       d="m 328.04542,733.34252 c -9.49823,0.97321 -18.99645,1.94643 -28.49468,2.91964 -6.64134,30.48893 -14.33627,60.9055 -17.67668,91.97687 -0.10253,16.59897 0.84565,33.18661 1.68743,49.75964 -4.29973,0.36518 -8.59945,0.73037 -12.89918,1.09555 -4.15793,7.62176 -8.05204,17.65136 -6.26298,25.55497 4.52451,7.24813 9.04903,14.49627 13.57354,21.7444 -3.25187,2.61262 -6.3295,4.46977 -7.78005,-0.72724 -3.95634,-6.33754 -7.91267,-12.67507 -11.86901,-19.01261 -5.60575,2.89615 -13.79303,3.93693 -6.97844,10.3197 3.99426,6.39823 7.98853,12.79646 11.98279,19.19469 -3.25188,2.61263 -6.32951,4.46978 -7.77996,-0.7273 -4.31866,-6.9183 -8.63732,-13.83659 -12.95598,-20.75488 -5.28783,3.04904 -12.30333,5.89168 -5.95871,11.59697 2.98178,4.77641 5.96357,9.55282 8.94535,14.32923 -3.25187,2.61258 -6.32949,4.46964 -7.78027,-0.7272 -3.25164,-5.20809 -6.50328,-10.41617 -9.75492,-15.62426 -11.91769,7.80988 -22.44932,18.53936 -27.81761,31.88159 -2.31686,8.68479 -4.86839,29.60262 10.19664,23.92349 12.5034,-3.66659 23.20787,-11.70225 35.94245,-14.90221 18.10698,-5.97584 36.64982,-10.75326 55.50995,-13.63409 7.99302,-0.74059 17.93145,-2.10743 26.79544,-2.84401 9.44196,-2.26037 23.90975,-0.26592 28.49451,-10.67767 0.87625,-6.44022 4.88952,-14.59025 -0.97956,-19.62471 -11.05359,-14.57762 -22.10717,-29.15523 -33.16075,-43.73284 -7.75918,-1.68478 -5.45927,-17.5352 -8.96535,-24.52779 -3.11803,-15.35753 -5.88094,-31.4952 -0.82963,-46.77424 5.0773,-23.30554 9.94584,-46.6561 14.81566,-70.00569 z"
       id="path4365"
       inkscape:connector-curvature="0" />
    <path
       style="display:inline;fill:none;fill-opacity:1;fill-rule:evenodd;stroke:#000000;stroke-width:0.92961711px;stroke-linecap:butt;stroke-linejoin:miter;stroke-opacity:1"
       d="m 455.97755,735.1757 0.50806,0.92295 c 0.23672,-0.57425 0.5038,-0.91041 0.81289,-0.9066 l -1.32095,-0.0164 z m 0.50806,0.92295 c -2.72984,6.62231 -0.86221,48.85919 0.77115,62.35185 1.775,14.66269 1.77457,51.98501 1.77457,51.98501 0,0 -3.32708,6.65624 -6.61924,12.53614 l -4.09892,-0.34701 -36.38588,47.98615 c 0,0 0.88642,16.88501 4.43642,19.55092 3.54999,2.66601 9.76323,5.33183 41.71321,7.99774 31.94998,2.666 76.32375,5.72149 86.97374,11.94204 10.65,6.22055 23.07599,9.77538 25.73848,6.22083 2.6625,-3.55464 1.77457,-12.44166 1.77457,-12.44166 0,-14.21829 -5.3256,-7.49756 -12.4256,-17.27266 -2.93059,-4.03473 -9.79535,-9.42531 -16.84387,-14.37295 l -12.26774,19.64905 -5.26745,-3.29753 12.40019,-19.86346 c -3.53358,-2.35996 -6.75591,-4.40549 -9.41354,-6.06277 l -15.4685,24.77974 -5.26745,-3.29753 15.43764,-24.72889 c -0.0562,-0.0334 -0.58426,-0.35428 -0.58426,-0.35428 0,0 -5.33786,-1.68832 -9.84903,-4.43126 l -14.38162,23.03744 -5.26745,-3.29755 14.82979,-23.7569 c -0.95166,-1.24324 -1.48258,-2.58238 -1.30643,-3.99339 0.8875,-7.10917 -6.2128,-19.54912 -6.2128,-19.54912 l -18.47327,-1.56792 c 0.52785,-4.36247 1.23957,-7.91612 2.12294,-9.73277 -7.09999,-11.55241 1.77457,-15.55185 1.77457,-42.65558 0,-27.10374 -9.31738,-67.98039 -9.31738,-67.98039 l -5.32552,18.21737 z"
       id="path4367"
       inkscape:connector-curvature="0" />
  </g>
</svg>
