<?xml version="1.0" encoding="UTF-8" standalone="no"?>
<svg
   xmlns:dc="http://purl.org/dc/elements/1.1/"
   xmlns:cc="http://creativecommons.org/ns#"
   xmlns:rdf="http://www.w3.org/1999/02/22-rdf-syntax-ns#"
   xmlns:svg="http://www.w3.org/2000/svg"
   xmlns="http://www.w3.org/2000/svg"
   width="170mm"
   height="150mm"
   viewBox="0 0 170 150"
   version="1.1"
   id="svg8">
  <defs
     id="defs2" />
  <metadata
     id="metadata5">
    <rdf:RDF>
      <cc:Work
         rdf:about="">
        <dc:format>image/svg+xml</dc:format>
        <dc:type
           rdf:resource="http://purl.org/dc/dcmitype/StillImage" />
        <dc:title></dc:title>
      </cc:Work>
    </rdf:RDF>
  </metadata>
  <flowRoot
     transform="translate(0,-147)"
     style="font-style:normal;font-weight:normal;font-size:64px;line-height:1.25;font-family:sans-serif;letter-spacing:0px;word-spacing:0px;fill:#000000;fill-opacity:1;stroke:none"
     id="flowRoot10"
     xml:space="preserve"><flowRegion
       style="font-size:64px"
       id="flowRegion12"><rect
         style="font-size:64px"
         y="55.500568"
         x="57.142857"
         height="465.71429"
         width="525.71429"
         id="rect14" /></flowRegion><flowPara
       id="flowPara16" /></flowRoot>  <path
     d="M 2.6458333,1.83333 H 167.82143 V 147.73215 H 2.6458333 Z M 139.83445,99.022182 h -7.00574 v 19.113258 h -7.83119 V 72.572942 h 7.83119 v 15.488264 h 6.96726 V 72.572942 h 7.86967 v 45.562498 h -7.83119 z m -31.6176,1.062498 v 8.08982 h 12.14362 v 9.96094 H 99.38564 V 72.572942 h 20.28209 v 9.960954 h -11.45088 v 7.58982 h 10.37327 v 9.960964 z M 78.633952,73.822707 c -0.947836,5.291658 -4.064015,12.153678 -9.348919,12.9379 v 7.960543 c 0,0 4.7949,-0.479506 8.323899,-4 v 27.41427 h 8.619436 V 73.822707 Z M 61.383416,117.82295 c -1.353079,1.16666 -3.00991,1.75 -4.970494,1.75 -1.960584,0 -3.617415,-0.58334 -4.970492,-1.75 -1.353079,-1.20834 -2.402406,-2.91667 -3.14798,-5.125 -0.717961,-2.20834 -1.228817,-4.625 -1.53257,-7.24999 -0.303751,-2.66667 -0.455627,-5.72919 -0.455627,-9.18752 0,-7.541666 0.759381,-13.312498 2.278142,-17.312494 1.518761,-4.041667 4.12827,-6.0625 7.828527,-6.0625 1.932969,0 3.562187,0.562502 4.887652,1.687495 1.353079,1.083344 2.402406,2.708345 3.147981,4.875002 0.745575,2.166667 1.270237,4.625003 1.573987,7.375008 0.331367,2.749993 0.49705,5.97916 0.49705,9.687488 0,3.33333 -0.151876,6.312521 -0.455628,8.937521 -0.303753,2.58333 -0.814609,4.99999 -1.53257,7.24999 -0.717958,2.20833 -1.767284,3.91666 -3.147978,5.125 z M 59.191519,96.322945 c 0,-6.041665 -0.372787,-8.122381 -1.118361,-10.539047 -0.717961,-2.458326 -0.251929,-3.687483 -1.660236,-3.687483 -1.546377,0 -0.592597,1.187498 -1.255328,3.562483 -0.662733,2.333337 -0.9941,4.414043 -0.9941,10.539037 0,4.250005 0.179491,6.583355 0.538472,9.000015 0.358979,2.375 0.299248,2.80988 0.879139,3.60156 0.607504,0.74999 -0.134668,1.12499 0.831817,1.12499 0.938871,0 0.169084,-0.375 0.748974,-1.12499 0.607507,-0.75001 1.090754,-2.31252 1.44973,-4.68752 0.386595,-2.41666 0.579893,-3.58071 0.579893,-7.789045 z M 25.163662,87.010444 c 0,-2.291667 0.192429,-4.3125 0.577287,-6.0625 0.410513,-1.75 0.910827,-3.125002 1.500942,-4.124996 0.615772,-1.000004 1.334173,-1.79167 2.155204,-2.374996 0.82103,-0.624996 1.590746,-1.041664 2.309147,-1.249992 0.744059,-0.208339 1.513774,-0.312514 2.309146,-0.312514 2.64269,0 4.74658,1.104169 6.311669,3.312506 1.565087,2.166657 2.347631,5.08332 2.347631,8.749989 0,2.041668 -0.282229,3.812503 -0.846686,5.312504 -0.56446,1.458332 -1.47529,2.833334 -2.732491,4.124996 1.539431,1.208333 2.668346,2.708324 3.386747,4.499994 0.718403,1.750005 1.077604,3.916675 1.077604,6.500015 0,4.33333 -0.872344,7.79166 -2.617033,10.375 -1.719031,2.54166 -4.028178,3.8125 -6.927441,3.8125 -2.796633,0 -5.028808,-1.29166 -6.696525,-3.875 -1.642059,-2.62499 -2.475917,-6.14583 -2.501574,-10.56249 h 6.292399 c 0.153943,4.62499 0.45544,5.78904 3.021157,5.78904 1.180231,0 0.613209,-0.625 1.357268,-1.875 0.769715,-1.24999 0.625405,-1.7057 0.625405,-3.66405 0,-1.62501 -0.269401,-3.59507 -0.808202,-4.76174 -0.5388,-1.208339 -0.786367,-1.446596 -1.68437,-1.863263 -0.718401,-0.29168 -1.241178,-0.437514 -2.626666,-0.437514 v -5.874985 h 0.46183 c 3.18149,0 4.243068,-2.654929 4.243068,-7.113264 0,-1.83334 0.23411,-2.250012 -0.356003,-3.250006 -0.590117,-1.041652 -0.365643,-0.988263 -1.443244,-0.988263 -1.411144,0 -0.314955,0.07162 -0.8281,1.36325 -0.513145,1.291673 -0.795374,2.675769 -0.846687,5.300774 H 25.163662 Z M 130.11857,44.971184 V 55.67488 H 116.06275 V 44.971184 Z m -27.69119,13.146252 h -5.481327 l -2.08171,8.903115 H 85.306067 L 96.30929,20.020552 h 7.05225 l 10.7058,46.999999 h -9.60075 z M 102.21473,48.909978 99.70797,37.683959 97.201197,48.909978 Z M 69.607828,48.350629 V 67.020551 H 59.59262 V 20.020552 H 84.867917 V 30.227989 H 69.607828 v 7.915182 h 13.265784 v 10.207458 z"
     style="opacity:1;fill:#000000;fill-opacity:1;fill-rule:evenodd;stroke:#a00000;stroke-width:0.17683972;stroke-miterlimit:4;stroke-dasharray:none;stroke-opacity:1"
     id="rect4562" />
</svg>
