<?xml version="1.0" encoding="UTF-8" standalone="no"?>
<svg
   xmlns:dc="http://purl.org/dc/elements/1.1/"
   xmlns:cc="http://creativecommons.org/ns#"
   xmlns:rdf="http://www.w3.org/1999/02/22-rdf-syntax-ns#"
   xmlns:svg="http://www.w3.org/2000/svg"
   xmlns="http://www.w3.org/2000/svg"
   id="svg8"
   version="1.1"
   viewBox="0 0 170 150"
   height="150mm"
   width="170mm">
  <defs
     id="defs2" />
  <metadata
     id="metadata5">
    <rdf:RDF>
      <cc:Work
         rdf:about="">
        <dc:format>image/svg+xml</dc:format>
        <dc:type
           rdf:resource="http://purl.org/dc/dcmitype/StillImage" />
        <dc:title></dc:title>
      </cc:Work>
    </rdf:RDF>
  </metadata>
  <g
     transform="translate(0,-147)"
     id="layer1">
    <flowRoot
       style="fill:black;fill-opacity:1;stroke:none;font-family:sans-serif;font-style:normal;font-weight:normal;font-size:64px;line-height:1.25;letter-spacing:0px;word-spacing:0px;"
       id="flowRoot10"
       xml:space="preserve"><flowRegion
         style="font-size:64px;"
         id="flowRegion12"><rect
           style="font-size:64px;"
           y="55.500568"
           x="57.142857"
           height="465.71429"
           width="525.71429"
           id="rect14" /></flowRegion><flowPara
         id="flowPara16"></flowPara></flowRoot>    <path
       d="m 81.836994,193.77754 v 18.65551 H 74.88012 v -43.31171 h 23.74613 v 7.42656 H 81.836994 v 9.80307 h 14.794951 v 7.42657 z m 38.781906,2.49532 -4.03593,-16.93256 -4.03594,16.93256 z m 1.74181,7.42657 h -11.59799 l -2.08171,8.73362 h -6.49994 l 11.00322,-43.31171 h 7.05225 l 10.7058,43.31171 h -6.54242 z m 20.63286,-11.58544 v 8.02068 h -10.05582 v -8.02068 z M 24.692829,234.97826 c 0,-2.11183 0.192429,-3.97408 0.577287,-5.58675 0.410513,-1.61267 0.910827,-2.87977 1.500942,-3.80129 0.615772,-0.92153 1.334173,-1.65107 2.155204,-2.18862 0.82103,-0.57595 1.590746,-0.95992 2.309147,-1.1519 0.744059,-0.19199 1.513774,-0.28799 2.309146,-0.28799 2.64269,0 4.74658,1.01752 6.311669,3.05256 1.565087,1.99663 2.347631,4.68441 2.347631,8.06334 0,1.88145 -0.282229,3.51332 -0.846686,4.89561 -0.56446,1.34389 -1.47529,2.61099 -2.732491,3.80129 1.539431,1.11351 2.668346,2.49579 3.386747,4.14686 0.718403,1.61267 1.077604,3.60931 1.077604,5.98992 0,3.99328 -0.872344,7.18022 -2.617033,9.56083 -1.719031,2.34221 -4.028178,3.51332 -6.927441,3.51332 -2.796633,0 -5.028808,-1.1903 -6.696525,-3.57091 -1.642059,-2.419 -2.475917,-5.66354 -2.501574,-9.73361 h 5.234066 c 0.153943,4.26205 1.513773,6.39308 4.07949,6.39308 1.180231,0 2.142375,-0.57595 2.886434,-1.72786 0.769715,-1.1519 1.154572,-2.63018 1.154572,-4.43485 0,-1.49749 -0.2694,-2.78378 -0.808201,-3.85889 -0.5388,-1.11351 -1.257201,-1.86224 -2.155204,-2.24621 -0.718401,-0.26879 -1.770345,-0.40318 -3.155833,-0.40318 v -5.41395 h 0.46183 c 3.18149,0 4.772235,-2.05423 4.772235,-6.1627 0,-1.68947 -0.295057,-2.99497 -0.88517,-3.91649 -0.590117,-0.95991 -1.423976,-1.43987 -2.501577,-1.43987 -1.411144,0 -2.373288,0.59514 -2.886433,1.78543 -0.513145,1.19031 -0.795374,2.99496 -0.846687,5.41397 h -5.003149 z m 36.557023,8.58171 c 0,-5.56755 -0.372787,-9.46484 -1.118361,-11.69186 C 59.41353,229.6027 58.350396,228.47 56.942089,228.47 c -1.546377,0 -2.650931,1.09431 -3.313662,3.28292 -0.662733,2.15023 -0.9941,6.04751 -0.9941,11.69185 0,3.91649 0.179491,6.98825 0.538472,9.21526 0.358979,2.18863 0.828415,3.64771 1.408306,4.37726 0.607504,0.69114 1.394499,1.03671 2.360984,1.03671 0.938871,0 1.698251,-0.34557 2.278141,-1.03671 0.607507,-0.69115 1.09075,-2.13104 1.449729,-4.31967 0.386595,-2.22701 0.579893,-5.27956 0.579893,-9.15765 z m 0.662731,19.8128 c -1.353079,1.07511 -3.00991,1.61267 -4.970494,1.61267 -1.960584,0 -3.617415,-0.53756 -4.970492,-1.61267 -1.353079,-1.11352 -2.402406,-2.68779 -3.14798,-4.72282 -0.717961,-2.03504 -1.228817,-4.26206 -1.53257,-6.68105 -0.303751,-2.45741 -0.455627,-5.27959 -0.455627,-8.46653 0,-6.94984 0.759381,-12.26781 2.278142,-15.95391 1.518761,-3.7245 4.12827,-5.58675 7.828527,-5.58675 1.932969,0 3.562187,0.51836 4.887652,1.55507 1.353079,0.99833 2.402406,2.49581 3.147981,4.49244 0.745575,1.99664 1.270237,4.26206 1.573987,6.79626 0.331367,2.53419 0.49705,5.50995 0.49705,8.92727 0,3.07175 -0.151876,5.81714 -0.455628,8.23615 -0.303753,2.3806 -0.814609,4.60762 -1.53257,6.68105 -0.717958,2.03503 -1.767284,3.6093 -3.147978,4.72282 z m 17.250536,-40.54735 c -0.947836,4.8764 -4.064015,7.31498 -9.348919,7.31498 v 5.35599 h 7.323899 v 28.16433 h 6.031936 v -40.8353 z m 24.937071,22.75039 v 10.88552 h 15.20195 v 7.19941 H 98.327307 V 221.67373 H 118.6094 v 7.19942 h -14.50921 v 9.50324 h 13.4316 v 7.19942 z m 36.73426,-0.97912 h -11.1224 v 19.06405 h -5.77286 v -41.98701 h 5.77286 v 15.72353 h 11.08392 v -15.72353 h 5.81134 v 41.98701 h -5.77286 z M 2.6458333,148.83333 H 167.82143 V 294.73215 H 2.6458333 Z"
       style="opacity:1;fill:#000000;fill-opacity:1;fill-rule:evenodd;stroke:none;stroke-width:0.17683972;stroke-miterlimit:4;stroke-dasharray:none;stroke-opacity:1"
       id="rect4562" />
  </g>
</svg>
