<?xml version="1.0" encoding="UTF-8" standalone="no"?>
<!-- Created with Inkscape (http://www.inkscape.org/) -->

<svg
   xmlns:dc="http://purl.org/dc/elements/1.1/"
   xmlns:cc="http://creativecommons.org/ns#"
   xmlns:rdf="http://www.w3.org/1999/02/22-rdf-syntax-ns#"
   xmlns:svg="http://www.w3.org/2000/svg"
   xmlns="http://www.w3.org/2000/svg"
   xmlns:sodipodi="http://sodipodi.sourceforge.net/DTD/sodipodi-0.dtd"
   xmlns:inkscape="http://www.inkscape.org/namespaces/inkscape"
   width="170mm"
   height="150mm"
   viewBox="0 0 170 150"
   version="1.1"
   id="svg8"
   inkscape:version="0.92.1 r15371"
   sodipodi:docname="fa301eh.svg">
  <defs
     id="defs2" />
  <sodipodi:namedview
     id="base"
     pagecolor="#ffffff"
     bordercolor="#666666"
     borderopacity="1.0"
     inkscape:pageopacity="0.0"
     inkscape:pageshadow="2"
     inkscape:zoom="0.7"
     inkscape:cx="251.42857"
     inkscape:cy="308.57143"
     inkscape:document-units="mm"
     inkscape:current-layer="layer1"
     showgrid="false"
     inkscape:window-width="1358"
     inkscape:window-height="716"
     inkscape:window-x="4"
     inkscape:window-y="29"
     inkscape:window-maximized="1" />
  <metadata
     id="metadata5">
    <rdf:RDF>
      <cc:Work
         rdf:about="">
        <dc:format>image/svg+xml</dc:format>
        <dc:type
           rdf:resource="http://purl.org/dc/dcmitype/StillImage" />
        <dc:title></dc:title>
      </cc:Work>
    </rdf:RDF>
  </metadata>
  <g
     inkscape:label="Layer 1"
     inkscape:groupmode="layer"
     id="layer1"
     transform="translate(0,-147)">
    <flowRoot
       xml:space="preserve"
       id="flowRoot10"
       style="fill:black;fill-opacity:1;stroke:none;font-family:sans-serif;font-style:normal;font-weight:normal;font-size:64px;line-height:1.25;letter-spacing:0px;word-spacing:0px;"><flowRegion
         id="flowRegion12"
         style="font-size:64px;"><rect
           id="rect14"
           width="525.71429"
           height="465.71429"
           x="57.142857"
           y="55.500568"
           style="font-size:64px;" /></flowRegion><flowPara
         id="flowPara16"></flowPara></flowRoot>    <path
       id="rect4562"
       style="opacity:1;fill:#000000;fill-opacity:1;fill-rule:evenodd;stroke:none;stroke-width:0.17683972;stroke-miterlimit:4;stroke-dasharray:none;stroke-opacity:1"
       d="m 68.078661,193.77754 v 18.65551 h -6.956874 v -43.31171 h 23.74613 v 7.42656 H 68.078661 v 9.80307 h 14.794951 v 7.42657 z m 47.777739,2.49532 -4.03593,-16.93256 -4.03594,16.93256 z m 1.74181,7.42657 h -11.59799 l -2.08171,8.73362 h -6.499943 l 11.003223,-43.31171 h 7.05225 l 10.7058,43.31171 h -6.54242 z m 20.63286,-11.58544 v 8.02068 h -10.05582 v -8.02068 z M 24.692829,234.97826 q 0,-3.16774 0.577287,-5.58675 0.61577,-2.41901 1.500942,-3.80129 0.923658,-1.38229 2.155204,-2.18862 1.231545,-0.86393 2.309147,-1.1519 1.116088,-0.28799 2.309146,-0.28799 3.964035,0 6.311669,3.05256 2.347631,2.99495 2.347631,8.06334 0,2.82217 -0.846686,4.89561 -0.84669,2.01584 -2.732491,3.80129 2.309146,1.67026 3.386747,4.14686 1.077604,2.41901 1.077604,5.98992 0,5.98992 -2.617033,9.56083 -2.578547,3.51332 -6.927441,3.51332 -4.194949,0 -6.696525,-3.57091 -2.463089,-3.6285 -2.501574,-9.73361 h 5.234066 q 0.230914,6.39308 4.07949,6.39308 1.770346,0 2.886434,-1.72786 1.154572,-1.72785 1.154572,-4.43485 0,-2.24623 -0.808201,-3.85889 -0.8082,-1.67026 -2.155204,-2.24621 -1.077601,-0.40318 -3.155833,-0.40318 v -5.41395 h 0.46183 q 4.772235,0 4.772235,-6.1627 0,-2.53421 -0.88517,-3.91649 -0.885176,-1.43987 -2.501577,-1.43987 -2.116716,0 -2.886433,1.78543 -0.769718,1.78546 -0.846687,5.41397 h -5.003149 z m 36.557023,8.58171 q 0,-8.35133 -1.118361,-11.69186 -1.076942,-3.39811 -3.189402,-3.39811 -2.319565,0 -3.313662,3.28292 -0.9941,3.22534 -0.9941,11.69185 0,5.87474 0.538472,9.21526 0.538469,3.28294 1.408306,4.37726 0.911256,1.03671 2.360984,1.03671 1.408306,0 2.278141,-1.03671 0.911261,-1.03672 1.449729,-4.31967 0.579893,-3.34052 0.579893,-9.15765 z m 0.662731,19.8128 q -2.029618,1.61267 -4.970494,1.61267 -2.940876,0 -4.970492,-1.61267 -2.029619,-1.67028 -3.14798,-4.72282 -1.076941,-3.05256 -1.53257,-6.68105 -0.455627,-3.68612 -0.455627,-8.46653 0,-10.42476 2.278142,-15.95391 2.278141,-5.58675 7.828527,-5.58675 2.899454,0 4.887652,1.55507 2.029619,1.49749 3.147981,4.49244 1.118362,2.99496 1.573987,6.79626 0.49705,3.80129 0.49705,8.92727 0,4.60763 -0.455628,8.23615 -0.455629,3.5709 -1.53257,6.68105 -1.076937,3.05254 -3.147978,4.72282 z m 17.250536,-40.54735 c -0.947836,4.8764 -4.064015,7.31498 -9.348919,7.31498 v 5.35599 h 7.323899 v 28.16433 h 6.031936 v -40.8353 z m 24.937071,22.75039 v 10.88552 h 15.20195 v 7.19941 H 98.327307 V 221.67373 H 118.6094 v 7.19942 h -14.50921 v 9.50324 h 13.4316 v 7.19942 z m 36.73426,-0.97912 h -11.1224 v 19.06405 h -5.77286 v -41.98701 h 5.77286 v 15.72353 h 11.08392 v -15.72353 h 5.81134 v 41.98701 h -5.77286 z M 2.6458333,148.83333 H 167.82143 V 294.73215 H 2.6458333 Z" />
  </g>
</svg>
