<?xml version="1.0" encoding="UTF-8" standalone="no"?>
<svg
   xmlns:dc="http://purl.org/dc/elements/1.1/"
   xmlns:cc="http://creativecommons.org/ns#"
   xmlns:rdf="http://www.w3.org/1999/02/22-rdf-syntax-ns#"
   xmlns:svg="http://www.w3.org/2000/svg"
   xmlns="http://www.w3.org/2000/svg"
   xmlns:sodipodi="http://sodipodi.sourceforge.net/DTD/sodipodi-0.dtd"
   xmlns:inkscape="http://www.inkscape.org/namespaces/inkscape"
   id="svg8"
   version="1.1"
   viewBox="0 0 210 297"
   height="297mm"
   width="210mm"
   sodipodi:docname="blackbear.svg"
   inkscape:version="0.92.3 (2405546, 2018-03-11)">
  <sodipodi:namedview
     pagecolor="#ffffff"
     bordercolor="#666666"
     borderopacity="1"
     objecttolerance="10"
     gridtolerance="10"
     guidetolerance="10"
     inkscape:pageopacity="0"
     inkscape:pageshadow="2"
     inkscape:window-width="1366"
     inkscape:window-height="705"
     id="namedview16"
     showgrid="false"
     inkscape:zoom="0.46502525"
     inkscape:cx="573.90623"
     inkscape:cy="171.38172"
     inkscape:window-x="0"
     inkscape:window-y="30"
     inkscape:window-maximized="1"
     inkscape:current-layer="layer2" />
  <defs
     id="defs2" />
  <metadata
     id="metadata5">
    <rdf:RDF>
      <cc:Work
         rdf:about="">
        <dc:format>image/svg+xml</dc:format>
        <dc:type
           rdf:resource="http://purl.org/dc/dcmitype/StillImage" />
        <dc:title></dc:title>
      </cc:Work>
    </rdf:RDF>
  </metadata>
  <g
     inkscape:groupmode="layer"
     id="layer1"
     inkscape:label="original"
     style="display:none"
     sodipodi:insensitive="true">
    <path
       inkscape:connector-curvature="0"
       id="path3815-3"
       d="m 331.44128,273.65458 c -3.71241,-0.43054 -4.45557,-2.39415 -2.46376,-6.5098 1.77088,-3.65914 1.40618,-6.76217 -2.01822,-17.17174 -3.30331,-10.04145 -5.95609,-14.40367 -8.47612,-13.9381 -2.43926,0.45065 -4.31035,4.24344 -7.61104,15.4279 -2.71469,9.19883 -5.01308,14.18044 -7.56018,16.38619 -2.5173,2.17996 -9.96444,5.26941 -12.70193,5.26941 -1.15898,0 -1.92735,-0.72793 -2.39153,-2.26569 -0.56371,-1.86751 -0.54181,-2.83147 0.18342,-8.07196 0.46298,-3.34548 0.61363,-5.84216 0.62378,-10.33764 0.0151,-6.67801 -0.28544,-9.14728 -2.08003,-17.09158 -1.56277,-6.91809 -1.98937,-10.50345 -2.16158,-18.16699 -0.11488,-5.11269 -0.0305,-8.20751 0.35177,-12.89848 0.51374,-6.30468 0.45976,-6.98964 -0.5216,-6.61915 -0.60599,0.22877 -1.52946,2.87102 -2.47629,7.08518 -2.10758,9.38049 -2.43968,15.72586 -1.19303,22.79485 0.99211,5.62556 0.75562,6.64797 -1.83661,7.94029 -4.10201,2.045 -9.07596,-0.46805 -13.30901,-6.72426 -3.83161,-5.66291 -4.39682,-7.79717 -4.40609,-16.63759 -0.0137,-13.04342 0.85593,-26.77675 2.32593,-36.73221 2.22382,-15.06057 4.39423,-22.32041 10.80289,-36.1348 l 3.20735,-6.91371 -2.99189,-4.25095 c -3.36342,-4.77881 -4.60798,-7.16607 -5.476,-10.50374 -0.51538,-1.98174 -0.60599,-3.20978 -0.6675,-9.04693 -0.0421,-3.99531 0.0814,-8.44288 0.30236,-10.888992 0.49635,-5.49459 0.21446,-7.93455 -1.44909,-12.543 -0.99509,-2.75665 -1.18425,-5.58355 -0.45971,-6.87046 0.29216,-0.51896 0.96083,-1.17023 1.48591,-1.44727 1.99699,-1.05367 4.4575,-0.45849 8.10871,1.96141 3.79688,2.51645 4.25363,2.55521 6.78104,0.57543 2.25304,-1.76486 6.19883,-2.98323 12.13289,-3.74635 4.75491,-0.61148 7.02846,-1.16281 7.95371,-1.92876 0.43682,-0.36161 1.20211,-1.49843 1.70065,-2.52626 1.14224,-2.35495 3.1131,-5.08992 4.32109,-5.99639 1.14038,-0.85572 2.32429,-0.89097 3.89887,-0.11608 2.80439,1.38012 3.91867,3.22509 4.23344,7.00954 0.0887,1.06636 0.37049,2.54294 0.6262,3.28127 0.88243,2.54785 3.65055,6.14412 8.2359,10.69985 4.61107,4.58127 5.59707,5.20077 5.59707,3.51661 0,-2.8057 -3.19119,-15.1793 -6.18627,-23.98677 -3.38776,-9.96224 -6.07097,-15.218593 -9.17862,-17.980719 -0.6191,-0.55027 -2.1599,-1.587391 -3.42399,-2.304716 -3.80354,-2.158371 -4.93394,-3.72339 -3.77664,-5.228707 0.87087,-1.132767 0.57427,-1.806723 -3.02583,-6.875537 -2.81195,-3.959121 -4.38855,-6.790194 -4.38987,-7.882806 -0.001,-1.01481 0.94902,-1.760742 2.20184,-1.728423 1.53831,0.03968 3.34954,1.060438 5.09984,2.874119 l 1.55832,1.614743 1.3853,-0.359519 c 0.76191,-0.197735 1.97879,-0.6178 2.70417,-0.933477 1.90117,-0.827367 5.26389,-3.023579 5.25841,-3.434302 -0.003,-0.192582 -0.56998,-1.274879 -1.26093,-2.405105 -1.7995,-2.943582 -1.63953,-4.541441 0.44883,-4.483026 1.99766,0.05588 6.02003,3.197245 13.28614,10.376108 10.20879,10.086227 18.97134,20.476127 24.14504,28.629191 6.97659,10.994196 11.3294,24.484806 13.13953,40.723216 0.52938,4.749072 0.72316,15.681142 0.42755,24.121182 -0.11682,3.33562 -0.11272,10.4686 0.009,15.85106 0.25528,11.27697 0.39417,14.06988 1.23384,24.81036 1.35111,17.28239 0.89469,27.15465 -2.27451,49.19703 -4.03754,28.08183 -8.57586,42.05804 -17.50354,53.90388 -4.36081,5.78623 -7.81408,8.17282 -13.30997,9.19871 -2.83402,0.529 -5.16157,0.66965 -7.18954,0.43446 z M 294.73455,180.892 c 2.53553,-1.04201 3.97609,-3.47971 3.98259,-6.73931 0.005,-2.56748 -0.61195,-4.35472 -2.06382,-5.97742 -1.6504,-1.84461 -2.95952,-2.40439 -5.6405,-2.41189 -1.95924,-0.005 -2.4299,0.0955 -3.73591,0.80186 -0.82185,0.44447 -1.78667,1.15001 -2.14405,1.56785 l -0.64978,0.75973 -0.16775,-0.65753 c -0.23331,-0.91456 0.31297,-4.51903 0.96935,-6.39597 1.42168,-4.06529 4.20536,-6.72857 9.65103,-9.23363 1.21188,-0.55747 1.41288,-0.76545 1.48884,-1.54041 0.0805,-0.82165 0.0215,-0.89593 -0.7117,-0.89593 -1.22948,0 -3.84877,0.74268 -5.47531,1.55248 -2.11399,1.05249 -4.70542,3.76978 -5.92139,6.20897 -2.55008,5.11533 -3.25676,12.96229 -1.56742,17.40439 1.55929,4.1001 8.12431,7.14374 11.98582,5.55681 z m -4.48877,-2.19454 c -2.59325,-0.93713 -5.2574,-3.54608 -5.2574,-5.14846 0,-1.73544 2.00608,-4.2198 4.10367,-5.08204 1.55982,-0.64119 4.00318,-0.49217 5.21516,0.31806 1.5399,1.02945 2.01741,2.10074 2.02392,4.54066 0.005,1.78 -0.10949,2.27181 -0.82152,3.53648 -1.22894,2.18274 -2.79319,2.72814 -5.26383,1.8353 z m 31.58974,1.28135 c 1.39011,-0.62286 3.09985,-2.45444 3.86305,-4.13835 0.70886,-1.564 0.75887,-4.14159 0.10934,-5.63576 -0.62342,-1.43412 -3.66102,-4.34125 -5.37342,-5.14263 -2.17165,-1.01628 -4.79357,-0.93939 -7.07521,0.2075 -2.06221,1.03658 -2.05639,1.0478 -1.18859,-2.29037 1.56776,-6.03065 5.34473,-10.10776 10.05503,-10.85405 0.97588,-0.15462 1.91778,-0.25476 2.0931,-0.22254 0.18203,0.0335 0.35697,-0.39969 0.40783,-1.00978 l 0.0891,-1.06838 -2.47567,0.11645 c -2.04554,0.0962 -2.80816,0.26952 -4.38943,0.9975 -3.28192,1.51094 -6.14998,4.93617 -7.62338,9.10436 -0.74609,2.11065 -1.80151,7.69859 -1.80151,9.53813 0,3.18922 1.07123,5.98566 2.86662,7.48327 0.99952,0.83374 5.5359,3.03459 6.66039,3.23132 1.51128,0.26439 2.70988,0.16405 3.78279,-0.31667 z m -5.61203,-2.89464 c -2.27654,-1.08134 -3.36366,-2.00431 -3.9292,-3.33592 -0.57455,-1.35284 -0.50479,-2.59673 0.22437,-4.00081 0.93852,-1.80724 2.42222,-2.8565 4.06373,-2.87382 2.95355,-0.0312 6.80122,2.66671 7.21164,5.05662 0.49484,2.88153 -2.04649,6.08184 -4.82953,6.08184 -0.43311,0 -1.66657,-0.41756 -2.74101,-0.92791 z m 30.90321,2.70123 c 2.65978,-1.30397 4.58464,-4.29996 4.61091,-7.17674 0.0164,-1.80171 -0.83474,-3.22833 -2.81105,-4.71131 -2.44079,-1.83152 -7.19382,-2.58909 -9.37622,-1.49444 l -1.0374,0.52033 0.16679,-0.72709 c 0.9832,-4.28614 2.11568,-6.97377 3.92943,-9.32541 1.93432,-2.50798 4.06874,-3.90834 6.38427,-4.18865 1.30228,-0.15764 1.41353,-0.23179 1.58471,-1.05624 0.10127,-0.48767 0.14065,-0.92945 0.0875,-0.98172 -0.0531,-0.0523 -0.99368,-7.9e-4 -2.09011,0.11452 -5.46489,0.57447 -9.60205,4.61596 -11.57225,11.30464 -0.89417,3.03566 -1.39054,7.27365 -1.25131,10.68378 0.145,3.55175 0.84649,5.00261 3.04968,6.30757 1.94054,1.14938 2.77381,1.38286 5.04508,1.41361 1.44425,0.0196 2.14462,-0.12626 3.27995,-0.68285 z m -5.98466,-2.00811 c -1.46828,-0.67495 -2.32765,-1.87186 -2.61125,-3.63688 -0.34037,-2.11829 0.0857,-3.80731 1.24869,-4.94974 0.93486,-0.91834 1.07321,-0.96377 2.8675,-0.94156 1.43937,0.0178 2.26468,0.20109 3.48952,0.77489 2.89522,1.35633 3.71498,3.58603 2.3371,6.35674 -1.02975,2.07065 -2.05043,2.73653 -4.3554,2.84139 -1.35095,0.0614 -2.12718,-0.0546 -2.97616,-0.44484 z m -42.6975,-52.5737 c 5.74595,-1.07235 7.83953,-2.68904 7.83953,-6.05381 0,-2.97043 -1.48814,-6.33485 -5.92384,-13.3928 -3.9997,-6.364182 -6.06592,-8.516392 -8.17612,-8.516392 -1.32902,0 -2.57656,1.26098 -4.10267,4.146882 -2.70894,5.12264 -4.02496,10.08559 -4.05387,15.2879 -0.0336,6.03883 1.06423,7.8346 5.30401,8.67636 1.91706,0.3806 6.69604,0.30292 9.11296,-0.14814 z m -9.22436,-1.74606 c -0.32401,-0.31877 -0.58911,-0.70363 -0.58911,-0.85525 0,-0.97689 2.52682,-1.92969 5.11755,-1.92969 1.00415,0 1.1098,-0.0532 0.75677,-0.38089 -0.22567,-0.20949 -1.1456,-0.64571 -2.04431,-0.96938 -3.37654,-1.21606 -4.67063,-2.14983 -4.67063,-3.37015 0,-2.25957 7.84219,-4.56357 10.65769,-3.13118 1.51147,0.76896 1.40826,2.14751 -0.31911,4.26221 -1.23551,1.51253 -1.03142,2.03507 0.87243,2.2337 2.60894,0.27219 3.08403,0.73745 1.88481,1.84582 -0.90472,0.83619 -2.37713,1.38158 -5.33229,1.97513 -4.63808,0.93157 -5.65945,0.98312 -6.3338,0.31968 z m -11.2154,-10.20684 c 0.49377,-0.48578 0.81906,-1.09636 0.81906,-1.5374 0,-0.82093 -1.36323,-2.3432 -2.09841,-2.3432 -0.25316,0 -0.73571,0.14432 -1.07233,0.3207 -1.57922,0.82749 -1.79075,2.54249 -0.45044,3.65202 1.11514,0.92315 1.79279,0.90087 2.80212,-0.0921 z m 38.71697,-7.50661 c 0.70496,-0.81963 0.6194,-2.06118 -0.19742,-2.86477 -0.75031,-0.73818 -1.53311,-0.85158 -2.48296,-0.35971 -0.82351,0.42645 -1.02462,0.77188 -1.01915,1.75059 0.0114,2.03322 2.39997,2.98485 3.69953,1.47389 z M 288.52531,72.484918 c -0.0764,-0.12155 -0.29564,-1.54815 -0.48729,-3.17021 l -0.34846,-2.94922 -1.84095,-0.039 c -3.60167,-0.0764 -3.23133,0.13818 -3.32405,-1.92556 -0.0961,-2.13987 -0.14587,-2.10029 2.96465,-2.35897 l 2.0994,-0.17459 -0.18442,-3.33326 c -0.10143,-1.833284 -0.26341,-5.404246 -0.35995,-7.935468 l -0.17553,-4.602215 0.69773,-0.172286 c 0.38376,-0.09476 1.19009,-0.132638 1.79185,-0.08418 l 1.09412,0.0881 0.34151,2.21225 c 0.18782,1.216739 0.50306,4.690189 0.70051,7.718777 l 0.35901,5.506532 2.70965,-0.0807 2.70965,-0.0807 0.33312,1.57863 c 0.39507,1.87221 0.16055,2.17012 -1.93742,2.46116 -0.71123,0.0987 -1.7203,0.26147 -2.24238,0.3618 l -0.94923,0.18241 0.0537,2.7508 c 0.0295,1.51294 0.11908,3.01223 0.19901,3.33175 0.12393,0.49541 -0.0124,0.60657 -0.92579,0.75506 -1.4926,0.24263 -3.11304,0.22246 -3.27843,-0.0408 z"
       style="fill:#333333;fill-opacity:1;stroke-width:0.27792925" />
  </g>
  <g
     inkscape:groupmode="layer"
     id="layer2"
     inkscape:label="trace">
    <path
       inkscape:connector-curvature="0"
       id="path3815"
       d="m 100.07197,236.70002 c -1.84825,-0.21435 -2.21824,-1.19195 -1.2266,-3.24096 0.88164,-1.82173 0.70007,-3.36659 -1.00479,-8.54908 -1.64458,-4.99921 -2.96528,-7.17098 -4.2199,-6.93919 -1.21441,0.22436 -2.14594,2.11263 -3.78921,7.6809 -1.35153,4.57971 -2.49581,7.05984 -3.7639,8.15799 -1.25326,1.08531 -4.96087,2.62341 -6.32375,2.62341 -0.57701,0 -0.95954,-0.3624 -1.19064,-1.12799 -0.28065,-0.92975 -0.26974,-1.40966 0.0913,-4.01868 0.23049,-1.66558 0.3055,-2.90857 0.31055,-5.14668 0.008,-3.32469 -0.14211,-4.55404 -1.03556,-8.50917 -0.77804,-3.44422 -0.99042,-5.22922 -1.07616,-9.04457 -0.0572,-2.54539 -0.0152,-4.08617 0.17513,-6.42161 0.25577,-3.13883 0.2289,-3.47984 -0.25968,-3.29539 -0.3017,0.11389 -0.76146,1.42936 -1.23284,3.52741 -1.04928,4.67015 -1.21461,7.82924 -0.59396,11.34859 0.49393,2.80072 0.37619,3.30974 -0.91437,3.95313 -2.04222,1.01812 -4.51853,-0.23302 -6.62599,-3.34772 -1.9076,-2.81933 -2.18899,-3.88188 -2.1936,-8.28315 -0.007,-6.49377 0.42613,-13.33101 1.15798,-18.28741 1.10714,-7.49802 2.1877,-11.11239 5.3783,-17.98999 l 1.5968,-3.44204 -1.48953,-2.11637 c -1.67451,-2.37917 -2.29412,-3.56768 -2.72627,-5.22937 -0.25659,-0.98662 -0.3017,-1.59801 -0.33232,-4.50408 -0.021,-1.98909 0.0405,-4.20335 0.15053,-5.42117 0.24711,-2.73552 0.10677,-3.95028 -0.72144,-6.24462 -0.49541,-1.37243 -0.58959,-2.77982 -0.22887,-3.42052 0.14545,-0.25836 0.47836,-0.5826 0.73977,-0.72053 0.99422,-0.52458 2.2192,-0.22826 4.03698,0.9765 1.89031,1.25284 2.11771,1.27213 3.37599,0.28648 1.1217,-0.87864 3.08614,-1.48522 6.04046,-1.86514 2.36726,-0.30444 3.49917,-0.57892 3.95981,-0.96025 0.21748,-0.18003 0.59848,-0.746 0.84668,-1.25772 0.56868,-1.17243 1.54988,-2.53405 2.15129,-2.98535 0.56775,-0.42602 1.15717,-0.44357 1.94108,-0.0578 1.39619,0.6871 1.95094,1.60564 2.10765,3.48975 0.0442,0.5309 0.18445,1.26602 0.31176,1.63361 0.43933,1.26847 1.81746,3.0589 4.10031,5.327 2.29565,2.28082 2.78654,2.58924 2.78654,1.75077 0,-1.39684 -1.58876,-7.55713 -3.07988,-11.942 -1.68662,-4.95977 -3.02248,-7.57669 -4.56965,-8.95183 -0.30822,-0.27396 -1.07532,-0.7903 -1.70466,-1.14742 -1.89362,-1.07456 -2.4564,-1.85372 -1.88023,-2.60315 0.43358,-0.56396 0.28591,-0.8995 -1.50643,-3.42304 -1.39995,-1.97108 -2.18487,-3.38055 -2.18553,-3.92452 -5.4e-4,-0.50523 0.47248,-0.8766 1.0962,-0.86051 0.76587,0.0198 1.6676,0.52795 2.539,1.43091 l 0.77582,0.80391 0.68968,-0.17899 c 0.37933,-0.0984 0.98516,-0.30758 1.34629,-0.46474 0.94652,-0.41191 2.62067,-1.50531 2.61794,-1.70979 -0.001,-0.0959 -0.28377,-0.63471 -0.62776,-1.1974 -0.89589,-1.46549 -0.81625,-2.26099 0.22345,-2.23191 0.99455,0.0278 2.99712,1.59177 6.61461,5.16582 5.08252,5.02151 9.44503,10.1942 12.02079,14.25326 3.47335,5.47355 5.64043,12.18995 6.54162,20.27437 0.26356,2.36436 0.36003,7.80697 0.21286,12.00891 -0.0582,1.66066 -0.0561,5.21187 0.004,7.89157 0.12709,5.61433 0.19624,7.0048 0.61428,12.35203 0.67266,8.60417 0.44543,13.51915 -1.13238,24.49311 -2.01012,13.98076 -4.26956,20.93892 -8.71428,26.83646 -2.17106,2.88072 -3.89029,4.0689 -6.62647,4.57965 -1.41093,0.26336 -2.56972,0.33339 -3.57936,0.2163 z M 81.79725,190.51746 c 1.26233,-0.51877 1.97952,-1.7324 1.98276,-3.35522 0.003,-1.27824 -0.30467,-2.16803 -1.02749,-2.9759 -0.82167,-0.91835 -1.47342,-1.19704 -2.80817,-1.20078 -0.97542,-0.002 -1.20974,0.0476 -1.85995,0.39921 -0.40916,0.22129 -0.8895,0.57255 -1.06743,0.78057 l -0.3235,0.37824 -0.0835,-0.32736 c -0.11616,-0.45532 0.15581,-2.24983 0.4826,-3.18428 0.70779,-2.02394 2.09366,-3.34987 4.80483,-4.59703 0.60334,-0.27754 0.70342,-0.38109 0.74123,-0.76691 0.0401,-0.40906 0.0107,-0.44604 -0.35432,-0.44604 -0.61211,0 -1.91614,0.36974 -2.72592,0.77291 -1.05247,0.52399 -2.34263,1.87681 -2.94802,3.09118 -1.26957,2.54671 -1.6214,6.45338 -0.78035,8.66491 0.77631,2.04127 4.04475,3.55657 5.96724,2.7665 z m -2.23477,-1.09257 c -1.29107,-0.46656 -2.61744,-1.76544 -2.61744,-2.5632 0,-0.864 0.99874,-2.10086 2.04304,-2.53013 0.77657,-0.31922 1.99302,-0.24503 2.59641,0.15835 0.76665,0.51252 1.00438,1.04587 1.00762,2.2606 0.002,0.88619 -0.0545,1.13104 -0.409,1.76066 -0.61183,1.0867 -1.39061,1.35823 -2.62063,0.91372 z m 15.72719,0.63793 c 0.69207,-0.31009 1.54328,-1.22196 1.92325,-2.06031 0.35291,-0.77865 0.3778,-2.06192 0.0544,-2.8058 -0.31037,-0.71399 -1.82267,-2.16133 -2.6752,-2.5603 -1.08117,-0.50596 -2.38651,-0.46768 -3.52244,0.1033 -1.02669,0.51607 -1.02379,0.52166 -0.59175,-1.14027 0.78052,-3.00241 2.66091,-5.03223 5.00597,-5.40377 0.48585,-0.077 0.95478,-0.12684 1.04207,-0.1108 0.0906,0.0167 0.17772,-0.19899 0.20304,-0.50272 l 0.0444,-0.53191 -1.23253,0.058 c -1.01839,0.0479 -1.39807,0.13418 -2.18532,0.49661 -1.63392,0.75224 -3.06181,2.45751 -3.79535,4.53268 -0.37145,1.0508 -0.8969,3.8328 -0.8969,4.74863 0,1.58778 0.53332,2.98 1.42717,3.7256 0.49762,0.41509 2.75609,1.51079 3.31593,1.60874 0.7524,0.13163 1.34913,0.0817 1.88329,-0.15766 z m -2.79399,-1.44112 c -1.1334,-0.53835 -1.67463,-0.99786 -1.95618,-1.66081 -0.28605,-0.67352 -0.25132,-1.2928 0.1117,-1.99183 0.46725,-0.89975 1.20592,-1.42213 2.02316,-1.43076 1.47044,-0.0155 3.38604,1.32765 3.59037,2.51748 0.24636,1.43459 -1.01886,3.02789 -2.40442,3.02789 -0.21563,0 -0.82972,-0.20788 -1.36463,-0.46197 z m 15.38539,1.34483 c 1.32419,-0.64919 2.2825,-2.14077 2.29558,-3.57299 0.008,-0.897 -0.41558,-1.60725 -1.3995,-2.34556 -1.21517,-0.91184 -3.5815,-1.289 -4.66803,-0.74402 l -0.51647,0.25905 0.083,-0.36199 c 0.4895,-2.13389 1.05331,-3.47194 1.9563,-4.64273 0.96302,-1.24861 2.02565,-1.94579 3.17846,-2.08535 0.64835,-0.0785 0.70374,-0.1154 0.78896,-0.52585 0.0504,-0.24279 0.07,-0.46274 0.0436,-0.48876 -0.0264,-0.026 -0.49471,-4.1e-4 -1.04058,0.057 -2.72073,0.28601 -4.78045,2.29809 -5.76133,5.6281 -0.44517,1.51133 -0.69229,3.62125 -0.62297,5.31901 0.0722,1.76826 0.42143,2.49058 1.5183,3.14027 0.96612,0.57222 1.38097,0.68846 2.51174,0.70377 0.71903,0.01 1.06771,-0.0629 1.63294,-0.33996 z m -2.97951,-0.99975 c -0.73099,-0.33603 -1.15883,-0.93192 -1.30003,-1.81065 -0.16945,-1.05461 0.0427,-1.8955 0.62167,-2.46427 0.46543,-0.4572 0.53431,-0.47982 1.42761,-0.46876 0.7166,0.009 1.12749,0.10012 1.73728,0.38579 1.44141,0.67526 1.84954,1.78533 1.16355,3.16475 -0.51267,1.03089 -1.02082,1.3624 -2.16837,1.41461 -0.67258,0.0306 -1.05903,-0.0272 -1.48171,-0.22147 z M 83.64429,162.79256 c 2.86067,-0.53388 3.90297,-1.33876 3.90297,-3.01393 0,-1.47885 -0.74088,-3.15386 -2.94923,-6.66771 -1.99128,-3.16846 -3.01996,-4.23995 -4.07054,-4.23995 -0.66166,0 -1.28276,0.62779 -2.04255,2.06456 -1.34867,2.55034 -2.00385,5.02118 -2.01825,7.61119 -0.0167,3.00648 0.52984,3.90052 2.64064,4.31959 0.95442,0.18949 3.33368,0.15082 4.53696,-0.0738 z m -4.59242,-0.86929 c -0.16131,-0.1587 -0.29329,-0.3503 -0.29329,-0.42579 0,-0.48635 1.258,-0.96071 2.54781,-0.96071 0.49992,0 0.55252,-0.0265 0.37677,-0.18963 -0.11235,-0.1043 -0.57035,-0.32147 -1.01778,-0.48261 -1.68104,-0.60543 -2.32531,-1.07031 -2.32531,-1.67786 0,-1.12494 3.90429,-2.27201 5.30601,-1.55888 0.7525,0.38283 0.70112,1.06915 -0.15887,2.12197 -0.61511,0.75303 -0.5135,1.01318 0.43435,1.11207 1.29888,0.13551 1.53541,0.36714 0.93836,0.91895 -0.45042,0.41631 -1.18347,0.68783 -2.65472,0.98334 -2.3091,0.46379 -2.8176,0.48945 -3.15333,0.15915 z m -5.58367,-5.08155 c 0.24583,-0.24185 0.40778,-0.54583 0.40778,-0.76541 0,-0.4087 -0.6787,-1.16658 -1.04471,-1.16658 -0.12604,0 -0.36628,0.0718 -0.53387,0.15967 -0.78623,0.41197 -0.89154,1.26579 -0.22426,1.81818 0.55519,0.4596 0.89256,0.44851 1.39506,-0.0459 z m 19.27554,-3.73722 c 0.35097,-0.40806 0.30837,-1.02618 -0.0983,-1.42625 -0.37355,-0.36751 -0.76327,-0.42397 -1.23616,-0.17908 -0.40999,0.21231 -0.51011,0.38428 -0.50739,0.87154 0.006,1.01225 1.19484,1.48603 1.84184,0.73379 z M 78.70593,136.54617 c -0.038,-0.0605 -0.14719,-0.77076 -0.24261,-1.57832 l -0.17348,-1.46828 -0.91653,-0.0194 c -1.79312,-0.038 -1.60874,0.0688 -1.6549,-0.95865 -0.0479,-1.06535 -0.0726,-1.04565 1.47597,-1.17443 l 1.0452,-0.0869 -0.0918,-1.65949 c -0.0505,-0.91272 -0.13114,-2.69055 -0.1792,-3.95073 l -0.0874,-2.29125 0.34737,-0.0858 c 0.19105,-0.0472 0.59249,-0.066 0.89208,-0.0419 l 0.54472,0.0439 0.17002,1.10138 c 0.0935,0.60576 0.25045,2.33505 0.34876,3.84285 l 0.17873,2.74147 1.34902,-0.0402 1.34902,-0.0402 0.16585,0.78594 c 0.19668,0.9321 0.0799,1.08041 -0.96456,1.22531 -0.35409,0.0491 -0.85647,0.13017 -1.11639,0.18012 l -0.47258,0.0908 0.0267,1.3695 c 0.0147,0.75323 0.0593,1.49966 0.0991,1.65874 0.0617,0.24664 -0.006,0.30199 -0.46091,0.37591 -0.7431,0.1208 -1.54985,0.11076 -1.63219,-0.0203 z"
       style="fill:#333333;fill-opacity:1;stroke-width:0.13836919" />
  </g>
</svg>
