<?xml version="1.0" encoding="UTF-8" standalone="no"?>
<!-- Created with Inkscape (http://www.inkscape.org/) -->

<svg
   xmlns:dc="http://purl.org/dc/elements/1.1/"
   xmlns:cc="http://creativecommons.org/ns#"
   xmlns:rdf="http://www.w3.org/1999/02/22-rdf-syntax-ns#"
   xmlns:svg="http://www.w3.org/2000/svg"
   xmlns="http://www.w3.org/2000/svg"
   xmlns:sodipodi="http://sodipodi.sourceforge.net/DTD/sodipodi-0.dtd"
   xmlns:inkscape="http://www.inkscape.org/namespaces/inkscape"
   sodipodi:docname="boulon2.svg"
   inkscape:version="0.92.1 r15371"
   id="svg1097"
   version="1.1"
   viewBox="0 0 297 210"
   height="210mm"
   width="297mm">
  <defs
     id="defs1091" />
  <sodipodi:namedview
     inkscape:measure-end="0,0"
     inkscape:measure-start="0,0"
     showborder="false"
     inkscape:snap-intersection-paths="true"
     showguides="false"
     inkscape:snap-global="false"
     inkscape:window-maximized="1"
     inkscape:window-y="21"
     inkscape:window-x="4"
     inkscape:window-height="743"
     inkscape:window-width="1358"
     showgrid="false"
     inkscape:current-layer="layer2"
     inkscape:document-units="mm"
     inkscape:cy="812.58679"
     inkscape:cx="1710.7091"
     inkscape:zoom="0.41340254"
     inkscape:pageshadow="2"
     inkscape:pageopacity="0"
     borderopacity="1.0"
     bordercolor="#666666"
     pagecolor="#000000"
     id="base" />
  <metadata
     id="metadata1094">
    <rdf:RDF>
      <cc:Work
         rdf:about="">
        <dc:format>image/svg+xml</dc:format>
        <dc:type
           rdf:resource="http://purl.org/dc/dcmitype/StillImage" />
        <dc:title></dc:title>
      </cc:Work>
    </rdf:RDF>
  </metadata>
  <g
     inkscape:groupmode="layer"
     id="layer2"
     inkscape:label="t-shirt"
     style="display:inline">
    <path
       style="display:inline;fill:#000080;stroke:#666666;stroke-width:1.68694854"
       d="m 263.21869,285.38118 c -25.21452,-2.75954 -36.323,-5.3278 -41.85041,-9.67564 -4.18211,-3.28969 -4.23674,-3.65311 -4.2225,-28.09284 0.008,-13.61803 0.72929,-33.11046 1.60302,-43.3165 2.22518,-25.99245 2.51818,-68.44942 0.73925,-107.121226 l -1.51323,-32.89547 -6.74779,-0.5139 c -15.11214,-1.15065 -48.07804,-13.36248 -48.07804,-17.80996 0,-1.36584 1.57293,-6.15214 3.4954,-10.63623 1.92246,-4.48408 4.61867,-13.087172 5.99158,-19.118042 4.55832,-20.023608 14.33594,-49.677139 18.48675,-56.066519 4.53896,-6.98693 12.25754,-11.40669 37.54883,-21.50103 8.96195,-3.57692 20.84921,-8.44547 26.41614,-10.81902 5.56693,-2.37354 10.98612,-4.33355 12.04264,-4.35554 1.05652,-0.0191 2.4152,2.59453 3.01928,5.8146 2.66112,14.18497 16.62159,22.03742 38.92044,21.89192 10.57528,-0.0688 15.06133,-0.90511 20.7313,-3.86371 8.39491,-4.38047 13.83586,-12.27463 13.84484,-20.08724 0.003,-3.0154 0.66379,-5.48261 1.46739,-5.48261 2.11867,0 31.73637,13.6661 53.96553,24.90058 23.32143,11.78643 27.36072,16.13879 32.29943,34.80249 4.59006,17.346121 11.99139,40.979873 17.11108,54.638711 4.67217,12.46488 5.55279,11.37824 -15.42885,19.03821 -8.43182,3.07834 -19.20385,5.61089 -26.1477,6.14749 l -11.80864,0.91251 v 76.966296 c 0,42.33144 0.52116,77.76482 1.15822,78.74077 1.79881,2.75591 5.18244,44.33531 3.99343,49.07277 -3.7526,14.95154 -77.81086,24.91109 -137.03739,18.42907 z"
       id="path6935"
       inkscape:connector-curvature="0" />
  </g>
  <g
     inkscape:label="nut1"
     inkscape:groupmode="layer"
     id="layer1"
     transform="translate(0,-87)"
     style="display:inline">
    <path
       style="fill:#f2f2f2;stroke-width:0.20936415"
       d="m 274.91075,101.05751 c -3.25197,4.35476 -4.31085,9.76603 -6.51015,14.68776 2.54144,12.485 6.38731,19.22642 13.53396,30.37802 14.63934,8.43159 21.95962,12.21499 39.38217,16.06826 10.81125,-5.22127 16.01293,-8.51055 21.81375,-14.67192 l 4.17594,-6.61466 4.17593,-6.61463 -0.69504,-3.74736 c -0.98926,-6.88341 -3.20062,-15.33265 -10.0358,-25.59372 C 327.65268,95.237592 322.396,91.986502 310.14499,86.880206 297.61648,86.627674 288.65843,87.399833 274.91075,101.05751 Z m 71.59648,21.32862 c 0.41523,7.14027 -0.48161,12.26702 -6.71503,15.03658 -4.1216,1.76452 -13.01513,0.77234 -20.01515,-0.9792 -15.16193,-5.45485 -31.32147,-17.05699 -32.85195,-31.3132 -0.38518,-8.851958 2.79148,-14.139224 10.95307,-15.388734 6.94077,-0.95435 11.38356,-1.036159 19.41998,2.411792 12.32108,4.803028 27.47742,17.447582 29.20908,30.232762 z m -30.52915,-23.0719 c -7.27245,-2.681744 -16.84655,-2.252092 -18.7569,3.05769 -3.36014,8.17125 2.57171,15.57239 7.6305,19.77025 4.32539,3.32592 9.57778,6.18989 15.16328,7.30127 5.28104,0.40371 11.79921,-0.6637 14.31477,-4.63115 4.65965,-10.63439 -8.79103,-21.30095 -18.35165,-25.49806 z m 5.49572,4.83552 c 2.23566,1.42013 4.39954,3.11884 5.86027,4.65878 2.70528,2.85194 3.9779,4.69534 5.04417,7.30604 0.75831,1.85667 0.97451,3.03062 0.84099,4.56426 -0.15796,1.81455 -0.61928,1.75463 -0.89027,-0.11551 -0.11877,-0.81956 -0.47597,-2.17892 -0.79369,-3.02095 -0.61523,-1.63093 -2.54838,-4.93609 -3.08561,-5.27522 -0.50221,-0.31703 -0.69088,0.25291 -0.30264,0.91485 0.59326,1.01146 1.2417,3.86137 1.18349,5.20152 -0.0304,0.70075 -0.0818,1.31577 -0.1141,1.36697 -0.0323,0.0511 -0.42207,-0.72501 -0.86599,-1.72482 -1.87939,-4.23288 -5.99255,-8.33795 -11.6169,-11.59437 -6.27467,-3.63292 -12.26519,-4.33036 -16.12109,-1.87663 -1.10255,0.70163 -1.30912,0.92373 -1.92168,2.06757 -0.37742,0.70484 -0.70985,1.26666 -0.73888,1.24831 -0.14884,-0.094 -0.0921,-1.56191 0.0958,-2.47127 0.31941,-1.54598 1.86297,-3.6484 3.30548,-4.5026 3.6125,-2.13923 9.80044,-1.720747 16.15486,1.09287 1.25692,0.55656 2.62431,1.3082 3.96577,2.1602 z m 28.24795,29.7291 c -1.15044,0.072 -4.66423,2.27556 -4.70422,2.1296 2.32587,-3.08609 2.93378,-5.47159 3.5139,-9.38341 0,0 1.08554,6.62578 1.19032,7.25381 z m -19.88597,-17.99399 c 0.26057,0.11277 1.10367,2.68622 1.22602,3.77633 0.42457,3.78463 -0.54196,5.95004 -3.26556,7.31581 -0.63553,0.31867 -1.26057,0.55211 -1.38955,0.5186 -0.12901,-0.0333 -0.29449,-0.68738 -0.36783,-1.45301 -0.39677,-4.15409 -3.06922,-8.62422 -7.31123,-12.22865 -1.644,-1.3969 -5.46514,-3.75822 -7.44263,-4.59935 -4.43074,-1.88463 -9.21437,-2.09574 -11.60941,-0.5126 -0.91254,0.60319 -1.07098,0.55836 -0.91499,-0.25874 0.28374,-1.48619 0.63428,-1.97327 1.68229,-2.33953 3.93794,-1.37619 10.09656,0.0485 15.83716,3.66445 2.67423,1.68474 4.72899,3.40838 6.66964,5.596 2.42701,2.7359 4.48902,6.52262 4.7285,8.68361 0.10606,0.95709 0.59258,1.51495 0.8986,1.03025 0.40546,-0.64228 1.25907,-3.68893 1.37646,-4.91291 0.0696,-0.72521 0.04,-1.9797 -0.0656,-2.78782 -0.10561,-0.80812 -0.1396,-1.48122 -0.0754,-1.49573 0.008,-0.002 0.0151,-3.8e-4 0.0236,0.003 z M 282.97727,95.644204 c -0.78067,2.278874 -1.40345,7.244496 0.53389,11.367966 -2.6183,-2.88716 -4.39424,-5.36423 -6.08877,-5.82612 0.002,-0.24548 6.28077,-5.714895 6.55486,-5.541871 z m 30.05041,19.084166 c 4.90023,3.08286 9.26051,7.98739 10.95802,12.49136 l 0.3165,0.8394 -0.91395,0.12195 c -0.50251,0.067 -0.95757,0.0939 -1.01123,0.0601 -0.0537,-0.0339 -0.34601,-0.62552 -0.64961,-1.31455 -1.43477,-3.25613 -4.04805,-6.39531 -7.54047,-9.05783 -4.29833,-3.27686 -8.99358,-5.11581 -13.17037,-5.15886 l -1.80758,-0.0189 -0.202,-0.89287 c -0.2011,-0.88964 -0.19976,-0.89382 0.38101,-1.05589 0.96885,-0.27034 5.09552,0.30125 7.26028,1.00582 1.11812,0.36391 3.03163,1.16353 4.25258,1.77691 0.71585,0.35965 1.42681,0.76286 2.12681,1.20332 z m -3.35457,5.03785 c 2.27517,1.39024 4.17071,2.9314 6.09804,4.94324 2.27186,2.37147 2.40682,2.8201 0.67142,2.23546 -0.58955,-0.19862 -1.20482,-0.4152 -1.3671,-0.48168 -0.16229,-0.0665 -0.87485,-0.70276 -1.58337,-1.41399 -1.56848,-1.57457 -6.89882,-5.08528 -8.83942,-5.82169 -1.02583,-0.38926 -1.326,-0.59241 -1.9947,-1.3506 -0.82975,-0.9408 -1.04917,-1.38756 -0.71828,-1.46238 0.5338,-0.12066 4.54828,1.52745 6.73372,2.7643 0.34174,0.19338 0.67468,0.38869 0.9997,0.58734 z m 28.57763,20.36063 c 0.16014,0.11408 -0.0888,0.39155 -0.72187,0.85047 -0.51173,0.37095 -3.53183,2.97292 -5.93679,5.10024 l -8.14613,12.99391 c -1.02744,1.08253 -1.80217,1.61751 -1.56073,-0.0492 l 5.60853,-12.84959 c -2.20523,-2.3985 -3.75422,-3.6562 -6.78878,-5.62109 -1.26976,-0.80499 -1.93517,-1.54003 -1.25897,-1.39016 0.17582,0.039 1.1947,0.27325 2.26409,0.52067 5.79335,1.34032 10.01967,1.50446 14.80716,0.5751 1.00388,-0.19485 1.57332,-0.24442 1.7335,-0.13037 z m -49.39855,-21.37449 c 0.19229,0.14273 0.70128,0.69016 1.22519,1.32338 3.26148,3.94189 6.98283,7.20878 12.35224,10.84281 3.05457,2.06734 4.01846,2.88667 3.14644,2.6755 -2.80149,-0.67838 -5.47025,-1.11115 -9.29325,-1.50732 -1.88708,-0.19555 -3.52504,-0.37575 -4.28365,-0.46876 l -8.76885,13.39603 c -0.54794,-0.11445 -1.00833,0.17261 -0.7158,-0.88736 l 7.73566,-14.34342 c 1.1538,-2.59867 -0.0873,-4.96513 -0.79423,-7.72504 -0.47527,-1.86142 -0.77527,-3.36489 -0.66602,-3.34123 0.0138,0.003 0.0346,0.0152 0.0622,0.0355 z"
       id="path6642"
       inkscape:connector-curvature="0"
       sodipodi:nodetypes="ccccccccccccccccccccccccccscsccscsccccccccccccccsscccscsscccccccccscccccccccccssssccscccsscccscccccccccccscccccsccscccccccc" />
    <path
       style="fill:#5e616e;stroke-width:0.26458332"
       d="m 171.47173,270.90409 c 0.32743,-0.063 0.86321,-0.0629 1.19062,2e-4 0.32741,0.0631 0.0595,0.11467 -0.59533,0.11456 -0.65484,-10e-5 -0.92273,-0.0517 -0.59529,-0.11476 z"
       id="path6724"
       inkscape:connector-curvature="0" />
    <path
       style="fill:#5e616e;stroke-width:0.26458332"
       d="m 189.82552,217.51524 c 0.0276,-0.50118 0.46874,-1.34503 0.48402,-0.92596 0.008,0.21828 -0.10096,0.57545 -0.24206,0.79371 -0.1411,0.21825 -0.24998,0.27777 -0.24196,0.13225 z"
       id="path6686"
       inkscape:connector-curvature="0" />
    <path
       style="fill:#5e616e;stroke-width:0.26458332"
       d="m 190.35324,215.64128 c 0.0128,-0.30822 0.0754,-0.37091 0.15987,-0.15983 0.0764,0.19101 0.067,0.41921 -0.021,0.50712 -0.0879,0.0879 -0.15044,-0.0684 -0.1389,-0.34729 z"
       id="path6676"
       inkscape:connector-curvature="0" />
  </g>
  <g
     style="display:inline"
     transform="translate(0,-87)"
     id="g6949"
     inkscape:groupmode="layer"
     inkscape:label="nut2">
    <path
       inkscape:connector-curvature="0"
       id="path6941"
       d="m 171.47173,270.90409 c 0.32743,-0.063 0.86321,-0.0629 1.19062,2e-4 0.32741,0.0631 0.0595,0.11467 -0.59533,0.11456 -0.65484,-10e-5 -0.92273,-0.0517 -0.59529,-0.11476 z"
       style="fill:#5e616e;stroke-width:0.26458332" />
    <g
       id="g7056"
       transform="matrix(0.8388142,0,0,0.8388142,-5.4657392,22.411511)" />
    <text
       xml:space="preserve"
       style="font-style:normal;font-weight:normal;font-size:7.40680075px;line-height:1.25;font-family:sans-serif;letter-spacing:0px;word-spacing:0px;fill:#000080;fill-opacity:1;stroke:#000080;stroke-width:0.18516998"
       x="326.81003"
       y="6.5815558"
       id="text7126"
       transform="rotate(24.986742)"><tspan
         sodipodi:role="line"
         id="tspan7124"
         x="326.81003"
         y="6.5815558"
         style="fill:#000080;stroke:#000080;stroke-width:0.18516998">122bis</tspan></text>
  </g>
</svg>
