<?xml version="1.0" encoding="UTF-8" standalone="no"?>
<!-- Created with Inkscape (http://www.inkscape.org/) -->

<svg
   xmlns:dc="http://purl.org/dc/elements/1.1/"
   xmlns:cc="http://creativecommons.org/ns#"
   xmlns:rdf="http://www.w3.org/1999/02/22-rdf-syntax-ns#"
   xmlns:svg="http://www.w3.org/2000/svg"
   xmlns="http://www.w3.org/2000/svg"
   xmlns:sodipodi="http://sodipodi.sourceforge.net/DTD/sodipodi-0.dtd"
   xmlns:inkscape="http://www.inkscape.org/namespaces/inkscape"
   sodipodi:docname="boulon2too.svg"
   inkscape:version="0.92.1 r15371"
   id="svg1097"
   version="1.1"
   viewBox="0 0 297 210"
   height="210mm"
   width="297mm">
  <defs
     id="defs1091" />
  <sodipodi:namedview
     inkscape:measure-end="0,0"
     inkscape:measure-start="0,0"
     showborder="true"
     inkscape:snap-intersection-paths="true"
     showguides="false"
     inkscape:snap-global="false"
     inkscape:window-maximized="1"
     inkscape:window-y="21"
     inkscape:window-x="4"
     inkscape:window-height="724"
     inkscape:window-width="1358"
     showgrid="false"
     inkscape:current-layer="g6949"
     inkscape:document-units="mm"
     inkscape:cy="-37.785823"
     inkscape:cx="948.09832"
     inkscape:zoom="0.36254499"
     inkscape:pageshadow="2"
     inkscape:pageopacity="0"
     borderopacity="1.0"
     bordercolor="#666666"
     pagecolor="#000000"
     id="base" />
  <metadata
     id="metadata1094">
    <rdf:RDF>
      <cc:Work
         rdf:about="">
        <dc:format>image/svg+xml</dc:format>
        <dc:type
           rdf:resource="http://purl.org/dc/dcmitype/StillImage" />
        <dc:title></dc:title>
      </cc:Work>
    </rdf:RDF>
  </metadata>
  <g
     inkscape:groupmode="layer"
     id="layer2"
     inkscape:label="t-shirt"
     style="display:inline;opacity:0.3"
     sodipodi:insensitive="true">
    <path
       style="display:inline;fill:#000080;stroke:#666666;stroke-width:2.90846848"
       d="m 76.572056,536.12051 c -43.472597,-4.7572 -62.624784,-9.1848 -72.154563,-16.68075 -7.2103871,-5.67305 -7.3045261,-6.29848 -7.2800368,-48.43519 0.00877,-23.47865 1.2574258,-57.08637 2.76383747,-74.68189 C 3.7376434,351.50807 4.2429048,278.30815 1.1757608,211.63452 l -2.6089077,-56.71577 -11.6339351,-0.8863 c -26.05485,-1.98323 -82.891445,-23.03804 -82.891445,-30.70557 0,-2.35513 2.711932,-10.60666 6.026504,-18.33801 3.314454,-7.730902 7.962995,-22.563474 10.330049,-32.961266 7.858986,-34.522735 24.7166,-85.648457 31.873059,-96.664461 7.82565,-12.046158 21.133284,-19.666293 64.738024,-37.069933 15.451286,-6.16691 35.946173,-14.56083 45.544065,-18.65305 9.598096,-4.09211 18.941199,-7.47164 20.76254,-7.50959 1.8214,-0.0324 4.164058,4.47333 5.205703,10.02509 4.588196,24.456351 28.658033,37.99481 67.103083,37.74395 18.23209,-0.118533 25.96733,-1.560508 35.74301,-6.661467 14.47301,-7.552385 23.85342,-21.162693 23.86905,-34.632443 0.003,-5.19897 1.14525,-9.45267 2.53006,-9.45267 3.65349,0 54.71744,23.56194 93.04226,42.931197 40.20844,20.321035 47.1724,27.824961 55.68748,60.003064 7.91373,29.906508 20.67496,70.653497 29.50136,94.202659 8.05569,21.49032 9.57338,19.6174 -26.60085,32.82353 -14.53785,5.30738 -33.109,9.67399 -45.08158,10.59895 l -20.35921,1.57352 v 132.69729 c 0,72.98395 0.89888,134.07436 1.99745,135.75787 3.10088,4.75091 8.93437,76.43885 6.88485,84.60638 -6.46979,25.77774 -134.15365,42.94855 -236.266324,31.77296 z"
       id="path6935"
       inkscape:connector-curvature="0" />
  </g>
  <g
     inkscape:label="nut1"
     inkscape:groupmode="layer"
     id="layer1"
     transform="translate(0,-87)"
     style="display:inline">
    <path
       style="fill:#ffffff;stroke-width:0.36096412"
       d="m 96.729879,155.3319 c -5.606181,7.50686 -7.432271,16.83764 -11.223758,25.32244 4.382073,21.52501 11.011829,33.14886 23.333469,52.37489 25.23944,14.53762 37.8611,21.05949 67.8987,27.7031 18.63963,-9.00113 27.60787,-14.67244 37.61016,-25.29596 l 7.19903,-11.40399 7.20035,-11.40396 -1.19911,-6.46056 c -1.7048,-11.86825 -5.51748,-26.43549 -17.30292,-44.12727 -22.58306,-16.74338 -31.6462,-22.34857 -52.76831,-31.15227 -21.60044,-0.43599 -37.0449,0.896 -60.747611,24.44358 z m 123.439861,36.77258 c 0.71581,12.30998 -0.83007,21.14876 -11.57751,25.92396 -7.10612,3.04265 -22.43951,1.33227 -34.50816,-1.68809 -26.14108,-9.40495 -54.00063,-29.40737 -56.64033,-53.98704 -0.66315,-15.26123 4.81308,-24.37756 18.88519,-26.5315 11.96551,-1.64591 19.62557,-1.78629 33.48207,4.1581 21.24272,8.28098 47.37289,30.08126 50.35874,52.12457 z m -52.63508,-39.77936 c -12.53925,-4.62355 -29.04531,-3.88267 -32.33886,5.27214 -5.79404,14.08842 4.43371,26.84813 13.15532,34.08637 7.45754,5.73455 16.51373,10.67199 26.14376,12.58802 9.10479,0.69631 20.34313,-1.14383 24.67946,-7.98408 8.03386,-18.33509 -15.15641,-36.72496 -31.63968,-43.96245 z m 9.47508,8.33741 c 3.85427,2.44822 7.58489,5.37718 10.10297,8.03166 4.66437,4.91743 6.85868,8.09615 8.69768,12.59678 1.3076,3.2013 1.67941,5.22512 1.45013,7.86931 -0.27234,3.12859 -1.06882,3.02478 -1.53532,-0.1993 -0.20522,-1.41274 -0.82044,-3.7563 -1.36825,-5.20747 -1.06078,-2.81197 -4.39442,-8.51113 -5.32001,-9.09498 -0.86663,-0.54712 -1.19096,0.43512 -0.52209,1.57719 1.02285,1.74296 2.14078,6.65703 2.04001,8.96675 -0.057,1.20881 -0.13764,2.26938 -0.19656,2.35782 -0.0589,0.091 -0.72797,-1.25036 -1.49242,-2.97369 -3.23998,-7.29853 -10.33234,-14.37615 -20.02915,-19.99066 -10.81795,-6.26366 -21.14693,-7.46517 -27.7945,-3.23456 -1.90055,1.20969 -2.25741,1.59139 -3.31286,3.56382 -0.6514,1.21556 -1.22456,2.18436 -1.27354,2.15271 -0.25657,-0.16172 -0.1586,-2.69374 0.1648,-4.26145 0.55083,-2.66451 3.21159,-6.28978 5.69815,-7.76243 6.22861,-3.68868 16.89732,-2.96696 27.85354,1.88422 2.16664,0.95955 4.52362,2.25516 6.83724,3.72428 z m 48.70202,51.25648 c -1.98302,0.12457 -8.0411,3.92343 -8.11035,3.67107 4.00965,-5.32049 5.05779,-9.43366 6.05819,-16.17838 0,0 1.87157,11.42442 2.05216,12.50731 z m -34.28588,-31.024 c 0.44943,0.19523 1.903,4.63201 2.11446,6.51081 0.7318,6.52576 -0.93431,10.25924 -5.6303,12.6132 -1.09571,0.55009 -2.17295,0.95244 -2.39503,0.89366 -0.22344,-0.0599 -0.50862,-1.1848 -0.63516,-2.50504 -0.68405,-7.16122 -5.29165,-14.86857 -12.60463,-21.08246 -2.83435,-2.40903 -9.42322,-6.4794 -12.83179,-7.92967 -7.64003,-3.24921 -15.88698,-3.61327 -20.01634,-0.885 -1.57355,1.04076 -1.84637,0.96268 -1.57733,-0.44494 0.48856,-2.56349 1.09313,-3.40302 2.90057,-4.03395 6.78946,-2.37236 17.40757,0.0884 27.30442,6.3178 4.61071,2.90435 8.15374,5.87686 11.49887,9.64851 4.18527,4.71627 7.73954,11.24545 8.15325,14.97052 0.1832,1.65002 1.02084,2.6122 1.54897,1.77638 0.69939,-1.10645 2.17145,-6.35957 2.37263,-8.47066 0.12223,-1.24923 0.0666,-3.41211 -0.11285,-4.80543 -0.18275,-1.39332 -0.24068,-2.55453 -0.12932,-2.57968 0.008,-0.002 0.0284,-3.8e-4 0.0369,0.003 z m -80.78814,-34.89726 c -1.34592,3.92941 -2.41957,12.49135 0.92092,19.59934 -4.51488,-4.97659 -7.57693,-9.24783 -10.49772,-10.04355 0.002,-0.4237 10.82804,-9.85386 11.3003,-9.55581 z m 51.81054,32.90287 c 8.44734,5.31593 15.96504,13.77156 18.89147,21.53669 l 0.54659,1.44721 -1.57629,0.21106 c -0.8656,0.11867 -1.6505,0.16161 -1.74273,0.10001 -0.0936,-0.0605 -0.59738,-1.07846 -1.12043,-2.26642 -2.4735,-5.6139 -6.97937,-11.02617 -13.00012,-15.61664 -7.41186,-5.64963 -15.50659,-8.82016 -22.7078,-8.89437 l -3.1163,-0.0322 -0.3483,-1.53941 c -0.34607,-1.53381 -0.34473,-1.54101 0.65765,-1.82025 1.66976,-0.4663 8.78494,0.51937 12.51644,1.73394 1.92809,0.62741 5.22746,2.00614 7.33286,3.06374 1.23322,0.6199 2.45889,1.31509 3.66695,2.07447 z m -5.78448,8.68604 c 3.92304,2.39705 7.19114,5.05408 10.51364,8.5236 3.91707,4.0885 4.15045,4.86165 1.1582,3.85407 -1.01648,-0.34359 -2.0773,-0.71578 -2.35795,-0.83147 -0.27933,-0.1182 -1.50793,-1.21082 -2.72983,-2.43676 -2.7043,-2.71571 -11.8943,-8.76805 -15.23938,-10.03779 -1.7693,-0.67122 -2.28626,-1.022 -3.43908,-2.32815 -1.43091,-1.62309 -1.8086,-2.39304 -1.23831,-2.52106 0.9195,-0.20844 7.84136,2.63268 11.6095,4.76595 0.58912,0.33303 1.16279,0.66932 1.72322,1.01161 z m 49.2711,35.10368 c 0.27585,0.19654 -0.15419,0.67617 -1.24456,1.46626 -0.8828,0.63961 -6.08942,5.12619 -10.23535,8.79365 l -14.04468,22.40366 c -1.77224,1.8659 -3.10823,2.78791 -2.69123,-0.0891 l 9.66902,-22.154 c -3.80123,-4.13526 -6.47274,-6.30367 -11.70446,-9.69125 -2.18879,-1.38797 -3.33566,-2.65525 -2.17002,-2.39686 0.3035,0.0656 2.0592,0.47116 3.90398,0.89768 9.98817,2.31086 17.27482,2.59385 25.52829,0.99153 1.73139,-0.33594 2.71313,-0.4214 2.98902,-0.22477 z m -85.1689,-36.8517 c 0.33194,0.24647 1.20934,1.19024 2.11363,2.28231 5.62223,6.79607 12.03816,12.42903 21.29649,18.6938 5.26636,3.56492 6.92717,4.97743 5.42473,4.61331 -4.83107,-1.17048 -9.43232,-1.9158 -16.02305,-2.59925 -3.25299,-0.33653 -6.07731,-0.6484 -7.38521,-0.80791 l -15.11827,23.09572 c -0.94561,-0.19691 -1.7385,0.29763 -1.2345,-1.52975 l 13.33762,-24.72939 c 1.98904,-4.48062 -0.15164,-8.56012 -1.37012,-13.31902 -0.81974,-3.20871 -1.33653,-5.80145 -1.14748,-5.7605 0.0271,0.003 0.0612,0.0285 0.10226,0.0621 z"
       id="path6642"
       inkscape:connector-curvature="0"
       sodipodi:nodetypes="ccccccccccccccccccccccccccscsccscsccccccccccccccsscccscsscccccccccscccccccccccssssccscccsscccscccccccccccscccccsccscccccccc" />
    <path
       style="fill:#5e616e;stroke-width:0.45616919"
       d="m -81.609182,448.16358 c 0.564453,-0.1031 1.488194,-0.103 2.052731,2e-4 0.56443,0.10935 0.102184,0.19846 -1.026425,0.19835 -1.129051,-10e-5 -1.590877,-0.0916 -1.026306,-0.19855 z"
       id="path6724"
       inkscape:connector-curvature="0" />
    <path
       style="fill:#5e616e;stroke-width:0.45616919"
       d="m -49.965435,356.11562 c 0.04755,-0.86294 0.808157,-2.31859 0.834542,-1.59628 0.0093,0.37655 -0.174101,0.99307 -0.41735,1.36827 -0.24325,0.37652 -0.430992,0.47993 -0.417192,0.22801 z"
       id="path6686"
       inkscape:connector-curvature="0" />
    <path
       style="fill:#5e616e;stroke-width:0.45616919"
       d="m -49.055541,352.88506 c 0.02211,-0.53166 0.129938,-0.63957 0.27559,-0.27554 0.131976,0.32933 0.115565,0.72245 -0.03575,0.8742 -0.151593,0.15222 -0.259374,-0.12052 -0.239474,-0.59866 z"
       id="path6676"
       inkscape:connector-curvature="0" />
  </g>
  <g
     style="display:inline"
     transform="translate(0,-87)"
     id="g6949"
     inkscape:groupmode="layer"
     inkscape:label="122bis">
    <path
       inkscape:connector-curvature="0"
       id="path6941"
       d="m -81.609182,448.16358 c 0.564453,-0.1031 1.488194,-0.103 2.052731,2e-4 0.56443,0.10935 0.102184,0.19846 -1.026425,0.19835 -1.129051,-10e-5 -1.590877,-0.0916 -1.026306,-0.19855 z"
       style="fill:#5e616e;stroke-width:0.45616919" />
    <g
       id="g7056"
       transform="matrix(0.8388142,0,0,0.8388142,-5.4657392,22.411511)" />
    <text
       xml:space="preserve"
       style="font-style:normal;font-weight:normal;font-size:12.77004814px;line-height:1.25;font-family:sans-serif;letter-spacing:0px;word-spacing:0px;display:inline;fill:#000000;fill-opacity:1;stroke:#000000;stroke-width:0.31925133;"
       x="213.53346"
       y="153.56476"
       id="text7126"
       transform="rotate(24.986742)"><tspan
         sodipodi:role="line"
         id="tspan7124"
         x="213.53346"
         y="153.56476"
         style="fill:#000000;stroke:#000000;stroke-width:0.31925133;">122bis</tspan></text>
  </g>
</svg>
