<?xml version="1.0" encoding="UTF-8" standalone="no"?>
<!--Generated by Intaglio, www.PurgatoryDesign.com-->

<svg
   xmlns:dc="http://purl.org/dc/elements/1.1/"
   xmlns:cc="http://creativecommons.org/ns#"
   xmlns:rdf="http://www.w3.org/1999/02/22-rdf-syntax-ns#"
   xmlns:svg="http://www.w3.org/2000/svg"
   xmlns="http://www.w3.org/2000/svg"
   xmlns:xlink="http://www.w3.org/1999/xlink"
   xmlns:sodipodi="http://sodipodi.sourceforge.net/DTD/sodipodi-0.dtd"
   xmlns:inkscape="http://www.inkscape.org/namespaces/inkscape"
   version="1.1"
   viewBox="0 0 1122.5197 793.7008"
   width="297mm"
   height="210mm"
   id="svg36"
   sodipodi:docname="boulon1.svg"
   inkscape:version="0.92.1 r15381">
  <metadata
     id="metadata42">
    <rdf:RDF>
      <cc:Work
         rdf:about="">
        <dc:format>image/svg+xml</dc:format>
        <dc:type
           rdf:resource="http://purl.org/dc/dcmitype/StillImage" />
        <dc:title></dc:title>
      </cc:Work>
    </rdf:RDF>
  </metadata>
  <defs
     id="defs40" />
  <sodipodi:namedview
     pagecolor="#000400"
     bordercolor="#666666"
     borderopacity="1"
     objecttolerance="10"
     gridtolerance="10"
     guidetolerance="10"
     inkscape:pageopacity="0"
     inkscape:pageshadow="2"
     inkscape:window-width="1276"
     inkscape:window-height="755"
     id="namedview38"
     showgrid="false"
     inkscape:snap-to-guides="false"
     inkscape:snap-grids="false"
     units="mm"
     fit-margin-bottom="0.1"
     fit-margin-top="0"
     fit-margin-left="0"
     fit-margin-right="0"
     inkscape:document-units="mm"
     inkscape:zoom="0.89095454"
     inkscape:cx="679.06517"
     inkscape:cy="270.07779"
     inkscape:window-x="0"
     inkscape:window-y="23"
     inkscape:window-maximized="1"
     inkscape:current-layer="svg36" />
  <g
     inkscape:groupmode="layer"
     id="layer1"
     inkscape:label="img"
     style="display:none"
     sodipodi:insensitive="true"
     transform="translate(-81.029362,340.82577)">
    <g
       id="img">
      <image
         sodipodi:absref="/Users/MS/Desktop/Untitled.svg/7f9499d21030.jpeg"
         xlink:href="7f9499d21030.jpeg"
         id="image5"
         transform="rotate(-90,263,219)"
         height="360"
         width="360" />
    </g>
  </g>
  <g
     inkscape:groupmode="layer"
     id="layer2"
     inkscape:label="Layer 2"
     style="display:inline"
     transform="translate(-81.029362,340.82577)" />
  <g
     inkscape:groupmode="layer"
     id="layer3"
     inkscape:label="Layer 3"
     style="display:inline"
     transform="translate(-81.029362,340.82577)" />
  <g
     id="g1052"
     transform="rotate(47.52098,568.71398,422.10861)">
    <path
       d="m 548.22223,152.75939 -40,3"
       id="path8"
       inkscape:connector-curvature="0"
       style="display:inline;fill:#9726ff;stroke:#e8ffe8;stroke-width:10.20472431;stroke-miterlimit:4;stroke-dasharray:none;stroke-opacity:1"
       transform="translate(-81.029361,340.82576)" />
    <path
       d="m 548.22223,7.5543872 -40,2.9999998"
       id="path10"
       inkscape:connector-curvature="0"
       style="display:inline;fill:#9726ff;stroke:#e8ffe8;stroke-width:10.20472431;stroke-miterlimit:4;stroke-dasharray:none;stroke-opacity:1"
       transform="translate(-81.029361,340.82576)" />
    <path
       sodipodi:nodetypes="ccc"
       d="m 629.72223,-62.047614 17.21043,-2.530862 22.78957,-0.469138"
       id="path12"
       inkscape:connector-curvature="0"
       style="display:inline;fill:#9726ff;stroke:#e8ffe8;stroke-width:10.20472431;stroke-miterlimit:4;stroke-dasharray:none;stroke-opacity:1"
       transform="translate(-81.029361,340.82576)" />
    <path
       d="m 629.72223,228.36139 40,-3"
       id="path14"
       inkscape:connector-curvature="0"
       style="display:inline;fill:#9726ff;stroke:#e8ffe8;stroke-width:10.20472431;stroke-miterlimit:4;stroke-dasharray:none;stroke-opacity:1"
       transform="translate(-81.029361,340.82576)" />
    <path
       sodipodi:nodetypes="ccc"
       d="m 629.72223,-62.047614 -52.46392,34.998521 -69.03608,37.60348"
       id="path18"
       inkscape:connector-curvature="0"
       style="display:inline;fill:none;stroke:#e8ffe8;stroke-width:10.20472431;stroke-miterlimit:4;stroke-dasharray:none;stroke-opacity:1"
       transform="translate(-81.029361,340.82576)" />
    <path
       sodipodi:nodetypes="czc"
       d="m 508.22223,10.554387 c 0,0 4.21197,24.692042 3.99287,70.372901 -0.2191,45.680862 -3.99287,74.832102 -3.99287,74.832102"
       id="path20"
       inkscape:connector-curvature="0"
       style="display:inline;fill:none;stroke:#e8ffe8;stroke-width:10.20472431;stroke-miterlimit:4;stroke-dasharray:none;stroke-opacity:1"
       transform="translate(-81.029361,340.82576)" />
    <path
       d="m 508.22223,155.75939 121.5,72.602"
       id="path22"
       inkscape:connector-curvature="0"
       style="display:inline;fill:#9726ff;stroke:#e8ffe8;stroke-width:10.20472431;stroke-miterlimit:4;stroke-dasharray:none;stroke-opacity:1"
       transform="translate(-81.029361,340.82576)" />
    <path
       sodipodi:nodetypes="ccsccsccc"
       d="m 548.22223,152.75939 121.5,72.602 c 0,0 53.64712,-33.09277 63.40718,-38.92488 30.73994,-18.36856 58.09282,-33.67712 58.09282,-33.67712 V 7.5543872 c 0,0 -6.84942,-5.5695862 -57.73823,-35.3144462 -47.37934,-27.693541 -63.76177,-37.287555 -63.76177,-37.287555 l -66.11425,34.831201 -55.38575,37.7708002"
       id="path24"
       inkscape:connector-curvature="0"
       style="display:inline;fill:none;stroke:#e8ffe8;stroke-width:10.20472431;stroke-miterlimit:4;stroke-dasharray:none;stroke-opacity:1"
       transform="translate(-81.029361,340.82576)" />
    <path
       sodipodi:nodetypes="csc"
       d="m 548.22223,7.5543872 c 0,0 -5.62298,4.6623398 -4.7619,77.6361018 0.25333,21.469791 4.7619,67.568901 4.7619,67.568901"
       id="path26"
       inkscape:connector-curvature="0"
       style="display:inline;fill:none;stroke:#e8ffe8;stroke-width:10.20472431;stroke-miterlimit:4;stroke-dasharray:none;stroke-opacity:1"
       transform="translate(-81.029361,340.82576)" />
    <path
       sodipodi:nodetypes="ssssss"
       d="m 791.15869,79.50715 c 0,28.68321 -9.33143,55.13466 -25.0553,76.34476 -22.5391,30.40324 -58.21293,50.03694 -98.36529,50.03694 -68.16371,0 -123.42058,-56.58309 -123.42058,-126.3817 0,-69.7986125 55.25687,-126.3817 123.42058,-126.3817 68.16372,0 123.42059,56.5830875 123.42059,126.3817 z"
       id="path28"
       inkscape:connector-curvature="0"
       style="display:inline;fill:none;stroke:#e8ffe8;stroke-width:8.50771713;stroke-miterlimit:4;stroke-dasharray:none;stroke-opacity:1"
       transform="translate(-81.029361,340.82576)" />
    <g
       style="stroke:#e8ffe8;stroke-opacity:1"
       transform="matrix(0.91044202,0,0,0.91044202,363.62715,148.44795)"
       id="g1005">
      <path
         style="fill:none;stroke:#e8ffe8;stroke-width:10.20472431;stroke-miterlimit:4;stroke-dasharray:none;stroke-opacity:1"
         d="m 229.89306,376.27613 c 22.16176,-12.4737 36.40344,-39.74546 36.40344,-69.80757 v 0 c 0,-40.74447 -25.76671,-74.07289 -58.31701,-76.59489"
         id="path131"
         inkscape:connector-curvature="0" />
      <path
         style="fill:none;stroke:#e8ffe8;stroke-width:7.29800415;stroke-miterlimit:4;stroke-dasharray:none;stroke-opacity:1"
         inkscape:connector-curvature="0"
         id="path31"
         d="m 327.5,297.80454 v 0 c 0,-44.964 -34.474,-81.414 -77,-81.414 -42.526,0 -77,36.45 -77,81.414 0,11.435 2.278,22.742 6.687,33.185 v 0 c 17.334,41.058 62.866,59.485 101.699,41.158 27.746,-13.095 45.614,-42.217 45.614,-74.343" />
      <path
         sodipodi:nodetypes="cccc"
         style="fill:none;stroke:#e8ffe8;stroke-width:7.29800415;stroke-miterlimit:4;stroke-dasharray:none;stroke-opacity:1"
         d="m 259.51068,377.73044 c 12.4854,-16.46703 26.46287,-34.73372 24.29084,-66.17195 v 0 C 280.85768,268.9489 261.90336,239.9696 213.12908,227.15812"
         id="path131-8"
         inkscape:connector-curvature="0" />
      <path
         sodipodi:nodetypes="cccc"
         style="fill:none;stroke:#e8ffe8;stroke-width:7.29800415;stroke-miterlimit:4;stroke-dasharray:none;stroke-opacity:1"
         d="m 287.60417,368.79245 c 12.91498,-26.79545 17.31582,-41.5097 13.61424,-72.10455 v 0 c -5.0169,-44.03799 -49.20408,-69.90177 -82.00383,-72.96281"
         id="path131-8-0"
         inkscape:connector-curvature="0" />
      <path
         sodipodi:nodetypes="cccc"
         style="fill:none;stroke:#e8ffe8;stroke-width:7.29800415;stroke-miterlimit:4;stroke-dasharray:none;stroke-opacity:1"
         d="m 314.31876,344.57756 c 6.456,-30.75966 4.13431,-47.2653 -1.5374,-65.5982 v 0 c -11.89081,-31.11112 -47.13674,-62.85402 -82.01513,-59.90175"
         id="path131-8-0-2"
         inkscape:connector-curvature="0" />
    </g>
  </g>
</svg>
