<?xml version="1.0" encoding="UTF-8" standalone="no"?>
<!DOCTYPE svg PUBLIC "-//W3C//DTD SVG 1.1//EN" "http://www.w3.org/Graphics/SVG/1.1/DTD/svg11.dtd">
<!--Generated by Intaglio, www.PurgatoryDesign.com-->
<svg version="1.1" viewBox="0,0,783,559" width="783" height="559" xmlns="http://www.w3.org/2000/svg" xmlns:xlink="http://www.w3.org/1999/xlink"><g id="fond"><path fill="#000" stroke="#000100" stroke-width="1.00063" d="M4,5 L779,5 L779,556 L4,556 L4,5 Z"/></g><g id="img"><image xlink:href="7f9499d21030.jpeg" width="360" height="360" transform="matrix(2.22045e-16,-1,1,2.22045e-16,44,482)"/></g><g id="Layer 2"><path fill="#9726ff" stroke="#01ff02" stroke-width="5.66929" d="M126,371.807 L86,374.807"/><path fill="#9726ff" stroke="#01ff02" stroke-width="5.66929" d="M126,226.602 L86,229.602"/><path fill="#9726ff" stroke="#01ff02" stroke-width="5.66929" d="M207.5,157 L247.5,154"/><path fill="#9726ff" stroke="#01ff02" stroke-width="5.66929" d="M207.5,447.409 L247.5,444.409"/><path fill="#9726ff" stroke="#01ff02" stroke-width="5.66929" d="M207.5,157 L86,229.602"/><path fill="#9726ff" stroke="#01ff02" stroke-width="5.66929" d="M207.5,157 L86,229.602"/><path fill="#9726ff" stroke="#01ff02" stroke-width="5.66929" d="M86,229.602 L86,374.807"/><path fill="#9726ff" stroke="#01ff02" stroke-width="5.66929" d="M86,374.807 L207.5,447.409"/><path fill="none" stroke="#01ff02" stroke-width="5.66929" d="M126,371.807 L247.5,444.409 L369,371.807 L369,226.602 L247.5,154 L126,226.602"/><path fill="#9726ff" stroke="#01ff02" stroke-width="5.66929" d="M126,226.602 L126,371.807"/><path fill="none" stroke="#01ff02" stroke-width="5.66929" d="M369,299.301 C369,367.618,314.603,423,247.5,423 C180.397,423,126,367.618,126,299.301 C126,230.984,180.397,175.602,247.5,175.602 C314.603,175.602,369,230.984,369,299.301 Z"/></g><g id="Layer 4"><path fill="none" stroke="#01ff02" stroke-width="5.66929" d="M327.5,297.801 L327.5,297.801 C327.5,342.765,293.026,379.215,250.5,379.215 C207.974,379.215,173.5,342.765,173.5,297.801 C173.5,286.366,175.778,275.059,180.187,264.616 L180.187,264.616 C197.521,223.558,243.053,205.131,281.886,223.458 C309.632,236.553,327.5,265.675,327.5,297.801"/><path fill="none" stroke="#01ff02" stroke-width="5.66929" d="M266.5,305.86 L210.637,235.495 M210.637,235.495 L207.575,231.638 C216.06,233.67,224.135,237.118,231.454,241.834 M231.454,241.834 L220.907,375.574 C182.08,392.775,136.542,375.506,119.196,337.004 C101.851,298.501,119.265,253.345,158.093,236.145 C173.631,229.262,191.032,227.677,207.575,231.638 M207.575,231.638 L266.5,305.86 C266.5,335.981,248.642,363.288,220.907,375.574 L231.454,241.834 C253.312,255.917,266.5,280.011,266.5,305.86"/></g></svg>
