<?xml version="1.0" encoding="UTF-8" standalone="no"?>
<!-- Created with Inkscape (http://www.inkscape.org/) -->

<svg
   xmlns:dc="http://purl.org/dc/elements/1.1/"
   xmlns:cc="http://creativecommons.org/ns#"
   xmlns:rdf="http://www.w3.org/1999/02/22-rdf-syntax-ns#"
   xmlns:svg="http://www.w3.org/2000/svg"
   xmlns="http://www.w3.org/2000/svg"
   xmlns:xlink="http://www.w3.org/1999/xlink"
   xmlns:sodipodi="http://sodipodi.sourceforge.net/DTD/sodipodi-0.dtd"
   xmlns:inkscape="http://www.inkscape.org/namespaces/inkscape"
   width="210mm"
   height="297mm"
   viewBox="0 0 210 297"
   version="1.1"
   id="svg8"
   inkscape:version="0.92.1 r15381"
   sodipodi:docname="pythLT.svg">
  <defs
     id="defs2">
    <color-profile
       name="Adobe-RGB--1998-"
       xlink:href="/Library/ColorSync/Profiles/Profiles/Recommended/AdobeRGB1998.icc"
       id="color-profile2" />
  </defs>
  <sodipodi:namedview
     id="base"
     pagecolor="#000000"
     bordercolor="#666666"
     borderopacity="1.0"
     inkscape:pageopacity="0"
     inkscape:pageshadow="2"
     inkscape:zoom="0.49497475"
     inkscape:cx="508.61646"
     inkscape:cy="476.62797"
     inkscape:document-units="mm"
     inkscape:current-layer="svg8"
     showgrid="false"
     inkscape:snap-global="false"
     inkscape:window-width="1276"
     inkscape:window-height="755"
     inkscape:window-x="0"
     inkscape:window-y="23"
     inkscape:window-maximized="1"
     inkscape:pagecheckerboard="true" />
  <metadata
     id="metadata5">
    <rdf:RDF>
      <cc:Work
         rdf:about="">
        <dc:format>image/svg+xml</dc:format>
        <dc:type
           rdf:resource="http://purl.org/dc/dcmitype/StillImage" />
        <dc:title></dc:title>
        <cc:license
           rdf:resource="http://creativecommons.org/licenses/by-nc/4.0/" />
      </cc:Work>
      <cc:License
         rdf:about="http://creativecommons.org/licenses/by-nc/4.0/">
        <cc:permits
           rdf:resource="http://creativecommons.org/ns#Reproduction" />
        <cc:permits
           rdf:resource="http://creativecommons.org/ns#Distribution" />
        <cc:requires
           rdf:resource="http://creativecommons.org/ns#Notice" />
        <cc:requires
           rdf:resource="http://creativecommons.org/ns#Attribution" />
        <cc:prohibits
           rdf:resource="http://creativecommons.org/ns#CommercialUse" />
        <cc:permits
           rdf:resource="http://creativecommons.org/ns#DerivativeWorks" />
      </cc:License>
    </rdf:RDF>
  </metadata>
  <g
     inkscape:groupmode="layer"
     id="layer2"
     inkscape:label="Layer 2" />
  <path
     style="fill:none;fill-opacity:1;fill-rule:evenodd;stroke:#000000;stroke-width:0.27043143px;stroke-linecap:butt;stroke-linejoin:miter;stroke-opacity:1"
     d="m 93.750428,79.848549 10.782892,6.986668 -7.228651,10.26662 -10.354406,-7.932269 z"
     id="path4608" />
  <path
     style="fill:none;fill-opacity:1;fill-rule:evenodd;stroke:#000000;stroke-width:0.27043143px;stroke-linecap:butt;stroke-linejoin:miter;stroke-opacity:1"
     d="m 110.99266,89.777187 10.97056,7.589272 -8.83385,11.168481 -10.55492,-7.80465 z"
     id="path4606" />
  <path
     style="fill:none;fill-opacity:1;fill-rule:evenodd;stroke:#000000;stroke-width:0.27043143px;stroke-linecap:butt;stroke-linejoin:miter;stroke-opacity:1"
     d="m 126.87276,100.08262 -8.01703,10.76297 10.4111,8.18584 7.95652,-11.03049 c -3.406,-2.68502 -9.52622,-6.98233 -10.35059,-7.91832 z"
     id="path4604" />
  <path
     style="fill:none;fill-opacity:1;fill-rule:evenodd;stroke:#000000;stroke-width:0.27043143px;stroke-linecap:butt;stroke-linejoin:miter;stroke-opacity:1"
     d="m 82.71605,94.345578 12.47977,8.050982 -8.664005,11.70373 -11.458066,-8.96768 z"
     id="path4602" />
  <path
     style="fill:none;fill-opacity:1;fill-rule:evenodd;stroke:#000000;stroke-width:0.27043143px;stroke-linecap:butt;stroke-linejoin:miter;stroke-opacity:1"
     d="m 100.17581,106.98245 10.31153,7.92645 -9.09023,10.7723 -10.398859,-7.79753 z"
     id="path4600" />
  <path
     style="fill:none;fill-opacity:1;fill-rule:evenodd;stroke:#000000;stroke-width:0.27043143px;stroke-linecap:butt;stroke-linejoin:miter;stroke-opacity:1"
     d="m 115.47691,119.07058 -8.37886,9.80887 10.41968,8.44885 8.04087,-11.22906 z"
     id="path4598" />
  <path
     style="fill:none;fill-opacity:1;fill-rule:evenodd;stroke:#000000;stroke-width:0.27043143px;stroke-linecap:butt;stroke-linejoin:miter;stroke-opacity:1"
     d="m 142.10386,110.83733 9.13231,6.64118 -7.69815,11.36288 -10.1905,-6.87571 z"
     id="path4596" />
  <path
     style="fill:none;fill-opacity:1;fill-rule:evenodd;stroke:#000000;stroke-width:0.27043143px;stroke-linecap:butt;stroke-linejoin:miter;stroke-opacity:1"
     d="m 156.33799,121.78033 9.2941,7.3715 -8.42871,11.05824 -9.75414,-7.03817 z"
     id="path4594" />
  <path
     style="fill:none;fill-opacity:1;fill-rule:evenodd;stroke:#000000;stroke-width:0.27043143px;stroke-linecap:butt;stroke-linejoin:miter;stroke-opacity:1"
     d="m 144.38455,139.44176 9.13166,7.30116 -7.44898,10.27408 -9.36724,-7.06334 z"
     id="path4592" />
  <path
     style="fill:none;fill-opacity:1;fill-rule:evenodd;stroke:#000000;stroke-width:0.27043143px;stroke-linecap:butt;stroke-linejoin:miter;stroke-opacity:1"
     d="m 130.37783,128.91686 10.0259,6.79235 -7.73585,11.41856 -10.10091,-7.0415 z"
     id="path4590" />
  <path
     style="fill:none;fill-opacity:1;fill-rule:evenodd;stroke:#000000;stroke-width:0.27043143px;stroke-linecap:butt;stroke-linejoin:miter;stroke-opacity:1"
     d="m 65.960982,111.93339 -0.391016,12.74169 -11.474908,-0.15029 0.736849,-13.17935 z"
     id="path4588" />
  <path
     style="fill:none;fill-opacity:1;fill-rule:evenodd;stroke:#000000;stroke-width:0.27043143px;stroke-linecap:butt;stroke-linejoin:miter;stroke-opacity:1"
     d="m 64.702526,131.44508 -1.078592,12.65538 -11.680939,0.12663 0.186998,-12.88165 z"
     id="path4586" />
  <path
     style="fill:none;fill-opacity:1;fill-rule:evenodd;stroke:#000000;stroke-width:0.27043143px;stroke-linecap:butt;stroke-linejoin:miter;stroke-opacity:1"
     d="m 64.080596,150.20501 -0.737462,13.25306 -12.231382,0.49804 0.268046,-13.38131 z"
     id="path4584" />
  <path
     style="fill:none;fill-opacity:1;fill-rule:evenodd;stroke:#000000;stroke-width:0.27043143px;stroke-linecap:butt;stroke-linejoin:miter;stroke-opacity:1"
     d="m 48.405565,110.96369 -0.349068,12.95985 -12.878823,0.0725 0.438244,-13.63253 z"
     id="path4582" />
  <path
     style="fill:none;fill-opacity:1;fill-rule:evenodd;stroke:#000000;stroke-width:0.27043143px;stroke-linecap:butt;stroke-linejoin:miter;stroke-opacity:1"
     d="m 29.079787,109.75405 0.102621,13.07609 -12.199037,-0.38994 0.311793,-12.60564 z"
     id="path4580" />
  <path
     style="fill:none;fill-opacity:1;fill-rule:evenodd;stroke:#000000;stroke-width:0.27043143px;stroke-linecap:butt;stroke-linejoin:miter;stroke-opacity:1"
     d="m 27.414958,129.64933 0.09713,13.67312 -10.609452,0.5102 0.948907,-14.3863 z"
     id="path4578" />
  <path
     style="fill:none;fill-opacity:1;fill-rule:evenodd;stroke:#000000;stroke-width:0.27043143px;stroke-linecap:butt;stroke-linejoin:miter;stroke-opacity:1"
     d="m 33.930168,130.52763 -1.029942,13.96484 13.679815,-0.57489 0.268058,-13.38132 z"
     id="path4576" />
  <path
     style="fill:none;fill-opacity:1;fill-rule:evenodd;stroke:#000000;stroke-width:0.27043143px;stroke-linecap:butt;stroke-linejoin:miter;stroke-opacity:1"
     d="m 45.09759,150.19254 0.591471,13.16758 -12.747699,-0.25991 -0.242633,-12.62754 z"
     id="path4574" />
  <path
     style="fill:none;fill-opacity:1;fill-rule:evenodd;stroke:#000000;stroke-width:0.27043143px;stroke-linecap:butt;stroke-linejoin:miter;stroke-opacity:1"
     d="m 26.774717,149.81257 -0.71736,12.35401 -10.496536,-0.0372 0.844169,-12.02928 z"
     id="path4572" />
  <path
     style="fill:none;fill-opacity:1;fill-rule:evenodd;stroke:#000000;stroke-width:0.27043143px;stroke-linecap:butt;stroke-linejoin:miter;stroke-opacity:1"
     d="m 126.30896,20.700254 81.89114,54.990767 -61.08437,88.276949 1.10081,88.21447 -85.021398,3.30995 0.785,-85.66503 -54.5574313,-0.97246 3.5842763,-63.7846 54.812847,1.06719 z"
     id="path4570" />
  <path
     style="fill:none;fill-opacity:1;fill-rule:evenodd;stroke:#000000;stroke-width:0.27043143px;stroke-linecap:butt;stroke-linejoin:miter;stroke-opacity:1"
     d="m 74.614712,114.13306 64.370518,46.59458 -67.464845,0.77017 z"
     id="path4568" />
  <path
     style="fill:none;fill-opacity:1;fill-rule:evenodd;stroke:#000000;stroke-width:0.27043143px;stroke-linecap:butt;stroke-linejoin:miter;stroke-opacity:1"
     d="m 106.05585,61.476487 10.24422,7.618617 -7.74783,11.314706 -11.107874,-7.24442 z"
     id="path4566" />
  <path
     style="fill:none;fill-opacity:1;fill-rule:evenodd;stroke:#000000;stroke-width:0.27043143px;stroke-linecap:butt;stroke-linejoin:miter;stroke-opacity:1"
     d="m 121.48298,71.785557 10.67291,7.709154 -7.73609,10.686001 -10.6348,-7.765419 z"
     id="path4564" />
  <path
     style="fill:none;fill-opacity:1;fill-rule:evenodd;stroke:#000000;stroke-width:0.27043143px;stroke-linecap:butt;stroke-linejoin:miter;stroke-opacity:1"
     d="m 137.24422,83.627677 10.93056,7.965433 -8.62864,10.39903 -10.31011,-7.429041 z"
     id="path4562" />
  <path
     style="fill:none;fill-opacity:1;fill-rule:evenodd;stroke:#000000;stroke-width:0.27043143px;stroke-linecap:butt;stroke-linejoin:miter;stroke-opacity:1"
     d="m 152.83796,94.849066 10.28693,7.810634 -8.12536,10.48255 -10.1067,-8.24951 z"
     id="path4560" />
  <path
     style="fill:none;fill-opacity:1;fill-rule:evenodd;stroke:#000000;stroke-width:0.27043143px;stroke-linecap:butt;stroke-linejoin:miter;stroke-opacity:1"
     d="m 168.49717,105.18461 8.71696,7.3069 -7.79432,10.41438 -9.10028,-7.28633 z"
     id="path4558" />
  <path
     style="fill:none;fill-opacity:1;fill-rule:evenodd;stroke:#000000;stroke-width:0.27043143px;stroke-linecap:butt;stroke-linejoin:miter;stroke-opacity:1"
     d="m 181.14229,88.795509 8.08522,6.512825 -7.47994,10.132176 -8.4054,-6.487398 z"
     id="path4556" />
  <path
     style="fill:none;fill-opacity:1;fill-rule:evenodd;stroke:#000000;stroke-width:0.27043143px;stroke-linecap:butt;stroke-linejoin:miter;stroke-opacity:1"
     d="m 167.83349,97.311847 7.6814,-11.338202 -9.77385,-6.689643 -7.82797,11.026578 z"
     id="path4554" />
  <path
     style="fill:none;fill-opacity:1;fill-rule:evenodd;stroke:#000000;stroke-width:0.27043143px;stroke-linecap:butt;stroke-linejoin:miter;stroke-opacity:1"
     d="m 161.77916,75.968026 -8.8509,11.133855 -10.41147,-7.628865 8.86449,-11.391132 z"
     id="path4552" />
  <path
     style="fill:none;fill-opacity:1;fill-rule:evenodd;stroke:#000000;stroke-width:0.27043143px;stroke-linecap:butt;stroke-linejoin:miter;stroke-opacity:1"
     d="m 137.33749,74.852065 7.67663,-11.331128 -10.4313,-7.135001 -7.83967,11.008464 z"
     id="path4550" />
  <path
     style="fill:none;fill-opacity:1;fill-rule:evenodd;stroke:#000000;stroke-width:0.27043143px;stroke-linecap:butt;stroke-linejoin:miter;stroke-opacity:1"
     d="m 120.54518,62.262447 7.69007,-11.350965 -10.86416,-6.634468 -7.80847,11.058161 z"
     id="path4548" />
  <path
     style="fill:none;fill-opacity:1;fill-rule:evenodd;stroke:#000000;stroke-width:0.27043143px;stroke-linecap:butt;stroke-linejoin:miter;stroke-opacity:1"
     d="m 127.23838,28.093856 11.01672,6.986942 -6.80909,11.650166 -11.68915,-8.164934 z"
     id="path4546" />
  <path
     style="fill:none;fill-opacity:1;fill-rule:evenodd;stroke:#000000;stroke-width:0.27043143px;stroke-linecap:butt;stroke-linejoin:miter;stroke-opacity:1"
     d="m 145.54874,40.133882 11.37711,8.185599 -7.15104,10.715849 -12.3939,-8.120306 z"
     id="path4544" />
  <path
     style="fill:none;fill-opacity:1;fill-rule:evenodd;stroke:#000000;stroke-width:0.27043143px;stroke-linecap:butt;stroke-linejoin:miter;stroke-opacity:1"
     d="m 162.88391,53.144914 10.03819,7.923421 -7.12328,10.050263 -10.55436,-8.553797 z"
     id="path4542" />
  <path
     style="fill:none;fill-opacity:1;fill-rule:evenodd;stroke:#000000;stroke-width:0.27043143px;stroke-linecap:butt;stroke-linejoin:miter;stroke-opacity:1"
     d="m 178.52154,62.683944 9.48055,6.779061 -7.68756,11.407281 -9.28851,-7.6187 z"
     id="path4540" />
  <path
     style="fill:none;fill-opacity:1;fill-rule:evenodd;stroke:#000000;stroke-width:0.27043143px;stroke-linecap:butt;stroke-linejoin:miter;stroke-opacity:1"
     d="m 192.70926,72.065917 7.61435,5.782634 -7.35408,10.382215 -7.70693,-5.698441 z"
     id="path4538" />
  <path
     style="fill:none;fill-opacity:1;fill-rule:evenodd;stroke:#000000;stroke-width:0.27043143px;stroke-linecap:butt;stroke-linejoin:miter;stroke-opacity:1"
     d="m 140.00761,168.01056 0.55466,13.68433 -13.91678,0.54131 0.028,-13.32723 z"
     id="path4536" />
  <path
     style="fill:none;fill-opacity:1;fill-rule:evenodd;stroke:#000000;stroke-width:0.27043143px;stroke-linecap:butt;stroke-linejoin:miter;stroke-opacity:1"
     d="m 140.50797,188.74349 0.36817,15.22284 -12.31667,0.58126 -0.52775,-15.25564 z"
     id="path4534" />
  <path
     style="fill:none;fill-opacity:1;fill-rule:evenodd;stroke:#000000;stroke-width:0.27043143px;stroke-linecap:butt;stroke-linejoin:miter;stroke-opacity:1"
     d="m 141.23043,210.54403 0.23949,15.68109 -14.68603,0.60329 -0.02,-16.46346 z"
     id="path4532" />
  <path
     style="fill:none;fill-opacity:1;fill-rule:evenodd;stroke:#000000;stroke-width:0.27043143px;stroke-linecap:butt;stroke-linejoin:miter;stroke-opacity:1"
     d="m 141.13943,233.36257 0.5752,12.16842 -12.83076,0.58104 -0.18244,-12.61399 z"
     id="path4530" />
  <path
     style="fill:none;fill-opacity:1;fill-rule:evenodd;stroke:#000000;stroke-width:0.27043143px;stroke-linecap:butt;stroke-linejoin:miter;stroke-opacity:1"
     d="m 121.02783,232.90129 0.4997,14.38078 -14.57665,0.64974 -0.0336,-13.68939 z"
     id="path4528" />
  <path
     style="fill:none;fill-opacity:1;fill-rule:evenodd;stroke:#000000;stroke-width:0.27043143px;stroke-linecap:butt;stroke-linejoin:miter;stroke-opacity:1"
     d="m 120.31613,226.2642 -12.93816,0.98491 -0.40433,-14.07073 12.68901,-0.40434 z"
     id="path4526" />
  <path
     style="fill:none;fill-opacity:1;fill-rule:evenodd;stroke:#000000;stroke-width:0.27043143px;stroke-linecap:butt;stroke-linejoin:miter;stroke-opacity:1"
     d="m 120.30813,205.45873 -12.90488,0.47763 -0.39789,-15.17165 12.68899,-0.40434 z"
     id="path4524" />
  <path
     style="fill:none;fill-opacity:1;fill-rule:evenodd;stroke:#000000;stroke-width:0.27043143px;stroke-linecap:butt;stroke-linejoin:miter;stroke-opacity:1"
     d="m 119.92532,182.9247 -10.91161,0.98772 -0.54897,-14.2319 11.77688,-0.50853 z"
     id="path4522" />
  <path
     style="fill:none;fill-opacity:1;fill-rule:evenodd;stroke:#000000;stroke-width:0.27043143px;stroke-linecap:butt;stroke-linejoin:miter;stroke-opacity:1"
     d="m 102.23357,168.97658 0.17089,14.86372 -12.043886,-0.0897 -0.0954,-14.97271 z"
     id="path4520" />
  <path
     style="fill:none;fill-opacity:1;fill-rule:evenodd;stroke:#000000;stroke-width:0.27043143px;stroke-linecap:butt;stroke-linejoin:miter;stroke-opacity:1"
     d="m 100.30424,191.06697 0.2395,13.37825 -11.549825,0.55536 -0.170916,-13.9425 z"
     id="path4518" />
  <path
     style="fill:none;fill-opacity:1;fill-rule:evenodd;stroke:#000000;stroke-width:0.27043143px;stroke-linecap:butt;stroke-linejoin:miter;stroke-opacity:1"
     d="m 82.122876,170.98117 0.404374,12.68901 -12.400788,-0.0214 0.597626,-13.25171 z"
     id="path4516" />
  <path
     style="fill:none;fill-opacity:1;fill-rule:evenodd;stroke:#000000;stroke-width:0.27043143px;stroke-linecap:butt;stroke-linejoin:miter;stroke-opacity:1"
     d="m 82.742477,191.5281 0.04062,13.68409 -13.114472,0.11611 0.316253,-13.7527 z"
     id="path4514" />
  <path
     style="fill:none;fill-opacity:1;fill-rule:evenodd;stroke:#000000;stroke-width:0.27043143px;stroke-linecap:butt;stroke-linejoin:miter;stroke-opacity:1"
     d="m 81.256495,212.57781 0.748252,13.39865 -12.263553,0.69257 -0.109191,-14.04092 z"
     id="path4512" />
  <path
     style="fill:none;fill-opacity:1;fill-rule:evenodd;stroke:#000000;stroke-width:0.27043143px;stroke-linecap:butt;stroke-linejoin:miter;stroke-opacity:1"
     d="m 87.888731,212.07813 12.975649,0.10353 -1.105493,14.45949 -11.748602,0.62127 z"
     id="path4510" />
  <path
     style="fill:none;fill-opacity:1;fill-rule:evenodd;stroke:#000000;stroke-width:0.27043143px;stroke-linecap:butt;stroke-linejoin:miter;stroke-opacity:1"
     d="m 99.558804,233.49773 0.0397,14.49766 -13.287308,1.09411 -0.03537,-15.33351 z"
     id="path4508" />
  <path
     style="fill:none;fill-opacity:1;fill-rule:evenodd;stroke:#000000;stroke-width:0.27043143px;stroke-linecap:butt;stroke-linejoin:miter;stroke-opacity:1"
     d="m 80.859262,233.21011 0.341473,15.61992 -12.711895,-0.46868 0.259895,-14.80774 z"
     id="path4603" />
</svg>
